<?xml version="1.0" encoding="UTF-8"?>
<svg id="Camada_1" data-name="Camada 1" xmlns="http://www.w3.org/2000/svg" viewBox="0 0 153 143">
  <defs>
    <style>
      .cls-1 {
        fill: #8548ff;
      }
    </style>
  </defs>
  <path class="cls-1" d="m47.32,24.13c.92.56,1.21,1.4,1.15,2.45-.06,1.1,0,2.22-.02,3.32-.03,1.19-.7,1.92-1.72,1.92-1.02,0-1.67-.72-1.69-1.93-.02-1.19.04-2.39-.02-3.58-.05-1.03.31-1.76,1.26-2.19h1.02Z"/>
  <path class="cls-1" d="m78.5,95c1.52.9,3.02,1.42,4.79,1.33,2.81-.14,5.63-.04,8.45-.04h.95v-16.65c-1.11-.24-2.31-.23-3.18-.76-1.09-.67-.37-2.06-.63-3.11-1.06-.46-2.12-.93-3.19-1.36-.17-.07-.49.02-.65.15-.4.32-.72.73-1.1,1.06-.77.67-1.66.72-2.38.02-1.83-1.78-3.65-3.59-5.43-5.43-.7-.72-.67-1.63.02-2.38.44-.48.97-.87,1.39-1.24-.5-1.23-.89-2.29-1.36-3.32-.09-.2-.46-.41-.69-.4-3.03.17-3.2-.78-3.13-3.28.06-1.93,0-3.87.02-5.8,0-1.36.63-1.97,1.99-1.99,1.65-.03,1.65-.03,2.28-1.59.27-.65.57-1.29.94-2.14-.42-.36-.93-.73-1.36-1.18-.81-.84-.82-1.74,0-2.57,1.73-1.77,3.48-3.52,5.25-5.25.79-.77,1.82-.85,2.48,0,.97,1.26,1.85,1.13,3.21.59,1.42-.56,2-1.19,1.82-2.71-.12-1.01.66-1.7,1.7-1.71,2.5-.03,5.01-.03,7.51,0,1.09.01,1.85.7,1.71,1.79-.2,1.54.49,2.07,1.81,2.63,1.35.57,2.24.71,3.21-.57.66-.86,1.69-.79,2.48-.01,1.79,1.75,3.56,3.52,5.31,5.31.74.75.73,1.67,0,2.44-.44.47-.98.86-1.39,1.21.5,1.24.9,2.28,1.35,3.28.1.21.41.43.65.46.5.07,1.02,0,1.53.03.96.07,1.62.68,1.63,1.64.03,2.59.04,5.18,0,7.76-.02,1.01-.74,1.74-1.81,1.6-1.51-.19-2.21.4-2.52,1.8-.13.6-.5,1.14-.87,1.97.37.31.86.65,1.28,1.07.93.93.93,1.83.02,2.75-1.68,1.7-3.37,3.39-5.07,5.07-.91.9-1.81.87-2.76-.03-1.2-1.15-1.16-1.01-2.74-.53-1.55.47-2.38,1.15-2.13,2.92.13.9-.67,1.53-1.65,1.58-.65.03-1.31,0-2.09,0,0,.34,0,.64,0,.94,0,5.72,0,11.43,0,17.15,0,1.61-.59,2.2-2.22,2.2-2.87,0-5.74,0-8.78,0,.2.3.31.5.45.68,1.98,2.65,3.01,5.64,3.15,8.94.06,1.49-.59,2.19-2.05,2.19-9.1,0-18.2,0-27.31,0-1.45,0-2.06-.63-2.03-2.1.06-3.26,1.09-6.18,2.98-8.82.18-.25.36-.49.65-.89-.45,0-.75,0-1.04,0-4.18,0-8.36,0-12.54,0-1.82,0-2.35-.52-2.35-2.33,0-5.12,0-10.24,0-15.36,0-.26,0-.51.02-.77.09-.87.71-1.47,1.56-1.52.9-.05,1.62.48,1.77,1.38.09.53.07,1.08.07,1.61,0,4.15,0,8.31,0,12.46v1.11h1.09c4.3,0,8.59-.07,12.88.03,1.86.04,3.53-.27,5.12-1.33-1.9-2.27-2.02-4.97-1.45-7.71.71-3.41,3.94-5.67,7.46-5.44,3.34.22,6.15,2.88,6.55,6.24.3,2.5.09,4.89-1.62,6.91Zm1.28-49.24c.3.26.68.56,1.02.9.68.71.7,1.38.32,2.26-.72,1.63-1.4,3.27-2.04,4.94-.33.86-.83,1.32-1.75,1.35-.48.02-.95,0-1.46,0v4.24c.47,0,.87,0,1.26,0,1.19.01,1.58.42,2,1.56.57,1.57,1.23,3.1,1.93,4.62.45.98.44,1.62-.29,2.4-.32.34-.65.68-.89.94,1.01,1.03,1.94,1.98,3.04,3.11.22-.3.43-.65.7-.93.91-.92,1.49-.91,2.66-.36,1.45.69,2.95,1.3,4.47,1.84,1.14.41,1.59.87,1.61,2.08,0,.41,0,.82,0,1.29.79,0,1.44,0,2.09,0s1.35,0,2.09,0c0-.56-.02-1.02,0-1.47.04-1.03.48-1.49,1.44-1.86,1.64-.62,3.26-1.3,4.86-2.01.9-.4,1.53-.4,2.25.3.34.33.6.75.87,1.08,1.12-1.12,2.08-2.08,3.21-3.21-.34-.27-.75-.53-1.09-.87-.68-.69-.69-1.37-.29-2.26.72-1.63,1.39-3.28,2.03-4.94.33-.85.83-1.3,1.76-1.32.47-.01.95,0,1.47,0v-4.24c-.53,0-1,.01-1.48,0-.92-.03-1.42-.49-1.75-1.34-.64-1.66-1.32-3.31-2.04-4.94-.39-.87-.37-1.57.31-2.26.34-.34.75-.6,1.2-.95-1.03-1.02-1.87-1.85-2.72-2.68-.12-.12-.25-.22-.56-.48-.31.39-.57.81-.91,1.14-.72.69-1.35.7-2.25.29-1.6-.72-3.22-1.39-4.86-2.02-.96-.37-1.4-.82-1.44-1.86-.02-.47,0-.94,0-1.41h-4.18c0,.53.02,1.01,0,1.48-.05.89-.48,1.43-1.34,1.76-1.69.64-3.36,1.34-5.01,2.08-.8.36-1.49.34-2.12-.26-.36-.36-.65-.79-.94-1.14-1.11,1.11-2.07,2.07-3.15,3.15Zm5.4,62.32c-.97-6.52-6.91-11.18-13.27-10.51-5.7.6-11.23,5.93-10.9,10.51h24.17Zm-15.87-18.43c0,.31-.02.63,0,.94.11,1.91,1.62,3.42,3.51,3.52,1.9.1,3.61-1.21,3.87-3.1.13-.94.13-1.94-.04-2.87-.36-2-2.49-3.28-4.46-2.8-1.94.48-2.9,1.91-2.89,4.31Z"/>
  <path class="cls-1" d="m60.7,65.7c-4.16-.68-6.4-2.9-6.36-6.29.04-3.35,2.38-5.64,6.35-6.15v-7.79c-.33,0-.63,0-.94,0-2.9,0-5.8,0-8.7,0-1.65,0-2.36-1.02-1.8-2.59.46-1.3.12-2.51-.91-3.27-.93-.68-2.25-.68-3.19,0-1.03.75-1.37,1.97-.91,3.27.56,1.57-.15,2.58-1.82,2.58-2.87,0-5.75,0-8.62,0-.31,0-.61,0-1.04,0,0,.43,0,.78,0,1.14,0,1.68.02,3.36-.01,5.03-.02,1.13-.73,1.84-1.71,1.84-.99,0-1.68-.71-1.69-1.85-.02-2.56-.02-5.12,0-7.68.01-1.29.66-1.9,1.99-1.9,2.76-.01,5.52,0,8.28,0,.3,0,.61,0,.89,0,.84-4.36,2.9-6.41,6.32-6.36,3.36.04,5.43,2.16,6.15,6.36.29,0,.59,0,.9,0,2.76,0,5.52,0,8.28,0,1.34,0,2.01.65,2.01,1.99.02,3.73.02,7.45,0,11.18,0,1.59-1.07,2.28-2.58,1.75-1.31-.46-2.52-.14-3.28.89-.73,1-.73,2.28.01,3.25.78,1.02,1.96,1.33,3.29.86,1.51-.53,2.55.17,2.56,1.79.02,3.7.01,7.4,0,11.09,0,1.41-.64,2.03-2.05,2.03-3.7,0-7.4,0-11.09,0-1.61,0-2.33-1.04-1.79-2.54.47-1.32.17-2.51-.85-3.29-.95-.72-2.28-.73-3.26-.01-1.02.75-1.35,1.97-.88,3.28.54,1.52-.16,2.55-1.77,2.56-3.73,0-7.45,0-11.18,0-1.32,0-1.94-.61-1.95-1.93-.02-2.53-.02-5.06,0-7.6,0-1.14.66-1.87,1.64-1.9,1-.03,1.74.73,1.76,1.89.03,1.71,0,3.41,0,5.12,0,.31,0,.61,0,.96h7.82c.04-2.07.79-3.82,2.47-5.09,1.15-.87,2.45-1.27,3.9-1.23,3.25.1,5.11,2.02,6.05,6.33h7.71v-7.74Z"/>
  <path class="cls-1" d="m57.17,33.74c.09-.18.23-.63.52-.94,1.16-1.22,2.34-2.4,3.55-3.56.72-.7,1.7-.68,2.38-.03.69.67.72,1.69,0,2.44-1.16,1.21-2.36,2.39-3.56,3.56-.53.52-1.18.68-1.88.36-.66-.3-.99-.82-1.01-1.82Z"/>
  <path class="cls-1" d="m31.33,28.72c.22.13.67.31,1.01.62,1.15,1.1,2.28,2.23,3.38,3.37.78.8.8,1.81.09,2.51-.71.7-1.69.68-2.5-.11-1.16-1.13-2.3-2.29-3.44-3.44-.56-.56-.68-1.24-.36-1.96.29-.66.84-.97,1.82-.99Z"/>
  <path class="cls-1" d="m29.35,59.51c-.01-.94.7-1.7,1.63-1.74.94-.03,1.76.77,1.75,1.71,0,.92-.76,1.68-1.69,1.68-.93,0-1.68-.72-1.69-1.66Z"/>
  <path class="cls-1" d="m94.42,47.47c5.45-.01,9.9,4.41,9.9,9.85,0,5.4-4.41,9.83-9.82,9.85-5.46.02-9.91-4.37-9.94-9.81-.03-5.42,4.41-9.88,9.86-9.89Zm-.02,16.29c3.57.01,6.48-2.85,6.5-6.4.02-3.54-2.87-6.45-6.43-6.47-3.56-.02-6.48,2.85-6.5,6.4-.02,3.54,2.88,6.46,6.43,6.47Z"/>
</svg>