<?xml version="1.0" encoding="UTF-8"?>
<svg id="Camada_1" data-name="Camada 1" xmlns="http://www.w3.org/2000/svg" viewBox="0 0 153 143">
  <defs>
    <style>
      .cls-1 {
        fill: #8548ff;
      }
    </style>
  </defs>
  <path class="cls-1" d="m113.58,40.57c-2.18,2.46-4.91,3.99-8.2,4.69,0,.34,0,.68,0,1.01,0,5.98,0,11.96,0,17.93,0,2.9-1.65,4.55-4.56,4.55-5.78,0-11.56-.01-17.34.02-.48,0-1.06.21-1.44.51-2.33,1.87-4.61,3.8-6.9,5.72-.53.44-1.06.78-1.77.44-.7-.34-.8-.95-.8-1.65.02-1.65,0-3.29,0-5.04-1.16,0-2.26,0-3.36,0-1.59,0-3.19.02-4.78,0-2.39-.03-4.15-1.78-4.15-4.18-.01-8.14-.01-16.28,0-24.42,0-2.44,1.77-4.18,4.22-4.19,3.05-.01,6.09-.02,9.14.01.64,0,1.05-.13,1.35-.74.34-.71.8-1.38,1.21-2.06,1.29-2.09,3.13-3.41,5.56-3.9.13-.03.26-.1.39-.15,10.46,0,20.91,0,31.43,0v11.45Zm-28.04-1.67c-.03-.07-.06-.14-.09-.21h-.65c-6.66,0-13.32,0-19.99,0-1.34,0-1.79.45-1.79,1.79,0,6.06,0,12.13,0,18.19,0,.23.04.47.06.77.34-.19.59-.32.83-.46,3.39-2.03,6.8-4.04,10.16-6.12.94-.58,1.67-.55,2.56.07,3.48,2.37,7,4.68,10.49,7.03.43.29.76.33,1.23.09,2.07-1.07,4.19-2.05,6.24-3.16.97-.52,1.72-.44,2.59.17,1.53,1.09,3.11,2.1,4.68,3.14.23.15.46.28.74.44v-15.1c-2.75-.06-5.27-.75-7.61-2.11-.17-.1-.63.06-.82.24-1.99,1.95-3.95,3.94-5.94,5.9-.42.41-.89.81-1.41,1.09-2.03,1.12-4.56.56-5.98-1.27-1.43-1.84-1.32-4.45.33-6.17,1.42-1.48,2.91-2.88,4.37-4.32Zm7.23-3.21c-.32.24-.6.39-.82.61-2.86,2.85-5.72,5.71-8.58,8.56-.53.53-.9,1.11-.79,1.89.1.8.54,1.38,1.3,1.65.83.29,1.57.08,2.19-.54,2.09-2.09,4.2-4.17,6.28-6.28,2.05-2.1,1.98-1.81,4.11-.51,4.34,2.64,9.92,2.19,13.78-1.06.25-.21.58-.51.58-.77.04-2.44.03-4.88.03-7.39-.39,0-.7,0-1,0-3.73,0-7.46,0-11.18,0-5.09,0-10.19-.01-15.28,0-2.56,0-4.87,1.75-5.47,4.09,3.37,0,6.72,0,10.08-.02.27,0,.6-.17.79-.37.64-.64,1.24-1.32,1.87-2.01.74.74,1.34,1.35,2.12,2.14Zm-17.46,35.61c1.93-1.61,3.7-3.04,5.41-4.53.65-.56,1.32-.77,2.17-.77,5.92.03,11.84.01,17.76.01.28,0,.65.09.84-.04.43-.31.88-.68,1.11-1.14.25-.49-.03-.91-.55-1.24-1.92-1.22-3.81-2.49-5.68-3.78-.5-.35-.87-.33-1.38-.06-2.04,1.05-4.13,2.03-6.16,3.11-.92.49-1.65.45-2.51-.14-3.43-2.34-6.91-4.61-10.34-6.94-.53-.36-.9-.35-1.44-.02-3.4,2.07-6.79,4.15-10.25,6.13-.99.57-1.4,1.18-1.3,2.32.11,1.37.47,1.81,1.88,1.81,2.85,0,5.69,0,8.54,0,1.5,0,1.9.42,1.9,1.94,0,1.04,0,2.08,0,3.34Z"/>
  <path class="cls-1" d="m31.58,101.05c.48-.7,1.15-.87,1.98-.87,7.63.03,15.26.03,22.89,0,1.89,0,3.46.58,4.91,1.81.6.51,1.51.85,2.3.89,2.3.12,4.61.04,6.91.04.93,0,1.73-.31,2.39-.95,1.32-1.27,2.9-1.8,4.73-1.79,7.69.02,15.37,0,23.06.01,1.46,0,1.89.42,1.9,1.86,0,1.11,0,2.22,0,3.33-.01,2.87-1.54,4.86-4.3,5.6-.11.03-.21.09-.31.14h-61.84c-1.35-.4-2.64-.92-3.44-2.14-.47-.71-.79-1.53-1.17-2.3,0-1.88,0-3.76,0-5.64Zm68.33,1.92c-.21-.02-.32-.04-.43-.04-7.4,0-14.8,0-22.21,0-.96,0-1.75.39-2.44,1.04-1.21,1.15-2.67,1.69-4.34,1.69-2.25,0-4.5,0-6.75,0-1.64,0-3.08-.51-4.27-1.64-.83-.8-1.79-1.11-2.94-1.11-7.09.02-14.18.01-21.27.01-.3,0-.6,0-.95,0,0,.77,0,1.42,0,2.07,0,2.43.97,3.4,3.42,3.4,19.59,0,39.17,0,58.76,0,.28,0,.57.01.85,0,1.37-.1,2.47-1.17,2.55-2.54.05-.93,0-1.87,0-2.88Z"/>
  <path class="cls-1" d="m31.58,76.11c.59-1.57,1.52-2.79,3.26-3.14.39-.08.79-.1,1.19-.1,7.97,0,15.94,0,23.91,0,2.73,0,4.61,1.7,4.39,4.4-.2,2.39.5,4.13,2.36,5.57.89.69,1.62,1.6,2.43,2.39.51.5.93,1.03.61,1.8-.31.76-.95.89-1.68.87-1.19-.02-2.38,0-3.67,0,0,1.68,0,3.29,0,4.9,0,3.07-1.61,4.67-4.7,4.67-7.63,0-15.26-.06-22.88.03-2.56.03-4.35-.79-5.22-3.28v-18.11Zm33.35,9.05c.05-.07.1-.15.15-.22-.9-.86-1.78-1.73-2.7-2.57-.55-.5-.77-1.07-.74-1.81.04-1.08.02-2.16,0-3.24,0-1.23-.48-1.72-1.69-1.72-7.97,0-15.94,0-23.91,0-1.27,0-1.73.47-1.73,1.77,0,5.21,0,10.42,0,15.62,0,1.28.47,1.74,1.76,1.74,7.94,0,15.88,0,23.82,0,1.28,0,1.75-.47,1.75-1.75,0-2.08,0-4.16,0-6.23,0-1.07.51-1.56,1.57-1.58.57-.01,1.14,0,1.7,0Z"/>
  <path class="cls-1" d="m113.58,94.22c-.59,1.56-1.51,2.79-3.26,3.14-.44.09-.9.1-1.36.1-7.83,0-15.66,0-23.48,0-3.09,0-4.68-1.58-4.7-4.67,0-.23,0-.45,0-.8-1.25,0-2.46-.02-3.67,0-.73.01-1.37-.11-1.68-.87-.32-.77.1-1.29.61-1.8,1.42-1.4,2.84-2.79,4.21-4.24.29-.31.5-.82.51-1.24.05-2.22.02-4.44.03-6.66.01-2.6,1.74-4.32,4.35-4.32,7.74,0,15.49.05,23.23-.03,2.56-.03,4.35.79,5.22,3.28v18.11Zm-33.47-5.16c.04.07.08.14.12.21.56,0,1.13,0,1.69,0,1.07.02,1.57.51,1.59,1.56.01.71,0,1.42,0,2.13,0,1.29.47,1.76,1.73,1.77,7.97,0,15.94,0,23.9,0,1.21,0,1.69-.49,1.69-1.72,0-5.24,0-10.47,0-15.71,0-1.22-.48-1.7-1.71-1.7-7.97,0-15.94,0-23.9,0-1.23,0-1.71.47-1.71,1.7,0,2.48-.02,4.95,0,7.43,0,.71-.21,1.26-.73,1.74-.91.85-1.79,1.73-2.69,2.6Z"/>
  <path class="cls-1" d="m38.41,70.09h-2.68c-.02-.23-.05-.45-.05-.66,0-2.45-.01-4.89,0-7.34.02-4,2.97-6.97,6.95-6.99,4.72-.02,9.45,0,14.17,0,.22,0,.44,0,.7,0v2.73c-.3,0-.6,0-.9,0-4.52,0-9.05,0-13.57,0-3,0-4.62,1.63-4.62,4.66,0,2.5,0,5.01,0,7.61Z"/>
  <path class="cls-1" d="m41.18,68.7v-2.63h16.29v2.63h-16.29Z"/>
  <path class="cls-1" d="m41.18,63.25v-2.63h2.64v2.63h-2.64Z"/>
  <path class="cls-1" d="m46.68,60.59h2.62v2.66h-2.62v-2.66Z"/>
  <path class="cls-1" d="m52.12,63.24v-2.62h2.63v2.62h-2.63Z"/>
  <path class="cls-1" d="m70.53,41.43c2.63,0,4.78,2.15,4.78,4.78,0,2.62-2.17,4.79-4.78,4.78-2.65-.01-4.77-2.14-4.78-4.78-.01-2.61,2.16-4.78,4.78-4.78Zm2.04,4.78c0-1.12-.94-2.06-2.07-2.04-1.09.01-2,.91-2.02,2-.02,1.12.9,2.08,2.02,2.09,1.12,0,2.06-.92,2.07-2.05Z"/>
  <path class="cls-1" d="m42.55,81v-2.63h16.32v2.63h-16.32Z"/>
  <path class="cls-1" d="m42.58,83.81h16.26v2.66h-16.26v-2.66Z"/>
  <path class="cls-1" d="m58.84,91.96h-16.28v-2.66h16.28v2.66Z"/>
  <path class="cls-1" d="m39.71,81.03h-2.62v-2.66h2.62v2.66Z"/>
  <path class="cls-1" d="m37.11,83.83h2.61v2.66h-2.61v-2.66Z"/>
  <path class="cls-1" d="m39.74,89.31v2.63h-2.65v-2.63h2.65Z"/>
  <path class="cls-1" d="m108.07,83.86v2.63h-21.79v-2.63h21.79Z"/>
  <path class="cls-1" d="m86.31,89.28h21.73v2.66h-21.73v-2.66Z"/>
  <path class="cls-1" d="m99.87,78.39v2.63h-13.56v-2.63h13.56Z"/>
  <path class="cls-1" d="m102.71,78.36h5.35v2.66h-5.35v-2.66Z"/>
</svg>