<?xml version="1.0" encoding="UTF-8"?>
<svg id="Camada_1" data-name="Camada 1" xmlns="http://www.w3.org/2000/svg" viewBox="0 0 153 143">
  <defs>
    <style>
      .cls-1 {
        fill: #8548ff;
      }
    </style>
  </defs>
  <path class="cls-1" d="m119.27,37.32v54.23c-.83,3.48-3.41,5.3-7.52,5.23-8.91-.14-17.82-.04-26.73-.04h-1.09v6.15c.3,0,.55,0,.8,0,1.79.02,2.23.44,2.23,2.19,0,1.6-.05,3.21.02,4.81.04.94-.2,1.68-.98,2.23h-28.85c-.32-.52-.89-1.02-.91-1.56-.11-2.04-.07-4.1-.03-6.14.02-.91.61-1.47,1.53-1.52.5-.03.99,0,1.46,0v-6.16h-1.23c-9.25,0-18.5,0-27.75,0-2.73,0-4.99-1.54-5.92-3.95-.13-.35-.27-.7-.41-1.05,0-18.21,0-36.41,0-54.62.38-.8.68-1.64,1.15-2.38.89-1.42,2.33-2.1,3.85-2.62,28.4,0,56.79,0,85.19,0,.86.38,1.78.67,2.58,1.16,1.48.92,2.17,2.41,2.62,4.04ZM26.96,84.37h89.23c0-.39,0-.7,0-1.02,0-14.81,0-29.61,0-44.42,0-2.6-1.13-3.72-3.76-3.72-27.24,0-54.48,0-81.72,0-2.64,0-3.75,1.1-3.75,3.72,0,14.77,0,29.55,0,44.32,0,.35,0,.7,0,1.12Zm0,3.18c0,.84,0,1.57,0,2.31,0,2.74,1.09,3.81,3.86,3.81,27.18,0,54.35,0,81.53,0,.32,0,.64.01.96,0,1.39-.1,2.64-1.1,2.8-2.48.14-1.19.03-2.4.03-3.63H26.96Zm35.43,15.28h18.34v-6.03h-18.34v6.03Zm21.45,3.21h-24.49v2.97h24.49v-2.97Z"/>
  <path class="cls-1" d="m95.43,56.86c2.34-2.33,4.65-4.54,6.84-6.88,1.09-1.16,2.36-1.07,3.62-.78.44.1,1,.9,1.02,1.4.1,2.56.08,5.13.01,7.69-.01.47-.39,1.01-.74,1.38-1.28,1.34-2.61,2.62-3.93,3.92,0,.12,0,.24,0,.36.52.16,1.06.5,1.56.45,1.62-.17,2.8.39,3.86,1.61,1.17,1.35,2.53,2.55,3.78,3.83,2.18,2.24,2.21,5.33.07,7.57-.77.81-1.57,1.61-2.38,2.38-2.21,2.11-5.31,2.1-7.5-.04-1.61-1.56-3.15-3.2-4.78-4.74-.9-.85-.59-1.88-.7-2.87-.06-.55-.27-1.08-.43-1.69-.9.38-1.2.84-1.09,1.52.27,1.68-.38,2.92-1.65,4.02-1.31,1.13-2.46,2.43-3.69,3.65-2.34,2.3-5.49,2.35-7.75-.03-.97-1.01-1.94-1.37-3.33-1.37-15.29.05-30.57.03-45.86.03-1.92,0-2.33-.41-2.33-2.28,0-10.8,0-21.6,0-32.4,0-1.82.43-2.24,2.28-2.24,17.98,0,35.96,0,53.93,0,1.82,0,2.25.43,2.25,2.27,0,1.89-.01,3.78.01,5.67,0,.32.1.72.31.94,2.15,2.19,4.34,4.36,6.6,6.62Zm-46.85-6.25v18.38h21.39v-18.38h-21.39Zm-3.17.04h-12.22v18.33h12.22v-18.33Zm27.78-.02v18.42c.99,0,1.92,0,2.84,0,1.38,0,2.91.35,4.08-.14,1.18-.49,2.08-1.76,2.97-2.81,1.08-1.27,2.31-1.96,4.01-1.67.68.12,1.16-.16,1.49-.93-.88-.84-1.71-1.78-2.69-2.55-1.6-1.26-2.24-2.78-2.04-4.83.18-1.8.04-3.63.04-5.48h-10.7Zm13.78,2.12c0,1.52.03,2.76-.01,4-.02.62.17,1.07.61,1.51,3.35,3.31,6.62,6.7,10.02,9.95,1.23,1.18,1.94,2.38,1.71,4.1-.05.34.14.83.39,1.09,1.32,1.39,2.69,2.75,4.06,4.09,1.08,1.06,2.28,1.04,3.39-.03.69-.67,1.37-1.35,2.04-2.04,1.16-1.19,1.16-2.33,0-3.52-1.03-1.05-2.15-2.03-3.1-3.14-.84-.98-1.78-1.46-3.07-1.26-.9.14-1.58-.23-2.21-.89-1.42-1.48-2.89-2.91-4.34-4.36-3.1-3.1-6.2-6.21-9.49-9.51Zm6.14,15.83c-.9-.97-1.65-1.78-2.48-2.67-.82,1.6-2.28,1.71-3.86,1.63-.38-.02-.87.19-1.16.46-1.35,1.28-2.65,2.6-3.95,3.92-1.16,1.18-1.15,2.31.03,3.51.65.66,1.3,1.32,1.97,1.97,1.17,1.14,2.36,1.15,3.53.01,1.03-1.01,1.98-2.11,3.07-3.03,1.05-.88,1.55-1.87,1.33-3.23-.13-.82.17-1.51.83-2.03.28-.22.56-.43.69-.54Zm6.97-7.09c1.23-1.24,2.4-2.41,3.56-3.59.11-.11.23-.26.24-.39.02-1.5.01-3.01.01-4.29-1.99,1.99-4.01,4.01-6.03,6.03.63.64,1.37,1.39,2.22,2.25Zm-20.85-16.98h-2.96v2.96h2.96v-2.96Zm-9.13-.05v2.99h2.94v-2.99h-2.94Zm-3.21,3.02v-2.99h-2.95v2.99h2.95Zm-9.09-3v2.99h2.95v-2.99h-2.95Zm-6.15-.02v2.99h2.92v-2.99h-2.92Zm33.73.05h-2.99v2.95h2.99v-2.95Zm-39.88-.05v2.99h2.92v-2.99h-2.92Zm-9.35,27.72h-2.97v2.96h2.97v-2.96Zm3.18,0v2.96h2.95v-2.96h-2.95Zm9.09,3.01v-2.99h-2.92v2.99h2.92Zm6.22-3h-2.99v2.94h2.99v-2.94Zm3.15-.01v2.97h2.95v-2.97h-2.95Zm9.12,2.98v-2.96h-2.95v2.96h2.95Zm6.13.03v-2.99h-2.92v2.99h2.92Zm-33.75-27.73h2.99v-2.94h-2.99v2.94Zm-3.14.02v-2.98h-2.96v2.98h2.96Zm40.1,24.7v2.99h1.57v-2.99h-1.57Z"/>
  <path class="cls-1" d="m53.12,59.82c0-1.44-.01-2.88,0-4.33.02-1.55,1.06-2.22,2.45-1.55,2.93,1.44,5.84,2.91,8.76,4.37.65.32,1.23.81,1.04,1.54-.14.54-.58,1.18-1.06,1.43-2.88,1.52-5.81,2.96-8.74,4.4-1.38.68-2.43,0-2.45-1.54-.02-1.44,0-2.88,0-4.33Zm7.32,0c-1.51-.75-2.83-1.41-4.17-2.08v4.17c1.38-.69,2.66-1.33,4.17-2.09Z"/>
  <path class="cls-1" d="m101.4,71.57c.62-.61,1.3-1.28,1.9-1.87,1.5,1.5,3,3.01,4.54,4.54-.58.56-1.28,1.24-1.92,1.85-1.49-1.49-2.99-2.99-4.52-4.52Z"/>
  <path class="cls-1" d="m84.87,76.11c-.58-.62-1.25-1.33-1.86-1.99,1.45-1.45,2.94-2.94,4.47-4.46.58.66,1.23,1.38,1.81,2.03-1.38,1.38-2.88,2.89-4.41,4.42Z"/>
</svg>