<?xml version="1.0" encoding="UTF-8"?>
<svg id="Camada_1" data-name="Camada 1" xmlns="http://www.w3.org/2000/svg" viewBox="0 0 153 143">
  <defs>
    <style>
      .cls-1 {
        fill: #8548ff;
      }
    </style>
  </defs>
  <path class="cls-1" d="m62.96,104.11h-23.35s-.08-.1-.13-.11c-5.77-1.42-8.49-4.9-8.49-10.85,0-13.64,0-27.29,0-40.93,0-.36.04-.73-.06-1.07-1.1-3.9-2.23-7.8-3.35-11.69,0-.84,0-1.68,0-2.51.05-.11.12-.21.14-.33.83-4.34,3.44-7.02,7.65-8.23,14.56-4.21,29.13-8.43,43.69-12.64,4.15-1.2,8.31-2.39,12.46-3.58.78,0,1.56,0,2.33,0,.14.05.28.11.42.13,3.88.7,6.65,2.84,7.93,6.57,1.17,3.41,2.08,6.92,3.09,10.39.57,1.95.18,2.63-1.81,3.21-18.87,5.47-37.75,10.93-56.62,16.4-.29.08-.57.21-.85.32.01.04.03.08.04.12.33,0,.66,0,.99,0,19.65,0,39.31,0,58.96,0,1.65,0,1.95.2,2.57,1.66v43.46c-.05.26-.11.51-.15.77-.59,4.24-2.94,7.04-6.95,8.46-.55.2-1.13.31-1.7.46h-23.35c-.17-.12-.34-.23-.5-.35-.62-.45-.87-1.06-.72-1.8.15-.74.64-1.21,1.38-1.37.35-.07.71-.07,1.07-.07,6.7,0,13.41,0,20.11,0,4.52,0,7.16-2.61,7.16-7.11,0-7.57,0-15.14,0-22.72,0-.32-.03-.64-.04-.97H34.58c0,.33,0,.6,0,.87,0,7.69,0,15.38,0,23.08,0,4.16,2.7,6.84,6.86,6.85,3.32,0,6.64,0,9.97,0,3.59,0,7.18,0,10.77,0,1.25,0,2.02.58,2.13,1.6.11,1.02-.52,1.59-1.36,1.98Zm18.2-85.24c.46.33.75.49.99.72,3.65,3.49,7.33,6.96,10.91,10.52.96.96,1.77,1.26,3.07.76,1.74-.66,3.58-1.07,5.46-1.62-.98-3.27-1.82-6.47-2.91-9.59-.98-2.8-4.15-4.4-7.05-3.78-1.19.26-2.37.62-3.54.96-2.2.63-4.4,1.28-6.92,2.02Zm-47.19,29.98c5.35-1.55,10.55-3.06,15.79-4.57-.08-.14-.11-.23-.17-.29-4.16-4-8.32-8-12.5-11.99-.14-.13-.42-.22-.61-.18-3.42.6-5.92,4.07-5.15,7.42.73,3.19,1.72,6.33,2.63,9.62Zm70.91,4.12c-.16-.03-.27-.08-.38-.08-2.42,0-4.85-.03-7.27.02-.29,0-.68.33-.84.61-2.31,3.95-4.59,7.91-6.87,11.87-.11.19-.18.39-.28.62h15.64v-13.04Zm-70.24,13.09c2.48,0,4.9-.03,7.32.02.64.01.95-.23,1.24-.75,2.21-3.86,4.44-7.71,6.66-11.57.14-.24.27-.5.45-.84h-15.68v13.14Zm55.68-33.53c-.11-.19-.13-.25-.17-.29-4.14-3.98-8.27-7.96-12.43-11.92-.2-.19-.66-.26-.94-.18-2.73.76-5.45,1.57-8.17,2.37-.21.06-.4.15-.7.27,4.3,4.13,8.5,8.17,12.71,12.2.14.13.44.21.62.16,3.01-.85,6.01-1.72,9.09-2.61Zm-13.48,3.89c-.16-.19-.22-.29-.31-.37-4.1-3.94-8.19-7.88-12.32-11.8-.21-.2-.7-.26-1.01-.18-1.33.34-2.64.76-3.96,1.14-1.59.46-3.18.92-4.78,1.38.06.15.07.22.1.26,4.16,4.01,8.32,8.01,12.49,12,.16.15.5.25.7.19,2.98-.84,5.96-1.72,9.07-2.62Zm-35.94-5.91c.1.16.13.25.2.31,4.14,3.98,8.27,7.97,12.43,11.93.19.18.65.21.94.13,2.76-.77,5.51-1.57,8.27-2.37.18-.05.34-.15.52-.23-.07-.11-.1-.17-.14-.21-4.14-3.98-8.28-7.96-12.44-11.92-.18-.17-.59-.27-.83-.2-2.96.83-5.91,1.69-8.95,2.56Zm20.13,35.54c3.24,0,6.32.02,9.39-.03.29,0,.67-.33.83-.61,2.29-3.92,4.56-7.85,6.82-11.78.12-.21.22-.44.37-.76-3.13,0-6.11.02-9.1-.02-.61,0-.9.22-1.18.71-2.22,3.89-4.47,7.76-6.7,11.64-.13.23-.24.46-.44.84Zm14.13-.11c.14.05.22.1.3.1,3.02,0,6.05.03,9.07-.02.28,0,.66-.35.82-.63,2.29-3.92,4.56-7.86,6.83-11.8.11-.2.19-.41.33-.71-3.1,0-6.09.02-9.08-.02-.6,0-.9.22-1.18.71-2.22,3.9-4.48,7.77-6.72,11.66-.13.22-.24.46-.37.72Zm-10.75-13.07c-3.25,0-6.33-.02-9.4.03-.29,0-.67.33-.84.61-2.31,3.94-4.59,7.9-6.87,11.86-.11.19-.19.4-.31.68,3.1,0,6.09-.02,9.07.02.6,0,.9-.21,1.18-.71,2.22-3.89,4.47-7.77,6.71-11.65.13-.23.25-.46.46-.84Z"/>
  <path class="cls-1" d="m69.24,104.11c-.17-.12-.34-.23-.5-.35-.68-.5-.92-1.18-.68-1.97.25-.79.85-1.25,1.68-1.24.81,0,1.43.42,1.68,1.24.26.85-.01,1.52-.73,2.02-.17.12-.36.21-.54.31h-.9Z"/>
  <path class="cls-1" d="m62.78,84.91c0-2.87,0-5.75,0-8.62,0-2.03,1.34-2.82,3.08-1.82,5,2.88,10,5.76,14.99,8.65,1.74,1.01,1.74,2.56,0,3.58-4.99,2.89-9.99,5.78-14.99,8.65-1.75,1.01-3.07.22-3.08-1.82,0-2.87,0-5.75,0-8.62Zm13.99,0c-3.54-2.04-6.91-3.99-10.33-5.96v11.92c3.46-1.99,6.81-3.93,10.33-5.96Z"/>
</svg>