<?xml version="1.0" encoding="UTF-8"?>
<svg id="Camada_1" data-name="Camada 1" xmlns="http://www.w3.org/2000/svg" viewBox="0 0 153 143">
  <defs>
    <style>
      .cls-1 {
        fill: #8548ff;
      }
    </style>
  </defs>
  <path class="cls-1" d="m112.08,31.08v63.89s-.09.08-.1.13c-1.11,3.99-3.5,5.81-7.63,5.81-22.3,0-44.6,0-66.9,0-.36,0-.72,0-1.14,0,0,.41,0,.71,0,1.02,0,2.72-.03,5.43.02,8.15.01.85-.17,1.54-.87,2.05h-4.42c-.18-.06-.36-.14-.54-.19-2.42-.65-4.1-2.14-5-4.49-.16-.41-.27-.84-.41-1.27,0-21.3,0-42.59,0-63.89.04-.04.09-.08.1-.13,1.1-3.98,3.5-5.81,7.63-5.81,22.3,0,44.6,0,66.9,0,.36,0,.72,0,1.14,0,0-.41,0-.71,0-1.02,0-2.72.03-5.43-.02-8.15-.01-.85.17-1.54.87-2.05,1.47,0,2.95,0,4.42,0,.21.07.41.15.62.2,2.45.69,4.11,2.23,4.97,4.63.13.36.24.74.35,1.11Zm-11.22,8.1c-.46,0-.82,0-1.18,0-22.29,0-44.58,0-66.86,0-.31,0-.62,0-.93.01-2.29.13-4.02,1.97-3.98,4.25.04,2.27,1.82,4.07,4.11,4.13.74.02,1.47,0,2.21,0,1.7,0,2.08.39,2.08,2.11,0,15.75,0,31.49,0,47.24v1.16c.46,0,.82,0,1.18,0,22.29,0,44.58,0,66.86,0,.31,0,.62,0,.93-.01,2.29-.13,4.02-1.98,3.98-4.25-.04-2.28-1.82-4.07-4.11-4.12-.74-.02-1.47,0-2.21,0-1.7,0-2.08-.39-2.08-2.11,0-15.75,0-31.49,0-47.24v-1.16Zm2.85-11.12v58.79c1.97-.07,3.82.17,5.56,1.4,0-.52,0-.86,0-1.19,0-5.86,0-11.72,0-17.58,0-12.29,0-24.58,0-36.86,0-3.28-2.36-5.22-5.56-4.55ZM33.44,109.21v-58.8c-1.97.07-3.83-.16-5.51-1.39-.02.38-.05.6-.05.83,0,18.32,0,36.64,0,54.96,0,3.14,2.38,5.01,5.55,4.4Z"/>
  <path class="cls-1" d="m72.8,68.58c0-1.74,0-3.43,0-5.12,0-1.4.42-1.83,1.81-1.83,1.22,0,2.43,0,3.8,0,0-.37,0-.7,0-1.02.01-1.36.47-1.81,1.85-1.82,2.46,0,4.93,0,7.39,0,2.83,0,5.66,0,8.5,0,1.42,0,1.87.45,1.88,1.88,0,1.56,0,3.12,0,4.67,0,1.43-.46,1.89-1.88,1.89-5.3,0-10.59,0-15.89,0-1.39,0-1.85-.46-1.86-1.82,0-.3,0-.61,0-.96h-2.76v11.11h2.76c0-.4,0-.76,0-1.12.02-1.11.5-1.59,1.62-1.59,4.11,0,8.21,0,12.32,0,1.36,0,2.72,0,4.08,0,1.07,0,1.58.48,1.59,1.54.02,1.78.02,3.57,0,5.35-.01.97-.51,1.48-1.48,1.48-5.55.01-11.1.01-16.65,0-.97,0-1.44-.52-1.48-1.48-.01-.39,0-.78,0-1.23h-2.84c0,.33,0,.63,0,.93,0,3.57,0,7.14,0,10.7,0,2.06-.25,2.32-2.28,2.32-4.47,0-8.95,0-13.42,0h-1.14c0,.4,0,.72,0,1.05-.01,1.3-.49,1.77-1.81,1.77-1.33,0-2.66,0-3.99,0-3.96,0-7.93,0-11.89,0-1.48,0-1.92-.44-1.92-1.92,0-1.61-.01-3.23,0-4.84.01-1.16.5-1.67,1.66-1.67,5.44-.01,10.87-.01,16.31,0,1.16,0,1.63.52,1.64,1.69,0,.34,0,.67,0,1.07h5.56v-11.09h-5.56c0,.37,0,.73,0,1.09-.02,1.12-.49,1.61-1.6,1.62-1.98.02-3.96,0-5.95,0-3.4,0-6.8,0-10.19,0-1.45,0-1.87-.42-1.87-1.87,0-1.61-.01-3.23,0-4.84.01-1.22.48-1.67,1.72-1.68,5.38,0,10.76,0,16.14,0,1.29,0,1.74.45,1.76,1.72,0,.31,0,.61,0,1.01.35.02.65.04.95.04,1.9,0,3.79,0,5.69,0,1.29,0,1.8.51,1.8,1.82,0,3.74,0,7.48,0,11.21,0,.31,0,.61,0,.97h5.54v-18.13c-.31-.02-.64-.05-.96-.05-4.59,0-9.18,0-13.76,0-1.67,0-2.04-.38-2.04-2.06,0-1.1-.01-2.21-.02-3.31,0-.05-.04-.1-.13-.27-.38,0-.83.03-1.27,0-.86-.06-1.47-.57-1.38-1.4.29-2.48-.89-4.07-2.66-5.66-3.23-2.9-3.85-7.56-1.86-11.46,1.96-3.83,6.2-5.89,10.54-5.14,4.07.71,7.36,4.19,7.88,8.39.44,3.57-.74,6.55-3.5,8.82-1.41,1.16-2.19,2.48-2,4.32.03.25.02.51,0,.76-.09.86-.56,1.32-1.43,1.38-.42.03-.84,0-1.32,0v2.77h13.99Zm-14.06-5.6c0-2.63,1.39-4.42,3.3-6.02,2.94-2.47,3.1-7,.5-9.89-2.56-2.83-7-3.07-9.85-.52-3.2,2.87-3.13,7.84.19,10.6,1.22,1.01,2.29,2.12,2.75,3.68.21.69.29,1.42.43,2.15h2.69Zm-2.85,15.46v-2.75h-13.9v2.75h13.9Zm39.34-2.75h-13.96v2.7h13.96v-2.7Zm-13.93-14.02v2.67h13.88v-2.67h-13.88Zm-25.38,28.09h-13.95v2.64h13.95v-2.64Z"/>
  <path class="cls-1" d="m69.65,55.96c.22-.9.42-1.74.66-2.71,1.86.46,3.68.91,5.6,1.38-.22.91-.43,1.77-.66,2.72-1.88-.47-3.7-.92-5.6-1.39Z"/>
  <path class="cls-1" d="m44.38,50.34c-1.89-.47-3.69-.92-5.59-1.4.22-.91.43-1.77.66-2.72,1.88.47,3.7.92,5.6,1.39-.22.92-.43,1.76-.66,2.72Z"/>
  <path class="cls-1" d="m69.64,47.63c1.92-.48,3.71-.93,5.6-1.4.23.89.45,1.73.7,2.7-1.85.47-3.67.93-5.59,1.42-.23-.91-.45-1.77-.7-2.72Z"/>
  <path class="cls-1" d="m45.06,55.96c-1.93.48-3.73.92-5.6,1.39-.24-.94-.45-1.8-.68-2.71,1.89-.47,3.69-.92,5.59-1.39.23.9.45,1.76.69,2.71Z"/>
</svg>