<?xml version="1.0" encoding="UTF-8"?>
<svg id="Camada_1" data-name="Camada 1" xmlns="http://www.w3.org/2000/svg" viewBox="0 0 37.29 36.5">
  <defs>
    <style>
      .cls-1 {
        fill: #fff;
      }
    </style>
  </defs>
  <path class="cls-1" d="m7.57,7.14c7.7,0,15.39,0,23.09,0,.02.01.05.03.07.03,1.27.24,2.06,1.16,2.06,2.44,0,5.3,0,10.59,0,15.89,0,.37-.09.77-.25,1.1-.46.96-1.27,1.37-2.32,1.37-7.39,0-14.79,0-22.18,0-.07,0-.14,0-.21,0-.75-.03-1.37-.32-1.86-.9-.3-.36-.43-.79-.54-1.23,0-5.52,0-11.04,0-16.56.01-.04.04-.08.04-.12.1-.59.39-1.07.85-1.46.36-.31.8-.44,1.25-.55Zm.62,1.62c3.68,3.65,7.32,7.25,10.91,10.81,3.64-3.63,7.24-7.24,10.82-10.81H8.19Zm14.14,9.96c-.83.84-1.67,1.68-2.5,2.51-.45.44-.88.45-1.32,0-.8-.79-1.59-1.58-2.39-2.37-.07-.07-.14-.13-.15-.15-2.57,2.57-5.12,5.12-7.63,7.63h21.63c-2.53-2.53-5.07-5.07-7.63-7.63Zm-15.29,6.41c2.55-2.55,5.1-5.1,7.66-7.66-2.52-2.5-5.07-5.03-7.66-7.59v15.25Zm16.55-7.58c2.52,2.52,5.06,5.06,7.59,7.58v-15.16c-2.53,2.53-5.07,5.06-7.59,7.58Z"/>
</svg>