<?xml version="1.0" encoding="UTF-8"?>
<svg id="Camada_1" data-name="Camada 1" xmlns="http://www.w3.org/2000/svg" viewBox="0 0 36.63 42.63">
  <defs>
    <style>
      .cls-1 {
        fill: #8548ff;
      }
    </style>
  </defs>
  <path class="cls-1" d="m30.69,20.83c0,1.66,0,3.31,0,4.97-.03,3.86-3.03,6.87-6.89,6.89-3.33.02-6.67.02-10,0-3.86-.02-6.87-3.03-6.89-6.89-.02-3.33-.02-6.67,0-10,.02-3.86,3.03-6.87,6.89-6.89,3.33-.02,6.67-.02,10,0,3.86.02,6.86,3.03,6.89,6.89.01,1.68,0,3.36,0,5.03Zm-11.91-7.61c-4.13.03-7.58,3.49-7.55,7.6.03,4.13,3.5,7.58,7.6,7.55,4.13-.03,7.58-3.5,7.55-7.6-.03-4.13-3.49-7.58-7.6-7.55Zm9.12.06c.04-.97-.89-1.94-1.87-1.96-.93-.02-1.85.83-1.92,1.78-.08.96.82,1.96,1.8,2.02.96.06,1.95-.86,1.99-1.84Z"/>
  <path class="cls-1" d="m18.79,16.72c2.3,0,4.07,1.76,4.08,4.05,0,2.33-1.77,4.1-4.11,4.09-2.29-.01-4.05-1.79-4.04-4.09,0-2.29,1.77-4.06,4.07-4.06Z"/>
</svg>