<?xml version="1.0" encoding="UTF-8"?>
<svg id="Camada_1" data-name="Camada 1" xmlns="http://www.w3.org/2000/svg" viewBox="0 0 72 164">
  <defs>
    <style>
      .cls-1 {
        fill: #8548ff;
      }
    </style>
  </defs>
  <path class="cls-1" d="m37.44,141.53h-2.38v-3.06c0-.64-.17-1.14-.49-1.49-.33-.35-.77-.52-1.34-.52-.52,0-.95.17-1.29.51-.34.34-.51.84-.51,1.48v3.08h-2.51v-3.45c0-.96.18-1.8.54-2.53.36-.73.87-1.29,1.51-1.71.64-.41,1.38-.62,2.22-.62s1.59.21,2.23.62c.64.41,1.13.99,1.49,1.73.36.74.53,1.61.53,2.61v3.35Zm5.98,2.47h-14.51v-3.23h14.51v3.23Zm0-7.89l-6.25,4.52-.8-2.96,7.05-5.38v3.82Z"/>
  <path class="cls-1" d="m43.64,126.49c0,1.08-.22,2.04-.67,2.89-.45.84-1.07,1.5-1.86,1.98-.79.48-1.69.72-2.69.72s-1.89-.24-2.68-.71c-.79-.47-1.41-1.11-1.86-1.92-.45-.81-.68-1.72-.68-2.73s.21-1.86.64-2.61c.42-.75,1.01-1.35,1.77-1.78.75-.43,1.62-.65,2.59-.65.18,0,.37,0,.56.03.2.02.43.06.69.11l.02,8.61h-2.16l-.02-7.27.9,1.36c-.58.01-1.05.1-1.43.27-.38.16-.66.41-.86.73s-.3.72-.3,1.18c0,.49.11.92.34,1.28.23.36.54.64.96.84.41.2.91.3,1.5.3s1.09-.11,1.51-.32c.42-.21.74-.51.96-.9.23-.39.34-.85.34-1.39,0-.49-.09-.94-.26-1.33-.17-.4-.43-.75-.77-1.05l1.73-1.73c.58.49,1.01,1.09,1.29,1.79.29.7.43,1.47.43,2.3Z"/>
  <path class="cls-1" d="m43.42,110.15v3.08h-2.69l-2.42-.47-2.42.54h-7.38v-3.14h14.92Zm.21,5.75c0,.95-.23,1.78-.68,2.52-.45.73-1.07,1.31-1.85,1.73-.78.42-1.67.63-2.67.63s-1.89-.21-2.67-.63c-.78-.42-1.4-.99-1.85-1.73-.45-.73-.68-1.57-.68-2.52,0-.69.13-1.3.39-1.86.26-.56.62-1.01,1.08-1.38.46-.36.98-.57,1.57-.61h4.21c.59.04,1.12.24,1.59.6.47.36.85.82,1.13,1.38s.42,1.18.42,1.87Zm-2.83-.55c0-.45-.1-.84-.3-1.17-.2-.33-.48-.59-.83-.78-.36-.19-.77-.29-1.23-.29s-.87.09-1.22.28c-.35.19-.63.45-.83.78-.21.34-.31.72-.31,1.16s.1.83.31,1.16c.21.34.49.6.84.8s.76.3,1.21.3.86-.1,1.21-.29c.36-.19.64-.46.84-.8.21-.34.31-.73.31-1.15Z"/>
  <path class="cls-1" d="m43.64,103c0,1.08-.22,2.04-.67,2.89-.45.84-1.07,1.5-1.86,1.98-.79.48-1.69.72-2.69.72s-1.89-.24-2.68-.71c-.79-.47-1.41-1.11-1.86-1.92-.45-.81-.68-1.72-.68-2.73s.21-1.86.64-2.61c.42-.75,1.01-1.35,1.77-1.78.75-.43,1.62-.65,2.59-.65.18,0,.37,0,.56.03.2.02.43.06.69.11l.02,8.61h-2.16l-.02-7.27.9,1.36c-.58.01-1.05.1-1.43.27-.38.16-.66.41-.86.73s-.3.72-.3,1.18c0,.49.11.92.34,1.28.23.36.54.64.96.84.41.2.91.3,1.5.3s1.09-.11,1.51-.32c.42-.21.74-.51.96-.9.23-.39.34-.85.34-1.39,0-.49-.09-.94-.26-1.33-.17-.4-.43-.75-.77-1.05l1.73-1.73c.58.49,1.01,1.09,1.29,1.79.29.7.43,1.47.43,2.3Z"/>
  <path class="cls-1" d="m43.66,93.04c0,.59-.08,1.17-.23,1.74s-.37,1.1-.65,1.58c-.28.49-.61.9-.98,1.24l-1.81-1.79c.36-.33.63-.72.83-1.17.2-.45.3-.95.3-1.48,0-.37-.05-.65-.17-.85-.11-.2-.26-.3-.45-.3-.25,0-.43.12-.56.36-.13.24-.25.54-.35.91-.1.37-.22.76-.34,1.17-.12.41-.29.8-.51,1.17s-.52.67-.92.9c-.39.23-.89.35-1.49.35-.64,0-1.2-.16-1.67-.49-.47-.33-.85-.79-1.12-1.4-.27-.6-.41-1.31-.41-2.12,0-.85.15-1.63.44-2.35.29-.72.73-1.3,1.3-1.76l1.81,1.79c-.37.32-.63.67-.78,1.06-.15.39-.23.77-.23,1.14s.05.62.15.8c.1.18.25.27.44.27.21,0,.37-.12.49-.35.12-.23.23-.53.33-.9s.21-.76.35-1.17c.14-.41.32-.8.55-1.17.23-.37.54-.67.94-.9.39-.23.9-.35,1.53-.35.97,0,1.75.37,2.32,1.1.58.73.86,1.72.86,2.97Z"/>
  <path class="cls-1" d="m43.64,78.72c0,1.19-.19,2.22-.58,3.07s-.98,1.64-1.78,2.35l-2.08-2.1c.53-.47.95-.98,1.24-1.55.29-.57.44-1.23.44-1.98,0-.68-.12-1.22-.37-1.59-.25-.38-.59-.56-1.03-.56-.4,0-.72.12-.97.37-.25.25-.46.57-.64.98-.18.4-.35.85-.51,1.34s-.35.97-.57,1.45c-.21.48-.48.92-.8,1.33s-.73.73-1.21.98c-.49.25-1.1.37-1.84.37-.89,0-1.66-.22-2.3-.65-.64-.43-1.13-1.03-1.47-1.8-.33-.77-.5-1.65-.5-2.65s.18-1.94.53-2.78.84-1.54,1.46-2.08l2.08,2.1c-.45.44-.79.88-1.01,1.33-.22.45-.33.95-.33,1.51s.11,1.01.32,1.34c.21.33.52.49.92.49.37,0,.67-.12.89-.37.23-.25.42-.57.59-.98.16-.4.33-.85.49-1.34.16-.49.36-.97.58-1.45s.5-.92.83-1.33c.34-.4.76-.73,1.27-.98.51-.25,1.15-.37,1.9-.37,1.38,0,2.47.49,3.26,1.48.79.99,1.18,2.35,1.18,4.09Z"/>
  <path class="cls-1" d="m43.64,66.64c0,1.03-.23,1.96-.69,2.78-.46.83-1.09,1.48-1.88,1.96-.79.48-1.68.72-2.67.72s-1.87-.24-2.65-.72c-.78-.48-1.4-1.13-1.86-1.95s-.69-1.75-.69-2.79.23-1.97.68-2.79,1.07-1.47,1.86-1.95c.79-.48,1.67-.72,2.66-.72s1.88.24,2.67.72c.79.48,1.42,1.13,1.88,1.95s.69,1.75.69,2.79Zm-2.86,0c0-.45-.1-.85-.3-1.19-.2-.34-.48-.61-.84-.79-.36-.18-.78-.28-1.24-.28s-.87.1-1.22.29c-.35.19-.62.46-.82.79-.2.34-.3.73-.3,1.18s.1.83.3,1.17c.2.34.48.61.83.8.36.19.77.29,1.23.29s.86-.1,1.22-.29c.36-.19.64-.46.84-.8s.3-.73.3-1.17Z"/>
  <path class="cls-1" d="m43.64,54.78c0,1.03-.23,1.96-.68,2.79-.45.83-1.08,1.49-1.87,1.97-.79.48-1.68.72-2.67.72s-1.89-.24-2.68-.73c-.79-.49-1.41-1.15-1.86-1.98-.45-.84-.68-1.77-.68-2.82,0-.78.13-1.5.4-2.15.27-.65.67-1.23,1.2-1.74l2.01,2.01c-.26.23-.45.5-.58.81-.12.31-.19.66-.19,1.06,0,.45.1.85.3,1.2.2.35.47.62.82.82.35.2.76.3,1.22.3s.88-.1,1.23-.3c.36-.2.64-.48.84-.83.21-.36.31-.75.31-1.19,0-.41-.07-.78-.22-1.1-.14-.32-.35-.6-.61-.83l2.01-1.99c.55.52.96,1.11,1.24,1.77.28.66.42,1.39.42,2.2Z"/>
  <path class="cls-1" d="m32.06,47.83c0,.49-.17.9-.5,1.22-.33.32-.74.48-1.22.48s-.9-.16-1.23-.48c-.33-.32-.49-.73-.49-1.22s.16-.9.49-1.21c.33-.32.74-.47,1.23-.47s.89.16,1.22.47c.34.31.5.72.5,1.21Zm11.36,1.58h-9.99v-3.14h9.99v3.14Z"/>
  <path class="cls-1" d="m43.62,39.88c0,.92-.23,1.74-.68,2.46-.45.72-1.07,1.29-1.85,1.71-.78.42-1.67.63-2.67.63s-1.89-.21-2.67-.63c-.78-.42-1.4-.99-1.85-1.71-.45-.72-.68-1.54-.68-2.46,0-.67.13-1.28.39-1.82.26-.54.62-.98,1.08-1.33.46-.34.98-.53,1.57-.58h4.31c.59.04,1.11.23,1.57.57.46.33.82.78,1.08,1.33.26.55.39,1.16.39,1.83Zm-.21-2.75h-2.69l-2.42-.47-2.42.47h-2.45v-3.08h9.99v3.08Zm-2.63,2.12c0-.67-.22-1.21-.67-1.62s-1.01-.62-1.7-.62c-.47,0-.88.09-1.23.28-.36.18-.63.45-.83.78-.2.34-.3.72-.3,1.16s.1.83.3,1.16c.2.34.48.6.83.8.36.2.77.3,1.23.3s.86-.09,1.21-.29c.36-.19.64-.46.84-.8.21-.34.31-.73.31-1.15Z"/>
  <path class="cls-1" d="m32.06,30.25c0,.49-.17.9-.5,1.22-.33.32-.74.48-1.22.48s-.9-.16-1.23-.48c-.33-.32-.49-.73-.49-1.22s.16-.9.49-1.21c.33-.32.74-.47,1.23-.47s.89.16,1.22.47c.34.31.5.72.5,1.21Zm11.36,1.58h-9.99v-3.14h9.99v3.14Z"/>
  <path class="cls-1" d="m43.66,22.83c0,.59-.08,1.17-.23,1.74-.15.57-.37,1.1-.65,1.58-.28.49-.61.9-.98,1.24l-1.81-1.79c.36-.33.63-.72.83-1.17.2-.45.3-.95.3-1.48,0-.37-.05-.65-.17-.85-.11-.2-.26-.3-.45-.3-.25,0-.43.12-.56.36-.13.24-.25.54-.35.91s-.22.76-.34,1.17-.29.8-.51,1.17c-.22.37-.52.67-.92.9-.39.23-.89.35-1.49.35-.64,0-1.2-.16-1.67-.49s-.85-.79-1.12-1.4c-.27-.6-.41-1.31-.41-2.12,0-.85.15-1.63.44-2.35.29-.72.73-1.3,1.3-1.76l1.81,1.79c-.37.32-.63.67-.78,1.06-.15.39-.23.77-.23,1.14s.05.62.15.8c.1.18.25.27.44.27.21,0,.37-.12.49-.35.12-.23.23-.53.33-.9.1-.37.21-.76.35-1.17.14-.41.32-.8.55-1.17.23-.37.54-.67.94-.9.39-.23.9-.35,1.53-.35.97,0,1.75.37,2.32,1.1.58.73.86,1.72.86,2.97Z"/>
</svg>