<?xml version="1.0" encoding="UTF-8"?>
<svg id="Camada_1" data-name="Camada 1" xmlns="http://www.w3.org/2000/svg" viewBox="0 0 36.63 36.63">
  <defs>
    <style>
      .cls-1 {
        fill: #8548ff;
      }
    </style>
  </defs>
  <path class="cls-1" d="m16.97,12.63v4.29c-.68.04-1.34.03-1.97.13-1.97.33-3.36,2.14-3.13,4.02.25,2.1,1.92,3.56,3.95,3.45,2.01-.1,3.56-1.73,3.56-3.78,0-5.72,0-11.45,0-17.17,0-.16,0-.32,0-.52h4.22c.14.65.24,1.31.44,1.94.64,2.04,1.65,2.79,3.81,2.85.71.02,1.42,0,2.17,0v4.23c-2.19.14-4.34.1-6.35-1.17,0,2.25.01,4.38,0,6.52-.01,1.55.07,3.11-.13,4.63-.48,3.77-3.87,6.69-7.67,6.77-3.9.08-7.36-2.62-8.11-6.34-.92-4.54,1.87-8.74,6.44-9.63.89-.17,1.81-.14,2.78-.2Z"/>
</svg>