<?xml version="1.0" encoding="UTF-8"?>
<svg id="Camada_1" data-name="Camada 1" xmlns="http://www.w3.org/2000/svg" viewBox="0 0 37.29 36.5">
  <defs>
    <style>
      .cls-1 {
        fill: #fff;
      }
    </style>
  </defs>
  <path class="cls-1" d="m30.45,15.71c-.25-1.25-.66-2.39-1.24-3.41-.18-.32-.38-.65-.54-.91-.29-.46-.62-.87-.91-1.21-.82-.97-1.8-1.79-2.89-2.46-1.41-.86-2.95-1.4-4.58-1.63-1.08-.15-2.18-.15-3.28,0-1.15.15-2.28.48-3.35.96-.87.39-1.68.89-2.43,1.47-1.02.8-1.9,1.75-2.63,2.82-.57.85-1.03,1.78-1.37,2.76-.34.99-.55,2.02-.63,3.07-.07.95-.02,1.91.13,2.85.23,1.36.68,2.67,1.36,3.88-.09.31-.18.62-.27.93l-1.05,3.59c-.09.31-.18.61-.27.92-.07.23,0,.48.17.65.13.12.29.19.46.19.06,0,.12,0,.19-.03l1.46-.43c.89-.26,1.78-.52,2.66-.78.22-.06.43-.13.65-.19.22-.06.44-.13.67-.19,1.26.71,2.62,1.17,4.06,1.39.37.06.78.09,1.28.12.99.06,2-.03,3.07-.26.86-.18,1.72-.48,2.55-.87.42-.2.73-.36,1.03-.53.94-.54,1.81-1.24,2.59-2.06.78-.82,1.4-1.67,1.88-2.59h0c.16-.31.32-.62.46-.94.56-1.29.89-2.67.97-4.09.06-1.02-.01-2.04-.2-3.02Zm-21.7,12.08c.09-.29.17-.58.25-.87.27-.94.56-1.91.85-2.87.08-.26.05-.49-.1-.74-.66-1.1-1.1-2.31-1.32-3.59-.14-.85-.18-1.71-.1-2.56.16-1.8.75-3.46,1.76-4.94,1.04-1.52,2.41-2.7,4.08-3.51.97-.47,2.02-.78,3.11-.92.69-.09,1.38-.11,2.05-.07,1.46.1,2.86.5,4.14,1.18.95.51,1.81,1.15,2.56,1.92,1.11,1.14,1.92,2.47,2.42,3.97.23.7.39,1.44.47,2.2.1,1,.06,2-.13,2.98-.29,1.52-.9,2.91-1.81,4.16-.78,1.06-1.74,1.96-2.85,2.66-1.17.74-2.45,1.22-3.81,1.44-.75.12-1.5.16-2.24.12-1.6-.09-3.12-.54-4.52-1.32-.05-.03-.1-.06-.15-.09-.07-.04-.15-.09-.23-.13-.07-.04-.15-.06-.23-.06-.04,0-.09,0-.13.02-1.3.38-2.6.76-3.9,1.14l-.2.06c.02-.06.03-.11.05-.17Z"/>
  <path class="cls-1" d="m19.89,21.32c.23-.45.46-.89.69-1.33.22.05.45.1.67.15,1.11.25,2.22.5,3.32.75.05.01.08.03.1.08.34,1-.05,2.16-.92,2.76-.46.32-.96.46-1.52.45-1.34-.01-2.63-.28-3.86-.83-.41-.18-.79-.4-1.18-.62-.89-.51-1.66-1.18-2.33-1.96-1.15-1.34-1.89-2.87-2.22-4.61-.12-.64-.18-1.28-.17-1.92.02-1.07.83-2.06,1.88-2.3.44-.1.87-.09,1.3.04.07.02.1.05.12.13.29,1.3.59,2.6.88,3.89,0,.02,0,.05.01.08-.44.23-.88.45-1.33.69.33.96.84,1.8,1.52,2.55.84.92,1.85,1.58,3.03,2Z"/>
</svg>