<?xml version="1.0" encoding="UTF-8"?>
<svg id="Camada_1" data-name="Camada 1" xmlns="http://www.w3.org/2000/svg" viewBox="0 0 36.63 42.63">
  <defs>
    <style>
      .cls-1 {
        fill: #8548ff;
      }
    </style>
  </defs>
  <path class="cls-1" d="m18.69,30.44c-3.16-.13-6.65-.17-10.12-.46-2.43-.2-3.51-1.26-3.7-3.66-.25-3.2-.26-6.43-.25-9.65,0-1.2.26-2.41.55-3.58.39-1.54,1.5-2.44,3.06-2.5,4.42-.17,8.84-.3,13.26-.33,2.6-.02,5.21.15,7.81.32,1.56.1,2.7.95,3.08,2.48.32,1.28.59,2.61.6,3.92.01,3.08-.01,6.16-.27,9.23-.22,2.67-1.63,3.79-4.34,3.89-3.12.12-6.23.22-9.68.35Zm-2.87-6.39c2.63-1.37,5.15-2.68,7.81-4.06-2.64-1.39-5.17-2.71-7.81-4.09v8.15Z"/>
</svg>