<?xml version="1.0" encoding="UTF-8"?>
<svg id="Camada_1" data-name="Camada 1" xmlns="http://www.w3.org/2000/svg" viewBox="0 0 233 65">
  <defs>
    <style>
      .cls-1 {
        fill: #fff;
      }

      .cls-2 {
        fill: #76f185;
      }
    </style>
  </defs>
  <g>
    <path class="cls-1" d="m18.31,55.74v-8.01h1.07v1.49l-.2,1.37.2,1.38v3.78h-1.07Zm2.97-2.25c-.43,0-.81-.09-1.16-.27-.34-.18-.62-.43-.83-.74-.21-.32-.32-.68-.35-1.08v-1.7c.02-.41.14-.78.35-1.09.21-.31.49-.56.83-.74.34-.18.73-.27,1.15-.27.52,0,.98.13,1.4.39.42.26.74.61.98,1.06s.36.94.36,1.5-.12,1.05-.36,1.5c-.24.44-.56.79-.98,1.05-.42.26-.88.39-1.4.39Zm-.18-1.01c.36,0,.67-.08.94-.25.27-.17.48-.39.64-.68.16-.29.24-.62.24-1s-.08-.71-.24-1c-.16-.29-.37-.52-.64-.68-.27-.16-.58-.24-.93-.24s-.67.08-.94.24c-.27.16-.48.39-.63.68-.15.29-.23.63-.23,1.01s.07.7.22.99c.15.29.36.52.63.68.27.17.58.25.93.25Z"/>
    <path class="cls-1" d="m28.8,53.37v-5.65h1.07v5.65h-1.07Zm1.07-3.22l-.4-.18c0-.72.17-1.3.5-1.72s.81-.64,1.44-.64c.29,0,.54.05.77.15.23.1.44.26.64.49l-.7.73c-.12-.13-.25-.22-.39-.27-.14-.06-.31-.08-.5-.08-.4,0-.72.13-.98.38-.25.25-.38.64-.38,1.15Z"/>
    <path class="cls-1" d="m39.54,53.49c-.55,0-1.05-.13-1.5-.39-.44-.26-.8-.62-1.06-1.06-.26-.45-.39-.95-.39-1.5s.13-1.04.39-1.48c.26-.44.61-.79,1.06-1.05.44-.26.94-.39,1.5-.39s1.04.13,1.49.39c.45.26.8.61,1.06,1.05.26.44.39.94.39,1.49s-.13,1.06-.39,1.5c-.26.45-.62.8-1.06,1.06-.45.26-.95.39-1.49.39Zm0-1.03c.36,0,.67-.08.95-.25.28-.17.5-.39.65-.68.16-.29.24-.62.24-.99s-.08-.69-.24-.98c-.16-.29-.38-.51-.65-.67-.27-.16-.59-.24-.95-.24s-.67.08-.95.24c-.28.16-.5.39-.65.67-.16.29-.24.61-.24.98s.08.7.24.99c.16.29.38.52.65.68.28.17.59.25.95.25Z"/>
    <path class="cls-1" d="m49.65,53.49c-.52,0-.99-.13-1.4-.39-.41-.26-.74-.61-.98-1.05-.24-.44-.36-.94-.36-1.5s.12-1.05.36-1.5c.24-.44.57-.8.98-1.06.41-.26.88-.39,1.4-.39.42,0,.8.09,1.14.27.34.18.62.42.83.74.21.31.33.68.35,1.09v1.7c-.02.4-.14.76-.35,1.08s-.48.56-.82.74-.73.27-1.15.27Zm.18-1.01c.36,0,.67-.08.93-.25.27-.17.47-.39.62-.68.15-.29.23-.62.23-.99s-.08-.73-.23-1.01-.36-.51-.63-.68c-.27-.17-.58-.25-.93-.25s-.67.08-.94.25c-.27.17-.48.39-.64.68-.15.29-.23.62-.23.99s.08.72.23,1c.15.29.37.52.64.68.27.17.59.25.95.25Zm2.79.89h-1.08v-1.52l.2-1.38-.2-1.37v-4.22h1.08v8.49Z"/>
    <path class="cls-1" d="m60.03,53.49c-.47,0-.89-.11-1.25-.32s-.66-.5-.86-.87c-.21-.37-.31-.8-.31-1.3v-3.28h1.07v3.23c0,.31.05.58.16.8.11.23.26.4.47.52.21.12.45.18.73.18.42,0,.75-.13.99-.4s.36-.63.36-1.1v-3.23h1.07v3.28c0,.49-.1.92-.31,1.3-.21.37-.49.66-.85.87-.36.21-.78.32-1.25.32Z"/>
    <path class="cls-1" d="m70.03,53.49c-.55,0-1.06-.13-1.5-.39-.45-.26-.8-.62-1.06-1.06-.26-.45-.39-.95-.39-1.49s.13-1.05.39-1.5c.26-.44.61-.79,1.06-1.05.45-.26.95-.39,1.5-.39.44,0,.84.08,1.21.24s.69.4.96.71l-.71.71c-.17-.21-.39-.36-.64-.47-.25-.11-.53-.16-.83-.16-.36,0-.67.08-.95.24-.28.16-.5.39-.65.67-.16.29-.24.62-.24.99s.08.7.24.99.38.51.65.68c.28.17.59.25.95.25.3,0,.58-.05.83-.16.25-.11.47-.26.65-.47l.7.71c-.26.3-.58.54-.96.7-.38.17-.78.25-1.22.25Zm-.38,2.37c-.28,0-.53-.04-.75-.11-.22-.08-.44-.18-.64-.32l.49-.58c.1.1.21.17.35.23.14.05.3.08.48.08.24,0,.41-.04.52-.11.11-.07.17-.16.17-.27s-.06-.21-.17-.29c-.11-.08-.28-.12-.5-.12h-.52l.37-1.15h.81l-.27.86-.39-.32c.48-.02.87.08,1.16.28.29.2.43.46.43.77s-.14.56-.42.76-.65.3-1.12.3Z"/>
    <path class="cls-1" d="m79.31,53.49c-.55,0-1.05-.13-1.5-.39-.44-.26-.8-.62-1.06-1.06-.26-.45-.39-.95-.39-1.5s.13-1.04.39-1.48c.26-.44.61-.79,1.06-1.05.44-.26.94-.39,1.5-.39s1.04.13,1.49.39c.45.26.8.61,1.06,1.05.26.44.39.94.39,1.49s-.13,1.06-.39,1.5c-.26.45-.62.8-1.06,1.06-.45.26-.95.39-1.49.39Zm.87-6.64c-.25,0-.47-.05-.65-.14-.18-.09-.35-.19-.51-.27-.16-.09-.34-.13-.54-.13s-.36.04-.48.11c-.12.07-.23.18-.35.32l-.58-.57c.2-.24.4-.43.62-.57.21-.14.47-.21.77-.21.26,0,.48.04.67.13.18.09.35.18.51.27.16.1.33.14.51.14.2,0,.36-.04.48-.11.12-.08.23-.18.33-.33l.58.57c-.21.24-.41.43-.62.58-.21.15-.46.22-.76.22Zm-.87,5.6c.36,0,.67-.08.95-.25.28-.17.5-.39.65-.68.16-.29.24-.62.24-.99s-.08-.69-.24-.98c-.16-.29-.38-.51-.65-.67-.27-.16-.59-.24-.95-.24s-.67.08-.95.24c-.28.16-.5.39-.65.67-.16.29-.24.61-.24.98s.08.7.24.99c.16.29.38.52.65.68.28.17.59.25.95.25Z"/>
    <path class="cls-1" d="m89.64,53.49c-.56,0-1.07-.13-1.52-.39-.45-.26-.81-.61-1.07-1.05-.26-.44-.39-.95-.39-1.51s.13-1.05.39-1.5c.26-.44.61-.79,1.05-1.05s.93-.39,1.48-.39.98.12,1.39.36c.4.24.71.57.94.99.23.42.34.9.34,1.43,0,.08,0,.16-.01.25,0,.09-.02.2-.05.32h-4.77v-.89h4.2l-.39.34c0-.38-.07-.7-.2-.97s-.33-.47-.57-.62c-.25-.15-.54-.22-.89-.22s-.69.08-.96.24c-.28.16-.49.38-.64.67-.15.29-.23.62-.23,1.01s.08.74.24,1.04.38.53.68.69c.29.16.63.24,1.01.24.32,0,.61-.06.87-.17.27-.11.49-.28.68-.5l.69.7c-.27.32-.6.56-.99.72-.39.17-.81.25-1.25.25Z"/>
    <path class="cls-1" d="m98.76,53.49c-.32,0-.62-.04-.9-.12s-.54-.2-.78-.36-.44-.34-.62-.55l.69-.69c.21.25.44.44.71.57s.57.18.9.18.59-.06.77-.17c.18-.12.27-.28.27-.48s-.07-.37-.22-.48c-.15-.12-.33-.21-.56-.29-.23-.08-.47-.15-.73-.23s-.5-.17-.73-.29c-.23-.12-.42-.28-.56-.49-.15-.21-.22-.48-.22-.82s.08-.64.25-.89c.17-.25.4-.44.7-.58.3-.13.66-.2,1.08-.2.44,0,.84.08,1.18.23.35.15.63.39.85.7l-.69.69c-.16-.21-.35-.36-.59-.48-.23-.11-.5-.17-.79-.17-.31,0-.54.05-.71.16-.16.11-.24.26-.24.45s.07.34.21.44c.14.1.33.19.56.26s.48.15.73.22c.25.08.5.18.73.3s.42.3.56.51c.15.21.22.5.22.84,0,.53-.19.95-.56,1.26-.38.31-.88.46-1.52.46Z"/>
    <path class="cls-1" d="m114.05,53.49c-.52,0-.98-.13-1.4-.39-.42-.26-.75-.61-.99-1.05-.24-.44-.36-.94-.36-1.5s.12-1.05.36-1.5c.24-.44.57-.8.99-1.06s.89-.39,1.41-.39c.43,0,.81.09,1.15.27.34.18.61.42.81.74.21.31.32.68.35,1.09v1.7c-.02.4-.14.76-.34,1.08-.2.32-.47.56-.81.74s-.72.27-1.16.27Zm.18-1.01c.53,0,.96-.18,1.28-.54.33-.36.49-.82.49-1.39,0-.39-.07-.73-.22-1.02-.15-.29-.35-.51-.62-.68-.27-.16-.58-.24-.94-.24s-.67.08-.95.25c-.27.17-.49.39-.64.68-.15.29-.23.62-.23.99s.08.72.23,1c.15.29.37.52.65.68.28.17.59.25.95.25Zm1.7.89v-1.52l.2-1.38-.2-1.37v-1.38h1.08v5.65h-1.08Z"/>
    <path class="cls-1" d="m124.42,53.49c-.47,0-.89-.11-1.25-.32s-.66-.5-.86-.87c-.21-.37-.31-.8-.31-1.3v-3.28h1.07v3.23c0,.31.05.58.16.8.11.23.26.4.47.52.21.12.45.18.73.18.42,0,.75-.13.99-.4s.36-.63.36-1.1v-3.23h1.07v3.28c0,.49-.1.92-.31,1.3-.21.37-.49.66-.85.87-.36.21-.78.32-1.25.32Z"/>
    <path class="cls-1" d="m134.23,53.49c-.52,0-.99-.13-1.4-.39-.41-.26-.74-.61-.98-1.05-.24-.44-.36-.94-.36-1.5s.12-1.05.36-1.5c.24-.44.57-.8.98-1.06.41-.26.88-.39,1.4-.39.42,0,.8.09,1.14.27.34.18.62.42.83.74.21.31.33.68.35,1.09v1.7c-.02.4-.14.76-.35,1.08s-.48.56-.82.74-.73.27-1.15.27Zm.18-1.01c.36,0,.67-.08.93-.25.27-.17.47-.39.62-.68.15-.29.23-.62.23-.99s-.08-.73-.23-1.01-.36-.51-.63-.68c-.27-.17-.58-.25-.93-.25s-.67.08-.94.25c-.27.17-.48.39-.64.68-.15.29-.23.62-.23.99s.08.72.23,1c.15.29.37.52.64.68.27.17.59.25.95.25Zm2.79.89h-1.08v-1.52l.2-1.38-.2-1.37v-4.22h1.08v8.49Z"/>
    <path class="cls-1" d="m142.88,46.59c-.2,0-.36-.07-.49-.2s-.19-.29-.19-.49.06-.35.19-.48.29-.2.49-.2.36.07.49.2.19.29.19.48-.06.36-.19.49-.29.2-.49.2Zm-.54,6.78v-5.65h1.07v5.65h-1.07Z"/>
    <path class="cls-1" d="m151.14,53.49c-.55,0-1.05-.13-1.5-.39-.44-.26-.8-.62-1.06-1.06-.26-.45-.39-.95-.39-1.5s.13-1.04.39-1.48c.26-.44.61-.79,1.06-1.05.44-.26.94-.39,1.5-.39s1.04.13,1.49.39c.45.26.8.61,1.06,1.05.26.44.39.94.39,1.49s-.13,1.06-.39,1.5c-.26.45-.62.8-1.06,1.06-.45.26-.95.39-1.49.39Zm0-1.03c.36,0,.67-.08.95-.25.28-.17.5-.39.65-.68.16-.29.24-.62.24-.99s-.08-.69-.24-.98c-.16-.29-.38-.51-.65-.67-.27-.16-.59-.24-.95-.24s-.67.08-.95.24c-.28.16-.5.39-.65.67-.16.29-.24.61-.24.98s.08.7.24.99c.16.29.38.52.65.68.28.17.59.25.95.25Z"/>
    <path class="cls-1" d="m160.58,53.37l-2.59-5.65h1.19l2.08,4.77h-.69l2.09-4.77h1.14l-2.59,5.65h-.63Z"/>
    <path class="cls-1" d="m168.84,46.59c-.2,0-.36-.07-.49-.2s-.19-.29-.19-.49.06-.35.19-.48.29-.2.49-.2.36.07.49.2.19.29.19.48-.06.36-.19.49-.29.2-.49.2Zm-.54,6.78v-5.65h1.07v5.65h-1.07Z"/>
    <path class="cls-1" d="m176.32,53.49c-.32,0-.62-.04-.9-.12s-.54-.2-.78-.36c-.24-.15-.44-.34-.62-.55l.69-.69c.21.25.44.44.71.57s.57.18.9.18.59-.06.77-.17c.18-.12.27-.28.27-.48s-.07-.37-.22-.48c-.15-.12-.33-.21-.56-.29-.23-.08-.47-.15-.73-.23s-.5-.17-.73-.29c-.23-.12-.42-.28-.56-.49-.15-.21-.22-.48-.22-.82s.08-.64.25-.89.4-.44.7-.58c.3-.13.66-.2,1.08-.2.44,0,.84.08,1.18.23s.63.39.85.7l-.69.69c-.16-.21-.35-.36-.59-.48-.23-.11-.5-.17-.79-.17-.31,0-.54.05-.71.16-.16.11-.24.26-.24.45s.07.34.21.44c.14.1.33.19.56.26.23.07.48.15.73.22s.5.18.73.3c.23.13.42.3.56.51.15.21.22.5.22.84,0,.53-.19.95-.57,1.26-.38.31-.88.46-1.52.46Z"/>
    <path class="cls-1" d="m185.45,53.49c-.47,0-.89-.11-1.25-.32-.37-.21-.66-.5-.86-.87-.21-.37-.31-.8-.31-1.3v-3.28h1.07v3.23c0,.31.05.58.16.8.11.23.26.4.47.52.21.12.45.18.72.18.42,0,.75-.13.99-.4.24-.27.36-.63.36-1.1v-3.23h1.07v3.28c0,.49-.1.92-.31,1.3-.21.37-.49.66-.85.87s-.78.32-1.25.32Z"/>
    <path class="cls-1" d="m195.27,53.49c-.52,0-.98-.13-1.4-.39-.42-.26-.75-.61-.99-1.05-.24-.44-.36-.94-.36-1.5s.12-1.05.36-1.5.57-.8.99-1.06.89-.39,1.41-.39c.43,0,.81.09,1.15.27.34.18.61.42.81.74.21.31.32.68.34,1.09v1.7c-.02.4-.14.76-.34,1.08s-.47.56-.81.74-.72.27-1.16.27Zm.18-1.01c.53,0,.96-.18,1.28-.54.33-.36.49-.82.49-1.39,0-.39-.07-.73-.22-1.02-.15-.29-.35-.51-.62-.68-.27-.16-.58-.24-.94-.24s-.67.08-.95.25c-.27.17-.49.39-.64.68-.16.29-.23.62-.23.99s.08.72.23,1c.15.29.37.52.65.68.28.17.59.25.95.25Zm1.7.89v-1.52l.2-1.38-.2-1.37v-1.38h1.08v5.65h-1.08Z"/>
    <path class="cls-1" d="m203.91,46.59c-.2,0-.36-.07-.49-.2s-.19-.29-.19-.49.06-.35.19-.48.29-.2.49-.2.36.07.49.2.19.29.19.48-.06.36-.19.49-.29.2-.49.2Zm-.54,6.78v-5.65h1.07v5.65h-1.07Z"/>
    <path class="cls-1" d="m211.38,53.49c-.32,0-.62-.04-.9-.12s-.54-.2-.78-.36c-.24-.15-.44-.34-.62-.55l.69-.69c.21.25.44.44.71.57s.57.18.9.18.59-.06.77-.17.27-.28.27-.48-.07-.37-.22-.48c-.15-.12-.33-.21-.57-.29-.23-.08-.47-.15-.73-.23s-.5-.17-.73-.29c-.23-.12-.42-.28-.56-.49-.15-.21-.22-.48-.22-.82s.08-.64.25-.89c.17-.25.4-.44.7-.58.3-.13.66-.2,1.08-.2.44,0,.84.08,1.18.23.35.15.63.39.85.7l-.69.69c-.16-.21-.36-.36-.59-.48-.23-.11-.5-.17-.79-.17-.31,0-.54.05-.71.16-.16.11-.24.26-.24.45s.07.34.21.44c.14.1.33.19.57.26.23.07.48.15.73.22.25.08.5.18.72.3.23.13.42.3.57.51s.22.5.22.84c0,.53-.19.95-.56,1.26-.38.31-.88.46-1.52.46Z"/>
  </g>
  <g>
    <path class="cls-2" d="m25.79,13.75c6.84,0,12.39,5.51,12.39,12.29s-5.55,12.22-12.39,12.22-12.36-5.48-12.36-12.22,5.51-12.29,12.36-12.29Zm0,18.86c3.57,0,6.37-2.96,6.37-6.57s-2.79-6.64-6.37-6.64-6.33,3-6.33,6.64,2.76,6.57,6.33,6.57Z"/>
    <path class="cls-2" d="m47.71,35.4c0,1.53-1.33,2.86-2.89,2.86s-2.89-1.33-2.89-2.86v-7.01c0-4.43,3.27-7.83,7.93-7.83,3.17,0,5.72,1.84,5.72,3.68,0,1.53-1.19,2.66-2.72,2.66s-1.74-.95-3.03-.95c-1.23,0-2.11.92-2.11,2.04v7.42Z"/>
    <path class="cls-2" d="m58.3,15.25c0-1.53,1.36-2.86,2.89-2.86s2.89,1.33,2.89,2.86v6.33s1.4-.95,3.71-.95c4.56,0,8.34,3.78,8.34,8.75s-3.71,8.82-8.41,8.82c-1.87,0-3.51-.78-4.08-1.26-.51.75-1.43,1.33-2.45,1.33-1.46,0-2.89-1.09-2.89-3.03V15.25Zm8.85,17.67c1.97,0,3.4-1.63,3.4-3.54s-1.5-3.44-3.4-3.44-3.4,1.57-3.4,3.44,1.43,3.54,3.4,3.54Z"/>
    <path class="cls-2" d="m80.23,15.25c0-1.53,1.36-2.86,2.89-2.86s2.89,1.33,2.89,2.86v6.33s1.4-.95,3.71-.95c4.56,0,8.34,3.78,8.34,8.75s-3.71,8.82-8.41,8.82c-1.87,0-3.51-.78-4.08-1.26-.51.75-1.43,1.33-2.45,1.33-1.46,0-2.89-1.09-2.89-3.03V15.25Zm8.85,17.67c1.97,0,3.4-1.63,3.4-3.54s-1.5-3.44-3.4-3.44-3.4,1.57-3.4,3.44,1.43,3.54,3.4,3.54Z"/>
    <path class="cls-2" d="m105.11,13.11c1.77,0,3.13,1.36,3.13,3.13s-1.36,3.13-3.13,3.13-3.13-1.36-3.13-3.13,1.36-3.13,3.13-3.13Zm2.86,22.3c0,1.53-1.29,2.86-2.86,2.86s-2.86-1.33-2.86-2.86v-11.81c0-1.53,1.33-2.86,2.86-2.86s2.86,1.33,2.86,2.86v11.81Z"/>
    <path class="cls-2" d="m114,19.23c0-1.53,1.29-2.86,2.89-2.86s2.83,1.33,2.83,2.86v1.67h1.7c1.53,0,2.72,1.19,2.72,2.72s-1.19,2.69-2.72,2.69h-1.7v5.55c0,.34.31.65.65.65h.65c1.53,0,2.76,1.19,2.76,2.72s-1.23,2.69-2.76,2.69h-1.97c-2.79,0-5.04-2.42-5.04-5.17v-6.43h-.27c-1.57,0-2.76-1.19-2.76-2.69s1.16-2.72,2.76-2.72h.27v-1.67Z"/>
    <path class="cls-2" d="m127.55,17.02c0-1.63,1.06-2.93,3-2.93h11.68c2.08,0,3,1.5,3,2.83s-.92,2.79-3,2.79h-8.71v3.61h6.88c2.08,0,3.03,1.43,3.03,2.76s-.95,2.72-3.03,2.72h-6.88v6.5c0,1.63-1.29,2.96-2.96,2.96s-3-1.33-3-2.96v-18.28Z"/>
    <path class="cls-2" d="m151.41,13.11c1.77,0,3.13,1.36,3.13,3.13s-1.36,3.13-3.13,3.13-3.13-1.36-3.13-3.13,1.36-3.13,3.13-3.13Zm2.86,22.3c0,1.53-1.29,2.86-2.86,2.86s-2.86-1.33-2.86-2.86v-11.81c0-1.53,1.33-2.86,2.86-2.86s2.86,1.33,2.86,2.86v11.81Z"/>
    <path class="cls-2" d="m165.3,35.4c0,1.53-1.33,2.86-2.86,2.86s-2.86-1.33-2.86-2.86V15.25c0-1.53,1.29-2.86,2.86-2.86s2.86,1.33,2.86,2.86v20.15Z"/>
    <path class="cls-2" d="m198.63,35.4c0,1.53-1.26,2.86-2.89,2.86-1.53,0-2.89-1.33-2.89-2.86v-6.74c0-1.7-1.26-2.72-2.83-2.72s-2.79,1.02-2.79,2.72v6.74c0,1.53-1.29,2.86-2.89,2.86s-2.93-1.33-2.93-2.86v-6.74c0-1.7-1.29-2.72-2.76-2.72s-2.83,1.02-2.83,2.72v6.74c0,1.53-1.36,2.86-2.89,2.86s-2.93-1.33-2.93-2.86v-6.43c0-5,4.05-8.41,8.65-8.41,2.04,0,4.15.75,5.69,2.04,1.53-1.33,3.54-2.04,5.68-2.04,4.6,0,8.61,3.37,8.61,8.41v6.43Z"/>
    <path class="cls-2" d="m211.4,32.75c0-1.77-8.95-.24-8.95-6.6,0-2.96,2.93-5.58,7.15-5.58s6.91,1.63,6.91,3.64c0,.99-.85,2.15-2.32,2.15-1.8,0-2.52-1.26-4.7-1.26-1.33,0-1.6.68-1.6,1.05,0,1.84,9.19.41,9.19,6.33,0,3.61-3.54,5.79-7.73,5.79s-6.98-1.43-6.98-3.54c0-1.33,1.02-2.31,2.42-2.31,1.74,0,2.18,1.26,4.46,1.26,1.74,0,2.14-.48,2.14-.92Z"/>
  </g>
</svg>