<?xml version="1.0" encoding="UTF-8"?>
<svg id="Camada_1" data-name="Camada 1" xmlns="http://www.w3.org/2000/svg" viewBox="0 0 77.63 43.63">
  <defs>
    <style>
      .cls-1 {
        fill: #fff;
      }

      .cls-2 {
        fill: #76f185;
      }
    </style>
  </defs>
  <path class="cls-1" d="m27.52,34.41c.41.09.83.18,1.26.27,2.24.47,4.58.87,6.94,1.17,1.94.25,3.88.44,5.77.55.35.02.7.04,1.05.06-1.78.7-3.71,1.07-5.7,1.07-3.43,0-6.73-1.13-9.32-3.13m-3.48-1.98c2.85,3.75,7.52,6.19,12.8,6.19,3.64,0,6.99-1.16,9.66-3.11-1.58,0-3.23-.05-4.93-.17-1.85-.11-3.76-.29-5.71-.55-2.38-.31-4.68-.7-6.86-1.16-1.73-.36-3.39-.77-4.96-1.21h0Z"/>
  <path class="cls-1" d="m46.61,34.68c-.72,0-1.44-.01-2.16-.04-2.79-.07-5.71-.3-8.65-.69-3.22-.42-6.33-.99-9.26-1.69-1.28-.31-2.54-.65-3.75-1.01-8.02-2.41-13.06-5.55-13.83-8.62-.1-.4-.13-.8-.08-1.19.38-3.19,5.46-5.34,13.95-5.9.22-.02.45-.03.68-.04h.03c.25-.02.5-.03.75-.04l1.33-.06-.51.86c-.21.35-.4.7-.56,1.04,2.55,2.56,6.95,4.45,11.86,5.09,5.24.68,10.38-.2,13.43-2.3.26-.18.5-.36.71-.54l-.23-.87.89.24c.1.03.2.06.3.09.19.06.38.12.57.18,3.92,1.26,7.16,2.75,9.37,4.3,2.44,1.72,3.57,3.45,3.37,5.14-.01.14-.04.29-.09.45-.87,3.28-7.06,5.36-16.57,5.57-.51.01-1.03.02-1.55.02Zm-22.91-18.12s-.08,0-.12,0h-.03c-.22.01-.45.03-.67.04-7.69.51-12.65,2.41-12.95,4.96-.03.26-.01.53.06.8.65,2.62,5.67,5.63,13.09,7.85,1.19.36,2.43.69,3.69,1,2.89.7,5.97,1.26,9.15,1.67,2.91.38,5.79.61,8.55.68,1.23.04,2.46.05,3.66.02,8.74-.2,14.85-2.07,15.56-4.78.03-.11.05-.2.06-.29.31-2.61-4.41-5.87-12.01-8.31h0c-.08-.03-.16-.06-.25-.08-.31.29-.66.56-1.06.84-3.3,2.28-8.6,3.21-14.17,2.48-5.31-.69-10.08-2.81-12.75-5.68l-.14-.15v-.21c0-.13.05-.22.06-.25.09-.19.18-.39.28-.59Z"/>
  <path class="cls-1" d="m51.68,19.61c-.02-.1-.05-.21-.08-.31-1-3.91-3.75-7.23-7.56-9.11-2.25-1.04-4.67-1.57-7.2-1.57-.39,0-.79.01-1.18.04h-.06c-4.78.46-9.06,3.09-11.45,7.04-.3.49-.55.98-.76,1.46l-.06.13v.34l.15.16c2.68,2.87,7.45,4.99,12.77,5.68,1.24.16,2.48.24,3.69.24,4.22,0,7.95-.97,10.5-2.73.4-.27.76-.56,1.07-.85l.23-.22-.07-.31Zm-15.28,2.76c-4.88-.63-9.29-2.52-11.84-5.07.16-.34.35-.68.55-1.02,2.2-3.65,6.16-6.07,10.57-6.5h.06c.36-.03.73-.04,1.1-.04,2.36,0,4.63.49,6.71,1.46,3.49,1.73,6.02,4.76,6.95,8.34-.21.18-.45.36-.7.53-3.09,2.13-8.1,2.99-13.41,2.3Z"/>
  <g>
    <path class="cls-2" d="m19,21.04c-.13.88-1.17,1.44-2.33,1.25-1.17-.19-2.01-1.05-1.88-1.93.13-.88,1.17-1.44,2.34-1.25,1.16.19,2,1.05,1.88,1.93Z"/>
    <path class="cls-2" d="m26.3,26.03c-.14.97-1.21,1.62-2.47,1.54-.11,0-.22-.02-.33-.03-1.13-.18-2-.89-2.22-1.71h0c-.03-.13-.05-.26-.05-.39,0-.07,0-.14.02-.21.11-.74.75-1.3,1.62-1.48.37-.08.77-.1,1.19-.03,1.4.22,2.41,1.26,2.26,2.32Z"/>
    <path class="cls-2" d="m37.85,30.08c-.17,1.2-1.6,1.97-3.19,1.71-1.59-.25-2.74-1.43-2.56-2.63.17-1.2,1.6-1.97,3.19-1.71,1.59.25,2.74,1.43,2.56,2.63Z"/>
    <path class="cls-2" d="m50.13,29.95c-.13.93-1.11,1.56-2.29,1.55-.17,0-.34-.01-.52-.04-1.4-.22-2.41-1.26-2.26-2.31.15-1.06,1.41-1.73,2.81-1.51.86.13,1.58.59,1.97,1.16.24.35.35.75.29,1.16Z"/>
    <path class="cls-2" d="m58.91,27.22c-.13.88-1.17,1.44-2.34,1.25-1.16-.19-2-1.05-1.88-1.93.13-.88,1.17-1.44,2.33-1.25,1.17.19,2.01,1.05,1.88,1.93Z"/>
  </g>
</svg>