<?xml version="1.0" encoding="UTF-8"?>
<svg id="Camada_1" data-name="Camada 1" xmlns="http://www.w3.org/2000/svg" viewBox="0 0 202.67 186.47">
  <defs>
    <style>
      .cls-1 {
        fill: #fff;
      }

      .cls-2 {
        fill: #8548ff;
      }
    </style>
  </defs>
  <path class="cls-2" d="m179.18,119.81l-28.41,32.87c-7.71,8.92-18.47,13.98-29.72,13.98h-22.15v1.36h22.15c11.26,0,22.01-5.06,29.72-13.98l28.41-32.87c7.54-8.72,11.22-19.92,11.06-31.08-.15,10.7-3.83,21.35-11.06,29.72Z"/>
  <path class="cls-2" d="m83.49,166.66c-11.26,0-22.01-5.06-29.72-13.98l-28.41-32.87c-7.23-8.36-10.91-19.02-11.06-29.72-.16,11.15,3.52,22.36,11.06,31.08l28.41,32.87c7.71,8.92,18.47,13.98,29.72,13.98h15.41v-1.36h-15.41Z"/>
  <path class="cls-1" d="m179.18,59.02l-28.41-32.87c-7.71-8.92-18.47-13.98-29.72-13.98h-37.56c-11.26,0-22.01,5.06-29.72,13.98l-28.41,32.87c-7.54,8.72-11.22,19.92-11.06,31.08.15,10.7,3.83,21.35,11.06,29.72l28.41,32.87c7.71,8.92,18.47,13.98,29.72,13.98h37.56c11.26,0,22.01-5.06,29.72-13.98l28.41-32.87c7.23-8.36,10.91-19.02,11.06-29.72.16-11.15-3.52-22.36-11.06-31.08Z"/>
  <g>
    <path class="cls-2" d="m125.18,100.19c0,.35,0,.63,0,.91,0,1.99,0,3.98,0,5.98,0,1.31-.43,1.75-1.71,1.75-12.38,0-24.77,0-37.15,0-1.18,0-1.65-.48-1.65-1.68,0-16.15,0-32.3,0-48.45,0-1.32.41-1.73,1.71-1.73,1.08,0,2.16-.02,3.24-.03.04,0,.08-.04.2-.1,0-.22,0-.48,0-.73,0-2.09,0-4.18,0-6.26,0-1.02.48-1.51,1.5-1.51,9.14,0,18.29,0,27.43.02.39,0,.86.19,1.16.45,3.28,2.84,6.55,5.7,9.79,8.6.33.29.59.85.6,1.29.03,13.32.03,26.64.02,39.96,0,1.09-.48,1.55-1.6,1.55-1.15,0-2.3,0-3.55,0Zm-2.65,5.96c.01-.28.04-.52.04-.75,0-12.34,0-24.67.01-37.01,0-.51-.17-.84-.55-1.16-2.74-2.37-5.46-4.76-8.17-7.17-.38-.34-.76-.5-1.28-.5-8.14.02-16.27.01-24.41.01h-.84v46.57h35.2Zm-30.04-49.19c.32,0,.6,0,.88,0,6.67,0,13.35,0,20.02,0,.61,0,1.1.17,1.56.58,3.02,2.67,6.03,5.35,9.1,7.96.83.7,1.16,1.44,1.15,2.53-.04,9.55-.03,19.11-.03,28.66,0,.28.03.56.04.82h2.43v-37.72c-.32,0-.58,0-.84,0-2.57,0-5.14,0-7.71,0-1.04,0-1.48-.47-1.49-1.51,0-1.66,0-3.31,0-4.97,0-.76,0-1.52,0-2.33h-25.14v5.98Zm33.01.18c-1.81-1.59-3.47-3.04-5.23-4.57v4.57h5.23Z"/>
    <path class="cls-2" d="m80.43,110.88c1.4-.11,2.74-.26,4.07-.31,4.84-.17,9.37.81,13.26,3.85.98.76,1.94,1.1,3.16,1.05,1.75-.07,3.5-.02,5.26-.02,2.62,0,4.07,1.08,4.77,3.58.02.09.06.17.12.31,2.28-.73,4.53-1.48,6.8-2.17,3.37-1.03,6.59-.64,9.63,1.16.95.56,1.47,1.37,1.42,2.48-.05,1.12-.68,1.85-1.67,2.32-6.99,3.28-13.97,6.59-20.98,9.84-3.28,1.52-6.72,1.75-10.19.73-4.95-1.45-9.88-2.96-14.82-4.44-.25-.07-.5-.14-.74-.2-.42,1.39-.63,1.54-2.11,1.54-3.58,0-7.15,0-10.73,0-1.23,0-1.66-.42-1.66-1.64,0-6.24,0-12.48,0-18.72,0-1.16.45-1.61,1.61-1.61,3.62,0,7.25,0,10.87,0,1.51,0,1.84.33,1.89,1.85,0,.12.02.23.04.41Zm45.87,9.78c-2.5-1.46-4.97-1.82-7.56-1.02-2.73.84-5.44,1.73-8.15,2.62-.24.08-.5.21-.66.39-.98,1.06-2.18,1.49-3.6,1.49-4.87-.02-9.74,0-14.61,0-.19,0-.39,0-.57-.02-.66-.1-1.14-.65-1.14-1.29,0-.68.5-1.22,1.21-1.29.26-.03.53-.01.79-.01,4.78,0,9.55,0,14.33,0,.74,0,1.38-.17,1.79-.84.73-1.17-.09-2.59-1.55-2.61-2.16-.03-4.32-.03-6.48,0-1.31.02-2.43-.37-3.43-1.22-1.36-1.16-2.91-2.02-4.6-2.63-3.65-1.32-7.39-1.25-11.16-.7-.51.08-.51.38-.51.76,0,3.74.02,7.49-.01,11.23,0,.6.2.82.75.98,5.1,1.51,10.2,3.05,15.29,4.6,3.15.96,6.2.72,9.17-.68,5.14-2.43,10.29-4.84,15.43-7.26,1.71-.8,3.42-1.61,5.28-2.48Zm-48.58-9.37h-9.05v16.64h9.05v-16.64Z"/>
    <path class="cls-2" d="m104.36,76.17c3.32,0,6.51,0,9.7,0,.36,0,.72,0,1.08,0,1.07.01,1.54.47,1.52,1.55-.1,4.12-1.73,7.54-4.88,10.19-4.36,3.67-10.51,4.21-15.42,1.43-4.95-2.8-7.65-8.36-6.79-13.93.87-5.6,5.08-10.06,10.65-11.25.84-.18,1.71-.25,2.57-.29,1.03-.05,1.56.48,1.56,1.52,0,3.31,0,6.62,0,9.94,0,.26,0,.52,0,.86Zm-9.09,9.05c3.14,3.18,7.78,4.09,11.72,2.53,3.92-1.55,7.01-5.66,6.88-8.9-.06-.02-.13-.06-.19-.06-3.29,0-6.57-.01-9.86,0-.23,0-.5.14-.7.29-1.22.93-2.43,1.88-3.63,2.82-1.39,1.09-2.78,2.18-4.22,3.31Zm-1.69-2.1c.17-.08.24-.11.29-.15,2.52-1.96,5.04-3.92,7.54-5.9.2-.16.32-.53.32-.8.02-3.02.01-6.05.01-9.07,0-.2-.04-.4-.06-.67-3.98.67-6.88,2.69-8.58,6.27-1.65,3.48-1.39,6.92.48,10.32Z"/>
    <path class="cls-2" d="m105.96,68.14c0-1.7,0-3.41,0-5.11,0-1.11.47-1.55,1.59-1.55,6.34,0,11.85,5.56,11.82,11.93,0,.97-.48,1.48-1.45,1.48-3.5,0-7.01.01-10.51,0-.96,0-1.44-.51-1.45-1.49-.01-1.75,0-3.5,0-5.26h0Zm10.61,4.1c-.16-3.92-4.31-7.92-7.94-7.94v7.94h7.94Z"/>
    <path class="cls-2" d="m104.4,95.11c-4.12,0-8.24.01-12.36-.02-.42,0-.98-.12-1.23-.4-.27-.3-.4-.9-.29-1.29.1-.34.59-.78.94-.81,1.21-.11,2.44-.08,3.66-.08,4.98-.01,9.97-.02,14.95-.02,2.16,0,4.31,0,6.47,0,.19,0,.38,0,.58.03.77.07,1.27.58,1.28,1.29,0,.73-.53,1.29-1.34,1.3-1.2.02-2.4,0-3.6,0-3.02,0-6.04,0-9.06,0,0,0,0,0,0,0Z"/>
    <path class="cls-2" d="m104.36,97.57c4.01,0,8.01,0,12.02,0,.31,0,.63-.02.93.04.64.12,1.02.52,1.06,1.18.04.65-.26,1.11-.89,1.31-.24.08-.52.09-.78.09-8.09,0-16.17,0-24.26,0-.29,0-.58.01-.86-.02-.72-.09-1.19-.63-1.18-1.31.01-.69.49-1.21,1.22-1.27.45-.04.91-.03,1.37-.03,3.79,0,7.58,0,11.37,0Z"/>
  </g>
</svg>