<?xml version="1.0" encoding="UTF-8"?>
<svg id="Camada_1" data-name="Camada 1" xmlns="http://www.w3.org/2000/svg" viewBox="0 0 202.67 186.47">
  <defs>
    <style>
      .cls-1 {
        fill: #fff;
      }

      .cls-2, .cls-3 {
        fill: #8548ff;
      }

      .cls-3 {
        stroke: #8548ff;
        stroke-miterlimit: 10;
      }
    </style>
  </defs>
  <path class="cls-2" d="m178.18,124.81l-28.41,32.87c-7.71,8.92-18.47,13.98-29.72,13.98h-22.15v1.36h22.15c11.26,0,22.01-5.06,29.72-13.98l28.41-32.87c7.54-8.72,11.22-19.92,11.06-31.08-.15,10.7-3.83,21.35-11.06,29.72Z"/>
  <path class="cls-2" d="m82.49,171.66c-11.26,0-22.01-5.06-29.72-13.98l-28.41-32.87c-7.23-8.36-10.91-19.02-11.06-29.72-.16,11.15,3.52,22.36,11.06,31.08l28.41,32.87c7.71,8.92,18.47,13.98,29.72,13.98h15.41v-1.36h-15.41Z"/>
  <path class="cls-1" d="m178.18,64.02l-28.41-32.87c-7.71-8.92-18.47-13.98-29.72-13.98h-37.56c-11.26,0-22.01,5.06-29.72,13.98l-28.41,32.87c-7.54,8.72-11.22,19.92-11.06,31.08.15,10.7,3.83,21.35,11.06,29.72l28.41,32.87c7.71,8.92,18.47,13.98,29.72,13.98h37.56c11.26,0,22.01-5.06,29.72-13.98l28.41-32.87c7.23-8.36,10.91-19.02,11.06-29.72.16-11.15-3.52-22.36-11.06-31.08Z"/>
  <g>
    <path class="cls-3" d="m66.33,115.85c.67-2.24,2.38-3.7,3.94-5.29,3.01-3.09,6.18-6.07,8.91-9.39,3.52-4.29,4.9-9.56,5.7-14.97.11-.77.21-1.54.33-2.31.2-1.26.49-2.47,1.91-2.96,1.67-.57,3.23-.36,4.52.83,1.76,1.62,3.4,3.38,5.15,5.01.32.3,1.07.55,1.38.38,2.19-1.16,4.25-1.42,6.13.51,1.56,1.6,1.53,3.59.21,6.06,1.82,2.03,3.53,3.97,5.27,5.88,1.24,1.36,1.9,2.84,1.16,4.69-.42,1.05-1.08,1.63-2.28,1.82-3.12.5-6.24,1.07-9.32,1.78-3.87.89-7.18,2.97-10.4,5.2-.88.61-.99,1.11-.26,1.99,2.73,3.28,5.38,6.63,8.06,9.96,2.06,2.55,2.06,3.42-.33,5.66-1.5,1.4-3.16,2.62-4.76,3.92h-.94c-1.07-.75-2.37-1.32-3.18-2.29-2.69-3.26-5.21-6.66-7.85-10.07-.37.31-.64.53-.91.76-2.5,2.24-5.17,2.22-7.62-.11-1.9-1.81-3.98-3.48-4.84-6.12v-.94Zm1.99.39c.49.87.79,1.65,1.3,2.26.8.95,1.74,1.8,2.64,2.66,2.16,2.05,3.5,2.04,5.6-.02,2.38-2.34,4.81-4.63,7.1-7.06,4.19-4.43,9.36-7.05,15.19-8.46,2.32-.56,4.71-.81,7.04-1.31.69-.15,1.72-.55,1.85-1.03.17-.64-.37-1.48-.65-2.22-.09-.22-.35-.38-.53-.56-5.57-5.48-11.14-10.97-16.72-16.45-.37-.36-.74-.75-1.17-1.03-1.36-.88-2.47-.39-2.73,1.18-.15.87-.24,1.75-.37,2.62-1.19,7.78-4.15,14.67-10.01,20.14-2.4,2.24-4.72,4.57-7.01,6.92-.62.64-.99,1.52-1.52,2.35Zm17.89-1.03c-1.4,1.57-2.57,2.89-3.75,4.2-1.1,1.24-1.1,1.99.04,3.24.59.65,1.29,1.23,1.81,1.93,1.73,2.3,3.38,4.67,5.12,6.96.75.99,1.81.93,2.79.34.52-.32.95-.8,1.38-1.24,2.74-2.77,2.76-2.79.31-5.87-2.42-3.05-4.88-6.05-7.71-9.55Zm16.65-22.93c.94-1.45.88-2.49-.2-3.37-1.04-.85-2.11-1.06-3.17.06,1.13,1.11,2.22,2.18,3.37,3.31Z"/>
    <path class="cls-3" d="m94.79,59.86c.91.13,1.83.35,2.74.38,15.81.52,30.57,12.69,33.73,28.72.39,1.97.44,4.01.68,6.01.08.71.25,1.41.38,2.11v.94c-.5.28-.99.55-1.49.83-.22-.54-.59-1.06-.62-1.61-.27-5.06-.84-10.06-3.1-14.69-5.35-10.99-13.97-17.77-26.05-19.96-2.24-.4-4.55-.4-6.82-.63-.52-.05-1.03-.31-1.54-.47l.52-1.63c.52,0,1.04,0,1.56,0Z"/>
    <path class="cls-3" d="m96.14,72.14c13.78.16,22.6,11.3,23.61,20.8.15,1.44.29,2.9.22,4.34-.03.54-.67,1.04-1.02,1.56-.3-.51-.87-1.03-.87-1.54,0-4.52-.95-8.79-3.44-12.59-4.36-6.67-10.44-10.39-18.53-10.59-.88-.02-1.77-.1-2.62-.31-.31-.08-.65-.61-.7-.98-.03-.18.53-.62.85-.66.82-.1,1.66-.03,2.49-.03Z"/>
  </g>
</svg>