<?xml version="1.0" encoding="UTF-8"?>
<svg id="Camada_1" data-name="Camada 1" xmlns="http://www.w3.org/2000/svg" viewBox="0 0 202.67 186.47">
  <defs>
    <style>
      .cls-1 {
        fill: #fff;
      }

      .cls-2, .cls-3 {
        fill: #8548ff;
      }

      .cls-3 {
        stroke: #8548ff;
        stroke-miterlimit: 10;
      }
    </style>
  </defs>
  <path class="cls-2" d="m177.18,124.81l-28.41,32.87c-7.71,8.92-18.47,13.98-29.72,13.98h-22.15v1.36h22.15c11.26,0,22.01-5.06,29.72-13.98l28.41-32.87c7.54-8.72,11.22-19.92,11.06-31.08-.15,10.7-3.83,21.35-11.06,29.72Z"/>
  <path class="cls-2" d="m81.49,171.66c-11.26,0-22.01-5.06-29.72-13.98l-28.41-32.87c-7.23-8.36-10.91-19.02-11.06-29.72-.16,11.15,3.52,22.36,11.06,31.08l28.41,32.87c7.71,8.92,18.47,13.98,29.72,13.98h15.41v-1.36h-15.41Z"/>
  <path class="cls-1" d="m177.18,64.02l-28.41-32.87c-7.71-8.92-18.47-13.98-29.72-13.98h-37.56c-11.26,0-22.01,5.06-29.72,13.98l-28.41,32.87c-7.54,8.72-11.22,19.92-11.06,31.08.15,10.7,3.83,21.35,11.06,29.72l28.41,32.87c7.71,8.92,18.47,13.98,29.72,13.98h37.56c11.26,0,22.01-5.06,29.72-13.98l28.41-32.87c7.23-8.36,10.91-19.02,11.06-29.72.16-11.15-3.52-22.36-11.06-31.08Z"/>
  <g>
    <path class="cls-3" d="m67.33,97.38c.27-1.68.46-3.38.83-5.03,2.74-12.44,13.15-22.34,25.71-24.47,7.65-1.3,14.85-.04,21.61,3.77.18.1.37.19.57.29.03-.1.07-.16.06-.2-.59-1.39.16-2.24,1.1-3.15,3.75-3.67,7.43-7.4,11.14-11.1.3-.3.64-.58.96-.87.27,0,.54,0,.82,0,.25.51.64,1,.72,1.53.21,1.34.29,2.69.42,4.04.17,1.66.34,3.33.51,5.02,2.91.28,5.74.56,8.56.84.75.07,1.52.1,2.01.8v.82c-.29.32-.56.65-.87.96-3.82,3.83-7.66,7.63-11.45,11.48-.76.77-1.49,1.24-2.56.78-.07-.03-.16-.03-.24-.03-.05,0-.1.03-.2.06.1.2.19.39.29.57,9.19,16.21,3.03,36.49-13.65,44.82-3.6,1.8-7.42,2.88-11.45,3.18-.21.02-.42.09-.63.14h-4.24c-1.12-.16-2.25-.3-3.37-.49-12.73-2.18-23-11.94-25.81-24.56-.36-1.63-.55-3.3-.81-4.96,0-1.41,0-2.83,0-4.24Zm61.95.92c-.04-4.5-1.53-9.66-4.4-14.46-.79-1.33-1.68-2.36-3.33-2.45-.32-.02-.65-.11-.95-.23-.69-.28-1.16-.07-1.69.46-6.11,6.15-12.24,12.27-18.37,18.39-.74.73-1.36.82-1.9.28-.53-.54-.44-1.15.3-1.9.84-.85,1.69-1.69,2.54-2.54,5.32-5.32,10.63-10.65,15.98-15.95.46-.45.55-.84.37-1.42-.24-.78-.36-1.59-.63-2.36-.15-.42-.42-.89-.78-1.14-6.72-4.6-14.12-6.23-22.15-4.85-16.16,2.78-27.08,18.36-24.2,34.5,2.86,16.05,17.92,26.84,33.99,24.36,14.48-2.24,25.25-14.87,25.22-30.68Zm-9.38-20.85c3.2-3.21,6.28-6.28,9.33-9.37.17-.17.22-.54.2-.81-.1-1.35-.25-2.7-.38-4.05-.09-.92-.2-1.85-.31-2.92-3.49,3.49-6.85,6.84-10.19,10.22-.15.15-.23.49-.18.71.48,2.03.99,4.04,1.54,6.23Zm1.66,1.6c2.1.53,4.06,1.05,6.05,1.5.31.07.79-.12,1.03-.35,3.17-3.13,6.32-6.29,9.46-9.44.16-.16.29-.34.48-.57-2.35-.24-4.56-.48-6.78-.65-.39-.03-.91.17-1.19.44-2.85,2.8-5.66,5.63-8.49,8.46-.17.17-.32.35-.57.62Z"/>
    <path class="cls-3" d="m99.08,77.14c5.13.07,9.38,1.4,13.22,4.08.58.41.9.88.64,1.58-.27.73-1.11.88-1.91.32-1.75-1.22-3.64-2.15-5.67-2.8-11.38-3.62-23.77,3.99-25.65,15.75-1.74,10.9,5.01,20.77,15.78,23.08,10.88,2.33,21.89-5.19,23.71-16.19.89-5.4-.2-10.36-3.27-14.88-.37-.55-.67-1.08-.2-1.7.5-.67,1.39-.56,1.96.24,1.92,2.7,3.2,5.68,3.74,8.94,1.99,11.89-5.26,22.87-16.94,25.71-12.32,2.99-25.1-5.52-27.06-18.02-1.97-12.58,6.27-23.89,18.86-25.85,1.07-.17,2.16-.19,2.79-.25Z"/>
    <path class="cls-3" d="m99.76,105.53c-3.5,0-6.19-2.54-6.34-5.68-.16-3.27,2.26-6.09,5.48-6.37.59-.05,1.15-.04,1.51.55.48.78-.06,1.62-1.11,1.72-1.72.16-2.98,1.14-3.44,2.66-.64,2.14.66,4.29,2.87,4.76,2.09.44,4.17-1.08,4.44-3.27.02-.16,0-.33.03-.49.1-.65.48-1.03,1.15-1.05.61-.02,1.11.48,1.11,1.16,0,1.59-.57,2.98-1.66,4.13-1.18,1.24-2.66,1.84-4.04,1.88Z"/>
  </g>
</svg>