<?xml version="1.0" encoding="UTF-8"?>
<svg id="Camada_1" data-name="Camada 1" xmlns="http://www.w3.org/2000/svg" viewBox="0 0 202.67 186.47">
  <defs>
    <style>
      .cls-1 {
        fill: #fff;
      }

      .cls-2 {
        fill: #8548ff;
      }
    </style>
  </defs>
  <path class="cls-2" d="m177.18,124.81l-28.41,32.87c-7.71,8.92-18.47,13.98-29.72,13.98h-22.15v1.36h22.15c11.26,0,22.01-5.06,29.72-13.98l28.41-32.87c7.54-8.72,11.22-19.92,11.06-31.08-.15,10.7-3.83,21.35-11.06,29.72Z"/>
  <path class="cls-2" d="m81.49,171.66c-11.26,0-22.01-5.06-29.72-13.98l-28.41-32.87c-7.23-8.36-10.91-19.02-11.06-29.72-.16,11.15,3.52,22.36,11.06,31.08l28.41,32.87c7.71,8.92,18.47,13.98,29.72,13.98h15.41v-1.36h-15.41Z"/>
  <path class="cls-1" d="m177.18,64.02l-28.41-32.87c-7.71-8.92-18.47-13.98-29.72-13.98h-37.56c-11.26,0-22.01,5.06-29.72,13.98l-28.41,32.87c-7.54,8.72-11.22,19.92-11.06,31.08.15,10.7,3.83,21.35,11.06,29.72l28.41,32.87c7.71,8.92,18.47,13.98,29.72,13.98h37.56c11.26,0,22.01-5.06,29.72-13.98l28.41-32.87c7.23-8.36,10.91-19.02,11.06-29.72.16-11.15-3.52-22.36-11.06-31.08Z"/>
  <g>
    <path class="cls-2" d="m140.83,69.83v34.55c-.07.29-.15.57-.22.86-.85,3.48-3.84,5.83-7.49,5.87-1.09.01-2.18,0-3.24,0-.05.14-.09.19-.09.23.01,1.31-.06,2.6-.84,3.74-.08.11,0,.37.07.53,2.06,4.21,4.13,8.42,6.23,12.62.11.22.46.43.72.44.97.05,1.95.07,2.93,0,.91-.06,1.55.24,1.93,1.08v.75c-.4.82-1.05,1.06-1.95,1.06-25.05-.02-50.1-.01-75.16-.01-.25,0-.5.02-.75-.01-.81-.09-1.37-.77-1.3-1.56.07-.75.65-1.29,1.48-1.29,1.39-.01,2.79,0,4.24,0-.57-7.92-1.13-15.74-1.7-23.59-.22-.02-.39-.04-.56-.04-1.03,0-2.05.01-3.08,0-1.18-.02-1.68-.53-1.74-1.69-.02-.5-.09-1-.13-1.5-.37-5.29-.73-10.58-1.1-15.87-.06-.84-.18-1.68-.27-2.52,0-.6,0-1.2,0-1.8.05-.14.11-.28.13-.42.57-2.96,2.55-5.07,5.52-5.59,1.41-.25,2.89-.08,4.33-.18.89-.06,1.57.23,2.25.78.63.51,1.33,1.16,2.07,1.27,2.55.36,5.16.72,7.24-1.44.47-.49,1.04-.61,1.7-.6,4,.02,8.01.01,12.01.01.29,0,.57,0,.9,0,0-1.63,0-3.12,0-4.62,0-.52,0-1.06.12-1.57.8-3.8,3.77-6.16,7.74-6.16,9.96,0,19.92,0,29.87,0,.3,0,.6,0,.9.02,3.17.16,5.91,2.27,6.85,5.28.14.45.24.9.36,1.35Zm-42.92,14.86c-.02.15-.04.25-.04.35,0,6.26,0,12.51.02,18.77,0,.53.16,1.1.38,1.58.92,1.99,2.55,2.82,4.7,2.82,9.96-.01,19.92,0,29.89,0,.27,0,.55-.02.82-.04,2.12-.19,3.89-1.78,4.14-3.9.16-1.33.11-2.7.11-4.04,0-9.74,0-19.47,0-29.21,0-2.79-1.97-4.93-4.57-4.94-10.31-.02-20.63-.01-30.94,0-2.08,0-4.09,1.45-4.36,3.52-.26,1.93-.06,3.92-.06,5.94.22,0,.49,0,.76,0,2.13,0,4.26,0,6.38,0,1.03,0,1.57.55,1.58,1.57,0,.93,0,1.85,0,2.78q0,2.4-2.35,3.03c-2.16.59-4.32,1.19-6.48,1.78Zm-17.04,43.98c.16-2.27.32-4.46.48-6.65.23-3.17.48-6.33.69-9.5.24-3.69.54-7.39.63-11.08.11-4.73.03-9.46.03-14.19,0-1.05.33-1.49,1.35-1.77,2.6-.71,5.2-1.42,7.79-2.13,3.82-1.05,7.65-2.09,11.47-3.16.21-.06.5-.27.53-.46.08-.42.03-.87.03-1.31-.24-.01-.36-.03-.49-.03-6.91,0-13.82,0-20.73.02-.35,0-.77.2-1.05.43-1.15.94-2.42,1.61-3.91,1.74-.89.08-1.8,0-2.7.06-2.13.12-3.99-.51-5.59-1.92-.2-.18-.52-.3-.79-.31-1-.04-2-.04-3,0-1.86.05-3.64,1.49-3.77,3.34-.12,1.71.07,3.44.18,5.16.26,3.99.56,7.98.85,11.97.08,1.09.17,2.17.25,3.24h2.45c0-.32,0-.59,0-.86,0-4.61,0-9.21,0-13.82,0-1.2.51-1.89,1.43-1.91.92-.03,1.45.65,1.45,1.86,0,4.28-.06,8.56.02,12.84.06,3.25.25,6.5.45,9.74.3,4.69.66,9.38,1,14.07.11,1.54.23,3.08.35,4.63h3.85c0-.36,0-.68,0-1,0-6.51,0-13.02,0-19.52,0-.64.11-1.19.7-1.55.49-.3.99-.3,1.49,0,.53.31.69.8.69,1.4,0,6.61,0,13.22,0,19.82,0,.29,0,.57,0,.88h3.87Zm25.12-17.56c-1.11,0-2.1.03-3.1,0-.67-.02-1.36-.06-2.01-.21-3.59-.86-5.89-3.77-5.9-7.49-.01-5.68,0-11.36,0-17.03,0-.26,0-.53,0-.88-3.21.88-6.3,1.72-9.54,2.61.69,13.57-.74,27.03-1.68,40.53.15.03.24.07.33.07,5.25,0,10.51,0,15.76-.02.23,0,.56-.22.66-.43,2.09-4.2,4.15-8.41,6.21-12.62.08-.16.16-.43.08-.54-.8-1.18-.89-2.52-.82-3.98Zm4.84,17.53h14.13c-1.49-3.71-2.93-7.34-4.42-10.96-.08-.2-.43-.4-.66-.4-1.3-.04-2.6,0-3.9-.03-.45-.01-.66.14-.82.55-.94,2.42-1.91,4.82-2.87,7.23-.48,1.2-.96,2.39-1.46,3.61Zm-1.97-17.5c0,.39,0,.71,0,1.03.03,1.34.82,2.16,2.15,2.17,4.58.02,9.16,0,13.74,0,.85,0,1.59-.31,1.88-1.1.24-.64.21-1.38.3-2.11h-18.09Zm-5.32,17.56c1.28,0,2.43-.02,3.58.01.46.01.65-.16.81-.57,1-2.55,2.02-5.09,3.04-7.63.42-1.06.85-2.11,1.28-3.18-1.04-.09-2-.17-2.99-.25-1.88,3.82-3.77,7.66-5.71,11.62Zm22.99-11.62c-1.04.09-1.98.17-2.92.24,0,.02-.02.05-.01.07,1.45,3.66,2.9,7.32,4.37,10.97.06.14.28.31.42.32,1.24.03,2.47.01,3.85.01-1.95-3.97-3.84-7.81-5.71-11.62Z"/>
    <path class="cls-2" d="m76.69,56.62c1.45.37,2.85.85,4.05,1.8,2.53,2.02,3.74,5.47,2.81,8.6-.99,3.33-3.23,5.42-6.7,5.97-4.54.73-8.75-2.35-9.46-6.82-.71-4.46,2.25-8.57,6.78-9.43.09-.02.17-.09.26-.13.75,0,1.5,0,2.25,0Zm4.25,8.28c.01-2.98-2.39-5.41-5.35-5.42-2.93,0-5.36,2.4-5.37,5.32-.02,2.99,2.34,5.41,5.31,5.46,2.93.05,5.4-2.4,5.42-5.36Z"/>
    <path class="cls-2" d="m109.59,98.99c0-2.57,0-5.04,0-7.51,0-4.41,0-8.81,0-13.22,0-1.26,1.12-2.06,2.09-1.44.37.24.74.83.74,1.26.04,4.88.02,9.76.01,14.64,0,2.05,0,4.1,0,6.2h4.07c0-.75,0-1.52,0-2.28-.01-7.71-.02-15.42-.04-23.13,0-1.33.52-2.04,1.46-2.01.92.03,1.42.73,1.42,2,0,8.14,0,16.27,0,24.41,0,.32,0,.65,0,1.02h4c0-.74,0-1.5,0-2.26-.02-5.5-.03-11.01-.05-16.51,0-.3.01-.6.09-.89.19-.69.68-1.03,1.39-1.02.71.01,1.18.39,1.35,1.08.09.36.08.74.08,1.12,0,5.86,0,11.72,0,17.57,0,.29,0,.59,0,.93h3.96c0-.29,0-.58,0-.88,0-7.31,0-14.62.01-21.93,0-.38.08-.81.26-1.14.31-.56.86-.77,1.48-.62.63.15,1.06.56,1.11,1.25.02.25.01.5.01.75,0,7.18,0,14.37,0,21.55,0,.32,0,.64,0,1.06.47,0,.89-.02,1.3,0,.87.05,1.48.69,1.45,1.5-.03.81-.59,1.35-1.47,1.37-1.1.02-2.2,0-3.3,0-9.69,0-19.38,0-29.06,0-.39,0-.83,0-1.17-.15-.64-.28-.9-.85-.79-1.54.12-.7.71-1.17,1.53-1.17,2.38-.01,4.76,0,7.13,0,.27,0,.55,0,.92,0Z"/>
  </g>
</svg>