<?xml version="1.0" encoding="UTF-8"?>
<svg id="Camada_1" data-name="Camada 1" xmlns="http://www.w3.org/2000/svg" viewBox="0 0 275.23 253.23">
  <defs>
    <style>
      .cls-1 {
        fill: #f98f7e;
      }

      .cls-2 {
        fill: #f8b897;
      }

      .cls-3 {
        fill: #faaf4d;
      }

      .cls-4 {
        fill: #f9e2d2;
      }

      .cls-5 {
        fill: #002849;
      }

      .cls-6 {
        fill: #f1dcff;
      }

      .cls-7 {
        fill: #e87136;
      }

      .cls-8 {
        fill: #e5766a;
      }

      .cls-9 {
        fill: #fff;
      }

      .cls-10 {
        fill: #ffaa3f;
      }

      .cls-11 {
        fill: #e6c7ff;
      }

      .cls-12 {
        fill: #ff7b31;
      }

      .cls-13 {
        fill: #7532a0;
      }

      .cls-14 {
        fill: #b4fcbd;
      }

      .cls-15 {
        fill: #8f00ff;
      }

      .cls-16 {
        fill: #33080a;
      }

      .cls-17 {
        fill: #d39ffc;
      }

      .cls-18 {
        fill: #a707fc;
      }

      .cls-19 {
        fill: #a5efa9;
      }

      .cls-20 {
        fill: #af1238;
      }

      .cls-21 {
        fill: #d09fff;
      }

      .cls-22 {
        fill: #25063f;
      }

      .cls-23 {
        fill: #233d8d;
      }

      .cls-24 {
        fill: #441168;
      }

      .cls-25 {
        fill: #98101f;
      }

      .cls-26 {
        fill: #6e03d6;
      }

      .cls-27 {
        fill: #2a0c44;
      }

      .cls-28 {
        fill: #760abc;
      }

      .cls-29 {
        fill: #8433ae;
      }
    </style>
  </defs>
  <g id="Background">
    <path class="cls-6" d="m248.36,176.72c-.27,1.76-.65,3.66-1.2,5.64-.05.2-.11.4-.17.6-.14.48-.29.98-.45,1.47-.03.08-.05.16-.08.25-.04.12-.08.24-.12.36-.21.64-.44,1.28-.7,1.93-.07.2-.15.39-.23.59-.82,2.04-1.81,4.14-3.03,6.24-.33.57-.68,1.15-1.04,1.72-.08.12-.15.24-.23.36-.81,1.24-1.7,2.48-2.68,3.71-1.81,2.28-3.93,4.52-6.4,6.67-.71.62-1.46,1.24-2.23,1.84-.17.13-.33.26-.5.39-1.71,1.31-3.57,2.57-5.59,3.78-.27.16-.55.32-.82.48-3.47,2-7.38,3.85-11.82,5.46-.27.1-.55.2-.82.29-3.6,1.27-7.53,2.39-11.82,3.32-.27.06-.55.12-.82.18-3.67.78-7.61,1.42-11.82,1.91-.27.03-.55.06-.82.09-3.72.42-7.66.71-11.82.88-.27.01-.55.02-.82.03-3.75.14-7.69.16-11.82.08-.27,0-.55-.01-.82-.02-1.3-.03-2.61-.07-3.95-.13-2.68-.11-5.3-.22-7.87-.34-.27-.01-.55-.03-.82-.04-4.08-.2-8.02-.41-11.82-.64-.28-.02-.55-.03-.82-.05-4.1-.25-8.04-.53-11.82-.83-.28-.02-.55-.04-.82-.07-4.13-.33-8.06-.7-11.82-1.09-.28-.03-.55-.06-.82-.09-4.16-.45-8.1-.93-11.82-1.47-.28-.04-.55-.08-.82-.12-4.21-.61-8.15-1.29-11.82-2.03-.28-.06-.55-.11-.82-.17-4.29-.89-8.22-1.87-11.82-2.95-.28-.08-.55-.17-.82-.25-4.42-1.37-8.33-2.89-11.82-4.61-.28-.14-.55-.27-.82-.41-.77-.39-1.52-.79-2.25-1.21-.23-.13-.45-.26-.68-.39-1.02-.59-1.99-1.21-2.92-1.84-2.96-2.01-5.52-4.23-7.75-6.67-1.08-1.18-2.08-2.42-3-3.71-.09-.12-.17-.24-.26-.36-.39-.56-.78-1.14-1.14-1.72-1.23-1.95-2.33-4.02-3.31-6.22,0,0,0-.01,0-.02-.36-.82-.71-1.66-1.04-2.52-.05-.12-.09-.24-.14-.36-.18-.48-.36-.96-.53-1.44l-.1-.28c-.29-.83-.57-1.67-.82-2.51-.38-1.23-.72-2.48-1.02-3.73-2.76-11.4-2.45-23.39.82-34.74.07-.23.13-.46.2-.68.56-1.9,1.16-3.78,1.81-5.62h0c.18-.52.36-1.03.55-1.54.39-1.06.79-2.11,1.2-3.15.19-.47.38-.95.57-1.41.24-.59.49-1.18.74-1.76.09-.22.19-.44.28-.66.05-.12.11-.24.16-.36.26-.58.52-1.15.78-1.73.44-.95.89-1.89,1.35-2.83.05-.1.1-.21.16-.31,6.13-12.27,14.17-22.88,23.53-31.74,0,0,0,0,0,0,4.37-4.13,9.02-7.88,13.9-11.24h0c9.59-6.6,20.03-11.69,30.89-15.2.04-.01.08-.03.13-.04.52-.17,1.04-.33,1.57-.49.31-.1.62-.19.94-.28.08-.02.16-.05.24-.07.35-.1.7-.21,1.06-.31,1.94-.55,3.89-1.06,5.85-1.51.99-.23,1.99-.45,2.98-.65,2.85-.58,5.71-1.06,8.57-1.43.3-.04.6-.08.9-.11,1.86-.23,3.73-.41,5.6-.55.35-.03.7-.05,1.05-.07,4.12-.26,8.23-.31,12.33-.12.24,0,.48.02.71.03,4.88.25,9.73.82,14.5,1.72,2.61.49,5.2,1.08,7.77,1.77,1.06.29,2.12.59,3.17.91.52.16,1.05.32,1.57.49.34.11.68.22,1.02.33.2.07.39.13.59.2.34.11.67.23,1,.35.15.05.3.11.45.16.48.17.97.35,1.45.53,5.79,2.18,11.39,4.9,16.7,8.19,4.58,2.83,8.95,6.08,13.06,9.76,10.99,9.84,20.09,22.71,26.27,38.78.04.1.08.21.12.31.04.09.07.18.1.27.04.1.08.21.12.31.36.95.7,1.9,1.04,2.88.13.37.26.75.38,1.13.04.11.07.21.1.32.03.08.05.16.08.24.04.11.07.22.11.32,0,0,0,.02,0,.03.07.22.15.44.22.66.12.39.25.78.37,1.17.06.2.12.4.18.59.16.51.31,1.02.45,1.54.32,1.08.62,2.18.91,3.29.21.81.42,1.63.61,2.46.21.9.42,1.81.62,2.72.41,1.86.78,3.75,1.11,5.68.22,1.26.42,2.53.61,3.81.6,4.06,1.05,8.26,1.34,12.61.1,1.55.21,3.11.33,4.66.15,1.93.25,5.68-.47,10.4Z"/>
    <path class="cls-17" d="m54.6,201.29h180.88c0-68.3-40.49-123.67-90.44-123.67h0c-49.95,0-90.44,55.37-90.44,123.67h0Z"/>
    <path class="cls-11" d="m87.67,201.29h114.76c0-48.95-25.69-88.63-57.38-88.63h0c-31.69,0-57.38,39.68-57.38,88.63h0Z"/>
  </g>
  <g id="Ballon">
    <g id="Ballon-2" data-name="Ballon">
      <path class="cls-16" d="m58.8,138.26c.58-3.78,1.09-7.25,1.39-9.32.28-1.77.56-3.54.86-5.28l-.31-.05c-.75,4.34-1.41,8.83-2.04,13.17-.34,2.29-.63,4.34-.9,6.17-.17,1.08-.36,2.21-.55,3.42.02-1.49-.08-2.98-.17-4.45-.18-2.93-.37-5.95.32-8.82.24-.98.58-1.95.91-2.89.31-.89.64-1.81.88-2.75.74-2.9.64-5.94.54-8.89-.03-.82-.05-1.66-.06-2.48-.05-4.41.43-8.83,1.41-13.13l-.31-.07c-.99,4.33-1.47,8.77-1.42,13.21,0,.83.04,1.67.06,2.49.09,2.92.19,5.95-.53,8.8-.23.92-.56,1.84-.87,2.72-.33.95-.68,1.92-.92,2.92-.7,2.92-.52,5.96-.33,8.91.14,2.19.28,4.45.05,6.65-1.17-10.01-3.04-20.02-5.55-29.77l-.31.08c2.62,10.18,4.66,20.64,5.82,31.09,0,0,1.51-8.26,2.02-11.72Z"/>
      <g>
        <path class="cls-12" d="m74.17,95.31c-.97,6.8-8.29,18.78-15.09,17.81-6.8-.97-10.49-14.51-9.53-21.31s7.26-11.52,14.06-10.56,11.52,7.26,10.56,14.06Z"/>
        <path class="cls-7" d="m74.17,95.31c-.97,6.8-8.29,18.78-15.09,17.81s-10.49-14.51-9.53-21.31,7.26-11.52,14.06-10.56c.38.05.76.12,1.12.21-5.19-.21-9.8,3.54-10.55,8.8-.8,5.6,2.25,16.77,7.86,17.57,5.27.75,10.92-7.93,12.24-13.63-.02.37-.06.74-.11,1.11Z"/>
        <ellipse class="cls-6" cx="69.89" cy="87.19" rx="1.37" ry="2.65" transform="translate(-35.83 51.01) rotate(-32.39)"/>
        <path class="cls-7" d="m57.76,112.76l-1.18,2.26s1.99.78,4.11.58l-.23-2.46s-1.98-.72-2.7-.38Z"/>
      </g>
      <g>
        <path class="cls-14" d="m59.11,98.68c1.09,6.14-1.84,18.57-7.98,19.66-6.14,1.09-13.18-9.56-14.27-15.7-1.09-6.14,3-12.01,9.15-13.11s12.01,3,13.11,9.15Z"/>
        <path class="cls-19" d="m59.11,98.68c1.09,6.14-1.84,18.57-7.98,19.66s-13.18-9.56-14.27-15.7c-1.09-6.15,3-12.01,9.15-13.11.34-.06.69-.11,1.03-.14-4.55,1.29-7.46,5.84-6.62,10.59.9,5.07,6.7,13.85,11.77,12.95,4.76-.85,7.18-9.95,6.71-15.24.09.32.16.65.22.99Z"/>
        <ellipse class="cls-6" cx="53.11" cy="92.88" rx="1.25" ry="2.41" transform="translate(-52.36 74.9) rotate(-50.56)"/>
        <path class="cls-19" d="m49.88,118.4l-.38,2.29s1.94.11,3.71-.66l-.9-2.06s-1.91-.06-2.44.43Z"/>
      </g>
      <g>
        <path class="cls-29" d="m72.41,109.58c-.75,5.29-6.45,14.61-11.74,13.86-5.29-.75-8.16-11.29-7.41-16.58.75-5.29,5.65-8.97,10.94-8.21s8.97,5.65,8.21,10.94Z"/>
        <path class="cls-13" d="m72.41,109.58c-.75,5.29-6.45,14.61-11.74,13.86-5.29-.75-8.16-11.29-7.41-16.58.75-5.29,5.65-8.97,10.94-8.21.3.04.59.1.87.17-4.04-.16-7.63,2.76-8.21,6.85-.62,4.36,1.75,13.05,6.11,13.67,4.1.58,8.49-6.17,9.52-10.6-.02.29-.04.57-.08.86Z"/>
        <ellipse class="cls-6" cx="69.09" cy="103.27" rx="1.07" ry="2.06" transform="translate(-44.57 53.08) rotate(-32.39)"/>
        <path class="cls-13" d="m59.64,123.16l-.92,1.76s1.55.61,3.19.45l-.18-1.91s-1.54-.56-2.1-.3Z"/>
      </g>
    </g>
    <g id="Ballon-3" data-name="Ballon">
      <path class="cls-16" d="m223.72,138.26c-.58-3.78-1.09-7.25-1.39-9.32-.28-1.77-.56-3.54-.86-5.28l.31-.05c.75,4.34,1.41,8.83,2.04,13.17.34,2.29.63,4.34.9,6.17.17,1.08.36,2.21.55,3.42-.02-1.49.08-2.98.17-4.45.18-2.93.37-5.95-.32-8.82-.24-.98-.58-1.95-.91-2.89-.31-.89-.64-1.81-.88-2.75-.74-2.9-.64-5.94-.54-8.89.03-.82.05-1.66.06-2.48.05-4.41-.43-8.83-1.41-13.13l.31-.07c.99,4.33,1.47,8.77,1.42,13.21,0,.83-.04,1.67-.06,2.49-.09,2.92-.19,5.95.53,8.8.23.92.56,1.84.87,2.72.33.95.68,1.92.92,2.92.7,2.92.52,5.96.33,8.91-.14,2.19-.28,4.45-.05,6.65,1.17-10.01,3.04-20.02,5.55-29.77l.31.08c-2.62,10.18-4.66,20.64-5.82,31.09,0,0-1.51-8.26-2.02-11.72Z"/>
      <g>
        <path class="cls-12" d="m208.36,95.31c.97,6.8,8.29,18.78,15.09,17.81s10.49-14.51,9.53-21.31-7.26-11.52-14.06-10.56c-6.8.97-11.52,7.26-10.56,14.06Z"/>
        <path class="cls-7" d="m208.36,95.31c.97,6.8,8.29,18.78,15.09,17.81s10.49-14.51,9.53-21.31-7.26-11.52-14.06-10.56c-.38.05-.76.12-1.12.21,5.19-.21,9.8,3.54,10.55,8.8.8,5.6-2.25,16.77-7.86,17.57-5.27.75-10.92-7.93-12.24-13.63.02.37.06.74.11,1.11Z"/>
        <ellipse class="cls-6" cx="212.63" cy="87.19" rx="2.65" ry="1.37" transform="translate(25.1 220.02) rotate(-57.61)"/>
        <path class="cls-7" d="m224.77,112.76l1.18,2.26s-1.99.78-4.11.58l.23-2.46s1.98-.72,2.7-.38Z"/>
      </g>
      <g>
        <path class="cls-14" d="m223.42,98.68c-1.09,6.14,1.84,18.57,7.98,19.66s13.18-9.56,14.27-15.7-3-12.01-9.15-13.11c-6.14-1.09-12.01,3-13.11,9.15Z"/>
        <path class="cls-19" d="m223.42,98.68c-1.09,6.14,1.84,18.57,7.98,19.66,6.14,1.09,13.18-9.56,14.27-15.7,1.09-6.15-3-12.01-9.15-13.11-.34-.06-.69-.11-1.03-.14,4.55,1.29,7.46,5.84,6.62,10.59-.9,5.07-6.7,13.85-11.77,12.95-4.76-.85-7.18-9.95-6.71-15.24-.09.32-.16.65-.22.99Z"/>
        <ellipse class="cls-6" cx="229.41" cy="92.88" rx="2.41" ry="1.25" transform="translate(-6.77 166.87) rotate(-39.44)"/>
        <path class="cls-19" d="m232.65,118.4l.38,2.29s-1.94.11-3.71-.66l.9-2.06s1.91-.06,2.44.43Z"/>
      </g>
      <g>
        <path class="cls-29" d="m210.11,109.58c.75,5.29,6.45,14.61,11.74,13.86s8.16-11.29,7.41-16.58-5.65-8.97-10.94-8.21-8.97,5.65-8.21,10.94Z"/>
        <path class="cls-13" d="m210.11,109.58c.75,5.29,6.45,14.61,11.74,13.86s8.16-11.29,7.41-16.58c-.75-5.29-5.65-8.97-10.94-8.21-.3.04-.59.1-.87.17,4.04-.16,7.63,2.76,8.21,6.85.62,4.36-1.75,13.05-6.11,13.67-4.1.58-8.49-6.17-9.52-10.6.02.29.04.57.08.86Z"/>
        <ellipse class="cls-6" cx="213.44" cy="103.27" rx="2.06" ry="1.07" transform="translate(11.89 228.17) rotate(-57.61)"/>
        <path class="cls-13" d="m222.88,123.16l.92,1.76s-1.55.61-3.19.45l.18-1.91s1.54-.56,2.1-.3Z"/>
      </g>
    </g>
  </g>
  <g id="Speaker">
    <g id="Speaker-2" data-name="Speaker">
      <polygon class="cls-6" points="84.6 199.59 59.24 199.59 61.18 144.56 79.27 144.56 84.6 199.59"/>
      <polygon class="cls-28" points="59.24 199.59 44.71 199.59 47.96 144.56 61.18 144.56 59.24 199.59"/>
      <rect class="cls-24" x="50.5" y="147.49" width="7.07" height=".7" rx=".26" ry=".26"/>
      <rect class="cls-24" x="50.14" y="151.09" width="7.07" height=".7" rx=".26" ry=".26"/>
      <rect class="cls-24" x="50.14" y="154.7" width="7.07" height=".7" rx=".26" ry=".26"/>
      <ellipse class="cls-24" cx="57.67" cy="198.19" rx=".49" ry=".67"/>
      <ellipse class="cls-24" cx="59.73" cy="145.64" rx=".49" ry=".67"/>
      <ellipse class="cls-24" cx="48.83" cy="145.64" rx=".49" ry=".67"/>
      <ellipse class="cls-24" cx="45.97" cy="198.5" rx=".49" ry=".67"/>
      <path class="cls-24" d="m56.01,186.62h-7.26c-.6,0-1.07-.5-1.03-1.1l1.47-24.72c.03-.55.49-.97,1.03-.97h6.91c.59,0,1.06.49,1.03,1.08l-1.12,24.72c-.03.55-.48.99-1.03.99Z"/>
      <ellipse class="cls-18" cx="70.98" cy="156.31" rx="5.43" ry="7.19"/>
      <path class="cls-24" d="m76.03,156.31c0,2.61-1.13,4.87-2.77,5.97-.68.46-1.46.72-2.28.72-2.79,0-5.05-2.99-5.05-6.69s2.26-6.69,5.05-6.69c.82,0,1.59.26,2.28.72,1.65,1.1,2.77,3.36,2.77,5.97Z"/>
      <path class="cls-22" d="m76.03,156.31c0,2.61-1.13,4.87-2.77,5.97-1.65-1.1-2.77-3.36-2.77-5.97s1.13-4.87,2.77-5.97c1.65,1.1,2.77,3.36,2.77,5.97Z"/>
      <ellipse class="cls-18" cx="70.98" cy="156.31" rx="1.49" ry="1.97"/>
      <ellipse class="cls-18" cx="71.92" cy="180.43" rx="7.6" ry="10.06"/>
      <path class="cls-24" d="m78.99,180.43c0,3.65-1.58,6.81-3.88,8.35-.96.64-2.04,1-3.19,1-3.9,0-7.07-4.19-7.07-9.35s3.16-9.35,7.07-9.35c1.15,0,2.23.36,3.19,1,2.3,1.54,3.88,4.7,3.88,8.35Z"/>
      <path class="cls-22" d="m78.99,180.43c0,3.65-1.58,6.81-3.88,8.35-2.3-1.54-3.88-4.7-3.88-8.35s1.58-6.81,3.88-8.35c2.3,1.54,3.88,4.7,3.88,8.35Z"/>
      <ellipse class="cls-18" cx="71.92" cy="180.43" rx="2.08" ry="2.76"/>
    </g>
    <g id="Speaker-3" data-name="Speaker">
      <polygon class="cls-6" points="197.92 199.59 223.28 199.59 221.35 144.56 203.26 144.56 197.92 199.59"/>
      <polygon class="cls-28" points="223.28 199.59 237.82 199.59 234.57 144.56 221.35 144.56 223.28 199.59"/>
      <rect class="cls-24" x="224.95" y="147.49" width="7.07" height=".7" rx=".26" ry=".26" transform="translate(456.97 295.67) rotate(-180)"/>
      <rect class="cls-24" x="225.31" y="151.09" width="7.07" height=".7" rx=".26" ry=".26" transform="translate(457.7 302.88) rotate(-180)"/>
      <rect class="cls-24" x="225.31" y="154.7" width="7.07" height=".7" rx=".26" ry=".26" transform="translate(457.7 310.1) rotate(180)"/>
      <ellipse class="cls-24" cx="224.85" cy="198.19" rx=".49" ry=".67"/>
      <ellipse class="cls-24" cx="222.79" cy="145.64" rx=".49" ry=".67"/>
      <ellipse class="cls-24" cx="233.69" cy="145.64" rx=".49" ry=".67"/>
      <ellipse class="cls-24" cx="236.55" cy="198.5" rx=".49" ry=".67"/>
      <path class="cls-24" d="m226.52,186.62h7.26c.6,0,1.07-.5,1.03-1.1l-1.47-24.72c-.03-.55-.49-.97-1.03-.97h-6.91c-.59,0-1.06.49-1.03,1.08l1.12,24.72c.03.55.48.99,1.03.99Z"/>
      <ellipse class="cls-4" cx="211.55" cy="156.31" rx="5.43" ry="7.19"/>
      <path class="cls-24" d="m206.5,156.31c0,2.61,1.13,4.87,2.77,5.97.68.46,1.46.72,2.28.72,2.79,0,5.05-2.99,5.05-6.69,0-3.69-2.26-6.69-5.05-6.69-.82,0-1.59.26-2.28.72-1.65,1.1-2.77,3.36-2.77,5.97Z"/>
      <path class="cls-22" d="m206.5,156.31c0,2.61,1.13,4.87,2.77,5.97,1.65-1.1,2.77-3.36,2.77-5.97s-1.13-4.87-2.77-5.97c-1.65,1.1-2.77,3.36-2.77,5.97Z"/>
      <ellipse class="cls-4" cx="211.55" cy="156.31" rx="1.49" ry="1.97"/>
      <ellipse class="cls-4" cx="210.6" cy="180.43" rx="7.6" ry="10.06"/>
      <path class="cls-24" d="m203.53,180.43c0,3.65,1.58,6.81,3.88,8.35.96.64,2.04,1,3.19,1,3.9,0,7.07-4.19,7.07-9.35,0-5.17-3.16-9.35-7.07-9.35-1.15,0-2.23.36-3.19,1-2.3,1.54-3.88,4.7-3.88,8.35Z"/>
      <path class="cls-22" d="m203.53,180.43c0,3.65,1.58,6.81,3.88,8.35,2.3-1.54,3.88-4.7,3.88-8.35s-1.58-6.81-3.88-8.35c-2.3,1.54-3.88,4.7-3.88,8.35Z"/>
      <ellipse class="cls-4" cx="210.6" cy="180.43" rx="2.08" ry="2.76"/>
    </g>
  </g>
  <g id="Base">
    <path class="cls-21" d="m55.64,208.11h174.16c-.17.13-.33.26-.5.39-1.71,1.31-3.57,2.57-5.59,3.78-.27.16-.55.32-.82.48-3.47,2-7.38,3.85-11.82,5.46-.27.1-.55.2-.82.29-3.6,1.27-7.53,2.39-11.82,3.32-.27.06-.55.12-.82.18-3.67.78-7.61,1.42-11.82,1.91-.27.03-.55.06-.82.09-3.72.42-7.66.71-11.82.88-.27.01-.55.02-.82.03-3.75.14-7.69.16-11.82.08-.27,0-.55-.01-.82-.02-1.3-.03-2.61-.07-3.95-.13-2.68-.11-5.3-.22-7.87-.34-.27-.01-.55-.03-.82-.04-4.08-.2-8.02-.41-11.82-.64-.28-.02-.55-.03-.82-.05-4.1-.25-8.04-.53-11.82-.83-.28-.02-.55-.04-.82-.07-4.13-.33-8.06-.7-11.82-1.09-.28-.03-.55-.06-.82-.09-4.16-.45-8.1-.93-11.82-1.47-.28-.04-.55-.08-.82-.12-4.21-.61-8.15-1.29-11.82-2.03-.28-.06-.55-.11-.82-.17-4.29-.89-8.22-1.87-11.82-2.95-.28-.08-.55-.17-.82-.25-4.42-1.37-8.33-2.89-11.82-4.61-.28-.14-.55-.27-.82-.41-.77-.39-1.52-.79-2.25-1.21-.23-.13-.45-.26-.68-.39Z"/>
    <path class="cls-28" d="m223.71,208.66v3.61c-.27.16-.55.32-.82.48v-4.1c0-.06.01-.11.03-.16.06-.15.21-.25.38-.25s.31.1.38.25c.02.05.04.11.04.16Z"/>
    <path class="cls-28" d="m211.07,208.66v9.55c-.27.1-.55.2-.82.29v-9.85c0-.06.01-.11.03-.16.06-.15.21-.25.38-.25s.31.1.38.25c.02.05.03.11.03.16Z"/>
    <path class="cls-28" d="m198.43,208.66v13.17c-.27.06-.55.12-.82.18v-13.35c0-.06.01-.11.03-.16.06-.15.21-.25.38-.25s.31.1.38.25c.02.05.03.11.03.16Z"/>
    <path class="cls-28" d="m185.79,208.66v15.26c-.27.03-.55.06-.82.09v-15.35c0-.06.01-.11.03-.16.06-.15.21-.25.38-.25s.31.1.38.25c.02.05.03.11.03.16Z"/>
    <path class="cls-28" d="m173.15,208.66v16.23c-.27.01-.55.02-.82.03v-16.26c0-.06.01-.11.04-.16.06-.15.21-.25.38-.25s.31.1.38.25c.02.05.03.11.03.16Z"/>
    <path class="cls-28" d="m160.51,208.66v16.34c-.27,0-.55-.01-.82-.02v-16.32c0-.06.01-.11.04-.16.06-.15.21-.25.38-.25s.31.1.38.25c.02.05.04.11.04.16Z"/>
    <path class="cls-28" d="m147.87,208.66v15.85c-.27-.01-.55-.03-.82-.04v-15.81c0-.06.01-.11.04-.16.06-.15.21-.25.38-.25s.31.1.38.25c.02.05.04.11.04.16Z"/>
    <path class="cls-28" d="m135.23,208.66v15.17c-.28-.02-.55-.03-.82-.05v-15.12c0-.06.01-.11.04-.16.06-.15.21-.25.38-.25s.31.1.38.25c.02.05.04.11.04.16Z"/>
    <path class="cls-28" d="m122.59,208.66v14.29c-.28-.02-.55-.04-.82-.07v-14.23c0-.06.01-.11.04-.16.06-.15.21-.25.38-.25s.31.1.38.25c.02.05.04.11.04.16Z"/>
    <path class="cls-28" d="m109.95,208.66v13.14c-.28-.03-.55-.06-.82-.09v-13.05c0-.06.01-.11.04-.16.06-.15.21-.25.38-.25s.31.1.38.25c.02.05.04.11.04.16Z"/>
    <path class="cls-28" d="m97.31,208.66v11.58c-.28-.04-.55-.08-.82-.12v-11.47c0-.06.01-.11.03-.16.06-.15.21-.25.38-.25s.31.1.38.25c.02.05.04.11.04.16Z"/>
    <path class="cls-28" d="m84.67,208.66v9.43c-.28-.06-.55-.11-.82-.17v-9.26c0-.06.01-.11.03-.16.06-.15.21-.25.38-.25s.31.1.38.25c.02.05.03.11.03.16Z"/>
    <path class="cls-28" d="m72.03,208.66v6.31c-.28-.08-.55-.17-.82-.25v-6.06c0-.06.01-.11.03-.16.06-.15.21-.25.38-.25s.31.1.38.25c.02.05.03.11.03.16Z"/>
    <path class="cls-28" d="m59.39,208.66v1.46c-.28-.14-.55-.27-.82-.41v-1.04c0-.06.01-.11.04-.16.06-.15.21-.25.38-.25s.31.1.38.25c.02.05.03.11.03.16Z"/>
    <path class="cls-28" d="m238.44,199.59c-1.81,2.28-3.93,4.52-6.4,6.67-.71.62-1.46,1.24-2.23,1.84-.17.13-.33.26-.5.39H56.32c-.23-.13-.45-.26-.68-.39-1.02-.59-1.99-1.21-2.92-1.84-2.96-2.01-5.52-4.23-7.75-6.67h193.46Z"/>
    <path class="cls-21" d="m238.44,199.59c-1.81,2.28-3.93,4.52-6.4,6.67H52.72c-2.96-2.01-5.52-4.23-7.75-6.67h193.46Z"/>
  </g>
  <g id="Long_Hair_Woman_Dancing" data-name="Long Hair Woman Dancing">
    <path class="cls-2" d="m189.21,154.31c10.93-3.53,24.2-5.79,24.17-5.78l2.59,6.04c-.13.05-15.28,6.24-23.21,9.48-2.62,1.07-5.62-.16-6.73-2.76h0c-1.2-2.81.27-6.05,3.18-6.98Z"/>
    <path class="cls-1" d="m196.79,152.13h0c-1.46.56-2.25,2.14-1.85,3.64l.05.2-1.24-3.03,3.03-.82Z"/>
    <path class="cls-2" d="m193.27,163.82c-.79.42-1.64.62-2.47.62-1.92,0-3.77-1.05-4.7-2.88-2.15-4.22-4.98-9.76-7.21-14.12-1.22-2.38-2.25-4.41-2.9-5.67,2.5-2.06,8.21-6.75,10.65-8.76.82,2.99,2.36,7.77,4.27,12.84h0c1.39,3.71,2.99,7.58,4.65,11.03,1.23,2.55.22,5.61-2.28,6.94Z"/>
    <path class="cls-1" d="m190.9,145.86h0c-1.36-2.86-4.88-3.88-7.58-2.24-1.13.69-2.21,1.23-3.02,1.61-.86.4-1.41,1.27-1.41,2.22h0s0,0,0,0c-1.22-2.38-2.25-4.41-2.9-5.67,2.5-2.06,8.21-6.75,10.65-8.76.82,2.99,2.36,7.77,4.27,12.84Z"/>
    <path class="cls-2" d="m172,135.85s-.14.63-.35,1.73c-.67,3.39-2.11,11.28-2.61,18.95h0c-.13,2-.2,3.99-.17,5.87,0,.51,0,1.04,0,1.57,0,.05,0,.09,0,.14-.25,11.48-4.23,27.98-4.23,27.98h-6.13l.47-27.98v-.14s.32-18.42.32-18.42l.12-7.16,7.86-1.58,4.74-.96Z"/>
    <path class="cls-1" d="m171.64,137.58c-.67,3.39-2.11,11.28-2.61,18.95-.09-.2-.16-.5-.21-.88-.59-4.72-3.68-8.76-8.12-10.48-.02,0-.04-.02-.06-.02-.49-.19-1.05-.03-1.36.41l.12-7.16,7.86-1.58,4.39.77Z"/>
    <path class="cls-14" d="m189.01,137.25c-8.89,11.35-20.74,9.69-26.72,7.84,0,0,0,0,0,0-2.35-.73-3.79-1.48-3.79-1.48,0-11.49,1.76-22.19,1.76-22.19,0,0,17.7-2.27,20.39-1.74l.37-.06c5.34,5.18,8.01,17.62,8.01,17.62Z"/>
    <path class="cls-19" d="m189.01,137.25c-8.89,11.35-20.74,9.69-26.72,7.84,8.52,1.41,14.63-.52,18.64-2.84,3.99-2.31,5.68-7.2,3.96-11.48-.02-.06-.05-.12-.08-.19-1.63-4.01-5.82-6.36-10.09-5.64-10.71,1.79-14.48-3.52-14.48-3.52,0,0,17.7-2.27,20.39-1.74l.37-.06c5.34,5.18,8.01,17.62,8.01,17.62Z"/>
    <path class="cls-25" d="m138.31,79.54s1.19-1.38,6.76-2.19c0,0-2.55,5.22-6.76,2.19Z"/>
    <path class="cls-2" d="m144.27,98.02c-1.31-.34-2.34-1.3-2.78-2.54h0c-.09-.26-.16-.52-.2-.8l-.09-.62-.88-6.3-.92-6.54-.23-1.67-.31-2.2h0s-.56-4-.56-4l5.41-1.2,1.35,5.2h0s2.43,9.38,2.43,9.38l1.66,6.39c.77,2.96-1.92,5.66-4.88,4.9Z"/>
    <path class="cls-1" d="m144.77,77.53l-.88,3.68s-2.86.04-4.49.02l-.23-1.67-.31-2.2h0c.4.95,1.42,1.49,2.43,1.27,1.23-.26,2.77-.66,3.48-1.1Z"/>
    <path class="cls-15" d="m163.86,89.95l-3.72,8.44-1.73-.03-3.12-.06-6-.12h0l-2.17-.04-1.85-.04c-.44.03-.87-.03-1.28-.16-.66-.21-1.25-.61-1.7-1.16-1.78-2.19-.42-5.49,2.39-5.79l19.19-1.03Z"/>
    <path class="cls-26" d="m159.95,92.59l-1.54,5.76-3.12-.06-6-.12,2.14-.45c3.34-.7,6.34-2.51,8.53-5.13h0Z"/>
    <path class="cls-2" d="m133.57,74.12c-.08.33,1.53,1.13,2.54,1.55.13.05.25.1.38.15.39.15.81.31,1.25.47.39.14.79.28,1.18.42h0c1.72.46,1.75.55,2.35.65l2.24-3.8.39-.66c-.21-.86-.62-2.69-.85-3.46-.08-.26-.15-.51-.22-.72-.07-.22-.25-.34-.43-.36-.2-.02-.41.07-.48.29-.33,1.01-.26,2.58-.26,2.58l-.68-.4s-2.87-2.07-3.53-2.55c-1.24-.9-1.92-1.28-2.06-1.13-.16.17.33.98,1.5,2.44.12.15.24.3.37.46.21.26.45.55.7.85-2.06-1.27-3.46-2.05-4.23-2.36-.39-.16-.61-.19-.68-.11-.16.22.76,1.25,2.78,3.13.23.21.47.43.72.66-1.12-.44-2.01-.76-2.68-.97-.95-.3-1.46-.37-1.53-.22-.11.24.82,1.02,2.82,2.36.38.25.79.53,1.25.82-.61-.1-1.1-.17-1.48-.2-1.13-.12-1.35,0-1.37.11Z"/>
    <path class="cls-8" d="m137.89,74.68s-.05.02-.07.02c-.08,0-.13-.07-.13-.14,0-.07.1-1.74,2.78-2.94.07-.03.15,0,.18.07.03.07,0,.15-.07.18-2.52,1.13-2.61,2.68-2.61,2.7,0,.05-.03.09-.07.11Z"/>
    <path class="cls-8" d="m139.11,74.64s-.04.02-.06.02c-.08,0-.14-.05-.14-.13,0-.06-.07-1.39.67-2.44.04-.06.13-.08.19-.03s.08.13.03.19c-.69.97-.63,2.26-.62,2.27,0,.05-.03.1-.07.13Z"/>
    <path class="cls-10" d="m165.99,124.33c.08.02.16.04.24.06-.08-.02-.16-.04-.24-.06Z"/>
    <path class="cls-10" d="m166.35,124.42c.08.01.17.03.26.04-.09,0-.17-.02-.26-.04Z"/>
    <path class="cls-16" d="m174.63,77.23s4.14-2.87,6.66,1.38-4.68,7.98-3.73,11.79c.9,3.61,5.61,9.85,12.37,3.78.22-.2.55.06.4.32-1.82,3.24-6.84,10.43-13.7,6.13-8.7-5.46-5.71-21.31-2-23.39Z"/>
    <path class="cls-15" d="m181.28,120.04c-6.69,4.4-14.57,3.22-18.52,2.18l-.33-.09c-1.37-.38-2.19-.71-2.19-.71.28-3.38-.91-10.81-.91-10.81l6.32-6.32,10.02-.71,1.35-.1,2.4-.17h.1s.18,1.24.07,2.81c0,.1-.01.21-.02.31h0c-.05.51.09,1.9.29,3.61.49,4.08,1.42,9.99,1.42,9.99Z"/>
    <path class="cls-15" d="m179.42,103.32c-.02.67,0,1.36.04,2.04.02.23.04.46.06.69.01.13.03.26.04.39h0c-.05.51.09,1.9.29,3.61-.27.28-.59.52-.95.74-4.99,3-17.45.21-17.45.21-.34-.03-.93-.09-1.62-.25-.16-.04-.33-.08-.51-.13-.22-.06-.45-.14-.67-.23-1.04-.4-2.11-1.07-2.78-2.18-.43-.71-.7-1.61-.7-2.73,0-.4.04-.83.1-1.28.12-.82.34-1.71.62-2.63.98-3.16,2.77-6.67,4.05-8.99.92-1.66,2.67-2.69,4.56-2.68.22,0,.45,0,.69,0,1.97.04,4.5.18,7.07.59,0,0,0,0,0,0,1.51.24,3.02.58,4.45,1.03.22.07.43.15.63.25,2.17,1.03,3.39,3.45,2.83,5.85-.27,1.15-.52,2.5-.66,3.93-.06.57-.09,1.15-.11,1.74Z"/>
    <path class="cls-26" d="m181.28,120.04c-6.69,4.4-14.57,3.22-18.52,2.18l-.33-.09c2.87.42,5.44.43,7.67.22,5.73-.56,9.78-5.88,8.81-11.56h0s-.15-.89-.15-.89c-.22-1.3-.7-2.55-1.41-3.66l-1.68-2.65-2.69-4.24,4.04,4.15,2.5,2.57.07.07c0,.1-.01.21-.02.31h0c-.05.51.09,1.9.29,3.61.49,4.08,1.42,9.99,1.42,9.99Z"/>
    <path class="cls-10" d="m162.28,116.67c0-.14.02-.28.02-.43,0,.15-.01.29-.02.43Z"/>
    <path class="cls-2" d="m204.51,121.77l-4.09,4.19-1.62-1.57-2.98-2.89-.04-.03-21.68-21.02-1.14-1.1c-.2-.19-.38-.4-.53-.63l-.12-.17c-.77-1.22-.91-2.77-.31-4.13.75-1.7,2.38-2.62,4.03-2.62,1.19,0,2.38.47,3.27,1.47l20.97,23.73h0s4.21,4.77,4.21,4.77Z"/>
    <path class="cls-2" d="m197.81,122.82l1.21,1.44c.15.16.24.35.27.56.13,1.05.64,4.31,1.83,4.55l.46.51c.2.37.81.48,1.17.25.31-.19.63-.59.48-.92l-.02.04c.1.06.38.19.72.13.41-.08.76-.41.88-.87,0,0,1.24.21,1.46-.83.17.02.73.07,1.12-.3,0,0,.18-.17.28-.41.07-.19.24-.82-1.81-3.54-.52-.69-.78-1.04-1.18-1.44-.47-.48-.69-.6-1.07-1.08-.17-.21-1.12-1.16-1.12-1.16l-1.07-1.41-3.62,4.47Z"/>
    <path class="cls-1" d="m198.81,124.39h0s-2.98-2.89-2.98-2.89l-.04-.03,2.8-2.06,2.84-1.07-2.45,3.03c-.7.86-.77,2.08-.18,3.02Z"/>
    <path class="cls-15" d="m144.27,98.02c-1.31-.34-2.34-1.3-2.78-2.54h0s-.28-1.42-.28-1.42l-2.9-14.52c.28.03.57.04.87.02,2.67-.17,5.89-2.2,5.89-2.2h0s2.43,9.38,2.43,9.38l1.66,6.39c.77,2.96-1.92,5.66-4.88,4.9Z"/>
    <path class="cls-15" d="m201.43,118.35s-2.61,3.27-4.47,4.5c-.35.23-.67.39-.94.44l-21.91-22.84-1.67-1.73-.12-.17c-.77-1.22-.91-2.77-.31-4.13.75-1.7,2.38-2.62,4.03-2.62,1.19,0,2.38.47,3.27,1.47l20.97,23.73,1.13,1.35Z"/>
    <path class="cls-2" d="m163.86,89.95h0s-1.7,3.87-1.7,3.87c-.94-.09-1.86-.16-2.75-.22-.19-.01-.37-.02-.56-.04-1.73-.1-3.17-1.38-3.45-3.1v-.06s8.46-.46,8.46-.46Z"/>
    <path class="cls-2" d="m180.06,94.84c-2.58.9-5.37,1.08-8.04.51-.09-.02-.18-.04-.27-.06-1.92-.41-3.97-.77-6.14-1.07-1.18-.16-2.32-.29-3.44-.4-.94-.09-1.86-.16-2.75-.22.19-.35.37-.69.54-1,.81-1.47,2.27-2.44,3.91-2.64.22-.03.43-.04.66-.04.22,0,.45,0,.69,0,1.97.04,4.5.18,7.07.59,0,0,0,0,0,0,1.51.24,3.02.58,4.45,1.03.22.07.43.15.63.25.44.21.85.48,1.21.8.69.61,1.2,1.38,1.49,2.25Z"/>
    <circle class="cls-16" cx="175.4" cy="80.22" r="3.09"/>
    <path class="cls-16" d="m168.16,76.38s2.22-1.23,5.44,1.72-.48,6.18-.48,6.18l-4.97-7.89Z"/>
    <path class="cls-2" d="m171.37,90.75c-.72.61-3.28,2.53-5.45.95-.17-.12-.25-.33-.23-.53l.23-1.8.12-.99,5.57-2.87-.03,2.73-.02,2.09c0,.16-.07.32-.2.43Z"/>
    <path class="cls-1" d="m166.04,88.37l-.19,1.53c3.53.59,4.75-3.29,4.75-3.29l-4.56,1.76Z"/>
    <circle class="cls-16" cx="166.42" cy="78.61" r="2.77"/>
    <ellipse class="cls-3" cx="162.51" cy="84.56" rx=".76" ry=".25" transform="translate(26.57 207.36) rotate(-69.58)"/>
    <path class="cls-2" d="m172.62,83.76c-.11.24-.23.48-.35.71-.04.08-.08.16-.12.24l-.57,1.07c-.21.31-2.12,2.95-5.26,2.92-.49,0-2-.02-2.89-.9-1.47-1.46-1.07-5.06,1.44-8.86.22-.34.47-.68.73-1.03.12-.14.26-.26.4-.38.29-.24.61-.45.96-.6l1.19-.54c.61-.28,1.32-.18,1.83.25l3.15,2.64c.55.47.76,1.23.52,1.91l-.25.71c-.23.64-.48,1.26-.77,1.87Z"/>
    <path class="cls-16" d="m172.62,83.76c-1.13-.49-2.37-1.29-3.54-2.33-1.42-1.26-2.49-2.65-3.08-3.9.29-.24.61-.45.96-.6l1.19-.54c.61-.28,1.32-.18,1.83.25l3.15,2.64c.55.47.76,1.23.52,1.91l-.25.71c-.23.64-.48,1.26-.77,1.87Z"/>
    <ellipse class="cls-2" cx="172.57" cy="85.75" rx="2.44" ry="1.87" transform="translate(.65 172.8) rotate(-53.28)"/>
    <ellipse class="cls-3" cx="172.13" cy="88.14" rx=".76" ry=".25" transform="translate(29.47 218.71) rotate(-69.58)"/>
    <path class="cls-8" d="m171.43,86.28s-.02,0-.03,0c-.06-.02-.08-.09-.06-.15.34-.76.79-1.24,1.35-1.41.75-.23,1.41.18,1.44.2.05.03.07.1.03.15-.03.05-.1.07-.15.03,0,0-.6-.37-1.25-.17-.49.15-.9.58-1.21,1.28-.02.05-.07.07-.11.07Z"/>
    <path class="cls-8" d="m173.26,86.03s-.06-.02-.08-.05c-.34-.52-1.21-.53-1.22-.53-.06,0-.11-.05-.11-.11,0-.06.05-.11.11-.11.04,0,1,.01,1.41.64.03.05.02.12-.03.15-.02.01-.05.02-.07.02Z"/>
    <path class="cls-8" d="m165.81,84.4s0,0,0,0c-.34-.06-.55-.18-.64-.37-.21-.46.34-1.22,1.47-2.06.05-.04.12-.03.16.02.04.05.03.12-.02.16-1.15.84-1.53,1.51-1.4,1.78.07.15.3.21.48.24.06.01.1.07.09.13,0,.06-.06.1-.12.09Z"/>
    <path class="cls-9" d="m167.25,85.26c.09-.03.18.05.17.15-.08.78-.73,1.27-1.24,1.2-.38-.06-.74-.44-.85-.95-.02-.09.04-.17.13-.17.53,0,1.26-.08,1.79-.22Z"/>
    <path class="cls-16" d="m167.86,80.67c.16-.08.32-.12.5-.13.17,0,.36.03.52.1.17.08.32.2.42.35.11.15.17.32.18.49,0,.06-.05.12-.11.12-.04,0-.08-.02-.1-.05h0c-.09-.12-.17-.22-.27-.31-.1-.08-.2-.15-.31-.2-.11-.05-.23-.09-.37-.11-.13-.03-.27-.04-.42-.06h-.01c-.06,0-.11-.07-.1-.13,0-.04.03-.07.06-.09Z"/>
    <path class="cls-16" d="m166.13,80.32c-.13-.06-.26-.12-.39-.17-.13-.05-.25-.08-.37-.1-.12-.02-.24-.01-.37,0-.12.02-.25.06-.39.12h0c-.06.03-.13,0-.15-.06-.01-.04,0-.08.01-.11.1-.14.24-.26.41-.33.17-.07.36-.1.54-.07.18.02.35.09.5.18.15.1.27.21.36.37.03.06.01.13-.04.16-.03.02-.07.02-.1,0h-.01Z"/>
    <path class="cls-23" d="m174.12,83.38c-.06,0-.12-.03-.18-.08-.14-.12-.16-.33-.04-.47,0,0,.76-.94.65-2.5-.11-1.52-1.32-2.14-1.33-2.14-.16-.08-.23-.28-.15-.44.08-.16.28-.23.44-.15.06.03,1.56.79,1.7,2.69.13,1.84-.77,2.93-.81,2.98-.07.09-.18.13-.29.12Z"/>
    <path class="cls-2" d="m180.56,94.66c-.13.05-.26.09-.39.14-.04.01-.07.03-.11.04-2.58.9-5.37,1.08-8.04.51-.09-.02-.18-.04-.27-.06.06-.3.16-.59.28-.87.75-1.7,2.38-2.62,4.03-2.62.88,0,1.76.26,2.51.8.27.19.52.42.76.68l1.23,1.39Z"/>
    <path class="cls-26" d="m175.13,95.94c-1.06,0-2.13-.11-3.17-.34-.09-.02-.18-.04-.27-.06-2.02-.43-4.08-.79-6.13-1.07-1.11-.15-2.27-.29-3.43-.4-.93-.09-1.85-.16-2.74-.22-.19-.01-.37-.02-.56-.03-1.87-.11-3.4-1.47-3.7-3.32v-.06c-.03-.15.07-.29.22-.31.15-.02.28.08.31.22v.06c.27,1.59,1.59,2.78,3.21,2.87.19.01.37.02.56.04.89.06,1.82.13,2.76.22,1.17.11,2.33.25,3.45.4,2.06.28,4.14.64,6.16,1.07.09.02.18.04.27.06,2.62.56,5.35.39,7.9-.5.04-.01.07-.02.11-.04l.39-.14c.14-.05.29.02.34.16.05.14-.02.29-.16.34l-.39.14s-.08.03-.12.04c-1.62.57-3.31.85-5.01.85Z"/>
    <path class="cls-26" d="m179.52,106.18s-.07-.01-.1-.04l-7.08-7.32c-.05-.05-.05-.14,0-.19.05-.05.14-.05.19,0l7.08,7.32c.05.05.05.14,0,.19-.03.03-.06.04-.09.04Z"/>
    <path class="cls-26" d="m157.12,98.46s-.04,0-.06-.01c-.07-.03-.1-.11-.07-.18.01-.03,1.27-2.8,2.51-4.83.04-.06.12-.08.19-.04.06.04.08.12.04.19-1.23,2.01-2.48,4.77-2.49,4.8-.02.05-.07.08-.12.08Z"/>
    <path class="cls-26" d="m149.29,94.3c-.06,0-.12-.04-.13-.11l-.74-3.4c-.02-.07.03-.14.1-.16.07-.02.14.03.16.1l.74,3.4c.02.07-.03.14-.1.16,0,0-.02,0-.03,0Z"/>
    <path class="cls-26" d="m176.63,108.8s-3.2,5.44-12.86,1.25c0,0-2.37.94-3.92.7-.18-.03-.35-.07-.51-.13-.17-.07-.4-.14-.67-.23-1.04-.4-2.11-1.07-2.78-2.18-.43-.71-.7-1.61-.7-2.73,0-.4.04-.83.1-1.28.03.14,1.74,7.38,8.45,3.38,0,0,7.7,4.61,12.9,1.21Z"/>
    <path class="cls-8" d="m166.57,92.5c-.08,0-.15-.08-.15-.17v-.11c.01-.3-.2-.54-.49-.58l-1.89-.23c-.09-.01-.15-.09-.14-.18.01-.09.09-.15.18-.14l1.89.23c.46.06.8.45.78.91v.11c0,.09-.08.16-.17.16,0,0,0,0-.01,0Z"/>
    <path class="cls-8" d="m169.38,92.86s-.01,0-.02,0c-.09-.02-.14-.1-.12-.19l.02-.11c.1-.45.52-.75.98-.69l1.89.24c.09.01.15.09.14.18-.01.09-.09.15-.18.14l-1.89-.24c-.3-.04-.56.15-.62.44l-.02.11c-.02.08-.09.13-.17.13Z"/>
    <circle class="cls-16" cx="140" cy="81.18" r=".7"/>
    <circle class="cls-16" cx="199.31" cy="118" r=".7"/>
    <path class="cls-28" d="m185.91,140.74c-.06,0-.12-.05-.13-.11-1.84-10.75-6.96-19.1-7.01-19.18-.04-.06-.02-.15.04-.19.06-.04.15-.02.19.04.05.08,5.2,8.48,7.05,19.28.01.07-.04.14-.11.16,0,0-.02,0-.02,0Z"/>
    <path class="cls-2" d="m153.26,194.37s3.34-1.57,5.23-2.28,6.13,0,6.13,0l-6.59,4.1-2.39-.34-2.38-.93v-.54Z"/>
    <path class="cls-18" d="m152.86,194.42c.24-.13.51-.07.7.14.59.68,2.3,1.83,6.35-.38,5.33-2.91,5.33-1.94,5.33-1.94v6.7c0,.36-.24.65-.54.65h-2.32c-.21,0-.39-.2-.4-.46l-.1-2.59-3.25,2.85c-.15.13-.33.2-.51.2h-9.49c-.4,0-.66-.5-.49-.94.37-.92,1.48-2.45,4.72-4.23Z"/>
    <path class="cls-2" d="m220.23,157.68s-3.03-2.1-4.6-3.37-3.08-5.29-3.08-5.29l6.86,3.63.9,2.24.4,2.52-.47.27Z"/>
    <path class="cls-18" d="m220.48,158c-.23-.14-.32-.41-.23-.68.29-.85.43-2.91-3.52-5.29-5.2-3.14-4.36-3.63-4.36-3.63l5.79-3.37c.31-.18.68-.12.84.14l1.17,2c.11.19.02.44-.19.58l-2.19,1.39,4.1,1.37c.19.06.34.18.43.34l4.78,8.2c.2.35-.1.83-.57.89-.98.14-2.86-.05-6.03-1.95Z"/>
    <path class="cls-8" d="m195.22,156.66c-.05,0-.1-.03-.12-.08l-1.46-3.58c-.03-.07,0-.15.07-.18.07-.03.15,0,.18.07l1.46,3.58c.03.07,0,.15-.07.18-.02,0-.03,0-.05,0Z"/>
    <path class="cls-26" d="m172.01,95.61s-.05,0-.07,0c-.14-.04-.23-.19-.19-.33.99-3.55,2.97-4.44,3.06-4.48.14-.06.3,0,.35.14.06.14,0,.29-.14.35-.03.01-1.84.86-2.75,4.13-.03.12-.14.2-.26.2Z"/>
    <path class="cls-26" d="m161.02,93.98s-.04,0-.06,0c-.15-.03-.24-.17-.21-.32.53-2.45,2.86-3.88,2.96-3.93.13-.08.29-.04.37.09s.04.29-.09.37c-.02.01-2.23,1.37-2.71,3.59-.03.13-.14.21-.26.21Z"/>
    <ellipse class="cls-16" cx="167.81" cy="82.51" rx=".54" ry=".38" transform="translate(56.61 232.85) rotate(-79.69)"/>
    <ellipse class="cls-16" cx="165.03" cy="81.61" rx=".54" ry=".38" transform="translate(55.21 229.38) rotate(-79.69)"/>
  </g>
  <g id="Short_Hair_Woman_dancing" data-name="Short Hair Woman dancing">
    <path class="cls-2" d="m95.79,121.78c4.22,3.73,16.49,3.72,18.83,3.68.25,0,.39,0,.39,0-.25-4.61,1.09-8.17,1.12-8.26h0s0,0,0,0h-.03c-.33-.05-2.71-.39-5.65-.69-1.82-.19-3.86-.37-5.77-.47-2.91-.15-5.52-.11-6.57.39-.29.14-.46.31-.49.52-.34,2.36-1.82,4.85-1.82,4.85Z"/>
    <path class="cls-1" d="m95.79,121.78c4.22,3.73,16.49,3.72,18.83,3.68h.02c-5.87-.09-12.95-2.54-15.91-3.66-.77-.29-1.13-1.17-.79-1.92h0c.25-.55.81-.88,1.41-.84,13.65,1.02,16.7-1.77,16.78-1.85h0s0,0,0,0h-.03s-5.65-.69-5.65-.69l-4.48-.55-1.29.08-6.57.39c-.29.14-.46.31-.49.52-.34,2.36-1.82,4.85-1.82,4.85Z"/>
    <path class="cls-2" d="m141.61,194.37s-3.34-1.57-5.23-2.28-6.13,0-6.13,0l6.59,4.1,2.39-.34,2.38-.93v-.54Z"/>
    <path class="cls-19" d="m142,194.42c-.24-.13-.51-.07-.7.14-.59.68-2.3,1.83-6.35-.38-5.33-2.91-5.33-1.94-5.33-1.94v6.7c0,.36.24.65.54.65h2.32c.21,0,.39-.2.4-.46l.1-2.59,3.25,2.85c.15.13.33.2.51.2h9.49c.4,0,.66-.5.49-.94-.37-.92-1.48-2.45-4.72-4.23Z"/>
    <path class="cls-2" d="m105.27,193.31s-2.81-2.4-4.44-3.59c-1.63-1.19-5.91-1.62-5.91-1.62l5.27,5.7,2.39.3,2.54-.26.14-.52Z"/>
    <path class="cls-19" d="m105.64,193.47c-.19-.19-.48-.21-.71-.05-.75.5-2.7,1.16-6.02-2.05-4.37-4.22-4.63-3.29-4.63-3.29l-1.78,6.46c-.1.35.06.69.35.77l2.24.61c.21.06.43-.09.51-.34l.78-2.47,2.38,3.61c.11.16.26.28.44.33l9.15,2.52c.39.11.77-.31.72-.78-.11-.99-.78-2.75-3.43-5.33Z"/>
    <path class="cls-24" d="m93.84,188.35l6.96,2.32h0s2.75.92,2.75.92l10.15-29.25c.84-2.33.92-4.87.21-7.25l-3.3-11.07-.14-.47,16.23,11.79,2.39,37.58h10.25s0-37.39,0-37.39c0-3.25-1.37-6.36-3.77-8.55-6.56-5.99-19.49-18.1-20.57-21.53,0,0-12.9-.26-19.22-3.67,0,0-5.12,6.75-1.71,16.65,3.42,9.91,7,18.92,7,18.92l-7.25,31Z"/>
    <path class="cls-27" d="m110.63,144.03l-.14-.47,16.23,11.79,2.39,37.58h9.1s0,0,0,0c-4.31-.67-7.53-4.31-7.66-8.67l-.84-27.59c-.05-1.64-.89-3.16-2.26-4.06l-7.26-4.82c-5.05-3.35-9.41-7.63-12.86-12.62h0s3.31,8.87,3.31,8.87Z"/>
    <path class="cls-27" d="m100.8,190.68h0c-3.16-1.62-4.73-5.26-3.75-8.67l6.22-23.47c.22-.76.14-1.57-.2-2.27-4.09-8.34-6.15-14.72-7.14-19.46-1.13-5.44,3.2-10.46,8.75-10.21,6.67.3,10.32-1.14,10.32-1.14,0,0-12.9-.26-19.22-3.67,0,0-5.12,6.75-1.71,16.65,3.42,9.91,7,18.92,7,18.92l-7.25,31,6.96,2.32Z"/>
    <path class="cls-2" d="m121.58,116.07c1.13.87,2.61,1.11,3.93.67h0c.27-.09.54-.21.79-.36l.58-.33,5.83-3.37,6.06-3.5,1.55-.89,2.04-1.18h0s3.71-2.14,3.71-2.14l-2.52-5.3-5.22,2.26h0s-9.42,4.08-9.42,4.08l-6.42,2.78c-2.97,1.29-3.47,5.29-.91,7.27Z"/>
    <path class="cls-2" d="m108.79,100.23c.74.94,1.59,2.01,2.49,3.14,4.29,5.4,9.74,12.21,10.56,12.89,1.49,1.06,3.21.78,4.42-.16,1.42-1.1,2.13-3.12.94-4.95,0,0-7.45-10.33-11.6-16.08-1.46-2.02-4.32-2.37-6.23-.76-1.76,1.49-2.02,4.11-.59,5.92Z"/>
    <path class="cls-1" d="m111.28,103.37c4.29,5.4,9.74,12.21,10.56,12.89,1.49,1.06,3.21.78,4.42-.16-2.96.06-5.43-2.29-5.61-5.29-.39-6.88-3.94-12.6-3.94-12.6l-5.44,5.16Z"/>
    <path class="cls-2" d="m148.52,109.43c-.23.29-1.95-.54-2.95-1.1-.13-.07-.25-.14-.38-.22-.38-.23-.79-.48-1.2-.73-.38-.23-.75-.48-1.12-.72h0c-1.5-1.14-1.6-1.11-2.07-1.55l1.71-4.36.3-.75c.85-.39,2.65-1.23,3.45-1.55.27-.11.52-.2.74-.29.22-.09.44-.01.58.13.15.15.2.39.07.59-.63.93-1.98,1.9-1.98,1.9l.78.3,1.24.48c1.3.3,2.36.57,3.19.8,1.56.44,2.32.77,2.29.99-.04.24-1.03.36-3.02.34-.2,0-.41,0-.63,0-.36,0-.75-.02-1.16-.03,2.4.89,3.97,1.56,4.73,1.99.39.22.56.39.53.5-.08.28-1.54.19-4.42-.28-.32-.05-.66-.11-1.02-.17,1.09.65,1.94,1.18,2.56,1.6.87.6,1.26.98,1.18,1.14-.13.25-1.38-.02-3.81-.82-.46-.15-.96-.32-1.5-.51.48.45.85.81,1.13,1.1.83.87.87,1.13.8,1.22Z"/>
    <path class="cls-8" d="m145.24,106.19s.01.05.03.07c.05.06.14.07.21.02.06-.05,1.39-1.22.64-4.24-.02-.08-.1-.13-.18-.11-.08.02-.13.1-.11.18.7,2.85-.54,3.93-.55,3.94-.04.03-.06.09-.05.13Z"/>
    <path class="cls-8" d="m144.48,105.14s.01.04.02.06c.05.07.14.08.2.04.05-.03,1.2-.85,1.6-2.16.02-.08-.02-.16-.1-.18s-.16.02-.18.1c-.37,1.21-1.48,1.99-1.49,2-.05.03-.07.09-.06.14Z"/>
    <path class="cls-14" d="m94.01,101.9c.39.92.83,2.07,1.27,3.35,1.15,3.41,2.21,7.84,1.8,11.82-.04.38.24.72.62.74,3.28.16,16.89.74,19.44-1.06,0,0,3.43-2.22,2.74-7.68-.14-1.1-.45-2.34-.99-3.72-1.11-2.83-1.78-5.22-2.18-7.13-.67-3.14-3.73-5.16-6.87-4.5-4,.83-9.36,2.25-14.4,4.54-1.39.63-2.02,2.25-1.43,3.65Z"/>
    <path class="cls-19" d="m97.08,117.07c-.04.38.24.72.62.74,3.28.16,16.89.74,19.44-1.06,0,0,3.43-2.22,2.74-7.68h0s-1.82,9.05-7.8,4.67c0,0-5.92,4.67-11.79,1.71-5.87-2.96.91-10.24.91-10.24l-5.93.06c1.15,3.41,2.21,7.84,1.8,11.82Z"/>
    <path class="cls-2" d="m67.29,129.58l4.33,4.43,1.71-1.66,3.15-3.06.04-.04,22.93-22.24,1.2-1.16c.21-.21.4-.43.57-.66l.12-.18c.82-1.29.96-2.93.32-4.37-.8-1.8-2.52-2.77-4.26-2.77-1.25,0-2.52.5-3.46,1.56l-22.18,25.1h0s-4.46,5.05-4.46,5.05Z"/>
    <path class="cls-2" d="m74.37,130.69l-1.28,1.52c-.15.16-.25.37-.28.6-.14,1.11-.68,4.56-1.94,4.82l-.49.54c-.21.39-.86.5-1.24.27-.33-.2-.66-.62-.51-.98l.02.04c-.1.06-.4.2-.76.14-.44-.08-.8-.44-.93-.92,0,0-1.31.22-1.55-.88-.18.02-.77.07-1.18-.32,0,0-.19-.18-.29-.43-.08-.2-.25-.87,1.91-3.75.55-.73.83-1.1,1.25-1.52.5-.51.73-.63,1.14-1.14.18-.23,1.18-1.22,1.18-1.22l1.13-1.49,3.83,4.73Z"/>
    <path class="cls-5" d="m110.48,143.7c-.05,0-.11-.03-.13-.09l-3.6-9.55c-.03-.07,0-.15.08-.17.07-.03.15,0,.17.08l3.6,9.55c.03.07,0,.15-.08.17-.02,0-.03,0-.05,0Z"/>
    <path class="cls-5" d="m114.09,127.57c-4.2,0-13.85-.45-19.22-4.27-.06-.04-.07-.13-.03-.19.04-.06.13-.07.19-.03,6.9,4.91,20.96,4.19,21.1,4.18.07,0,.14.05.14.13,0,.07-.05.14-.13.14-.03,0-.8.04-2.05.04Z"/>
    <path class="cls-5" d="m104.54,189.02s-.03,0-.04,0l-10.04-3.15c-.07-.02-.11-.1-.09-.17s.1-.11.17-.09l10.04,3.15c.07.02.11.1.09.17-.02.06-.07.09-.13.09Z"/>
    <path class="cls-5" d="m139.35,190.35h-10.42c-.07,0-.13-.06-.13-.13s.06-.13.13-.13h10.42c.07,0,.13.06.13.13s-.06.13-.13.13Z"/>
    <path class="cls-8" d="m122.49,108.94c-.05,0-.1-.03-.12-.08-.03-.07,0-.15.07-.18l2.3-1c.07-.03.15,0,.18.07.03.07,0,.15-.07.18l-2.3,1s-.04.01-.05.01Z"/>
    <path class="cls-16" d="m108.98,81.82s3.78,9.37,5.21,10.28c0,0-2.94,2.64-5.94,2.06l-.5-11.71,1.24-.63Z"/>
    <ellipse class="cls-16" cx="103.08" cy="86.25" rx="5.87" ry="6.27"/>
    <ellipse class="cls-16" cx="105.88" cy="83.38" rx="3.43" ry="3.67"/>
    <path class="cls-2" d="m102.91,95.92c.76.56,3.45,2.29,5.5.56.16-.13.23-.34.19-.54l-.35-1.78-.2-.98-5.76-2.46.22,2.72.17,2.08c.01.16.1.31.23.41Z"/>
    <path class="cls-1" d="m108.05,93.17l.3,1.51c-3.48.84-4.97-2.94-4.97-2.94l4.67,1.43Z"/>
    <path class="cls-2" d="m101.16,89.04c.13.23.26.46.4.69.04.08.09.15.14.23l.64,1.03c.24.29,2.33,2.79,5.46,2.53.49-.04,1.99-.16,2.81-1.11,1.36-1.56.7-5.12-2.07-8.73-.25-.32-.51-.65-.8-.97-.13-.13-.28-.25-.43-.35-.31-.22-.64-.4-1-.53l-1.23-.46c-.63-.23-1.33-.08-1.81.38l-2.95,2.86c-.52.5-.67,1.28-.38,1.94l.3.69c.27.62.57,1.22.9,1.81Z"/>
    <ellipse class="cls-2" cx="101.35" cy="91.02" rx="1.87" ry="2.44" transform="translate(-34.84 88.36) rotate(-40.81)"/>
    <ellipse class="cls-3" cx="101.96" cy="93.37" rx=".25" ry=".76" transform="translate(-29.54 50.7) rotate(-24.5)"/>
    <path class="cls-8" d="m102.53,91.46s.02,0,.03-.01c.05-.03.08-.1.05-.15-.39-.74-.88-1.18-1.45-1.31-.77-.17-1.39.28-1.42.3-.05.04-.06.11-.02.16.04.05.11.06.16.02,0,0,.57-.41,1.24-.26.5.12.94.52,1.3,1.19.02.04.07.07.12.06Z"/>
    <path class="cls-8" d="m100.68,91.34s.06-.03.08-.06c.3-.55,1.17-.62,1.18-.62.06,0,.11-.06.1-.12,0-.06-.06-.11-.12-.1-.04,0-1,.08-1.36.74-.03.05,0,.12.04.15.02.01.05.02.07.01Z"/>
    <path class="cls-8" d="m108,89.19s0,0,0,0c.33-.08.54-.22.61-.41.18-.47-.42-1.2-1.62-1.95-.05-.03-.12-.02-.15.04-.03.05-.02.12.04.15,1.2.75,1.63,1.4,1.53,1.68-.06.15-.28.23-.46.27-.06.01-.1.07-.08.13.01.06.07.09.13.08Z"/>
    <path class="cls-20" d="m106.63,90.15c-.1-.02-.18.07-.16.16.14.77.82,1.22,1.33,1.1.38-.08.71-.49.78-1.01.01-.09-.06-.17-.15-.16-.53.04-1.26,0-1.8-.1Z"/>
    <path class="cls-16" d="m105.69,85.77c-.16-.07-.33-.1-.51-.09-.17,0-.35.05-.51.14-.16.09-.3.22-.4.38-.1.16-.15.33-.14.51,0,.06.05.11.12.11.04,0,.07-.02.09-.05h0c.08-.13.16-.24.25-.33.09-.09.19-.16.29-.22.11-.06.23-.1.36-.14.13-.04.27-.06.41-.09h.01c.06-.01.1-.08.09-.14,0-.04-.03-.07-.07-.08Z"/>
    <path class="cls-16" d="m107.39,85.3c.13-.07.25-.14.37-.19.12-.05.24-.1.36-.12.12-.03.24-.03.37-.02.13.01.25.04.39.09h0c.06.02.13-.01.15-.07.01-.04,0-.08-.02-.11-.11-.14-.26-.24-.43-.3-.17-.06-.37-.07-.55-.03-.18.04-.35.12-.49.22-.14.11-.25.23-.33.39-.03.06,0,.13.05.15.03.02.07.01.1,0h.01Z"/>
    <ellipse class="cls-16" cx="105.91" cy="87.38" rx=".34" ry=".5" transform="translate(-18.39 29.06) rotate(-14.39)"/>
    <ellipse class="cls-16" cx="108.38" cy="86.38" rx=".34" ry=".5" transform="translate(-18.07 29.65) rotate(-14.39)"/>
    <path class="cls-16" d="m106.47,82.7s-.61,2.57-3.85,3.96c0,0-.41,6.46,1.51,9.14,0,0-3.09,1.48-6.11.8,0,0-2.56-9.98.37-14.1l6.55-2.19,3.19,2.11.41,1.27s-1.25-.24-2.07-.98Z"/>
  </g>
</svg>