<?xml version="1.0" encoding="UTF-8"?>
<svg id="Camada_1" data-name="Camada 1" xmlns="http://www.w3.org/2000/svg" xmlns:xlink="http://www.w3.org/1999/xlink" viewBox="0 0 275.23 253.23">
  <defs>
    <style>
      .cls-1, .cls-2, .cls-3, .cls-4 {
        fill: none;
      }

      .cls-5 {
        clip-path: url(#clippath);
      }

      .cls-6 {
        fill: #f8ad99;
      }

      .cls-7 {
        fill: #f1dcff;
      }

      .cls-8, .cls-9 {
        fill: #fff;
      }

      .cls-10 {
        fill: #66169e;
      }

      .cls-11 {
        fill: #b4fcbd;
      }

      .cls-12 {
        fill: #a707fc;
      }

      .cls-13 {
        fill: #a839ff;
      }

      .cls-14 {
        fill: #d8acfc;
      }

      .cls-15 {
        fill: #d09fff;
      }

      .cls-16 {
        fill: #df5f4a;
      }

      .cls-17, .cls-18 {
        fill: #cd99ff;
      }

      .cls-19 {
        fill: #212866;
      }

      .cls-20 {
        fill: #1fcb64;
      }

      .cls-21 {
        fill: #441168;
      }

      .cls-22 {
        fill: #3a3d42;
      }

      .cls-23 {
        fill: #760abc;
      }

      .cls-9, .cls-2, .cls-3 {
        stroke-linecap: round;
        stroke-width: 4px;
      }

      .cls-9, .cls-2, .cls-3, .cls-4 {
        stroke-miterlimit: 10;
      }

      .cls-9, .cls-2, .cls-4 {
        stroke: #000;
      }

      .cls-24 {
        clip-path: url(#clippath-1);
      }

      .cls-25 {
        clip-path: url(#clippath-4);
      }

      .cls-26 {
        clip-path: url(#clippath-3);
      }

      .cls-27 {
        clip-path: url(#clippath-2);
      }

      .cls-28 {
        clip-path: url(#clippath-7);
      }

      .cls-29 {
        clip-path: url(#clippath-8);
      }

      .cls-30 {
        clip-path: url(#clippath-6);
      }

      .cls-31 {
        clip-path: url(#clippath-5);
      }

      .cls-32 {
        clip-path: url(#clippath-9);
      }

      .cls-33 {
        clip-path: url(#clippath-13);
      }

      .cls-34 {
        clip-path: url(#clippath-12);
      }

      .cls-35 {
        clip-path: url(#clippath-10);
      }

      .cls-36 {
        clip-path: url(#clippath-11);
      }

      .cls-3 {
        stroke: #818dd3;
      }

      .cls-18, .cls-37 {
        opacity: .5;
      }

      .cls-37 {
        fill: #bac3f4;
      }

      .cls-4 {
        stroke-width: .5px;
      }
    </style>
    <clipPath id="clippath">
      <path class="cls-1" d="m159.6,194.32s-1.79-2.19.57-3.16,5.61-2.1,5.79-.44l.18,1.67s1.05-.88,2.37,0c1.32.88-.44,6.84-.44,6.84l-16.22.66c-1.63.07-2.65-1.76-1.72-3.1.77-1.1,1.87-2.02,3.39-1.84,3.51.42,6.09-.63,6.09-.63Z"/>
    </clipPath>
    <clipPath id="clippath-1">
      <path class="cls-1" d="m183.59,186.87s-2.89,2.72-1.4,3.86,2.39,2.98-.43,3.6-4.75,2.19-4.57,4.3c.14,1.67,7.46.69,10.48.21.91-.14,1.75-.55,2.43-1.16,1.35-1.21,3.29-3.39,2.52-5.28-1.14-2.81-3.07-5.09-3.07-5.09,0,0,1.4-4.12-5.96-.44Z"/>
    </clipPath>
    <clipPath id="clippath-2">
      <path class="cls-1" d="m181.4,183.98l1.53,4.7c.27.83.99,1.45,1.86,1.56,1.1.15,2.54.09,3.24-1,.34-.53.4-1.19.23-1.79-1.03-3.65-1.43-5.32-1.43-5.32l-5.44,1.84Z"/>
    </clipPath>
    <clipPath id="clippath-3">
      <path class="cls-1" d="m161.59,129.55s-2.17,27.62-1.97,32.35.98,27.03.98,27.03c0,0,3.15-1.78,6.91.79s.69-23.87,1.63-31.17c.94-7.3,1.24-12.03,1.24-12.03,0,0,.65,11.84,2.35,15.98,1.7,4.14,7.21,22.89,7.21,22.89,0,0,4.94,3.75,8.49-2.17-1.97-14.4-5.79-23.49-5.79-23.49v-1.96l-.09-2.17.09-23.66-21.04-2.38Z"/>
    </clipPath>
    <clipPath id="clippath-4">
      <path class="cls-1" d="m188.52,123.8c-2.52.84-4.01,1.16-4.88,1.25-.55.06-.86.02-1.03-.03-.17-.05-.2-.05-.2,0,.34,2.61.1,1.12.54,4.46.09.64.2,1.45.34,2.51-4.94,6.52-21.61.1-21.61.1,0,0-.79.39-.99-3.75-.15-3.03-.08-7.42-.03-9.57-.08.26-.21.54-.42.84-.43.62-1.19,1.32-2.48,2.02-.25.13-.51.27-.8.4-3.4,1.56-4.77-2.88-5.27-5.51-.2-1.08-.14-2.18.18-3.23,1.27-4.17,4.95-16.13,6.18-18.95,1.49-3.43,11.92-3.28,11.92-3.28h9.15s6.84.99,9.41,4.85c2.56,3.87,5.92,25.92,0,27.9Z"/>
    </clipPath>
    <clipPath id="clippath-5">
      <path class="cls-1" d="m182.13,83.15c-.71,1.69-4.8,2.46-4.8,2.46,0,0-.42.33.11,4.61-3.16,4.74-7.04,2.25-7.04,2.25,0,0,.69-2.09,1.11-3.91.18-.79.31-1.53.31-2.02-.49.1-.92.09-1.31,0-2.85-.68-3.35-5.81-3.17-7.32.2-1.71,2.3-8.19,2.3-8.19,12.36-5.23,11.25,8.52,10.59,9.97,1.84-.59,2.62.48,1.91,2.17Z"/>
    </clipPath>
    <clipPath id="clippath-6">
      <path class="cls-1" d="m171.69,114.84c.39-1-.05-2.14-1.02-2.63-1.51-.76-4.31-2.09-5.57-2.23-1.78-.2-8.82,2.39-7.6,3s5.76-.9,5.76-.9c0,0-2.24,1.19-1.12,2.24s2.39.72,2.39.72l.12.19c.51.82,1.49,1.23,2.43.99h0s.21,1.44,1.85,1.12c1.06-.21,2.28-1.26,2.77-2.5Z"/>
    </clipPath>
    <clipPath id="clippath-7">
      <path class="cls-1" d="m145.5,113.42s-1.64,2.02,0,3.27c1.64,1.25.39.57,2.1,1.76s1.12,1.65,2.37,1.98,2.6-.6,2.29-1.69-1.5,0-1.5,0c0,0,1.68-.49.81-1.41s-1.47.26-3.03.46,2.42-2.1,1.43-2.76-3.03.92-3.03.92c0,0,.33-1.01.26-2.54s-1.71,0-1.71,0Z"/>
    </clipPath>
    <clipPath id="clippath-8">
      <polygon class="cls-17" points="66.75 75.73 86.99 62.55 113.98 67.32 117.41 97.34 97.17 109.99 71.32 104.28 66.75 75.73"/>
    </clipPath>
    <clipPath id="clippath-9">
      <path class="cls-17" d="m71.61,71.51l3.72,14.76.83.38,3.27-2.57-3.71-14.4c-.2-.76-1.08-1.1-1.74-.67l-1.91,1.27c-.4.27-.59.76-.48,1.23Z"/>
    </clipPath>
    <clipPath id="clippath-10">
      <path class="cls-17" d="m106.86,65.37l2.37,15.04-.61.68-4.02-1.08-2.25-14.7c-.12-.78.56-1.44,1.34-1.3l2.25.42c.48.09.84.47.92.95Z"/>
    </clipPath>
    <clipPath id="clippath-11">
      <polygon class="cls-1" points="64.85 74.02 84.43 61.27 110.53 65.89 113.84 94.92 94.27 107.15 69.27 101.63 64.85 74.02"/>
    </clipPath>
    <clipPath id="clippath-12">
      <path class="cls-1" d="m69.55,69.94l3.6,14.28.8.37,3.17-2.48-3.58-13.93c-.19-.74-1.05-1.07-1.68-.64l-1.84,1.23c-.39.26-.57.74-.46,1.19Z"/>
    </clipPath>
    <clipPath id="clippath-13">
      <path class="cls-1" d="m103.64,64l2.29,14.54-.59.65-3.89-1.04-2.17-14.22c-.11-.75.55-1.39,1.29-1.25l2.18.4c.46.09.82.45.89.91Z"/>
    </clipPath>
  </defs>
  <path class="cls-7" d="m159.42,53.05c7.09,5.18,15.03,8.82,23.35,10.84,19.7,4.78,51.51,18.55,32.07,56.24-27.19,52.7-138.85,56.28-150.35-14.02-10.6-64.81,54.87-82.33,94.93-53.06Z"/>
  <ellipse class="cls-15" cx="132.02" cy="199.64" rx="82.03" ry="9.48"/>
  <g>
    <path class="cls-10" d="m106.93,140.66h0s-.05,0-.07,0c-.02,0-.05,0-.07,0h0c-2.76.08-8.01,2.4-7.11,8.91.84,6.05,6.18,12.07,7.11,13.08v.15s.02-.03.07-.07c.04.05.07.07.07.07v-.15c.93-1.01,6.27-7.03,7.11-13.08.9-6.52-4.35-8.84-7.11-8.91Zm-.05,9.85c-1.6,0-2.9-1.3-2.9-2.9s1.3-2.9,2.9-2.9,2.9,1.3,2.9,2.9-1.3,2.9-2.9,2.9Z"/>
    <path class="cls-12" d="m106.38,140.22h0s-.05,0-.07,0c-.02,0-.05,0-.07,0h0c-2.76.08-8.01,2.4-7.11,8.91.84,6.05,6.18,12.07,7.11,13.08v.15s.02-.03.07-.07c.04.05.07.07.07.07v-.15c.93-1.01,6.27-7.03,7.11-13.08.9-6.52-4.35-8.84-7.11-8.91Zm-.05,9.85c-1.6,0-2.9-1.3-2.9-2.9s1.3-2.9,2.9-2.9,2.9,1.3,2.9,2.9-1.3,2.9-2.9,2.9Z"/>
  </g>
  <g>
    <g>
      <polygon class="cls-6" points="161.32 186.22 161.32 192.39 167.1 192.39 167.1 187.13 161.32 186.22"/>
      <path class="cls-22" d="m159.6,194.32s-1.79-2.19.57-3.16,5.61-2.1,5.79-.44l.18,1.67s1.05-.88,2.37,0c1.32.88-.44,6.84-.44,6.84l-16.22.66c-1.63.07-2.65-1.76-1.72-3.1.77-1.1,1.87-2.02,3.39-1.84,3.51.42,6.09-.63,6.09-.63Z"/>
      <g class="cls-5">
        <g>
          <path d="m149.89,198.25c1.79.92,3.92.75,5.92.52,3.68-.43,7.34-.97,11.04-1.19.64-.04,1.37-.03,1.8.44.6.67.11,1.83-.69,2.23s-1.76.29-2.66.2c-4.39-.4-8.81.22-13.22.05-.59-.02-1.19-.06-1.72-.31s-.99-.73-1.03-1.32"/>
          <path d="m159.6,193.74c-.22-.33-.11-.8.15-1.1s.64-.46,1.01-.62c1.13-.48,2.27-.94,3.42-1.38.27-.11.6-.2.83-.02.11.09.18.23.23.36.15.41.23.85.24,1.29,0,.24,0,.49.13.68.24.32.72.25,1.12.21.54-.05,1.1.02,1.61.21.29.11.63.25.89.09.17-.11.25-.33.26-.53.03-.57-.31-1.08-.67-1.52-.76-.93-1.65-1.74-2.64-2.43-.99-.68-2.15-1.24-3.34-1.09-1.07.14-1.99.83-2.68,1.65-.54.64-.96,1.36-1.26,2.14-.22.58-.34,1.32.1,1.76"/>
          <path d="m154.83,195.08l1.4,2.14c.1.15.28.32.43.22.06-.04.08-.11.1-.18.22-.82-.08-1.74-.69-2.34s-1.47-.9-2.32-.9"/>
          <path d="m157.45,194.92c.19.57.5,1.09.9,1.54.2-.96-.43-2.02-1.37-2.3"/>
        </g>
      </g>
      <path class="cls-22" d="m183.59,186.87s-2.89,2.72-1.4,3.86,2.39,2.98-.43,3.6-4.75,2.19-4.57,4.3c.14,1.67,7.46.69,10.48.21.91-.14,1.75-.55,2.43-1.16,1.35-1.21,3.29-3.39,2.52-5.28-1.14-2.81-3.07-5.09-3.07-5.09,0,0,1.4-4.12-5.96-.44Z"/>
      <g class="cls-24">
        <g>
          <path d="m176.67,198.23c.94.43,2,.49,3.03.49,2.88,0,5.76-.36,8.62-.72.37-.05.74-.1,1.07-.27.54-.29.86-.85,1.17-1.39.55-.98,1.15-1.93,1.79-2.85.32-.46.65-.92,1.03-1.33.07-.08.16-.16.27-.16.19,0,.29.24.31.43.31,2.14-.58,4.42-2.26,5.78-.9.73-1.98,1.2-3.07,1.57-.42.14-.84.27-1.28.3-.69.05-1.38-.13-2.07-.22-1.48-.2-2.98.02-4.45.26-.63.11-1.28.22-1.92.16s-1.29-.32-1.68-.84c-.25-.33-.31-.92.08-1.08"/>
          <path d="m180.98,189.22c-.05.64.04,1.31.38,1.85s.98.93,1.62.86c.82-.09,1.79-.06,2.61-.16,1.64-.2,1.94-.27,2.83-.93,2.07-1.54,1.62-3.39,2.23-3.74s.1-.14.13-.84c.02-.56-.29-1.09-.72-1.44s-.98-.54-1.53-.65c-1.75-.35-3.65.06-5.07,1.13-1.42,1.08-2.33,2.82-2.35,4.61"/>
          <path d="m180.36,194.62c1.01.12,1.99.51,2.8,1.11.06.05.13.1.21.08.07-.01.11-.07.16-.12.1-.11.19-.24.22-.38.03-.18-.05-.37-.18-.5s-.3-.22-.46-.29c-.95-.43-2.1-.6-3.01-.09"/>
          <path d="m182.9,193.74c.37.17.75.3,1.14.4.05.01.11.02.16,0,.14-.05.13-.25.07-.38-.17-.34-.55-.53-.93-.59s-.76.02-1.13.08"/>
        </g>
      </g>
      <path class="cls-6" d="m181.4,183.98l1.53,4.7c.27.83.99,1.45,1.86,1.56,1.1.15,2.54.09,3.24-1,.34-.53.4-1.19.23-1.79-1.03-3.65-1.43-5.32-1.43-5.32l-5.44,1.84Z"/>
      <g class="cls-27">
        <path d="m181.12,185.49c.43,1.27,1.8,2.05,3.14,2.16.82.07,1.67-.07,2.39-.48s1.3-1.07,1.53-1.86c.25-.85.08-1.76-.2-2.6-.23-.69-.58-1.39-1.2-1.77-.6-.38-1.37-.39-2.07-.25-1.09.21-2.12.75-2.92,1.52-.44.44-.82.95-1.02,1.54s-.2,1.26.08,1.82"/>
      </g>
      <path class="cls-21" d="m161.59,129.55s-2.17,27.62-1.97,32.35.98,27.03.98,27.03c0,0,3.15-1.78,6.91.79s.69-23.87,1.63-31.17c.94-7.3,1.24-12.03,1.24-12.03,0,0,.65,11.84,2.35,15.98,1.7,4.14,7.21,22.89,7.21,22.89,0,0,4.94,3.75,8.49-2.17-1.97-14.4-5.79-23.49-5.79-23.49v-1.96l-.09-2.17.09-23.66-21.04-2.38Z"/>
      <g class="cls-26">
        <g>
          <path d="m164.47,135.54c-.17,6.8-1.15,13.55-1.84,20.31-.35,3.4-.62,6.81-.67,10.22-.05,3.39.18,6.75.56,10.11.43,3.84.92,7.7.77,11.58,0,.16.24.16.24,0,.14-3.42-.23-6.83-.62-10.23s-.72-6.78-.72-10.2c0-6.8.92-13.54,1.66-20.29.42-3.82.77-7.66.86-11.5,0-.16-.24-.16-.24,0h0Z"/>
          <path d="m169.52,134.63c-.32,2.99.01,6.01.98,8.85.05.15.29.08.24-.06-.96-2.83-1.29-5.82-.97-8.79.02-.16-.23-.15-.24,0h0Z"/>
          <g>
            <path d="m174.64,135.57c1.02,6.99.76,14.07,1.43,21.08.65,6.72,2.44,13.21,4.71,19.55,1.28,3.56,2.69,7.07,4.1,10.58.06.14.29.08.24-.06-2.51-6.25-5.03-12.51-6.77-19.03-.88-3.31-1.55-6.68-1.92-10.08-.38-3.48-.51-6.99-.64-10.49-.16-3.88-.34-7.77-.9-11.61-.02-.15-.26-.09-.24.06h0Z"/>
            <path d="m182.55,147.24c.16,3.66-.16,7.35-.96,10.92-.41,1.83-.9,3.89.14,5.45.45.67,1.12,1.14,1.73,1.67,1.45,1.26,2.57,2.9,3.22,4.71.73-.72.96-1.82.87-2.84s-.47-1.99-.81-2.95c-1.93-5.43-2.87-11.2-2.79-16.96"/>
            <path d="m169.86,153.69c-.45,1.42-1.24,2.71-1.85,4.07s-1.06,2.87-.77,4.34c.31,1.57,1.42,2.89,1.71,4.46.2,1.09,0,2.29.58,3.24,1.23-4.32-.18-8.94.17-13.42.1-1.29.35-2.57.39-3.86"/>
          </g>
        </g>
      </g>
    </g>
    <g>
      <path class="cls-11" d="m188.52,123.8c-2.52.84-4.01,1.16-4.88,1.25-.55.06-.86.02-1.03-.03-.17-.05-.2-.05-.2,0,.34,2.61.1,1.12.54,4.46.09.64.2,1.45.34,2.51-4.94,6.52-21.61.1-21.61.1,0,0-.79.39-.99-3.75-.15-3.03-.08-7.42-.03-9.57-.08.26-.21.54-.42.84-.43.62-1.19,1.32-2.48,2.02-.25.13-.51.27-.8.4-3.4,1.56-4.77-2.88-5.27-5.51-.2-1.08-.14-2.18.18-3.23,1.27-4.17,4.95-16.13,6.18-18.95,1.49-3.43,11.92-3.28,11.92-3.28h9.15s6.84.99,9.41,4.85c2.56,3.87,5.92,25.92,0,27.9Z"/>
      <g class="cls-25">
        <path class="cls-12" d="m159.84,124.07l1.09-20.43s10.75,5.21,20.58.73c-.13,4.83.24,7.38.16,8.93-.04.78-.97,1.15-1.53.61l-3.11-2.98-9.55,1.48.58,6.54,3.47,2.81,10.9,3.26.36,2.82s-19.39.88-22.93-3.77Z"/>
      </g>
      <polygon points="158.05 108.28 158.05 108.26 158.04 108.28 158.05 108.28"/>
      <path d="m169.97,112.18s2.89-.79,4.47,0c2.89-1.49,2.81,1.32,4.65,2.02s2.54,0,2.54,0c0,0-1.45-14.43,2.45-18.28-4.65,5.35-3.65,17.76-3.65,17.76,0,0-2.54-4.36-4.53-3.41s-5.93,1.92-5.93,1.92Z"/>
      <path d="m182.61,124.77c.34,2.61-.1,1.37.35,4.71-5.96-1.09-15.95-10.04-7.06-5.99,2.83,1.29,3.55,1.18,6.71,1.28Z"/>
      <path d="m183.64,125.06c-.55.06-.86.02-1.03-.03.32,0,.66.02,1.03.03Z"/>
      <path d="m160.67,100.25l.26,18.52c-.43.62-1.87,2.16-3.17,2.86-1.32-3.5,2.91-21.38,2.91-21.38Z"/>
      <path d="m168.39,94.99c.22,2.51,2.3,4.44,4.82,4.46.16,0,.16-.24,0-.24-2.39-.02-4.37-1.83-4.58-4.22-.01-.16-.26-.16-.24,0h0Z"/>
      <path d="m167.23,92.97c-.33,1.41-.37,2.87-.09,4.29.21,1.09.58,2.68,1.72,3.17.14.06.27-.15.12-.21-1.11-.48-1.44-2.1-1.64-3.17-.24-1.33-.19-2.7.12-4.01.04-.15-.2-.22-.24-.06h0Z"/>
      <path d="m181.92,114.74c1.54.81,2.59,2.32,2.83,4.05.02.16.26.09.24-.06-.24-1.78-1.35-3.35-2.94-4.19-.14-.07-.26.14-.12.21h0Z"/>
      <path d="m182.63,114.42c.64-.68,1.62-.82,2.5-.86.98-.04,1.94.1,2.87.39.15.05.21-.19.06-.24-1.04-.33-2.14-.47-3.24-.38-.86.07-1.76.26-2.37.91-.11.11.06.29.17.17h0Z"/>
      <path d="m167.91,117.31c-.37,2.13,1.2,4.08,3.37,4.15.16,0,.16-.24,0-.24-2-.06-3.48-1.86-3.14-3.84.03-.15-.21-.22-.24-.06h0Z"/>
    </g>
    <g>
      <path class="cls-23" d="m174.6,66.09s6.36-2.83,11.35,3.9c1.87.27,1.09,2.54,1.09,2.54,0,0,.26,7.82-4.19,9.79s-8.24-16.23-8.24-16.23Z"/>
      <path class="cls-23" d="m185.59,72.8c-.56,1.58-1.22,3.33-2.81,4.12-.14.07-.02.28.12.21,1.65-.83,2.35-2.63,2.93-4.27.05-.15-.18-.21-.24-.06h0Z"/>
      <path class="cls-23" d="m184.77,70.45c-.94-.16-1.86,0-2.7.46-.14.08-.01.29.12.21.77-.42,1.64-.58,2.51-.43.15.03.22-.21.06-.24h0Z"/>
    </g>
    <path d="m182.4,82.21s0-14.51-9.33-17.61-3.82,8.55-3.82,8.55l13.15,9.06Z"/>
    <path class="cls-6" d="m182.13,83.15c-.71,1.69-4.8,2.46-4.8,2.46,0,0-.42.33.11,4.61-3.16,4.74-7.04,2.25-7.04,2.25,0,0,.69-2.09,1.11-3.91.18-.79.31-1.53.31-2.02-.49.1-.92.09-1.31,0-2.85-.68-3.35-5.81-3.17-7.32.2-1.71,2.3-8.19,2.3-8.19,12.36-5.23,11.25,8.52,10.59,9.97,1.84-.59,2.62.48,1.91,2.17Z"/>
    <g class="cls-31">
      <path d="m171.18,69.46c-.83.37-1.53,1.03-1.93,1.88-.28.59-.42,1.29,0,1.86.92,1.28.55.3,1.58-1.21.07,2.18,1.37,3.14,3.29,3.05s.56.3.02-1.11c2.34,1.34,4.94,1.06,5.46,2.51s.31,3.26-.16,4.8c-.48,1.54.79,1.01,2.34,0,1.21-.79-3.08-15.13-10.58-11.77Z"/>
    </g>
    <path class="cls-19" d="m171.35,68.72c-.83.37-1.53,1.03-1.93,1.88-.28.59-.42,1.29,0,1.86.92,1.28.55.3,1.58-1.21.07,2.18,1.37,3.14,3.29,3.05s.56.3.02-1.11c2.34,1.34,4.94,1.06,5.46,2.51s.31,3.26-.16,4.8c-.48,1.54.79,1.01,2.34,0,1.21-.79-3.08-15.13-10.58-11.77Z"/>
    <path class="cls-2" d="m175.57,75.59s1.83-.2,2.16.79"/>
    <path class="cls-2" d="m172.14,74.93s-.39-1.31-2.17-.95"/>
    <ellipse cx="170.41" cy="76.85" rx="1.09" ry=".7" transform="translate(34.36 205.05) rotate(-67.57)"/>
    <ellipse cx="175.47" cy="78.41" rx="1.09" ry=".7" transform="translate(36.05 210.69) rotate(-67.57)"/>
    <path d="m170.25,79.53s.04.79,1.21.94-.79-.79-1.21-.94Z"/>
    <path class="cls-4" d="m169.47,81.51s1.1,1.86,3.81,1.34"/>
    <ellipse class="cls-16" cx="176.2" cy="81.31" rx=".89" ry="1.96" transform="translate(33.81 213.16) rotate(-67.57)"/>
    <path d="m179.12,83.04c.03-.11.09-.21.17-.29.22-.26.56-.39.89-.48.13-.03.27-.06.41-.05s.27.06.37.16c.09.1.12.28.02.38-.05.05-.11.07-.18.09-.12.04-.25.07-.37.11-.03,0-.06.02-.07.04-.02.03,0,.07-.01.11,0,.07-.05.13-.11.17s-.13.05-.2.05c-.14.01-.28.02-.42,0-.15-.01-.33-.06-.38-.21"/>
    <polygon points="170.25 89.53 171.37 92.63 169.16 94.33 168.57 90.91 170.25 89.53"/>
    <polygon points="178.06 88.68 171.37 92.63 175.47 95.91 180.43 90.78 178.06 88.68"/>
    <g>
      <path class="cls-6" d="m171.69,114.84c.39-1-.05-2.14-1.02-2.63-1.51-.76-4.31-2.09-5.57-2.23-1.78-.2-8.82,2.39-7.6,3s5.76-.9,5.76-.9c0,0-2.24,1.19-1.12,2.24s2.39.72,2.39.72l.12.19c.51.82,1.49,1.23,2.43.99h0s.21,1.44,1.85,1.12c1.06-.21,2.28-1.26,2.77-2.5Z"/>
      <g class="cls-30">
        <g>
          <path d="m157.74,113.12c2.05.09,4.05-.63,5.97-1.38-.39.63-1.05,1.02-1.62,1.49s-1.08,1.14-.98,1.87c-1-.27-1.98-.65-2.9-1.13-.32-.16-.67-.41-.67-.76"/>
          <path d="m164.47,115.23l.5-1.04c.06-.12.11-.26.05-.37-.03-.05-.09-.09-.14-.12-.23-.11-.5-.1-.74,0s-.43.28-.57.49c-.11.17-.19.37-.19.58s.09.42.25.54.42.13.57,0c.12-.1-.05.27.05.15"/>
          <path d="m167,116.35c-.04-.35.08-.72.31-.99.05-.06.1-.12.09-.19-.02-.12-.2-.13-.31-.09-.41.16-.67.6-.75,1.04-.03.16-.04.33.03.48s.23.26.39.22c.14-.03.23-.17.28-.31s-.33.45-.28.31"/>
          <path d="m168.93,111.28c1.08.68,1.77,1.95,1.75,3.23-.01.92-.36,1.8-.54,2.7-.02.09-.03.2.04.26.07.07.19.05.28.02.35-.11.64-.35.89-.61.89-.96,1.23-2.41.85-3.67-.38-1.26-1.46-2.28-2.73-2.59"/>
        </g>
      </g>
    </g>
    <g>
      <path class="cls-21" d="m142.58,108.97l1.8-1.96s6.49.51,7.98.71,3,2.68,3,2.68c0,0,2.7.38,2.8,2.04.1,1.67,1.41,7.79,1.41,7.79l-1.53,1.51-15.46-12.77Z"/>
      <path class="cls-22" d="m157.76,121.76l-5.08-.75-1.43-.21-5.95-7.86-2.69-3.55c-.21-.28.03-.68.38-.62,2.02.37,6.61,1.14,8.26.95,2.14-.25,2.2,2.29,3.58,2.16,1.11-.11,2.99,6.48,3.68,9.03.13.47-.27.92-.76.85Z"/>
      <rect class="cls-22" x="149.43" y="101.92" width="1.1" height="6.85" rx=".34" ry=".34" transform="translate(-18.47 33.12) rotate(-11.88)"/>
      <path class="cls-9" d="m145.95,92.79s2.71,5.84,3.46,9.73"/>
      <circle cx="145.6" cy="92.64" r=".44"/>
    </g>
    <path d="m175.01,85.65s-1.39,3.05-3.5,2.9c.18-.79.31-1.53.31-2.02-.49.1,3.19-.88,3.19-.88Z"/>
    <path d="m175.89,81.54l1.84-.62c.15-.05.08-.29-.06-.24l-1.84.62c-.15.05-.08.29.06.24h0Z"/>
    <path d="m176.94,81.84l.85-.23c.15-.04.09-.28-.06-.24l-.85.23c-.15.04-.09.28.06.24h0Z"/>
    <path d="m171.73,69.24c-.3.32-.5.71-.59,1.14-.03.15.2.22.24.06.08-.39.26-.74.53-1.03.11-.11-.07-.29-.17-.17h0Z"/>
    <path d="m174.34,69.69c-.7.92-.33,2.08.42,2.83.11.11.28-.06.17-.17-.67-.68-1.02-1.71-.38-2.54.1-.12-.12-.25-.21-.12h0Z"/>
    <path d="m176.92,70.97c.18.86.61,1.62,1.24,2.23.11.11.29-.06.17-.17-.61-.58-1.01-1.3-1.18-2.12-.03-.15-.27-.09-.24.06h0Z"/>
    <path d="m153.26,119.87c-.19.38-.39.76-.58,1.14l-1.43-.21-5.95-7.86c.58-.78,1.49-1.31,2.45-1.44.18-.02.37-.03.53.06.32.19.31.65.25,1.02-.09.58-.18,1.16-.27,1.75.4-.06.79-.2,1.19-.27.4-.07.84-.06,1.19.16.34.22.55.69.36,1.05-.13.26-.44.57-.22.78.08.07.19.08.3.09.36,0,.77-.02,1.04.22.46.4.2,1.19.53,1.7.22.32.66.47.79.84.12.32-.04.67-.19.98Z"/>
    <g>
      <path class="cls-6" d="m145.5,113.42s-1.64,2.02,0,3.27c1.64,1.25.39.57,2.1,1.76s1.12,1.65,2.37,1.98,2.6-.6,2.29-1.69-1.5,0-1.5,0c0,0,1.68-.49.81-1.41s-1.47.26-3.03.46,2.42-2.1,1.43-2.76-3.03.92-3.03.92c0,0,.33-1.01.26-2.54s-1.71,0-1.71,0Z"/>
      <g class="cls-28">
        <g>
          <path d="m146.75,115.9c-.22-.1-.32-.36-.35-.6-.13-.86.26-1.71.37-2.58.02-.18.06-.39.23-.44.1-.03.21.02.28.1s.1.18.13.28c.11.42.12.87.13,1.3.01.65,0,1.35-.39,1.86"/>
          <path d="m150.16,115.07c-.46.7-1.16,1.21-1.76,1.81-.19.19-.39.45-.31.72.01.05.04.1.08.13.09.07.23.02.33-.03.61-.31,1.15-.74,1.58-1.26.19-.22.36-.47.42-.76s0-.61-.22-.81"/>
          <path d="m151.88,117.45c-.38.77-1.04,1.4-1.82,1.76.03.1.17.11.27.1.78-.1,1.51-.52,1.98-1.14.1-.13.19-.28.21-.44.03-.23-.11-.46-.32-.56"/>
        </g>
      </g>
    </g>
  </g>
  <g>
    <g>
      <ellipse class="cls-17" cx="63.69" cy="59.21" rx="11.58" ry="7.28"/>
      <ellipse class="cls-17" cx="111.03" cy="54.99" rx="10.4" ry="6.55"/>
      <ellipse class="cls-17" cx="93.79" cy="38.4" rx="17.66" ry="9.82" transform="translate(-4.53 13.79) rotate(-8.21)"/>
      <polygon class="cls-17" points="65.75 59.21 76.4 60.58 78.16 57.22 66.02 57.79 65.75 59.21"/>
      <polygon class="cls-17" points="109.16 56.75 97.85 58.65 96.09 55.29 108.13 55.29 109.16 56.75"/>
      <polygon class="cls-17" points="84.09 56.97 92.15 43 96.09 43 91.13 55.29 84.09 56.97"/>
      <g>
        <ellipse class="cls-17" cx="87.36" cy="58.68" rx="11.99" ry="4.41" transform="translate(-8.65 15.58) rotate(-9.71)"/>
        <path class="cls-17" d="m79.81,61.11c-.45.35-.57.97-.29,1.46.88,1.55,3.35,4.51,9.14,3.82,4.73-.57,6.62-4.36,7.27-6.24.21-.59-.11-1.24-.7-1.44-2.49-.84-9.2-2.39-15.41,2.41Z"/>
      </g>
      <g>
        <ellipse class="cls-17" cx="110.13" cy="55.21" rx="3.61" ry="1.33" transform="translate(-1.91 3.99) rotate(-2.06)"/>
        <path class="cls-17" d="m107.78,55.64c-.15.09-.21.27-.15.42.2.5.82,1.48,2.57,1.51,1.43.02,2.15-1.03,2.42-1.57.09-.17.02-.38-.15-.46-.71-.35-2.65-1.08-4.69.1Z"/>
      </g>
      <g>
        <ellipse class="cls-17" cx="64.03" cy="58.22" rx="3.61" ry="1.33" transform="translate(-6.66 8.3) rotate(-7.05)"/>
        <path class="cls-17" d="m61.73,58.85c-.14.1-.19.28-.11.44.24.48.94,1.4,2.69,1.28,1.43-.1,2.05-1.22,2.27-1.78.07-.18-.01-.38-.19-.44-.74-.29-2.73-.85-4.67.51Z"/>
      </g>
      <g>
        <ellipse class="cls-17" cx="94.15" cy="42.64" rx="4.54" ry="1.67" transform="translate(-5.84 16.49) rotate(-9.71)"/>
        <path class="cls-17" d="m91.29,43.56c-.17.13-.22.37-.11.55.33.59,1.27,1.71,3.46,1.45,1.79-.22,2.51-1.65,2.75-2.36.08-.23-.04-.47-.27-.55-.94-.32-3.48-.91-5.84.91Z"/>
      </g>
      <path class="cls-17" d="m57.23,61.1c1.37,2.54,4.54,3.96,7.34,3.29"/>
      <path class="cls-17" d="m85.53,36.03c-1.06.84-2.04,1.82-2.65,3.03-.61,1.21-.82,2.66-.32,3.92.57,1.47,2.13,2.5,3.71,2.47"/>
      <path class="cls-17" d="m67.36,62.7c.8-.34,1.5-.91,2-1.62"/>
      <path class="cls-17" d="m89.06,38.31c2.73-1.76,6.21-2.29,9.34-1.43,1.24.34,2.49.96,3.13,2.07"/>
      <path class="cls-17" d="m103.21,35.14c.96.17,1.91.51,2.64,1.16s1.17,1.66.97,2.61c-.19.88-.89,1.56-1.63,2.07-.98.69-2.08,1.19-3.24,1.49"/>
      <path class="cls-17" d="m95.95,32.49c2.66-.78,5.59-.61,8.14.47"/>
      <path class="cls-17" d="m105.98,52.45c.21-.39.66-.58,1.08-.71,1.53-.48,3.19-.55,4.76-.2"/>
      <path class="cls-17" d="m115.6,54.76c.49.71.27,1.81-.47,2.27"/>
      <path class="cls-17" d="m117,54.01c.72.18,1.11,1.03,1,1.76s-.6,1.35-1.15,1.85c-1.24,1.13-2.85,1.85-4.52,2.02"/>
    </g>
    <g>
      <g>
        <polygon class="cls-17" points="66.75 75.73 86.99 62.55 113.98 67.32 117.41 97.34 97.17 109.99 71.32 104.28 66.75 75.73"/>
        <g>
          <polygon class="cls-17" points="66.75 75.73 86.99 62.55 113.98 67.32 117.41 97.34 97.17 109.99 71.32 104.28 66.75 75.73"/>
          <g class="cls-29">
            <polygon class="cls-17" points="69.38 105.73 92.08 91.93 118.52 97.53 98.57 112.62 69.38 105.73"/>
          </g>
        </g>
        <g>
          <polyline class="cls-17" points="74.22 103.14 92.08 91.93 116.16 96.91"/>
          <line class="cls-17" x1="86.99" y1="64" x2="92.08" y2="91.93"/>
        </g>
        <polygon class="cls-17" points="91.67 66.53 91.98 69.6 100.15 70.73 100.03 67.72 91.67 66.53"/>
        <polygon class="cls-17" points="105.1 87.16 105.4 90.23 113.57 91.35 113.46 88.35 105.1 87.16"/>
        <polygon class="cls-18" points="69.38 74.02 73.18 91.35 84.6 84.77 80.33 66.89 69.38 74.02"/>
      </g>
      <polygon class="cls-17" points="100.24 64.86 102.82 81 107.99 82.25 104.82 65.67 100.24 64.86"/>
      <polygon class="cls-17" points="76.67 69.27 80.65 84.12 76.99 87.16 73.17 71.47 76.67 69.27"/>
      <g>
        <path class="cls-17" d="m71.61,71.51l3.72,14.76.83.38,3.27-2.57-3.71-14.4c-.2-.76-1.08-1.1-1.74-.67l-1.91,1.27c-.4.27-.59.76-.48,1.23Z"/>
        <g>
          <path class="cls-17" d="m71.61,71.51l3.72,14.76.83.38,3.27-2.57-3.71-14.4c-.2-.76-1.08-1.1-1.74-.67l-1.91,1.27c-.4.27-.59.76-.48,1.23Z"/>
          <g class="cls-32">
            <polygon class="cls-17" points="73.81 66.53 78.23 83.43 74.63 87.16 76.02 88.05 82.35 83.15 76.35 65.93 73.81 66.53"/>
          </g>
        </g>
        <path class="cls-17" d="m106.86,65.37l2.37,15.04-.61.68-4.02-1.08-2.25-14.7c-.12-.78.56-1.44,1.34-1.3l2.25.42c.48.09.84.47.92.95Z"/>
        <g>
          <path class="cls-17" d="m106.86,65.37l2.37,15.04-.61.68-4.02-1.08-2.25-14.7c-.12-.78.56-1.44,1.34-1.3l2.25.42c.48.09.84.47.92.95Z"/>
          <g class="cls-35">
            <polygon class="cls-17" points="102.34 61.92 105.1 79.12 109.23 80.41 108.18 82.16 103.28 80.25 100.7 70.73 102.34 61.92"/>
          </g>
        </g>
      </g>
    </g>
  </g>
  <ellipse class="cls-7" cx="106.86" cy="168.44" rx="18.18" ry="4.47"/>
  <g>
    <path class="cls-12" d="m110.42,107.92c4.93,5.15,7.1,12.18,11.42,17.77,2.03,2.63,4.55,4.88,7.64,6.16,2.91,1.2,6.31,1.45,9.19.02,2.69-1.33,4.59-4.32,3.67-7.36-.76-2.52-3.86-4.15-6.27-2.77-1.07.61-1.98,2.2-.75,3.15.42.33,1.03.35,1.45,0,.39-.31.53-.82.57-1.29.11-1.29-.56-2.61-1.13-3.74-.64-1.28-1.44-2.48-2.36-3.58-3.64-4.39-9.23-7.22-14.96-7.33-.7-.01-1.4.02-2.09.08-.31.03-.31.52,0,.49,5.26-.52,10.57,1.4,14.51,4.86,1.95,1.71,3.56,3.8,4.67,6.15.48,1.02,1.12,2.3.79,3.46-.17.58-.78.93-1.27.41-.58-.6-.19-1.44.34-1.91.97-.86,2.4-.92,3.56-.48,1.26.47,2.17,1.51,2.51,2.81.78,3.01-1.32,5.76-4.01,6.86s-5.97.76-8.68-.46c-2.85-1.29-5.18-3.43-7.06-5.89-3.83-4.99-5.95-11.06-9.87-16-.49-.61-1-1.2-1.54-1.76-.22-.23-.56.12-.35.35h0Z"/>
    <path class="cls-12" d="m85.26,113.95c.55,3.01.27,6.16,1.22,9.1.83,2.6,2.73,4.62,5.3,5.57,1.37.51,2.86.66,4.31.43.31-.05.18-.52-.13-.47-2.53.41-5.19-.51-7-2.31-2.05-2.03-2.51-4.91-2.72-7.67-.13-1.6-.2-3.2-.49-4.77-.06-.31-.53-.18-.47.13h0Z"/>
    <path class="cls-12" d="m94.63,112.04c.16,3.29,3.09,6.1,6.39,6.11.31,0,.31-.49,0-.49-3.03-.01-5.75-2.6-5.91-5.63-.02-.31-.5-.31-.49,0h0Z"/>
    <path class="cls-12" d="m123.59,86.21c3.86,1.62,8.41,1.31,12.08-.66,1.03-.55,1.99-1.25,2.84-2.05.23-.22-.12-.56-.35-.35-3.8,3.57-9.65,4.6-14.45,2.58-.29-.12-.42.35-.13.47h0Z"/>
  </g>
  <g>
    <g>
      <ellipse class="cls-14" cx="61.89" cy="58.04" rx="11.19" ry="7.04"/>
      <ellipse class="cls-14" cx="107.68" cy="53.96" rx="10.06" ry="6.33"/>
      <ellipse class="cls-14" cx="91" cy="37.92" rx="17.08" ry="9.5" transform="translate(-4.48 13.39) rotate(-8.21)"/>
      <polygon class="cls-13" points="63.89 58.04 74.19 59.36 75.89 56.11 64.14 56.66 63.89 58.04"/>
      <polygon class="cls-13" points="105.87 55.66 94.93 57.5 93.22 54.25 104.86 54.25 105.87 55.66"/>
      <polygon class="cls-13" points="81.62 55.88 89.42 42.36 93.22 42.36 88.42 54.25 81.62 55.88"/>
      <g>
        <ellipse class="cls-11" cx="84.78" cy="57.52" rx="11.6" ry="4.27" transform="translate(-8.49 15.12) rotate(-9.71)"/>
        <path class="cls-10" d="m77.48,59.88c-.43.34-.55.94-.28,1.41.85,1.5,3.24,4.36,8.84,3.69,4.57-.55,6.4-4.21,7.03-6.04.2-.57-.1-1.2-.68-1.4-2.41-.81-8.9-2.31-14.91,2.33Z"/>
      </g>
      <g>
        <ellipse class="cls-11" cx="106.81" cy="54.17" rx="3.49" ry="1.28" transform="translate(-1.88 3.87) rotate(-2.06)"/>
        <path class="cls-10" d="m104.54,54.58c-.14.08-.2.26-.14.41.19.48.79,1.43,2.49,1.46,1.39.02,2.08-1,2.34-1.52.08-.16.02-.36-.15-.44-.69-.34-2.56-1.05-4.54.1Z"/>
      </g>
      <g>
        <ellipse class="cls-11" cx="62.22" cy="57.09" rx="3.49" ry="1.28" transform="translate(-6.53 8.07) rotate(-7.05)"/>
        <path class="cls-10" d="m60,57.69c-.14.09-.18.27-.1.42.23.46.91,1.36,2.61,1.23,1.38-.1,1.98-1.18,2.2-1.72.07-.17-.01-.36-.18-.43-.71-.28-2.64-.82-4.51.49Z"/>
      </g>
      <g>
        <ellipse class="cls-11" cx="91.35" cy="42.01" rx="4.39" ry="1.62" transform="translate(-5.78 16.01) rotate(-9.71)"/>
        <path class="cls-10" d="m88.59,42.91c-.16.13-.21.35-.11.54.32.57,1.23,1.65,3.35,1.4,1.73-.21,2.42-1.6,2.66-2.29.08-.22-.04-.46-.26-.53-.91-.31-3.37-.88-5.64.88Z"/>
      </g>
      <path class="cls-8" d="m55.54,59.93c1.38,2.52,4.44,3.88,7.24,3.23.15-.04.09-.27-.06-.24-2.69.62-5.63-.7-6.96-3.12-.08-.14-.29-.01-.21.12h0Z"/>
      <path class="cls-8" d="m82.93,35.54c-1.75,1.4-3.39,3.37-3.15,5.76.2,2.01,1.93,3.56,3.95,3.55.16,0,.16-.25,0-.24-2.05.01-3.72-1.66-3.73-3.71-.01-2.18,1.5-3.9,3.1-5.19.12-.1-.05-.27-.17-.17h0Z"/>
      <path class="cls-8" d="m65.5,61.52c.8-.35,1.47-.9,1.98-1.61.09-.13-.12-.25-.21-.12-.49.67-1.13,1.19-1.89,1.52-.14.06-.02.27.12.21h0Z"/>
      <path class="cls-8" d="m86.48,37.93c1.84-1.17,4-1.78,6.19-1.76,1.97.03,4.6.5,5.7,2.34.08.13.29.01.21-.12-1.11-1.85-3.65-2.38-5.65-2.45-2.31-.08-4.63.54-6.58,1.78-.13.08,0,.3.12.21h0Z"/>
      <path class="cls-8" d="m100.08,34.88c.94.18,1.89.49,2.59,1.17.65.63,1.05,1.61.76,2.5-.28.89-1.07,1.51-1.83,2-.85.54-1.77.93-2.74,1.19-.15.04-.09.28.06.24,1.13-.3,2.2-.78,3.16-1.46.74-.52,1.47-1.21,1.65-2.14.17-.88-.2-1.78-.8-2.41-.73-.77-1.77-1.13-2.78-1.32-.15-.03-.22.21-.06.24h0Z"/>
      <path class="cls-8" d="m93.12,32.32c2.58-.74,5.33-.58,7.81.45.14.06.21-.18.06-.24-2.51-1.05-5.32-1.2-7.94-.45-.15.04-.09.28.06.24h0Z"/>
      <path class="cls-8" d="m102.9,51.56c.25-.39.69-.55,1.12-.67.49-.14,1-.25,1.51-.3.96-.11,1.93-.05,2.88.15.15.03.22-.2.06-.24-1.08-.23-2.18-.28-3.28-.12-.83.12-2.02.28-2.51,1.05-.08.13.13.26.21.12h0Z"/>
      <path class="cls-8" d="m111.99,53.8c.42.67.25,1.58-.41,2.03-.13.09,0,.3.12.21.76-.52.99-1.58.49-2.36-.08-.13-.3,0-.21.12h0Z"/>
      <path class="cls-8" d="m113.41,53.13c.75.23,1.02,1.09.83,1.79s-.71,1.22-1.23,1.66c-1.15.98-2.59,1.58-4.08,1.74-.15.02-.16.26,0,.24,1.76-.2,3.49-.97,4.73-2.26.51-.53.94-1.22.89-1.98-.05-.65-.43-1.25-1.07-1.44-.15-.05-.22.19-.06.24h0Z"/>
    </g>
    <g>
      <g>
        <polygon class="cls-22" points="64.85 74.02 84.43 61.27 110.53 65.89 113.84 94.92 94.27 107.15 69.27 101.63 64.85 74.02"/>
        <g class="cls-36">
          <polygon class="cls-22" points="67.39 103.03 89.35 89.68 114.91 95.1 95.62 109.7 67.39 103.03"/>
        </g>
        <g>
          <polyline class="cls-3" points="72.08 100.53 89.35 89.68 112.64 94.5"/>
          <line class="cls-3" x1="84.43" y1="62.67" x2="89.35" y2="89.68"/>
        </g>
        <polygon class="cls-37" points="88.95 65.12 89.25 68.09 97.15 69.18 97.04 66.27 88.95 65.12"/>
        <polygon class="cls-37" points="101.94 85.07 102.23 88.03 110.13 89.13 110.02 86.22 101.94 85.07"/>
        <polygon class="cls-37" points="67.39 72.36 71.07 89.13 82.12 82.75 77.99 65.46 67.39 72.36"/>
      </g>
      <polygon points="97.24 63.5 99.73 79.11 104.73 80.32 101.66 64.28 97.24 63.5"/>
      <polygon points="74.44 67.77 78.29 82.13 74.75 85.07 71.06 69.9 74.44 67.77"/>
      <g>
        <path class="cls-11" d="m69.55,69.94l3.6,14.28.8.37,3.17-2.48-3.58-13.93c-.19-.74-1.05-1.07-1.68-.64l-1.84,1.23c-.39.26-.57.74-.46,1.19Z"/>
        <g class="cls-34">
          <polygon class="cls-20" points="71.68 65.12 75.95 81.46 72.47 85.07 73.82 85.93 79.94 81.2 74.14 64.54 71.68 65.12"/>
        </g>
        <path class="cls-11" d="m103.64,64l2.29,14.54-.59.65-3.89-1.04-2.17-14.22c-.11-.75.55-1.39,1.29-1.25l2.18.4c.46.09.82.45.89.91Z"/>
        <g class="cls-33">
          <polygon class="cls-20" points="99.27 60.66 101.94 77.29 105.93 78.54 104.92 80.23 100.18 78.39 97.68 69.18 99.27 60.66"/>
        </g>
      </g>
    </g>
  </g>
  <g>
    <path class="cls-10" d="m126.65,65.22h0s-.03,0-.04,0c-.01,0-.03,0-.04,0h0c-1.5.04-4.36,1.31-3.87,4.85.46,3.29,3.37,6.57,3.87,7.12v.08s.01-.01.04-.04c.02.03.04.04.04.04v-.08c.5-.55,3.41-3.83,3.87-7.12.49-3.55-2.37-4.81-3.87-4.85Zm-.03,5.36c-.87,0-1.58-.71-1.58-1.58s.71-1.58,1.58-1.58,1.58.71,1.58,1.58-.71,1.58-1.58,1.58Z"/>
    <path class="cls-12" d="m126.35,64.99h0s-.03,0-.04,0c-.01,0-.03,0-.04,0h0c-1.5.04-4.36,1.31-3.87,4.85.46,3.29,3.37,6.57,3.87,7.12v.08s.01-.01.04-.04c.02.03.04.04.04.04v-.08c.5-.55,3.41-3.83,3.87-7.12.49-3.55-2.37-4.81-3.87-4.85Zm-.03,5.36c-.87,0-1.58-.71-1.58-1.58s.71-1.58,1.58-1.58,1.58.71,1.58,1.58-.71,1.58-1.58,1.58Z"/>
  </g>
</svg>