<?xml version="1.0" encoding="UTF-8"?>
<svg xmlns="http://www.w3.org/2000/svg" xmlns:xlink="http://www.w3.org/1999/xlink" viewBox="0 0 275.23 253.23">
  <defs>
    <style>
      .cls-1 {
        clip-rule: evenodd;
      }

      .cls-1, .cls-2, .cls-3 {
        fill: #eb6b47;
      }

      .cls-4 {
        clip-path: url(#clippath);
      }

      .cls-5 {
        fill: #676767;
      }

      .cls-6 {
        fill: #f1dcff;
      }

      .cls-7 {
        fill: #eab27a;
      }

      .cls-8 {
        fill: #ff9c85;
      }

      .cls-9 {
        fill: #fff;
      }

      .cls-10 {
        fill: #f5c345;
      }

      .cls-11, .cls-12 {
        fill: #f2aeb1;
      }

      .cls-13 {
        fill: #fccdd1;
      }

      .cls-14, .cls-15 {
        fill: #fef9ec;
      }

      .cls-16, .cls-17 {
        fill: #fbe8bf;
      }

      .cls-18, .cls-19 {
        fill: #ee8688;
      }

      .cls-20 {
        fill: #818181;
      }

      .cls-21 {
        fill: #98cbed;
      }

      .cls-22 {
        fill: #a06733;
      }

      .cls-23, .cls-24 {
        fill: #b4fcbd;
      }

      .cls-25 {
        fill: #a0291d;
      }

      .cls-26, .cls-27 {
        fill: #8fcc95;
      }

      .cls-28 {
        fill: #a707fc;
      }

      .cls-29, .cls-30 {
        fill: #d8757a;
      }

      .cls-31, .cls-32 {
        fill: #d09fff;
      }

      .cls-33 {
        fill: #dcf4ff;
      }

      .cls-34 {
        fill: #c69ff4;
      }

      .cls-35 {
        fill: #e45535;
      }

      .cls-36 {
        fill: #e1a360;
      }

      .cls-37 {
        fill: #c98c4f;
      }

      .cls-38, .cls-39 {
        fill: #c9412b;
      }

      .cls-40 {
        fill: #132651;
      }

      .cls-41, .cls-42 {
        fill: #12254f;
      }

      .cls-43, .cls-44 {
        fill: #246fc9;
      }

      .cls-45, .cls-46 {
        fill: #243c7c;
      }

      .cls-47 {
        fill: #212121;
      }

      .cls-48 {
        fill: #441168;
      }

      .cls-49 {
        fill: #414141;
      }

      .cls-50, .cls-51 {
        fill: #081328;
      }

      .cls-52 {
        fill: #4260a5;
      }

      .cls-53 {
        fill: #3e8edd;
      }

      .cls-54 {
        fill: #7317af;
      }

      .cls-55 {
        fill: #8847c6;
      }

      .cls-56 {
        fill: #2c0b49;
      }

      .cls-57 {
        fill: #353535;
      }

      .cls-58 {
        fill: #5d08a0;
      }

      .cls-59 {
        fill: #5b95bc;
      }

      .cls-60, .cls-61 {
        fill: #4c4c4c;
      }

      .cls-62 {
        fill: #6082c6;
      }

      .cls-63 {
        fill: #74b4e8;
      }

      .cls-64 {
        opacity: .6;
      }

      .cls-61, .cls-65, .cls-51, .cls-42, .cls-66, .cls-46, .cls-44, .cls-39, .cls-32, .cls-30, .cls-24, .cls-27, .cls-12, .cls-67, .cls-3, .cls-17, .cls-19, .cls-15 {
        fill-rule: evenodd;
      }

      .cls-65 {
        fill: #181818;
      }

      .cls-66 {
        fill: #1fcb64;
      }

      .cls-67 {
        fill: #e8d3aa;
      }

      .cls-68 {
        isolation: isolate;
      }

      .cls-69 {
        mix-blend-mode: multiply;
        opacity: .5;
      }
    </style>
    <clipPath id="clippath">
      <path class="cls-1" d="m151.55,131.39c.41,1.69.97,3.44,1.7,4.83,0,0-.3,2.79-1.4,4.77.1-.09,1.78-1.64,3.14-4.43,0,0,2.81,3.16,6.43,5.26,0,0,.75-3.3,1.3-3.74,0,0,.81.58,1.25,1.7-.04-.12-.64-2.07-.59-2.82.02-.24.23-1.08.51-2.11.6-2.2,1.52-5.28,1.56-5.42-.04.04-.57.55-1,.27-.44-.29-.78-5.09-.26-8.82.52-3.72,1.44-4.7,1.44-4.7l.7.19s-.09-.57-.39-.81c0,0,0,0-.01,0-.08.03-.48.21-.86.1-.43-.12-.63-.39-.63-.39,0,0-1.18,4.53-2.22,8.44,0,0-3.59,4.76-6.56,6.81-.15.1-.3.2-.44.29,0,0,0,0,0,0-.15-.18-2.6-3.21-3.21-5.83-.63-2.71,1.97-9.55,1.97-9.55,0,0-.19-.07-.43-.11-.28-.05-.66.21-.8.4,0,0-1.98,7.07-2.22,9.7,0,0,.28,2.89,1.04,5.99Z"/>
    </clipPath>
  </defs>
  <g class="cls-68">
    <g id="Camada_1" data-name="Camada 1">
      <g>
        <g>
          <path class="cls-6" d="m148.86,158.67c9.48-3.95,19.5-5.92,29.51-5.94,23.71-.05,63.65-7.01,51.84-55.18C213.7,30.19,87.71-4.42,55.42,72.38c-29.78,70.8,39.88,108.62,93.44,86.29Z"/>
          <g>
            <polygon class="cls-14" points="69.89 58.19 69.89 125.78 190.79 125.24 190.79 58.19 69.89 58.19"/>
            <g>
              <path class="cls-33" d="m188.6,126.43v-37.25c0-.97-.06-1.92-.18-2.86h-16.41l-11.75,4.56s1.17,16.66,1.18,16.83c-.26.93-16.86.67-16.83,1.32.15,3.02.3,10.32.46,17.39h43.53Z"/>
              <path class="cls-33" d="m141.45,126.43c.34-13.49.68-26.19.67-26.34-.42-.04-4.43-.31-4.46-.52,0,0-.39-2.39-.39-2.39h0c-.67-.17-1.33-.34-2-.5v-.94c-3.27-.82-6.66-1.36-9.98-2.03l-2.51.44v.94s-1.43.25-1.43.25l.71-13.68-1.82-.2-1.16-3.42-.87-.1-1.61-2.9-1.42-.16v-9.07h-.01l-.38,9.07-1.51.16-1.24,2.23-.71-.08-.85,3.18-1.72-.19.18,19.9c-2.32-.37-4.64-.73-6.96-1.1l-4.22-3.01s-4.58,1.26-4.58,1.26c.33,3.98,1.1,16.5,1.86,29.18h46.39Z"/>
              <path class="cls-33" d="m73.65,126.43h16.81c.04-1.58.07-2.92.11-3.92.1-2.88.31-8.74.31-8.74h-.01l-5.29-.42h0l-1.91,1.18.05-11.3-4.1-.37c-.05.03-6.37,4.48-6.81,4.75-.1.06-.17,1.44-.21,3.73v15.09c.35-.01.7-.01,1.06,0Z"/>
              <g>
                <g>
                  <polygon class="cls-21" points="118.48 126.43 119.92 84.06 118.94 84.05 117.99 126.43 118.48 126.43"/>
                  <polygon class="cls-21" points="114.85 126.43 114.45 83.97 113.47 84 114.35 126.43 114.85 126.43"/>
                  <polygon class="cls-21" points="116.03 126.43 116.22 83.99 115.23 84.01 115.54 126.43 116.03 126.43"/>
                  <polygon class="cls-21" points="117.29 126.43 118.42 84.03 117.43 84.03 116.79 126.43 117.29 126.43"/>
                </g>
                <polygon class="cls-21" points="101.14 126.43 100.2 98.76 98.11 97.4 99.92 126.43 101.14 126.43"/>
                <polygon class="cls-21" points="104.51 126.43 105.07 100.81 102.63 100.44 103.13 126.43 104.51 126.43"/>
                <g>
                  <polygon class="cls-21" points="118.15 80.8 119.29 80.82 118.62 78.82 117.65 78.81 118.15 80.8"/>
                  <polygon class="cls-21" points="115.13 80.76 117.49 80.79 117.26 78.8 115.42 78.78 115.13 80.76"/>
                  <polygon class="cls-21" points="115.03 78.77 114.06 78.76 113.33 80.73 114.47 80.75 115.03 78.77"/>
                </g>
              </g>
              <g>
                <polygon class="cls-21" points="90.04 126.43 90.46 114.5 86.35 114.33 86.21 126.43 90.04 126.43"/>
                <polygon class="cls-21" points="76.15 106.77 76.15 106.78 75.94 106.92 76.15 106.77"/>
                <g>
                  <polygon class="cls-21" points="76.56 126.43 76.16 106.92 74.98 107.69 75.51 126.43 76.56 126.43"/>
                  <polygon class="cls-21" points="75.3 126.43 74.54 107.98 73.91 108.39 74.66 126.43 75.3 126.43"/>
                  <polygon class="cls-21" points="79.18 126.43 78.56 105.35 77.66 105.93 77.81 126.43 79.18 126.43"/>
                  <polygon class="cls-21" points="77.67 126.43 77.35 106.14 76.49 106.7 76.71 126.43 77.67 126.43"/>
                </g>
              </g>
              <g>
                <polygon class="cls-21" points="157.97 126.43 157.85 111.32 145.82 111.54 146.58 126.43 157.97 126.43"/>
                <polygon class="cls-21" points="166.14 126.43 164.61 91.75 163.36 92.08 165.66 126.43 166.14 126.43"/>
                <polygon class="cls-21" points="168.85 126.43 167.87 90.89 166.59 91.23 168.37 126.43 168.85 126.43"/>
                <polygon class="cls-21" points="173.06 126.43 172.4 89.69 171.57 89.91 172.76 126.43 173.06 126.43"/>
                <polygon class="cls-21" points="180.32 118.9 178.83 88.09 186.5 88.19 186.08 118.98 180.32 118.9"/>
              </g>
              <g>
                <polygon class="cls-21" points="127.77 96.52 128.24 98.42 136.74 99.48 136.26 98.06 127.77 96.52"/>
                <path class="cls-21" d="m128.46,126.43c-.1-11.82-.21-25.18-.23-27.06l-4.5-.53c.18,3.56.84,16.35,1.42,27.6h3.31Z"/>
                <path class="cls-21" d="m133.87,126.43c.15-10.9.31-22.79.35-26.04l-4.5-.53c0,2.08-.05,14.93-.08,26.57h4.23Z"/>
                <path class="cls-21" d="m139.33,126.43c.38-10.76.79-22.32.9-25.48,0,0-4.5-.53-4.5-.53-.04,1.92-.43,14.51-.74,26.02h4.35Z"/>
              </g>
            </g>
            <g class="cls-64">
              <polygon class="cls-9" points="116.4 57.95 69.76 57.39 69.76 61.33 112.62 126.81 130.56 126.81 116.4 57.95"/>
            </g>
            <g class="cls-64">
              <polygon class="cls-9" points="72 70.16 72 101.25 98.36 126.81 111.72 126.81 72 70.16"/>
            </g>
            <polygon class="cls-34" points="189.79 57.95 188.83 125.81 189.89 125.81 190.75 57.95 189.79 57.95"/>
            <polygon class="cls-55" points="188.85 57.95 187.89 125.81 188.95 125.81 189.81 57.95 188.85 57.95"/>
            <polygon class="cls-55" points="69.8 57.77 69.88 127.21 70.92 127.2 70.92 57.77 69.8 57.77"/>
            <polygon class="cls-34" points="70.92 57.77 72 57.77 72 127.19 70.92 127.2 70.92 57.77"/>
            <polygon class="cls-55" points="136.99 57.82 137.07 125.28 138.1 125.28 138.1 57.82 136.99 57.82"/>
            <polygon class="cls-34" points="138.1 57.82 139.18 57.82 139.18 125.27 138.1 125.28 138.1 57.82"/>
            <polygon class="cls-55" points="68.52 127.24 68.52 128.41 192.33 127.29 192.33 126.09 68.52 127.24"/>
            <polygon class="cls-55" points="68.52 56.6 68.52 57.76 192.33 57.89 192.33 56.69 68.52 56.6"/>
            <polygon class="cls-55" points="71.95 70.81 137.8 70.81 137.8 71.84 72 71.57 71.95 70.81"/>
            <polygon class="cls-55" points="139.18 70.81 189.05 70.81 189.05 71.84 139.18 71.65 139.18 70.81"/>
          </g>
        </g>
        <path class="cls-33" d="m189.71,201.18c-.3.11-.61.18-.93.2-.59.04-1.2.06-1.82.06-4.88,0-10.87-1.26-17.18-2.58-5.43-1.14-11.05-2.32-16.43-2.8-3.26-.29-6.17-.3-8.76,0-.92-.26-1.93-.51-3.03-.73-5.47-1.1-15.19-2.02-30.43-.14-15.85,1.96-30.22,2.44-41.57,1.39-9.94-.92-17.39-3.03-20.96-5.92-1.45-1.18-2.09-2.42-1.9-3.71.57-3.76,7.98-6.77,8.06-6.8l-.12-.29s-1.93.78-3.88,2.01c-2.65,1.67-4.12,3.37-4.37,5.03-.21,1.4.46,2.74,2.01,3.99,1.77,1.43,4.43,2.67,7.92,3.68,3.64,1.06,8.09,1.83,13.21,2.31,11.37,1.06,25.76.58,41.63-1.39,15.2-1.88,24.88-.97,30.33.13.81.16,1.57.34,2.28.53-1.94.27-3.69.71-5.28,1.33-3.77,1.46-5.46,2.63-5.17,3.6.38,1.25,4.03,1.58,7.03,1.65.35,0,.71.01,1.06.01,3.2,0,6.61-.28,8.58-.72,1.18-.26,1.78-.87,1.65-1.66-.21-1.21-2.23-2.79-6.26-4.06,7.54-.65,16.34,1.2,24.33,2.88,6.32,1.33,12.33,2.59,17.24,2.59.63,0,1.25-.02,1.84-.07.39-.03.77-.12,1.13-.27-.08-.08-.15-.16-.22-.25Zm-38.37-.77c.14.83-.82,1.18-1.41,1.31-2.17.48-6.11.77-9.57.7-3.97-.08-6.49-.61-6.74-1.42-.13-.43.34-1.43,4.98-3.22,1.85-.72,3.86-1.16,5.97-1.4,4.37,1.26,6.57,2.88,6.77,4.03Z"/>
        <path class="cls-31" d="m215.76,199.55c.57-.47.87-.97.87-1.49,0-2.52-7.21-4.57-16.1-4.57s-16.1,2.05-16.1,4.57c0,2.16,5.29,3.97,12.4,4.45-.74.5-1.14,1.03-1.14,1.59,0,2.52,8.22,4.57,18.35,4.57s18.35-2.05,18.35-4.57c0-2.38-7.31-4.33-16.64-4.55Z"/>
        <path class="cls-31" d="m123.64,178.48c-27.11,0-50,2-57.35,4.74-1.15-.62-3.43-1.04-6.06-1.04-3.78,0-6.85.88-6.85,1.96s3.07,1.96,6.85,1.96c1.43,0,2.76-.13,3.86-.34,2.9,3.36,28.45,6,59.54,6,33.04,0,59.82-2.97,59.82-6.63s-26.78-6.63-59.82-6.63Z"/>
        <g>
          <g>
            <path class="cls-24" d="m62.56,161.96s1.73-27.19,6.57-33.35c4.86-6.45,13.86-1.46,13.86-1.46,0,0-12.02,2.67-14.8,8.18-2.76,5.34-5.29,26.57-5.29,26.57l-.34.05Z"/>
            <path class="cls-66" d="m58.78,159.18s3.12-22.1,2.7-28.57c-.44-6.42-10.71-4.54-10.71-4.54,0,0,7.98,4.2,8.86,11.74.86,7.64-1.21,21.38-1.21,21.38h.37Z"/>
            <path class="cls-66" d="m59.01,159.18s2.66-18.69-3.67-26.12c-6.47-6.75-16-4.32-16-4.32,0,0,12.56,5.38,16.43,12.89,3.79,7.92,2.6,17.55,2.6,17.55h.63Z"/>
            <path class="cls-66" d="m61.55,161.67s2.52-15.6,5.76-21.72c3.25-6.36,7.73-12.4,7.73-12.4,0,0-2.06,8.79-6.74,16.87-4.64,7.65-5.98,17.18-5.98,17.18l-.77.07Z"/>
            <g>
              <path class="cls-24" d="m60.48,160.58s-1.18-27.66,3.85-42.03c3.87-11.54,8.43-14.91,8.43-14.91,0,0-.21,6.56-2.36,13.85-2.13,7.09-6,12.29-7.57,19.69-1.55,7.21-1.66,23.3-1.66,23.3l-.7.09Z"/>
              <path class="cls-66" d="m72.76,103.64s-8.63,14.22-11.58,34.77c0,0,2.19-6.9,6.34-15.09,4.17-8.57,5.24-19.68,5.24-19.68Z"/>
            </g>
            <g>
              <path class="cls-24" d="m58.89,160.92s-3.57-14.95-6.32-25.38c-2.77-10.21-7.87-13.05-7.87-13.05,0,0,2.09,12.27,4.46,18.56,2.35,6.44,7.29,13.68,8.64,20.02l1.09-.14Z"/>
              <path class="cls-66" d="m44.7,122.48s3.85,7.37,8.83,21.06c0,0-1.24-7.13-3.17-13.07-1.94-5.83-5.66-8-5.66-8Z"/>
            </g>
            <path class="cls-66" d="m59.39,160.46s-2.48-13.32-11.06-18.5c0,0,1.67,5.65,3.71,10.13,2.03,4.58,4.21,2.06,6.81,8.44l.54-.07Z"/>
          </g>
          <g>
            <path class="cls-54" d="m61.37,184.34h-4.45c-.84,0-1.57-1.13-1.79-2.76l-3.11-23.85h9.35v26.61Z"/>
            <path class="cls-28" d="m61.56,184.34h-4.86v-13.75c0-7.1,1.17-12.86,4.7-12.86h4.65s-2.69,23.75-2.69,23.75c-.2,1.67-.94,2.85-1.79,2.85Z"/>
          </g>
        </g>
        <g>
          <g>
            <path class="cls-20" d="m100.23,113.96s6.2,22.42,10.9,40.06l-18.08-1.75s-7.44-18.54-9.33-39.8c0,0,6.73-1.36,16.51,1.48Z"/>
            <path d="m111.22,154.09h-.1s-18.12-1.76-18.12-1.76l-.02-.04s-1.88-4.72-3.96-11.93c-1.91-6.66-4.4-16.9-5.38-27.88v-.06s.05-.01.05-.01c.02,0,1.72-.34,4.6-.33,2.65.01,6.88.34,11.94,1.81h.04s.01.05.01.05c.06.22,6.26,22.62,10.9,40.06l.03.09Zm-18.12-1.89l17.94,1.73c-4.55-17.09-10.58-38.89-10.86-39.93-9.15-2.66-15.69-1.61-16.38-1.48.98,10.95,3.46,21.16,5.37,27.79,1.97,6.86,3.76,11.42,3.94,11.88Z"/>
          </g>
          <path class="cls-58" d="m112.52,153.07s-12.13-.42-19.47-.8c0,0-5.69-18.43-9.36-40.05h-1.15s3.42,25.09,9.32,43.13c0,0,5.61.6,20.65-1.08v-1.2Z"/>
          <polygon class="cls-60" points="112.52 153.07 131.29 153.07 131.29 154.69 112.52 154.27 112.52 153.07"/>
          <path class="cls-63" d="m82.55,112.22s6.1-1.64,18.52,1.41c0,0-7.64-2.38-17.35-1.15l-1.17-.26Z"/>
          <path class="cls-45" d="m131.29,153.07s.28-2.5-.68-3.34c0,0-19.48-1.41-36.3,1.42l-1.16,1.14,19.1.77h19.03Z"/>
          <path class="cls-62" d="m130.61,149.73l-17.18,1.05s-11.6-.41-19.12.37c0,0,14.94-2.86,36.3-1.42Z"/>
          <path class="cls-31" d="m94.32,151.14s-5.87-17.64-7.31-24.77c0,0,2.7-10.59-1.66-14.16l-1.62.26s4.95,27.65,9.43,39.81l1.16-1.14Z"/>
          <path class="cls-55" d="m85.35,112.22s7.91-1.08,15.73,1.41c0,0,3.85,5.86,2.65,12.77l6.24,23.13s-10.24.57-15.65,1.61c0,0-6.19-18.36-7.31-24.77,0,0,.1-8.12-1.66-14.16Z"/>
          <path class="cls-31" d="m103.24,126.37l-15.95-.39s2.88.38,6.38.79c4,.48,9.57-.4,9.57-.4Z"/>
        </g>
        <g>
          <g>
            <path class="cls-20" d="m157.64,113.96s-6.2,22.42-10.9,40.06l18.08-1.75s7.44-18.54,9.33-39.8c0,0-6.73-1.36-16.51,1.48Z"/>
            <path d="m146.65,154.09l.03-.09c4.64-17.43,10.84-39.83,10.9-40.06v-.04s.05-.01.05-.01c5.06-1.47,9.29-1.8,11.94-1.81,2.88-.01,4.58.32,4.6.33h.06s0,.07,0,.07c-.98,10.99-3.46,21.23-5.38,27.88-2.07,7.21-3.94,11.89-3.96,11.93l-.02.04h-.04s-18.17,1.76-18.17,1.76Zm11.04-40.08c-.29,1.03-6.31,22.84-10.86,39.93l17.94-1.73c.18-.46,1.97-5.02,3.94-11.88,1.91-6.64,4.39-16.84,5.37-27.79-.69-.12-7.23-1.17-16.38,1.48Z"/>
          </g>
          <path class="cls-58" d="m145.35,153.07s12.13-.42,19.47-.8c0,0,5.69-18.43,9.36-40.05h1.15s-3.42,25.09-9.32,43.13c0,0-5.61.6-20.65-1.08v-1.2Z"/>
          <polygon class="cls-60" points="145.35 153.07 126.58 153.07 126.58 154.69 145.35 154.27 145.35 153.07"/>
          <path class="cls-63" d="m175.32,112.22s-6.1-1.64-18.52,1.41c0,0,7.64-2.38,17.35-1.15l1.17-.26Z"/>
          <path class="cls-45" d="m126.58,153.07s-.28-2.5.68-3.34c0,0,19.48-1.41,36.3,1.42l1.16,1.14-19.1.77h-19.03Z"/>
          <path class="cls-62" d="m127.26,149.73l17.18,1.05s11.6-.41,19.12.37c0,0-14.94-2.86-36.3-1.42Z"/>
          <path class="cls-31" d="m163.55,151.14s5.87-17.64,7.31-24.77c0,0-2.7-10.59,1.66-14.16l1.62.26s-4.95,27.65-9.43,39.81l-1.16-1.14Z"/>
          <path class="cls-55" d="m172.52,112.22s-7.91-1.08-15.73,1.41c0,0-3.85,5.86-2.65,12.77l-6.24,23.13s10.24.57,15.65,1.61c0,0,6.19-18.36,7.31-24.77,0,0-.1-8.12,1.66-14.16Z"/>
          <path class="cls-31" d="m154.62,126.37l15.95-.39s-2.88.38-6.38.79c-4,.48-9.57-.4-9.57-.4Z"/>
        </g>
        <g>
          <g>
            <path class="cls-37" d="m106.45,122.76s-1.02-1.36-1.9-1.73c-.87-.37-2.57.41-2.57.41l.18.48s.78-.2,1.35-.27c.93-.11,1.86,1.4,1.86,1.4,0,0,.22-.37,1.08-.3Z"/>
            <g>
              <path class="cls-42" d="m101.77,109.52s-1.65,1.5-2.56,1.86c-.91.36-1.17,4.2-1.17,4.2l-3.37,1.6s-.55,4.24.31,4.78c.86.54,5.55,1.41,7.88,1.02,2.33-.39,3.44-1.29,3.47-2.25,0,0,1.02-2.3.9-2.92-.11-.62-1.66-1.78-1.47-3,.19-1.21-.43-3.22-1-3.58-.57-.36-3-1.71-3-1.71Z"/>
              <path class="cls-46" d="m91.78,117.71c-.14.8.72,1.25.94,1.35.02.01.04.02.05.02l-.06-.05-.03-.03s-.63-.48-.55-.96c.08-.49.54-.76.54-.76-.08.11-.12.23-.15.36-.13.7.42,1.63.56,2.04h0c.02.06.03.1.03.14.02.36-.52.96-.55,1.35-.01.2.1.57.36.93.25.33.63.65,1.17.8,1.12.31,2.03-.17,2.03-.17-.41-.03-.65-.26-.65-.26.77.16,1.39-.37,1.42-.4-.87.36-1.58-.37-1.39-.95s1.49-.56,1.61-1.21c.11-.65-.98-1.13-1.25-1.65-.27-.52.22-1.27,1.03-1.37.8-.1,1-.58,1.01-.6.38.37.58.6.74,1.04,0,0-.01-2.05.25-2.91.26-.86.33-1.17.33-1.17,1.55-.03,2.23-1.71,2.83-1.98.59-.27,1.16.12,1.16.12,0,0,1.01-.18,1.79-.01.32.07.6.2.75.42.59.92,0,2.06.01,3.31,0,1.16.88,1.63,1.12,2.25.24.62-1.17,2.49-1.08,2.95.1.46.87.51,1.01.87.15.36-.8.82-.8.82.94.1,1.4-.76,1.2-.92-.2-.16-1.1-.18-.31-.9.79-.72,1.3-1.64.99-2.44-.3-.8-2.17-1.61-1.95-2.94.34-2.1.97-3.37.02-4.08-.95-.72-2.14-.8-3.2-.73-.17.01-.33.02-.47.02-.75.02-1.13-.05-1.13-.05-2.36-.96-4.28.77-4.35,2.1,0,.16-.03.35-.06.55-.11.68-.34,1.54-.69,2.26-.38.79-.9,1.42-1.55,1.5-1.41.17-2.55.32-2.74,1.36Z"/>
            </g>
            <path class="cls-11" d="m103.59,122.65c-.1-1.46-.08-2.49-.08-2.49.4.14.76.23,1.05.28-.19-.1-.37-.2-.57-.29-.33-.16-.68-.27-1.02-.42-.5-.22-.92-.51-1.39-.77-.29-.16-.78-.28-1.15-.43-.36-.15-.7-.32-1.04-.52.67.88,1.24,1.59,1.34,1.78.22.44.42,1.97.06,2.66-.35.69-1.72,1.36-1.72,1.36,0,0-.15,1.73,3.36,1.94,3.51.21,6.4,0,6.4,0-.53-.53-2.1-1.36-3.21-1.89-1.11-.53-2.04-1.21-2.04-1.21Z"/>
            <path class="cls-18" d="m100.92,120.49c.84.18,1.71.46,2.61,1.04-.03-.8-.03-1.36-.03-1.36.4.14.76.23,1.05.28-.19-.1-.37-.2-.57-.29-.33-.16-.68-.27-1.02-.42-.5-.22-.92-.51-1.39-.77-.29-.16-.78-.28-1.15-.43-.36-.15-.7-.32-1.04-.52.67.88,1.24,1.59,1.34,1.78.07.14.14.39.18.69Z"/>
            <path class="cls-38" d="m113.46,129.91s-.09,4.14-1.77,7.67c0,0-.55-4.76,1.77-7.67Z"/>
            <path class="cls-38" d="m100.47,138.51s-4.66-.46-6.21-4.08c0,0,4.9-.15,6.21,4.08Z"/>
            <path class="cls-19" d="m109.86,134.94s2.63,2.35,4.56,2.31c.64-.55-.71-3.88-.71-3.88l-1.87-2.42-1.97,3.99Z"/>
            <path class="cls-30" d="m111.83,130.95l-1.97,3.99s.97.87,2.16,1.54c.11-1.73.46-2.89.89-4.1l-1.08-1.43Z"/>
            <path class="cls-35" d="m107.79,124.77s1.04,1.09,2.81,2.53c1.77,1.45,2.86,2.6,2.86,2.6,0,0-1.96,3.93-1.77,7.67,0,0-2.78-.2-3.7-2.93-.93-2.74-.54-8.33-.54-8.33l.34-1.55Z"/>
            <path class="cls-18" d="m96.44,133.5s-.63,4.54.38,5.53c2.43-.56,3.36-1.67,3.36-1.67l-3.73-3.86Z"/>
            <path class="cls-29" d="m99.46,137.87c-.9-.84-2.16-1.49-3.22-1.94.06-1.26.26-2.43.26-2.43l3.73,3.86s-.25.22-.77.5Z"/>
            <path class="cls-2" d="m100.32,122.24s-.45-.06-.57,0c-.12.06.13.47,0,.74-.13.27-2.29,2.92-2.59,3.47-.3.55-1.72,4.97-2.9,7.98,0,0,5.27,1.47,6.21,4.08l.47-3.58s1.42,2.14,2.23,3.47c0,0-.69.32-.68.4.01.09.68.35.68.35,0,0,5.99-.46,6.01-.72.03-.26-.74-.69-.6-1.19.14-.49,2.1-4.48,2.02-5.64-.09-1.16-2.52-4.02-2.63-4.63-.12-.61-.09-2.05-.17-2.2-.09-.14-2.36-1.07-2.6-1.4-.25-.33-.4-.42-.58-.48s-.3.32-.3.32c0,0,.58.56.55,1.3-.03.74-2.37,0-3.3-.78-.93-.78-1.24-1.49-1.24-1.49Z"/>
            <polygon class="cls-38" points="100.94 134.92 100.73 132.23 103.16 138.39 100.94 134.92"/>
            <path class="cls-38" d="m110.84,137.4s-.52-1.61-.32-2.91c.19-1.3.08-2.89.08-2.89,0,0-.41,1.82-1.62,4.68,0,0,.69.81,1.86,1.12Z"/>
            <g>
              <path class="cls-36" d="m103.11,125.12c.58,1.27.24,2.68-.76,3.14-1.01.46-2.3-.2-2.88-1.47-.58-1.27-.24-2.68.76-3.14,1.01-.46,2.3.2,2.88,1.47Z"/>
              <ellipse class="cls-37" cx="101.02" cy="126.04" rx="1.64" ry="2.34" transform="translate(-43.38 53.65) rotate(-24.66)"/>
              <path class="cls-10" d="m102.4,125.44c.54,1.18.31,2.44-.51,2.81-.82.38-1.93-.27-2.47-1.44-.54-1.18-.31-2.44.51-2.81.82-.38,1.93.27,2.47,1.44Z"/>
              <path class="cls-36" d="m101.52,125.92c.36.72.24,1.5-.27,1.76-.5.25-1.2-.13-1.56-.85-.36-.72-.24-1.5.27-1.76.5-.25,1.2.13,1.56.85Z"/>
              <path class="cls-10" d="m100.69,126.3c.12.24.08.5-.09.59-.17.08-.4-.04-.52-.28-.12-.24-.08-.5.09-.59.17-.08.4.04.52.28Z"/>
              <path class="cls-37" d="m99.41,124.46s-.56-1.3-.39-2.05c.18-.75,1.96-1.26,1.96-1.26v.1s-.79.15-1,.58c-.22.42.38,1.77.38,1.77,0,0-.53.25-.95.86Z"/>
              <path class="cls-16" d="m99.64,125.09s0-.62.1-.94c0,0,.35-.45,1.39-.08l-.36.95s-.39-.32-1.13.08Z"/>
              <path class="cls-16" d="m100.91,125.09l.45-.89s.6.41.85.89l-.85.31s-.3-.23-.45-.31Z"/>
            </g>
            <g>
              <path class="cls-10" d="m107.16,126.66s-.09.02-.14.03c-.9.17-1.85-.51-2.16-1.59-.07-.25-.1-.49-.1-.73.01-.8.42-1.5,1.07-1.76.05-.02.09-.03.14-.05.53-.15,1.09,0,1.54.38l.02.02c.33.28.6.69.74,1.17.33,1.13-.17,2.27-1.11,2.54Z"/>
              <path class="cls-36" d="m107.02,126.69s-.09.03-.14.05c-.9.26-1.89-.45-2.21-1.58-.08-.3-.12-.59-.1-.87.05-.79.47-1.46,1.13-1.65.05-.01.09-.02.14-.03.47-.08.96.09,1.36.44.32.29.58.69.72,1.17.31,1.07-.09,2.14-.89,2.47Z"/>
              <path class="cls-37" d="m107.04,125.91c-.12.13-.28.23-.45.28-.64.18-1.35-.32-1.58-1.13-.23-.81.1-1.62.74-1.8.01,0,.02,0,.03,0,.63-.16,1.32.34,1.55,1.14.17.59.04,1.17-.28,1.52Z"/>
              <path class="cls-22" d="m107.04,125.91c-.63.16-1.32-.34-1.55-1.14-.17-.59-.04-1.17.28-1.52.63-.16,1.32.34,1.55,1.14.17.59.04,1.17-.28,1.52Z"/>
            </g>
            <path class="cls-11" d="m114.27,137.27c.25-.06.52-.2.79-.41h0c2.22-1.69,4.86-7.75,5.35-8.67.41-.78,2.04-1.54,2.94-1.89.05-.02.09-.03.13-.05.22-.08.38-.13.45-.14,0,0,0,0,0,0,.26-.03.52-.21.52-.21.71-1.12,1.6-1.56,1.66-1.64.05-.09-.08-.24-.08-.24-.36-.16-.74.03-.74.03l.23-.3h0s.5-.64.5-.64l.03-.3c.12-.25,0-.58,0-.58-.78.04-1.46.51-1.93.97-.47.46-.75.89-.75.89l-1.15.83-.17-.08s.79-1.04.92-1.49c0-.02.01-.05.02-.08.15-.51.56-1.76.49-1.91-.07-.16-.21-.18-.21-.18-.74.17-.93,1.25-1,1.76-.01.08-.02.14-.02.19-.03.35-.26,1.14-.9,1.39-.07.03-.14.05-.21.09h0c-.65.25-1.55.58-1.55.58,0,0-.13-.35-.07-.63.07-.27.33-.53.31-.82-.02-.29-.63-.98-1.01-1.06-.38-.08-.8.12-.8.25,0,.13.56.74.73,1.16.17.41.18.6.18.85,0,.24-.54.96-.51,1.32.03.36.64.82.69,1.08.05.26-.07.56-.07.56-1.04,2.63-3.67,4.12-4.56,4.59-.87.46-.88,1.02-.88,1.05-.36,2.91.64,3.71.64,3.71Z"/>
            <path class="cls-19" d="m119.97,126.65c.11-1.22,3.68-1.13,3.68-1.13l.37-.23c.31-.88,1.28-1.24,1.28-1.24l.23-.29s-.45.3-.75.35c-.32.04-.33-.27-.33-.27.68-.95,1.61-1.01,1.61-1.01-.42-.28-1.7.84-1.7.84-.24-.11-.23-.45-.23-.45-.47.45-.75.89-.75.89l-1.15.83-.17-.07s.78-1.04.92-1.5c0-.02.01-.05.02-.07-.04,0-.09,0-.12-.01-.36-.06-.56-.41-.56-.41l-.03.09c0,.08-.02.14-.02.19-.03.35-.26,1.14-.9,1.39-.06.03-.14.05-.21.09.03,0,.28,0,.45.07.18.09,1.22.76,1.22.76-2.96,0-2.86,1.2-2.86,1.2Z"/>
            <path class="cls-65" d="m123.75,123.61s-.64-.28-.77-.87l-2.01-1.97s-.65-.1-.56.44l2.04,2.01s.53.15.92.89c0,0,.31-.42.38-.5Z"/>
            <path class="cls-61" d="m120.98,120.76s-.08.4-.56.44c0,0-.16-.62.56-.44Z"/>
            <path class="cls-18" d="m118.04,122.96s.22-.19.88.04c.66.23.93.77.93.77-.02-.29-.63-.98-1.01-1.06-.38-.08-.8.12-.8.25Z"/>
            <path class="cls-60" d="m122.99,122.74s-1.86-1.76-2.04-1.88c-.18-.12-.52.06-.52.06,0,0,.04-.31.55-.18l2.01,2.01Z"/>
            <path class="cls-18" d="m123.51,121.38s-.7-.12-1.02.72c0,0,.21-.9.81-.89,0,0,.15,0,.21.18Z"/>
            <path class="cls-18" d="m126.09,122.74s.07-.23-.28-.31c-.35-.08-1.56.67-1.56.67,0,0,.81-.9,1.82-.86,0,0,.11.24.03.5Z"/>
            <path class="cls-19" d="m115.06,136.86c2.22-1.69,4.86-7.74,5.35-8.67.41-.78,2.04-1.54,2.94-1.89-.87.3-2.44.9-2.94,1.57-.7.93-3.29,7.18-5.31,8.96-.01.01-.02.02-.03.03Z"/>
            <g>
              <g>
                <path class="cls-50" d="m96.86,108.67s-.47.11-.83.79c-.35.68,1.29,1.83,1.53,1.66.23-.17-.31-2.43-.31-2.43l-.39-.02Z"/>
                <path class="cls-41" d="m100.38,108.97c.01.32-.54.96-1.15,1.48-.25.21-.5.4-.74.55-.35.21-.65.32-.81.23-.53-.29-1.88-2.5-.88-3.27,1-.77,2.9-.64,2.9-.64l-.13.1c.26-.03.63.02.93.07.3.05.53.12.53.12.13.68-.65,1.36-.65,1.36Z"/>
                <path class="cls-50" d="m101.05,108.41c-.35,1.13-1.91,2.39-1.91,2.39l-.65.19-.81.23c-.04-.52.07-.97.27-1.36.8-1.6,3.08-2.26,3.08-2.26.11.25.1.52.02.81Z"/>
                <path class="cls-45" d="m101.03,107.61s-2.28.66-3.08,2.26c.4-1.26,1.73-2.02,2.55-2.38.3.05.53.12.53.12Z"/>
                <path class="cls-45" d="m99.96,107.41s-.32-.43-.55-.45c-.22-.01-2.28,1.35-1.72,3.72,0,0,0-2.23,1.87-3.27h.39Z"/>
                <path class="cls-45" d="m98.15,107.41s-.61-.19-1.02-.11c0,0-.88,1.7.52,3.16v-.18s-.44-1.61.06-2.7l.45-.17Z"/>
              </g>
              <g>
                <path class="cls-11" d="m106.8,118.44c-.27.95-1.34,1.79-1.56,2.02-.02.02-.06.05-.12.07,0,0,0,0,0,0-.37.16-1.4.22-2.82-.29-.19-.06-.38-.14-.57-.22-.72-.31-1.4-.77-1.96-1.33h0s0,0,0,0c-.84-.83-1.44-1.91-1.64-3.12-.34-2.03,1.88-5.16,4.48-5.47,1.58-.19,2.97.91,3.56,2.26.09.2.15.42.2.63.23,1.2-.2,2.49.1,3.2.35.84.61,1.31.34,2.25Z"/>
                <path class="cls-40" d="m103.46,113.58s-.25.35-.45.49c0,0-1.09.17-1.47.42-.38.24-.65.58-.65.58,0,0,.29-.52.75-.91.46-.39,1.82-.58,1.82-.58Z"/>
                <path class="cls-40" d="m106.4,113.24s-.81.32-1.11,1.31c0,0,.34-.72,1.14-.86,0,0,0-.29-.03-.45Z"/>
                <path class="cls-40" d="m103.58,116.09s-.21-.87-1.1-.78c-1.11.1-1.13,1.15-1.13,1.15,0,0-.29-.41.13-.91.43-.5,1.14-.45,1.58-.22.44.23.52.77.52.77Z"/>
                <path class="cls-40" d="m103.43,116.38c-.13.41-.53.64-.91.53-.38-.12-.58-.54-.45-.95.13-.41.53-.64.91-.53.38.12.58.54.45.95Z"/>
                <path class="cls-40" d="m105.97,116.26c-.11.11-.29.1-.38-.02-.01-.02-.03-.04-.04-.06-.01-.02-.02-.05-.04-.07-.1-.24-.02-.64.11-.98.01-.03.03-.06.04-.1.04-.1.15-.17.26-.15,0,0,0,0,0,0,.24.05.38.42.3.84-.04.23-.14.42-.26.54Z"/>
                <path class="cls-40" d="m105.36,115.83s.17-1.06.57-1.04c.42.02.39.89.39.89,0,0,.14-.29.15-.37.01-.16-.08-.68-.53-.66-.3.01-.54.74-.59,1.18Z"/>
                <path class="cls-9" d="m103.23,115.98c-.02.06-.08.09-.14.07-.06-.02-.09-.08-.07-.14.02-.06.08-.09.14-.07s.09.08.07.14Z"/>
                <path class="cls-9" d="m105.97,115.21s-.06.07-.11.06-.07-.06-.06-.11.06-.07.11-.06.07.06.06.11Z"/>
                <path class="cls-18" d="m105.7,117.23c.02-.38-.65-.46-.65-.46,0,0,.52.14.58.41,0,.04,0,.08,0,.12-.13.2-.55.39-.93.36-.46-.04-.77.1-.77.1.06.06.91.3,1.09.25.3-.08.55-.33.64-.62.02-.05.03-.11.03-.17Z"/>
                <g>
                  <path class="cls-18" d="m103.1,118.81s.6,1.1,1.45,1.01c.62-.07.88-1.19.88-1.19,0,0-.36.44-1.09.43-.72-.01-1.24-.25-1.24-.25Z"/>
                  <path class="cls-18" d="m103.1,118.81s.26.16.67.07c.41-.1,1.39-.56,1.72-.35,0,0-.31.49-1.15.53-.83.04-1.24-.25-1.24-.25Z"/>
                  <path class="cls-38" d="m102.92,118.69s.41.31,1.08.33c.67.03,1.37-.18,1.61-.7,0,0-.12.44-.77.67-.66.23-1.46.01-1.92-.31Z"/>
                </g>
              </g>
              <g>
                <path class="cls-50" d="m104.49,109.87s1.13.62,1.26,1.29c.14.68.17,1.5.43,2.02.25.51.17,1.14.17,1.19,0-.02.03-.14.06-.31.02-.2.04-.39.05-.57,0,0,0,0,0,0,0,0,0,0,0,0,.06-.66.09-1.22-.12-1.81-.22-.61-.86-1.31-1.85-1.8h0Z"/>
                <g>
                  <path class="cls-41" d="m106.98,111.49s0,0,0,0c0,0,0,0,0,0,0-.2-.03-.36-.06-.49,0-.03-.01-.05-.02-.08,0,0,0,0,0,0-.07-.26-.18-.38-.18-.38-.06-.06-.1-.08-.16-.14-.11-.1-.26-.24-.45-.42-.11-.1-.16-.16-.27-.27-.14-.14-.28-.29-.43-.46-.03-.04-.05-.06-.09-.09-.41-.45-1.1-.22-1.37-.24-.02,0-.04,0-.06-.01-.05-.02-.1-.04-.16-.06,0,0,0,0,0,0-.2-.07-.44-.14-.71-.18-.18-.02-.36-.03-.49-.04v2.23c.06,0,.11-.01.15-.02.1-.02.31-.11.54-.18,0,0-.01,0-.02,0,0,0,.62-.22.82-.16,1.12.37,1.55.99,2.02,1.85.47.84.32,1.63.31,1.66.02-.04.26-.53.44-1.2,0,0,0,0,0,0,.07-.24.12-.51.16-.79.02-.18.03-.35.02-.49,0,0,0-.01,0-.02Z"/>
                  <path class="cls-50" d="m104.11,110.5s1.36-1.02,1.27-1.7c-.1-.68-1.42-.47-1.64.02.07.02.1.04.17.06,0,0,.04-.54.82-.37.78.17-.83,1.94-.83,1.94.09.02.13.03.22.05Z"/>
                  <path class="cls-50" d="m105.09,111.05s1.15.3,1.75-.01c.36-.19.27-.46-.12-.52-.18-.03-.16-.14-.16-.14,0,0,.51.11.64.47.13.36-.99.78-2.1.21Z"/>
                  <path class="cls-50" d="m105.53,111.5s.14.16.38.58c.23.42.55.89.8.78.25-.11.61-.71.28-1.32,0,0-.02.18-.02.27,0,.19.22.48-.02.66-.27.2-.42-.74-1.42-.97Z"/>
                </g>
              </g>
              <g>
                <path class="cls-45" d="m104.23,109.33s0,0,0,0c-.06-.27-.31-.75-.59-.86-.27-.11-.65-.04-1.67.13-1.02.18-1.49.12-2.16.3-.38.11-.66.46-.92.74-.33.35-.64.71-.9,1.11-.76,1.15-1.19,3.18-.28,4.39.14.18.29.31.47.43.6,0,1,.31,1.21.71,0-.02,0-.03,0-.05-.01-.25-.05-.49,0-.74.06-.34.09-.9.39-1.12.36-.27.86-.62,1.11-1-.06,0-.13.03-.19.04.17-.02.44-.3.51-.44-.43.04-.25-.01-.68.05.59-.27.66-.41,1.19-.89.27-.24.55-.5.87-.66.25-.12.78-.22.94-.47.1-.15.2-.3.29-.45-.03,0-.05,0-.08.01.31-.24.59-.83.5-1.22Z"/>
                <path class="cls-41" d="m99.51,114.62c-.4.24-.74.39-.74.39.27.04.52-.02.72-.08v.03c-.46.22-1.26.44-1.76-.23-.71-.94-.35-2.67-.32-2.84,0,0,0,0,0-.01l.15.09h.02s-.02.15-.03.35h0c-.05.66-.06,2.06.69,2.29.02,0,.04.01.06.02.15.03.3.04.45.04.02,0,.04,0,.06,0,.04,0,.08,0,.12-.01.02,0,.03,0,.05,0,.02,0,.05,0,.07-.01.06-.01.13-.03.19-.04.03,0,.06-.02.09-.03.27-.09.51-.21.69-.32.21-.13.35-.24.39-.27-.26.27-.6.5-.9.68Z"/>
                <path class="cls-41" d="m104.05,110.1l-.02.03h0s-.03.04-.03.04c0,0-.41-.56-1.01-.82-.09-.04-.19-.07-.3-.09h0c-.25-.06-.53-.08-.77-.09,0,0-.01,0-.02,0-.02,0-.05,0-.07,0-.29,0-.51,0-.51,0,0,0,.01,0,.03,0,.03-.01.1-.03.19-.05h0s.05-.01.08-.02h0c.19-.04.46-.07.77-.06.01,0,.02,0,.04,0,.08,0,.16,0,.24.02.02,0,.05,0,.07,0,.02,0,.04,0,.07,0,0,0,.02,0,.03,0,0,0,.01,0,.02,0,.01,0,.02,0,.04,0,.01,0,.03,0,.04,0,0,0,0,0,0,0,.7.17,1.07.88,1.12.99,0,0,0,.01,0,.01Z"/>
                <path class="cls-41" d="m102.68,111.23s0,.01,0,.03c0,.1-.03.44-.23.72-.23.33-.8.48-1.5.88-.03.02-.06.04-.09.05-.66.38-1.5.8-2,.9-.52.1-1.12-.95-1.1-1.86,0-.32.02-.55.03-.72.03-.07.07-.14.11-.22.1.64-.08,1.81.54,2.12.77.39,1.04.41,1.9-.11,0,0,.01,0,.02-.01.02-.01.05-.03.07-.04,0,0,0,0,0,0,.21-.13.41-.23.59-.32,0,0,0,0,0,0,.52-.26.89-.4,1.17-.61.36-.28.33-.64.33-.69h0s.15-.12.15-.12Z"/>
                <path class="cls-41" d="m98.41,111.68s2,.59,3,.21c.99-.39,1.63-.86,2.03-1.06.4-.21.35-.45.35-.45h-.19s-.58.35-1.3.77c-.73.41-1.36.71-3.89.54Z"/>
              </g>
              <g>
                <path class="cls-11" d="m99.25,116.05s-.86-1.07-1.61-.96c-.75.11-.81,1.49-.03,2.41.81.95,1.8.49,1.8.49l-.16-1.94Z"/>
                <path class="cls-18" d="m99.22,117.1s-.62-1.09-1.2-1.37c-.58-.28-.96.42-.88.77,0,0,.07-.84.78-.5,0,0-.48.39-.19.97.28.58.69.88,1.07.95,0,0-.63-.21-.87-.91-.23-.7.45-.65.54-.48.1.17,0,.43.08.6.09.17.55-.18.67-.04Z"/>
              </g>
              <g>
                <path class="cls-25" d="m105.4,116.75c.44.65,1.22.6,1.49.16.21-.35.27-2.2-.02-2.38-.3-.19-1.74.15-1.85.35-.11.21-.05,1.21.38,1.86Zm-.18-1.79c.1-.19,1.31-.45,1.59-.28.26.16.19,1.83,0,2.14-.24.39-.95.44-1.34-.15-.39-.59-.34-1.52-.25-1.71Z"/>
                <path class="cls-38" d="m105.47,116.74c.44.65,1.22.6,1.49.16.21-.35.27-2.2-.02-2.38-.3-.19-1.74.15-1.85.35-.11.21-.05,1.21.38,1.86Zm-.19-1.79c.1-.19,1.31-.45,1.59-.28.26.16.19,1.83,0,2.14-.24.4-.95.44-1.34-.15-.39-.59-.34-1.52-.25-1.71Z"/>
                <path class="cls-25" d="m101.51,117.5c.75.72,1.88.41,2.29-.31.28-.49.39-1.96-.03-2.33-.56-.51-2.78.1-2.92.59-.11.36.09,1.51.66,2.05Zm-.56-1.99c.1-.34,2.13-.95,2.66-.47.39.35.36,1.64.1,2.11-.39.67-1.44.97-2.14.29-.53-.51-.72-1.58-.62-1.92Z"/>
                <path class="cls-38" d="m101.58,117.49c.75.72,1.88.41,2.29-.31.28-.5.39-1.96-.03-2.33-.56-.51-2.78.11-2.92.59-.11.36.09,1.51.66,2.05Zm-.56-1.99c.1-.34,2.13-.95,2.66-.47.39.35.36,1.64.1,2.11-.39.67-1.44.97-2.14.29-.53-.51-.72-1.58-.62-1.92Z"/>
                <path class="cls-38" d="m105.06,115.5s-.54-.45-1.02.14l-.08-.22s.57-.63,1.08-.11l.02.19Z"/>
                <polygon class="cls-38" points="100.92 115.97 99.05 115.97 98.99 115.87 100.9 115.73 100.92 115.97"/>
              </g>
            </g>
          </g>
          <g>
            <path class="cls-11" d="m96.69,138.86c2.46,1.75,9.19.71,9.42.78.24.07.65.67.93.8.28.13,1.13.18,1.8-.21.66-.39,1.31-.81,1.31-.81.4.48.78.69,1.06.77.25.07.41.04.42,0,.02-.08-.6-.92-.6-.92h0s.19.03.27.08l.02.02s.05.04.09.07l.06.05.03.02c.13.11.3.25.48.38l.03.02c.2.14.41.28.6.35.52.2,1.19.14,1.19.14,0,0,.76.11.74-.05-.02-.16-1.19-1.19-1.33-1.32,1.15.84,2.03.65,2.05.55.01-.11-1.68-1.3-2.29-1.38-.36-.05-1.61.15-3,.27-.96.08-1.99.13-2.84.03-1.62-.19-5.54-1.2-6.17-1.35-3.33-.78-4.29,1.71-4.29,1.71Z"/>
            <path class="cls-19" d="m106.11,139.64c.24.07.65.67.93.8.28.13,1.13.18,1.8-.21.66-.39,1.31-.81,1.31-.81.4.48.78.69,1.06.77h.02c-.73-.32-1.17-.97-1.17-.97-.08-.2.22-.48.31-.47.09.02.65.52.65.52h0s.27.08.27.08l.02.02.09.07.06.05.03.02.48.38.03.02-.8-.9s.21-.19.41-.2c.19,0,1.34.89,1.48,1l-1.23-1.07c.03-.14.46-.26.58-.25.12,0,.73.52.73.52l-.62-.64c.08-.17.39-.18.39-.18-.36-.05-1.61.15-3,.27-.3.1-.64.2-.99.28-1.38.32-2.88.9-2.88.9Z"/>
          </g>
        </g>
        <g>
          <g>
            <g>
              <path class="cls-15" d="m146.51,134.79c2.39-.08,6.03-12.93,5.68-13.9,0,0-1.67-4.3-1.67-4.3,0,0-.13.21-.34.58-.74,1.31-2.61,7.16-3.49,10.01,0,0-.47-.25-.67-.15-.19.1-.56.73-.6.8-.33-.5-3.61-5.75-3.77-5.72-.03,0-.35.12-.33.15,0,0-.46-.65-.7-.6-.23.06-.42.48-.42.49-.05.13.09.46.1.6.08.66.03,2.16-.8,2.39-.02,0-.17-.16-.22-.18-.09,0-.39.86-.43.97-.07.19.3.42.3.42,0,0,5.73,8.5,7.37,8.44Z"/>
              <path class="cls-17" d="m146.75,134.75c2.18-.52,5.72-13.12,5.43-13.86,0,0-1.67-4.3-1.67-4.3,0,0-.13.21-.34.58l.02.25s.66,4.39.3,7.46c-.37,3.07-2.67,4.67-3.05,4.61-.38-.06-.76-2.32-.76-2.32l-.07.71h0s0,.24,0,.24c0,0-.71-.18-.59-1.1-.19.1-.34.34-.61.81,0,0-2.66-4.21-2.66-4.21-1.4.59-2.21,1.03-3.61,1.61-.11.25-.25.57-.29.67-.07.19.3.42.3.42,0,0,5.76,8.85,7.61,8.4Z"/>
            </g>
            <g>
              <path class="cls-24" d="m133.53,113.47s2.05,9.29,3.31,13.44l8.15-.14-2.06-13.83-9.4.53Z"/>
              <polygon class="cls-27" points="142.93 112.93 143.47 112.93 145.34 126.77 144.98 126.77 142.93 112.93"/>
              <path class="cls-32" d="m139.63,119.71s-1.13-.2-1.65.17c0,0,.18,1.6.94,1.64.76.04.71-1.81.71-1.81Z"/>
              <polygon class="cls-32" points="139.15 119.05 138.96 119.51 138.41 119.51 138.03 118.88 138.41 119.09 139.15 118.65 139.15 119.05"/>
            </g>
            <g>
              <path class="cls-11" d="m134.13,120.78c.09.19.6.19.6.19l.11,1.28s.03.99.12,1.13c.07.11,1.12.13,1.74.07.17-.02.3-.04.38-.07,0,0-.03-.69-.21-.9l.31-.05s.1-.63-.09-1.12l-1.02-.21s.27-.83.03-1.43h-.02s-.04,0-.04,0h-.07s-.15-.03-.15-.03h-.12c-.55-.08-1.47-.18-1.54-.14-.09.07-.13,1.1-.03,1.29Z"/>
              <path class="cls-11" d="m135.47,125.18c.07.04.3.03.53.01.19-.02.37-.05.43-.08.14-.07.06-.84-.05-.99-.01-.02-.03-.03-.06-.04h0s0,0,0,0c-.07-.03-.19-.06-.31-.07-.28-.04-.62-.03-.65,0-.07.13,0,1.1.12,1.17Z"/>
              <path class="cls-19" d="m135.06,122.37l1.56.1.09.97c.17-.02.3-.04.38-.07,0,0-.03-.69-.21-.9l.31-.05s.1-.63-.09-1.12l-1.02-.21s.27-.83.03-1.43h-.02s-.04,0-.04,0h-.07s-.15-.03-.15-.03h-.12s-.05-.02-.05-.02l-.18,1.42-.74-.05,1.98.38v1.02h-1.65Z"/>
              <path class="cls-19" d="m136,125.19c.19-.02.37-.05.43-.08.14-.07.06-.84-.05-.99-.01-.02-.03-.03-.06-.04h0s0,0,0,0c-.04-.02-.18-.11-.29-.1,0,0-.02.01-.02.03-.07.15-.02.87,0,1.2Z"/>
            </g>
          </g>
          <g>
            <path class="cls-14" d="m150.03,117.53l.41-.29s.96.61.96,1.84c0,.66-.25,2.43-.49,3.92-.21,1.3-.4,2.39-.4,2.39.55,5.12,3.07,10.7,3.07,10.7v2.06s.25.58,2.62.82c2.37.25,7.47,0,7.47,0,0,0-.59-1.44-.44-2.02.13-.52,1.15-4.29,1.95-6.74.09-.29.18-.56.27-.8.81-2.33,3.84-11.09,3.84-11.09,0,0,.15-.97-.04-1.23-.18-.26-1-.19-3.62-.93-2.62-.74-4.06-2.19-4.06-2.19-.21-.19-.78-1.23-.78-1.23l-5.14.73s-1.01,1.71-1.69,1.94c-.68.23-3.66,1.17-3.66,1.17-.28.18-.26.94-.26.94Z"/>
            <path class="cls-67" d="m162.71,126.56l.72,4.24,1.75-.6c.09-.29.18-.55.27-.8.81-2.33,3.84-11.09,3.84-11.09,0,0,.15-.97-.04-1.23,0,0-2.78.92-3.87,4.16-1.08,3.25-.86,6.92-.86,6.92,0,0-.71-4.47-.45-6.36l-1.36,4.74Z"/>
            <g>
              <path class="cls-11" d="m160.6,109.43s-.5,2.08,0,4.65c0,0-2.23,3.06-4.13,3.41,0,0-.69-1.51-.59-3.19,0,0,.61-.23.83-.5s.14-1.61.14-1.61c0,0,2.8-.89,3.75-2.76Z"/>
              <path class="cls-19" d="m160.42,110.75s-1.17,2.71-3.56,2.49v-1.05s1.87-.58,3.56-3.1v1.66Z"/>
            </g>
            <g>
              <path class="cls-44" d="m153.72,128.35s.47,1.57,1.14,2.53h0c.08.12.16.23.25.32l.18-.14,2.53-1.95s-.81-6.24-.72-11.14c0,0,.84-.25,1.33-.84h0c.09-.11.17-.23.23-.37,0,0,.08-.86-.09-1.31-.04-.1-.08-.19-.15-.23,0,0-1.97-.29-2.77-.2,0,0-.33.42-.31,1.12,0,0,.15.5.44,1.06h0c.11.21.24.43.4.63l-.03.1s-.03.08-.04.13c-.02.07-.05.15-.08.25l-.02.08-.07.23-.03.09c-.27.87-.69,2.31-1.1,3.96-.41,1.66-.82,3.53-1.06,5.29h0c-.02.14-.04.27-.05.4Z"/>
              <path class="cls-45" d="m158.44,117.12h0s-1.31.7-2.24.69l-.03.1-.04.13-.08.25-.02.08-.07.23-.03.09.92,1.35s.29,5.98-.2,8.14c0,0-1.45,1.14-2.88-.24-.02.14-.04.27-.05.4,0,0,.47,1.57,1.14,2.53h0s.44.18.44.18l2.53-1.95s-.3-2.32-.51-5.24c-.02-.22-.03-.45-.05-.68-.01-.15-.02-.31-.03-.47-.02-.31-.04-.63-.05-.95,0-.08,0-.16-.01-.24,0-.16-.01-.32-.02-.48,0-.16-.01-.32-.02-.48-.03-.88-.04-1.76-.03-2.61,0,0,.08-.02.21-.08.08-.03.17-.07.27-.12.07-.03.14-.07.21-.12.07-.04.15-.09.22-.15.15-.11.29-.23.42-.38Z"/>
            </g>
            <g>
              <g>
                <path class="cls-3" d="m151.55,131.39c.41,1.69.97,3.44,1.7,4.83,0,0-.3,2.79-1.4,4.77.1-.09,1.78-1.64,3.14-4.43,0,0,2.81,3.16,6.43,5.26,0,0,.75-3.3,1.3-3.74,0,0,.81.58,1.25,1.7-.04-.12-.64-2.07-.59-2.82.02-.24.23-1.08.51-2.11.6-2.2,1.52-5.28,1.56-5.42-.04.04-.57.55-1,.27-.44-.29-.78-5.09-.26-8.82.52-3.72,1.44-4.7,1.44-4.7l.7.19s-.09-.57-.39-.81c0,0,0,0-.01,0-.08.03-.48.21-.86.1-.43-.12-.63-.39-.63-.39,0,0-1.18,4.53-2.22,8.44,0,0-3.59,4.76-6.56,6.81-.15.1-.3.2-.44.29,0,0,0,0,0,0-.15-.18-2.6-3.21-3.21-5.83-.63-2.71,1.97-9.55,1.97-9.55,0,0-.19-.07-.43-.11-.28-.05-.66.21-.8.4,0,0-1.98,7.07-2.22,9.7,0,0,.28,2.89,1.04,5.99Z"/>
                <g class="cls-4">
                  <g>
                    <polygon class="cls-8" points="162.24 120.97 165.73 121.55 164.85 124.89 161.67 124.33 162.24 120.97"/>
                    <polygon class="cls-8" points="159.01 123.91 161.81 124.46 160.93 127.8 157.75 127.24 158.17 124.74 159.01 123.91"/>
                    <polygon class="cls-8" points="161.04 127.81 164.53 128.38 163.65 131.73 160.47 131.16 161.04 127.81"/>
                    <polygon class="cls-8" points="157.05 130.6 160.54 131.18 159.66 134.52 156.48 133.95 157.05 130.6"/>
                    <polygon class="cls-8" points="154.45 126.5 157.94 127.07 157.06 130.42 153.88 129.85 154.45 126.5"/>
                    <polygon class="cls-8" points="150.07 129.44 153.9 129.88 153.02 133.22 150.64 132.8 150.07 129.44"/>
                    <polygon class="cls-8" points="152.97 133.37 156.46 133.95 155.58 137.29 152.4 136.73 152.97 133.37"/>
                    <polygon class="cls-8" points="155.54 137.3 159.03 137.87 158.15 141.22 156.27 141.14 155.38 138.24 155.54 137.3"/>
                    <polygon class="cls-8" points="159.39 134.48 162.88 135.06 162 138.4 158.82 137.83 159.39 134.48"/>
                    <polygon class="cls-8" points="163.42 131.72 166.03 132.15 166.66 135.82 162.85 135.07 163.42 131.72"/>
                    <polygon class="cls-8" points="162.07 138.44 165.53 139.01 165.34 139.85 164.68 142.36 161.5 141.79 162.07 138.44"/>
                    <path class="cls-8" d="m166.12,135.68l.55.14h0c.14,1.32.25,2.19.26,3.4v.07s-1.38-.25-1.38-.25l.57-3.36Z"/>
                    <polygon class="cls-8" points="158.05 141.21 161.54 141.79 160.66 145.13 157.47 145.01 157.2 144.32 158.05 141.21"/>
                    <path class="cls-8" d="m160.67,145.13l3.49.58-.48,1.83-1.16-.06c-1.19-.06-1.59-.21-1.84-.27v-2.08Z"/>
                    <path class="cls-8" d="m164.45,142.43l2.25.5-.44,1.97c-.16.7-.88,1.16-1.62,1.02l-.76-.13.57-3.36Z"/>
                    <polygon class="cls-8" points="150.84 136.62 152.28 136.81 151.4 140.16 150.19 139.88 150.84 136.62"/>
                    <polygon class="cls-8" points="151.51 140.16 153.44 140.48 151.98 143.7 150.94 143.51 151.51 140.16"/>
                    <path class="cls-8" d="m148.7,143.01l2.31.47-.6,2.27c-.13.48-.7.72-1.16.48l-2.38-.31,1.83-2.91Z"/>
                    <polygon class="cls-8" points="149.44 125.76 151.3 125.96 150.42 129.3 150.02 129.23 149.44 125.76"/>
                    <polygon class="cls-8" points="151.67 122.67 153.2 122.92 154.36 126.29 154.28 126.59 151.1 126.02 151.67 122.67"/>
                    <path class="cls-8" d="m150.51,119.14l2,.22-.88,3.34-1.67-.3c-.37-.07-.5-.51-.36-.86l.9-2.41Z"/>
                  </g>
                </g>
              </g>
              <path class="cls-39" d="m155.33,134.52c0,.33-.13.6-.29.6s-.29-.27-.29-.6.13-.6.29-.6.29.27.29.6Z"/>
              <path class="cls-39" d="m155.33,132.63c0,.33-.13.6-.29.6s-.29-.27-.29-.6.13-.6.29-.6.29.27.29.6Z"/>
            </g>
            <path class="cls-16" d="m157.32,115.07l.31-.04,1.3,4.01c1.9-1.36,3.59-3.91,3.59-3.91l-1.43-2.37h-.36s.11.42.11.42c-.92,1.37-3.51,1.89-3.51,1.89Z"/>
            <path class="cls-16" d="m154.22,115.26s.07,2.51.7,3.49c0,0,1.21-3.08,1.53-3.49l.88-.18-.56-.23s-.82-.69-1.14-1.37l-.4.5-1.02,1.29Z"/>
          </g>
          <g>
            <path class="cls-11" d="m155.1,113.11s.07.01.1.01c.27.04,1.03.11,1.77-.14.91-.31,2.73-1.79,2.99-2.33.06-.12.19-.52.34-1.1.39-1.48.92-4.08.72-5.88-.05-.39-.12-.73-.24-1.02-.09-.21-.2-.39-.34-.54-1.54-1.63-4.49-1.31-5.12-1.03-.02,0-.03.01-.05.02-1.48.66-1.75,1.25-1.92,1.64-.05.11-.09.29-.13.5-.1.54-.17,1.25-.18,1.43,0,.03,0,.07.01.13.07.4.43,1.37.45,1.76.01.23-.12.61-.25.99-.12.35-.22.71-.21.98.03.57.9,3.35,2.06,4.57Z"/>
            <g>
              <path class="cls-11" d="m160.31,107.36s.57-1.04,1.41-1.27c0,0,.67.1.91.56.35.68.02,1.98-.63,2.64-.66.67-1.75.49-1.91.15-.16-.34.22-2.08.22-2.08Z"/>
              <path class="cls-19" d="m160.36,108.4s1.3-1.94,1.79-1.85c.49.09.46,1.07.36,1.62s-.69.98-.69.98c0,0,.51-.51.59-1.04.07-.52-.11-.99-.23-1.05-.12-.07-.66.21-.68.32-.01.11.2.53.14.93-.07.4-.71.67-.8.61-.09-.06.03-.61-.04-.67-.07-.05-.43.14-.43.14Z"/>
            </g>
            <path class="cls-43" d="m153.21,103.26l.13-.5s.49-.01.86-.19c.32-.15,1.61-.63,3.23-.54,1.63.08,2.34.51,2.34.51.2.55-.1,2.2-.1,2.2.63,1.36.33,2.86.33,2.86l.2.29c.13-.82,1.05-1.56,1.05-1.56,0,0,.2-1.66.3-2.73.04-.47.06-.82.04-.87-.08-.18-1.04-1.45-2.27-1.91-.62-.23-1.16-.36-1.54-.43-.27-.05-.46-.07-.54-.08h-.04s-.9-1.24-2.18-1.15c-1.18.09-1.25,1.01-1.25,1.16.02-.15.19-1.07,1.44-.94,1.15.12,1.69,1.07,1.76,1.2,0,.01,0,.01,0,.01,0,0,0,0,0-.01-.45-.59-1.65-1.03-2.09-.96-.45.07-.48.24-1.17.9-.65.64-1.27,1.35-1.32,1.41,0,0,0,0,0,0,.02.62.82,1.33.82,1.33Z"/>
            <path class="cls-41" d="m153.05,104.51s.26-.39.75.08l.25.58s-.58-.32-.99-.26c0,0-.13-.24-.02-.4Z"/>
            <path class="cls-41" d="m155.55,103.79l.34.6s1.05-.25,2.4.14l-.08-.29s-.77-.99-2.29-.55l-.36.1Z"/>
            <path class="cls-18" d="m153.81,108.38c.03.21.47.8,1.01.71.17-.03,1.34-.98,1.23-1.07,0,0-.29.05-.75.23-.88.34-1.38.1-1.38.1,0,0,.69-1.94.66-2.15s-.8,1.97-.77,2.18Z"/>
            <path class="cls-18" d="m156.33,105.63c.81-.08,1.53.33,1.53.33h0c-.67-.81-1.29-.76-1.29-.76-.12.13-.19.28-.24.44Z"/>
            <path class="cls-18" d="m153.52,106.12c.61.02.9.29.94.32-.04-.07-.51-.82-.92-.85,0,0-.02.23-.02.53Z"/>
            <path class="cls-41" d="m157.86,105.96s-.83-.28-1.55-.24l-.23-.11s.87-.19,1.79.36Z"/>
            <path class="cls-41" d="m154.46,106.44s-.37-.21-.94-.19l-.16-.13s.59-.11,1.1.33Z"/>
            <path class="cls-41" d="m156.41,105.64s-.27.65.14,1.22c0,0,.7-.19.82-.32s.01-.51.01-.51l-.05-.17s-.57-.18-.93-.21Z"/>
            <path class="cls-41" d="m153.55,106.16s-.02.8.3,1.11l.12-.06.25-.87s-.25-.17-.67-.18Z"/>
            <path class="cls-9" d="m156.4,106.5c.02.07.09.11.16.09s.11-.09.09-.16-.09-.11-.16-.09-.11.09-.09.16Z"/>
            <path class="cls-9" d="m153.65,106.87c.02.07.09.11.16.09s.11-.09.09-.16-.09-.11-.16-.09-.11.09-.09.16Z"/>
            <path class="cls-39" d="m156.8,109.9s-.36.2-1.03.3c-.67.1-1.14-.02-1.14.21,0,0,.22.27,1,.06.79-.21,1.17-.57,1.17-.57Z"/>
            <path class="cls-46" d="m153.21,103.26l.13-.5s.49-.01.86-.19c.32-.15,1.61-.63,3.23-.54,1.63.08,2.34.51,2.34.51.2.55-.1,2.2-.1,2.2.63,1.36.33,2.86.33,2.86l.2.29c.13-.82,1.05-1.56,1.05-1.56,0,0,.2-1.66.3-2.73-.4-.97-1.45-1.29-1.45-1.29.4-.02,1.36.36,1.47.41-.13-.08-1.22-.69-2.3-.9-1.16-.22-3.3.14-3.3.14.74-.98,1.81-1.57,1.81-1.57l-.54-.08h-.04c-.08.09-.16.19-.23.27h0c-.85.99-1.47,1.36-1.47,1.36-.48-.02-1.21-.06-1.76-.14-.83-.13-1.3.11-1.34.13,0,0,0,0,0,0,.02.62.82,1.33.82,1.33Zm2.56-1.32h.13s-.08,0-.13,0Z"/>
            <path class="cls-46" d="m155.89,101.64s-1.65-.8-2.78-.51l.14-.15s1.14-.32,2.72.59l-.09.07Z"/>
            <path class="cls-46" d="m156.37,101.21s-1.14-1.34-2.11-1.25l-.15.16s1.43-.04,2.13,1.22l.13-.12Z"/>
            <path class="cls-46" d="m155.83,101.69s-1.34-.84-2.86-.41l-.27.3s1.28-.45,3.03.19l.1-.08Z"/>
            <path class="cls-46" d="m156.12,101.77s2.62-.71,4.15-.44c0,0-.51-.35-.73-.44,0,0-1.88.13-3.3.73l-.12.15Z"/>
            <path class="cls-46" d="m156.9,100.99s1.17-.47,1.59-.46l-.38-.09-1.02.4-.2.16Z"/>
          </g>
          <g>
            <g>
              <path class="cls-11" d="m154.01,117.93c.01.33.61.66,1.42.66,0,0,.57.54.57,1,0,.07,0,.18-.01.31t0,0c0,.11-.01.24-.03.38-.03.4-.07.89-.12,1.3-.04.39-.09.71-.12.79-.09.24-.21.27-.21.27,0,0-.22-.38-.23-1.03,0-.64.17-1.11.03-1.41s-1.05-1.13-1.35-1.13c-.3,0-.47.27-.48.54,0,.11.09.31.22.56h0c.18.35.42.82.54,1.36.22.95-.11,2.23-.07,2.81.04.58,2.71,1.5,3.72,3.83,0,0,1.1-.23,1.36-2.54,0,0-.37-.47-.32-.55.06-.08.65-1.86.81-2.8,0-.03,0-.05.01-.08,0-.06.02-.12.02-.17,0-.03,0-.05.01-.08,0-.03,0-.06,0-.09,0-.01,0-.02,0-.03h0c.07-.76.02-1.36.02-1.36l-.89-.57-.63-.53-.97-.37h0s-.4.15-.4.15c0,0,0,0,0-.01-.04-.11-.32-.95-.45-1.18h0s-.02-.03-.02-.04c-.12-.15-1.53-.42-1.7-.47-.17-.04-.37-.19-.44-.19-.07,0-.34.32-.33.65Z"/>
              <path class="cls-13" d="m155.74,120.18c-.17.32-.02.98.1,1.4.06.22.12.37.12.37l.23.15s.25.29.51.44h.29s.57-1.27.57-1.27l-.07,1.45s.44.22.56.18c.12-.04.3-.96.3-.96l.05-.22.03-.03c.1-.12.48-.54.84-.85h0c.23-.2.45-.36.58-.36l-.89-.57-.63-.53-.97-.37h0c-.06.03-.84.43-1.31.83h0s-.04.04-.06.06c-.1.09-.18.18-.23.26,0,.01-.01.02-.01.02Z"/>
              <path class="cls-65" d="m155.61,118.8l-2.33,1.69-.73-.14-.12-.17.37-.67,1.79-1.04s.47.19.83.13l.19.2Z"/>
              <path class="cls-61" d="m156.54,118.06l2.43-1.88s.05-.35-.28-.46l-3.1,1.94s.81.25.85.27c.04.02.1.14.1.14Z"/>
              <path class="cls-19" d="m156.04,119.84c.2-.19.5-.44.91-.67,0,0,0,0,0-.01-.03-.11-.23-.87-.45-1.18h0s-.02-.03-.02-.04c0,0-.5.69-1.05.65,0,0,.57.54.57,1,0,.07,0,.18-.01.31-.1.09-.18.18-.23.26.03-.04.1-.13.23-.26.02-.02.04-.04.06-.06h0Z"/>
              <path class="cls-19" d="m153.71,120.17h0c.18.35.42.82.54,1.36.22.95-.11,2.23-.07,2.81.04.58,2.71,1.5,3.72,3.83,0,0,1.1-.23,1.36-2.54,0,0-.37-.47-.32-.55.06-.08.65-1.86.81-2.8,0-.03,0-.05.01-.08,0-.06.02-.12.02-.17,0-.03,0-.05.01-.08,0-.03,0-.06,0-.09,0-.01,0-.02,0-.03-.03.1-.69,2.52-1.19,3.06-.51.55-2.05.21-2.31.07-.26-.14-.46-.44-.47-.53,0-.09,2.15-1.11,2.29-1.35.13-.24.82-1.14.82-1.14l.51-.25-.46-.17.25-.7h0s-.84.86-.84.86l-.03.03s-.65-.04-.79-.37l.12-.31,1.09-1.18-1.45,1.14s-.58-.2-.78-.36l.94-1-1.18.82-.38-.18-.21-.1c-.17.32-.02.98.1,1.4-.04.39-.09.71-.12.79-.09.24-.21.27-.21.27,0,0-.22-.38-.23-1.03,0-.64.17-1.11.03-1.41,0,0-.04.52-.26.69-.22.17-.81-.16-.81-.16l-.53-.56Z"/>
              <path class="cls-39" d="m155.51,122.65l2.33.54.41-.27.05-.68s-.16.6-.25.66c-.09.06-.56-.18-.56-.18l.06-1.3-.56,1.12s-.1.12-.29,0c-.18-.11-.74-.59-.74-.59l-.14-.45s-.09.9-.3,1.15Z"/>
              <path class="cls-61" d="m153.89,120.04s-.11-.51-.59-.83l1.29-.75s.62.1.74.54l-1.43,1.04Z"/>
              <path class="cls-65" d="m158.47,116.56s-.02-.41-.24-.56l.24-.15s.33.12.3.48l-.29.23Z"/>
              <path class="cls-65" d="m154.98,119.25s-.34-.59-.48-.74l.09-.05s.5.13.83.13l.19.2-.63.46Z"/>
              <path class="cls-61" d="m153.28,120.49s.09-.61-.48-.99l-.37.67.12.17.73.14Z"/>
            </g>
            <g>
              <path class="cls-15" d="m157.74,128.2c-.66,1.22.64,1.54.64,1.54,0,0,5.8,7.21,7.67,6.76.25-.06.54-.2.85-.41,1.96-1.36,1.77-4.63,2.08-9.01.38-5.32.44-9.8.44-9.8-3.89,1.55-5.28,12.04-5.28,12.04-.56-.32-3.56-3.16-3.56-3.16,0,0-.62-1.09-.77-1.09-.02,0-.03,0-.05.01-.16.07-.43.39-.43.39-.53,2.73-1.58,2.73-1.58,2.73Z"/>
              <path class="cls-17" d="m167.06,133.27c.05-.14-.36-4.06-.89-4.41-.53-.36-.9.03-.98-.13-.08-.16.27-5.76,1.42-8.01,1.15-2.25,2.79-3.44,2.79-3.44-3.89,1.55-5.29,12.08-5.29,12.08.23.19,1.05.04,1.93,1.15.88,1.11.96,2.9,1.01,2.76Z"/>
              <path class="cls-17" d="m157.74,128.2c-.65,1.13.64,1.54.64,1.54,0,0,5.8,7.21,7.67,6.76.25-.06.54-.2.85-.41-.47.09-.99.06-1.52-.16-1.93-.81-4.72-5.21-4.72-5.21.61-.5-.08-4.55-.08-4.55-.03,1.07-.88,2.69-.88,2.69l-.51-1.1c.48-.98.56-2.2.56-2.66-.16.07-.43.39-.43.39-.53,2.73-1.58,2.73-1.58,2.73Z"/>
            </g>
          </g>
          <g>
            <path class="cls-36" d="m159.48,107.67c-.06,1.16.69,2.14,1.66,2.18.98.04,1.82-.86,1.88-2.03.06-1.16-.69-2.14-1.66-2.18-.98-.04-1.82.86-1.88,2.03Z"/>
            <ellipse class="cls-37" cx="161.5" cy="107.73" rx="1.95" ry="1.45" transform="translate(44.61 262.72) rotate(-86.68)"/>
            <path class="cls-10" d="m160.16,107.7c-.05,1.07.55,1.97,1.35,2.01.8.04,1.49-.81,1.55-1.88.05-1.07-.55-1.97-1.35-2.01-.8-.04-1.49.81-1.55,1.88Z"/>
            <path class="cls-36" d="m161.04,107.79c-.06.66.3,1.23.8,1.27.5.04.94-.47,1-1.14.06-.66-.3-1.23-.8-1.27-.5-.04-.94.47-1,1.14Z"/>
            <path class="cls-10" d="m161.85,107.82c-.02.22.1.41.27.42.17.01.32-.16.33-.38.02-.22-.1-.41-.27-.42-.17-.01-.32.16-.33.38Z"/>
            <path class="cls-16" d="m162.31,106.56s-.2-.48-.39-.7c0,0-.43-.24-1.17.37l.61.62s.21-.37.95-.29Z"/>
            <path class="cls-22" d="m160.6,103.58c.14.73-.04,2.23-.04,2.23,0,0,.72-.4,1.26-.06,0,0,.08-1.41-.03-2.05-.16-.92-1.11-2.98-3.91-3.28.44.22,2.36,1.28,2.72,3.15Z"/>
            <path class="cls-16" d="m161.27,106.96l-.66-.55s-.36.5-.4.95l.8-.03s.17-.27.27-.38Z"/>
            <path class="cls-36" d="m160.88,103.64c.14.73-.08,2.04-.08,2.04,0,0,.74-.15,1.28.19,0,0,.1-1.46-.01-2.09-.16-.92-1.11-2.98-3.91-3.28.44.22,2.36,1.28,2.72,3.15Z"/>
          </g>
        </g>
        <g>
          <path class="cls-28" d="m84.45,91.25l.7,5.51c.13.98.96,1.72,1.95,1.72h7.97l.24,5,1.99-5h.47c.99,0,1.83-.74,1.95-1.72l.7-5.51c.15-1.18-.77-2.22-1.95-2.22h-12.07c-1.19,0-2.1,1.04-1.95,2.22Z"/>
          <g>
            <path class="cls-6" d="m96.13,92.8c-.38,0-.69.31-.69.69s.31.69.69.69.69-.31.69-.69-.31-.69-.69-.69Z"/>
            <path class="cls-6" d="m92.46,92.8c-.38,0-.69.31-.69.69s.31.69.69.69.69-.31.69-.69-.31-.69-.69-.69Z"/>
            <path class="cls-6" d="m88.83,92.8c-.38,0-.69.31-.69.69s.31.69.69.69.69-.31.69-.69-.31-.69-.69-.69Z"/>
          </g>
        </g>
        <g>
          <path class="cls-28" d="m150.64,91.81l-.7,5.51c-.13.98-.96,1.72-1.95,1.72h-7.97s-.24,5-.24,5l-1.99-5h-.47c-.99,0-1.83-.74-1.95-1.72l-.7-5.51c-.15-1.18.77-2.22,1.95-2.22h12.07c1.19,0,2.1,1.04,1.95,2.22Z"/>
          <g>
            <path class="cls-6" d="m138.27,94.05c0,.38.31.69.69.69s.69-.31.69-.69c0-.38-.31-.69-.69-.69s-.69.31-.69.69Z"/>
            <path class="cls-6" d="m141.94,94.05c0,.38.31.69.69.69s.69-.31.69-.69-.31-.69-.69-.69-.69.31-.69.69Z"/>
            <path class="cls-6" d="m145.57,94.05c0,.38.31.69.69.69s.69-.31.69-.69-.31-.69-.69-.69-.69.31-.69.69Z"/>
          </g>
        </g>
        <g>
          <g>
            <path class="cls-47" d="m188.96,112s-.02.02-.05.03c-.45.21-3.77.56-4.96.55-.25,0-.41-.02-.43-.06-.08-.24-2.44-7.06-2.09-7.41.05-.05.19-.08.41-.1,1.46-.14,6.23.23,6.65.39.07.03.14.2.21.48.34,1.47.5,5.8.26,6.13Z"/>
            <path class="cls-45" d="m189.25,111.9s-.02.02-.05.03c-.45.21-3.77.55-4.96.54-.25,0-.41-.02-.43-.06-.08-.23-2.44-6.96-2.09-7.31.05-.05.19-.08.41-.1,1.46-.14,6.23.23,6.65.38.07.03.14.2.21.47.34,1.44.5,5.71.26,6.04Z"/>
            <path class="cls-41" d="m189.21,111.93c-.45.21-3.77.55-4.96.54,1.14-1.14,2.45-3.36,2.45-3.36h1.66s.73,1.38.85,2.82Z"/>
            <g>
              <path class="cls-47" d="m188.27,108.5c.04.86-.36,1.57-.89,1.6-.54.03-1.01-.64-1.05-1.5s.36-1.57.89-1.6c.54-.03,1.01.64,1.05,1.5Z"/>
              <path d="m187.35,110.17c-.56,0-1.04-.69-1.09-1.57-.02-.43.06-.83.24-1.15.18-.32.44-.51.72-.52.57-.03,1.08.67,1.12,1.56h0c.05.89-.38,1.64-.96,1.67-.01,0-.02,0-.03,0Zm-.1-3.1s-.02,0-.03,0c-.24.01-.45.17-.61.45-.16.29-.24.67-.22,1.07.04.82.48,1.46.98,1.44.5-.03.87-.71.83-1.53h0c-.04-.8-.47-1.44-.95-1.44Z"/>
            </g>
            <path class="cls-41" d="m188.99,105.86c-.22,1.39-.72,2.64-.72,2.64l-1.26-.06s-1.9-2.05-4.87-3.43c1.46-.14,6.23.23,6.65.38.07.03.14.2.21.47Z"/>
          </g>
          <g>
            <polygon class="cls-47" points="201.78 120.43 201.52 120.7 208.8 196.7 209.53 196.84 203.43 120.58 203.55 119.92 203.48 119.89 199.93 118.45 198.93 119.29 201.78 120.43"/>
            <polygon class="cls-47" points="185.27 198.82 185.99 198.63 195.19 120.23 195.14 120.18 194.91 119.98 197.67 118.63 196.61 117.87 193.13 119.6 193.11 119.61 193.28 120.26 185.27 198.82"/>
            <polygon class="cls-57" points="198.93 119.29 201.78 120.43 203.48 119.89 199.93 118.45 198.93 119.29"/>
            <polygon class="cls-57" points="193.11 119.61 193.14 119.73 193.33 119.85 193.58 120.02 195.14 120.18 194.91 119.98 197.67 118.63 196.61 117.87 193.13 119.6 193.11 119.61"/>
            <polygon class="cls-47" points="196.52 120.84 196.57 121.76 197.38 197.86 198.54 197.94 198.61 122.46 198.54 120.89 196.52 120.84"/>
            <path class="cls-57" d="m198.72,119.58l-2.18.68.05.92c.86.13,1.57.45,2.04.7l.09-2.3Z"/>
            <path class="cls-45" d="m201.43,116.37s.09,3.92-3.03,4.14c-3.12.21-3.86-4.04-3.86-4.04l6.89-.09Z"/>
            <path class="cls-41" d="m198.73,116.31s.11,3.92-1.8,4.1c-1.91.17-2.41-4.09-2.41-4.09h4.21Z"/>
            <polygon class="cls-47" points="195.66 117.62 196.37 117.54 197.73 117.39 197.7 116.47 199.12 116.43 198.91 114.47 198.69 112.36 198.65 112.01 196.12 111.66 196.06 112.44 195.89 114.56 195.66 117.62"/>
            <polygon class="cls-57" points="197 112.31 196.88 117.2 195.98 117.33 196.28 112.31 197 112.31"/>
            <polygon class="cls-57" points="192.89 111.91 192.01 115.74 176.44 121.89 177.47 123.1 192.59 116 193.32 112.14 192.89 111.91"/>
            <path class="cls-45" d="m181.46,119.58l-4.69,1.81c-.72.28-.99,1.16-.55,1.8h0c.34.49,1,.66,1.54.37l4.46-2.35-.76-1.63Z"/>
          </g>
          <path class="cls-47" d="m201.43,106.12s.8-.42.91-1.53c.12-1.18-1.41-2.75-1.48-2.82l-.1.09s1.55,1.59,1.44,2.71c-.11,1.04-.83,1.42-.84,1.42l.06.12Z"/>
          <polygon class="cls-45" points="200.72 98.08 189 98.01 188.78 105.03 200.72 104.86 200.72 98.08"/>
          <polygon class="cls-52" points="200.04 97.88 188.6 97.9 188.6 105.03 188.78 105.03 189 98.01 200.72 98.08 200.04 97.88"/>
          <polygon class="cls-47" points="200.36 104.23 200.3 98.34 189.2 98.34 189.2 104.5 200.36 104.23"/>
          <polygon class="cls-45" points="202.6 105.79 201.89 112.19 193.44 112.23 193.46 105.62 202.6 105.79"/>
          <polygon class="cls-41" points="193.52 105.62 191.63 105.65 191.91 112.18 193.44 112.23 193.52 105.62"/>
          <path class="cls-47" d="m186,108.56c0-.97.57-1.76,1.27-1.76l2.16-.2v4.01s-2.18-.28-2.18-.28c-.69-.02-1.24-.8-1.24-1.76Z"/>
          <ellipse class="cls-57" cx="189.43" cy="108.59" rx="1.44" ry="2"/>
          <path class="cls-45" d="m192.23,109.36l-1.66-.03c-.46,0-.84-.38-.84-.85h0c0-.45.36-.83.81-.85l1.65-.07c.46-.02.85.33.88.79v.1c.04.5-.36.91-.85.91Z"/>
          <ellipse class="cls-47" cx="189.53" cy="108.59" rx="1.06" ry="1.47"/>
          <ellipse class="cls-57" cx="189.43" cy="108.59" rx=".96" ry="1.33"/>
          <polygon class="cls-47" points="195.99 105.67 195.79 104.93 193.94 104.93 193.81 105.62 195.99 105.67"/>
          <polygon class="cls-45" points="202.27 112.23 203.61 112.19 203.89 105.76 202.74 105.76 202.27 112.23"/>
          <polygon class="cls-41" points="201.89 112.19 202.27 112.23 202.74 105.76 202.6 105.79 201.89 112.19"/>
          <polygon class="cls-41" points="201.14 112.2 201.14 108.56 200.98 108.15 195.03 108.15 194.68 112.2 201.14 112.2"/>
          <polygon class="cls-52" points="201.14 112.66 201.14 108.56 196.28 108.56 196.1 112.66 201.14 112.66"/>
          <polygon class="cls-45" points="196.1 112.66 195.05 112.22 195.42 108.56 196.28 108.56 196.1 112.66"/>
          <path class="cls-47" d="m190.59,114.72c1.96,0,2.23-2.46,2.23-2.48h-.13s-.26,2.35-2.1,2.35-2.64-2.38-2.65-2.41l-.13.04s.83,2.5,2.77,2.5Z"/>
          <path class="cls-47" d="m191.4,114.12c2.25,0,2.78-1.88,2.79-1.9l-.13-.04c-.02.07-.52,1.8-2.66,1.8-1.7,0-2.66-1.77-2.67-1.78l-.12.06s1.01,1.85,2.79,1.85Z"/>
          <g>
            <polygon class="cls-47" points="203.61 112.19 203.89 105.76 202.74 105.76 203.8 105.89 203.61 112.19"/>
            <polygon points="203.68 112.19 203.54 112.19 203.73 105.95 202.73 105.82 202.74 105.69 203.96 105.69 203.68 112.19"/>
          </g>
          <polygon class="cls-41" points="202.49 105.79 202.32 105.92 194.04 105.92 193.52 105.62 202.49 105.79"/>
          <polygon class="cls-45" points="200.49 112.01 200.49 109.08 200.3 109.08 200.18 112.01 200.49 112.01"/>
          <polygon class="cls-45" points="198.94 112.01 198.94 109.08 198.73 109.08 198.79 112.01 198.94 112.01"/>
          <polygon class="cls-45" points="197.35 112.04 197.35 109.08 197.15 109.08 197.24 112.04 197.35 112.04"/>
          <polygon class="cls-41" points="202.32 105.92 201.99 107.42 194.45 107.42 194.12 105.92 202.32 105.92"/>
        </g>
        <g>
          <g>
            <path class="cls-43" d="m197.58,202.69s1.42,1.45,2.96,1.63c.89.11,1.75.12,2.38.13.47,0,.8,0,.9.04.25.09.52.68.54.86.02.17.18.52.18.52,2.24.61,5.99,0,5.99,0v-1.32l-7.85-1.44h0l-4.81-.88-.29.46Z"/>
            <path class="cls-42" d="m197.88,202.24s0,0,0,0c0,0,0,0,.01,0,2.09,1.85,5.51,1.71,5.51,1.71l.59.28.65.59c2.81.6,5.89-.1,5.89-.1,0,0,.32-.42.32-.91,0-.28-.18-1.46-.34-2.42-.12-.71-.22-1.29-.22-1.29-.62-.36-3.73-1.01-3.73-1.01l-3,.6c-.24.19-4.78.2-5.08.41-.31.21-.62,2.13-.62,2.13Z"/>
            <path class="cls-45" d="m203.58,199.69l-.14.96s-2.63.44-4.95-.55c0,0,.22-.15,1.8-.14,2.19.02,3.1-.15,3.28-.28Z"/>
            <polygon class="cls-44" points="204.06 203.27 203.33 201.67 202.8 201.61 203.17 203.02 204.06 203.27"/>
            <polygon class="cls-44" points="202.25 202.83 201.82 201.71 201.28 201.67 201.48 202.55 202.25 202.83"/>
          </g>
          <g>
            <path class="cls-43" d="m214.71,201.55s1.42,1.45,2.96,1.63c.89.11,1.75.12,2.38.13.47,0,.8,0,.9.04.25.09.52.68.54.86.02.17.18.52.18.52,2.24.61,5.99,0,5.99,0v-1.32l-7.85-1.44h0l-4.81-.88-.29.46Z"/>
            <path class="cls-42" d="m215.01,201.09s0,0,0,0c0,0,0,0,.01,0,2.09,1.85,5.51,1.71,5.51,1.71l1.24.87c2.81.6,5.89-.1,5.89-.1,0,0,.32-.42.32-.91,0-.28-.65-4.86-.65-4.86l-3.63.14-3,.6c-.24.19-4.78.2-5.08.41-.31.21-.62,2.13-.62,2.13Z"/>
            <polygon class="cls-44" points="222.69 202.03 221.97 200.44 221.43 200.37 221.8 201.79 222.69 202.03"/>
            <polygon class="cls-44" points="220.89 201.6 220.46 200.47 219.91 200.44 220.11 201.32 220.89 201.6"/>
            <path class="cls-45" d="m220.71,198.55l-.14.96s-2.63.44-4.95-.55c0,0,.22-.15,1.8-.14,2.19.02,3.1-.15,3.28-.28Z"/>
          </g>
          <g>
            <path class="cls-48" d="m203.4,147.84c.04,1.09.53,20.42.93,21.77,0,.02.01.04.03.06.36.68-.24,4.47-.24,4.47,0,0,.88.84.9,1.69.09,3.75,1.18,23.66,1.19,23.66,1.31.23,2.64.4,3.95.6l.46-2.12-.71.1.03-.15h0c.4-2.23,2.08-16.24,2.02-17.91-.01-.41-2.12-5.7-2.83-7.83-.21-.62,1.25-16.53,1.25-16.53.11-.64.6-8.07,1.08-8.07.78,0,3.11,12.48,3.85,16.9.23,1.38.26,3.1.89,4.36.01.02.02.04.04.06.47.61.55,4.44.55,4.44,0,0,1.01.67,1.18,1.51.74,3.68,5.32,23.08,5.33,23.08,1.33,0,2.66-.07,3.99-.1l.08-2.17-.68.22v-.15s0,0,0,0c0-2.27-.81-16.35-1.16-17.98-.09-.4-3.09-5.24-4.16-7.21-.31-.58-.57-1.13-.76-1.64-.06-.16-.11-.38-.17-.68-.79-4.03-1.49-23.85-1.47-24.28,0-.02,0-.04,0-.06,0-.7.31-1.36.54-2.01.24-.66.2-1.18.13-1.87-.16-1.64-.66-5.57-.76-5.67-.24-.22-10.97-4.47-12.61-5.12-.34-.13-.68-.37-1.05-.4.09.25-1.83,19.04-1.83,19.04Z"/>
            <path class="cls-56" d="m210.38,155.71c.02-.09.69-6.32,1.08-8.14.2-.91.6-1.65,1.09-2.25.11-.13,1.85-1.55,2.53-1.85.12-.06.24-.1.35-.14-.15.04-.3.09-.45.13h0c-5.26,1.46-7.35.83-7.47.79.12.07,2.08,1.27,2.84,1.57l.04,9.9Z"/>
            <polygon class="cls-56" points="214.52 144.47 217.43 143.76 219.1 143.35 219.59 141.76 219.6 141.74 216.1 143.62 214.52 144.47"/>
            <path class="cls-56" d="m213.3,153.73c.08.38,2.19,14.36,2.66,14.97.47.61.83,4.64.83,4.64,0,0,1.23,1.74,1.3,1.99.03-.06,2.63-5.19,3.29-4.81-.31-.58-.87-2.03-.93-2.32-.77.65-1.68,1.16-2.47.96-.28-.07-.6-.42-.93-.95-.18-.29-3.55-13.78-3.75-14.49Z"/>
            <path class="cls-56" d="m222.81,195.65c.05.18.08.33.11.44h0s.16-.01.16-.01l.51-.05,3.11-.3h0c0-.38-.02-1.42-.06-2.81-.67,1.51-1.75,2.2-2.64,2.5-.16.06-.3.1-.44.13-.28.06-.54.1-.73.11Z"/>
          </g>
          <path class="cls-11" d="m185.69,123.85c0,.3.47.74,1.22,1.24,2.83,1.88,9.63,4.61,10,4.26.47-.43,1.01-.67,1.77-1.56.29-.34.82-1.75,1.35-3.35.25-.74.5-1.51.72-2.24.36-1.13.66-2.16.84-2.76.1-.34.16-.54.16-.54l-2.77-5.05s-.61,1.99-1.37,4.25c-.17.51-.35,1.03-.53,1.54-.07.21-.15.42-.22.63-.82,2.26-1.65,4.23-2.04,4.16-.68-.13-5.02.15-7.81-.97-.11-.05-.23-.1-.34-.15-.59.06-.97.21-.98.52Z"/>
          <path class="cls-6" d="m204.06,138.66c.3.24.63.48.99.73h0c.12.08.23.16.35.24,2.29,1.53,5.49,3.13,9.57,3.83h0s.07.01.1.02c.34.06.68.11,1.02.15.44.06.88.1,1.33.14.55.04,1.07.07,1.56.1.02-.13.06-.3.11-.51l.49-1.59v-.02c.05-.13.09-.24.12-.34.05-.15.02-.7-.06-1.43-.11-1.15-.33-2.73-.5-3.94l-8.46-.75-.22-.02-3.59-.32-.19-.02h-.01l-1.64-.14-.53-.05c-.07.58-.14,1.17-.21,1.77-.08.72-.17,1.44-.25,2.13Z"/>
          <g>
            <g>
              <polygon class="cls-19" points="211.2 96 212.33 102.03 207.21 102.59 207.44 98.48 210.93 95.15 211.2 96"/>
              <polygon class="cls-11" points="213.68 103.82 211.46 97.6 207.33 101.26 206.8 104.74 213.68 103.82"/>
              <path class="cls-12" d="m205.25,87.84s-1.36,1.33-1.48,1.9c-.07.34-.07,1.26-.05,1.39.02.13-1.81,1.92-1.81,1.92,0,0-.75.57.52,1.35l-.06,1.47.19.38-.18.21s-.39,2.39,1.11,3.13c1.09.54,5.66-.29,7.05-2.74.13-.22.41-1.36.41-1.36,0,0,.56.69,1.71.57,1.14-.12,2.22-2.37,1.28-3.19-.93-.83-2.52-.05-2.52-.05,0,0,.76-1.97.57-2.99-.66-3.42-4.16-3.46-6.74-1.98Z"/>
              <path class="cls-19" d="m211.08,93.98s1.1-1.06,2.2-.92c1.1.14.59,1.57.59,1.57,0,0,.28-.94-.32-1.32-.61-.39-1.19.26-1.19.26,0,0,.57.44.5,1.22-.07.78-.96.79-1.1.45-.14-.34.22-.79.15-.99-.07-.2-.82-.27-.82-.27Z"/>
              <path class="cls-19" d="m204.02,94.4s-.44-.25-.86-.37c0,0-.77-.23-1.25-.97,0,0-.78.6.52,1.35h1.59Z"/>
              <path class="cls-39" d="m205.04,95.69s-1.7.49-2.67.19l.19.38s1.55-.03,2.48-.57Z"/>
              <path class="cls-41" d="m205.89,91.83s-.13-.84-.64-.95c-.51-.11-.66.71-.66.71,0,0,.09-.85.46-.92.37-.07.81.31.84,1.16Z"/>
              <g>
                <path class="cls-42" d="m205,91.27s.84.37.33,1.33c0,0-.55-.27-.33-1.33Z"/>
                <circle class="cls-9" cx="205.09" cy="91.54" r=".1"/>
              </g>
              <g>
                <path class="cls-38" d="m203.59,93.14c.24.83.98.8,1.59.48.86-.45,1.53-2.36,1.07-2.82-1.1-1.11-2.18-.76-2.3-.37-.15.49-.62,1.76-.35,2.71Zm.46-2.29c.12-.66,1.47-.73,2.03.22.45.75-.53,2.71-1.59,2.54-.68-.11-.88-.4-.44-2.76Z"/>
                <path class="cls-38" d="m206.34,91.22s1.35.22,1.48.3c.13.08,3.07,1.72,3.07,1.72l-.41.21s-2.59-1.28-2.75-1.39c-.16-.11-1.43-.37-1.43-.37l.03-.48Z"/>
              </g>
            </g>
            <path class="cls-41" d="m204.51,89.84l.24-.11s.65-.61,1.04-.56c0,0,.26-.06.64.23.48.37.97,1.37.97,1.37,0,0-1.68-.89-2.88-.93Z"/>
            <g>
              <path class="cls-41" d="m212.92,92.48s.75-.92.98-2.73c.17-1.39-1.36-2.5-2.7-3.36-1.53-.99-3.23-2.93-3.23-2.93,0,0-.15.53.1.96,0,0-3.12-1.98-4.64-1.19-1.41.73-.26,3.6.78,4.25v-.31s.85.93.85.93c0,0,1.7-1.29,2.67-1.21.75.06,1.84.03,2.58.95,1.33,1.65-.45,2.84-.45,2.84,0,0,1.19,1.06.84,2.78l2.23-.98Z"/>
              <path class="cls-51" d="m208.07,84.41s-1.44-.31-2.59.28c-1.15.59-.42,3.42-.42,3.42l-.86-.93s-.39-1.99.44-2.97c.83-.98,3-.05,3-.05l.43.25Z"/>
              <path class="cls-51" d="m205.06,88.11s.45-2.41,1.9-2.87c1.46-.46,3.01,2.3,3.01,2.3,0,0-.58-.67-2.02-.54-1.77.16-2.89,1.11-2.89,1.11Z"/>
            </g>
          </g>
          <g>
            <g>
              <path class="cls-26" d="m217.55,125.14c.12.19.28.33.5.4.02,0,.04.01.07.02.03,0,.05.01.08.01.43.1.82.14,1.16.13.49,0,.91-.11,1.24-.24.16-.07.3-.14.43-.23.75-.47,1-1.13,1-1.13l-.31-15.96s-.17.35-.45.93c-.7,1.5-2.08,4.58-2.98,7.38-.74,2.29-1.3,7.8-.75,8.69Z"/>
              <path class="cls-26" d="m218.05,125.54s.04.01.06.02c1.09.26,1.89.15,2.49-.1-.19-2.06-.6-12.95,1.13-16.59l-.45.21-2.8,1.27s-.1,2.98-.18,6.1c-.05,2.12-.25,7.72-.25,9.08Z"/>
              <g>
                <path class="cls-26" d="m216.87,122.91c.52,0,1.81.38,3.64-.28.15-.05.28-.13.4-.21,1.36-.99.99-3.91,1.52-2.26.93,2.89.22,3.28.22,3.28,0,0,.57,1.45.22,1.83-2.27,2.39-4.43,1.04-5.53,0-.45-.42-.72-.8-.75-.84-.11-.15-.23-1.51.29-1.51Z"/>
                <path class="cls-26" d="m216.87,122.91c.52,0,1.81.38,3.64-.28.15-.05.28-.13.4-.21-.31,1.08-3.61,1.29-3.61,1.29,0,0,.17.35,1.33.63,1.17.28,3.5-.77,3.45-.72-2.77,2.7-4.76,1.07-4.76,1.07,0,0-.01.23.02.57-.45-.42-.72-.8-.75-.84-.11-.15-.23-1.51.29-1.51Z"/>
              </g>
            </g>
            <path class="cls-23" d="m194.75,123.14s0,.1.02.15c.06.35.28.64.51.91,1.01,1.19,2.29,2.14,3.71,2.79.39.18.9.32,1.22.02.16-.14.22-.36.28-.56.44-1.53,1.88-5.87,2.33-7.4.02,5.91.53,9.87.56,15.79,0,.34,0,.71.18,1.01.26.46.83.63,1.33.8,2.34.74,4.49,2,6.83,2.73s5.08.85,7.08-.57c.41-.29.78-.64.97-1.1.22-.53.17-1.14.12-1.71-.52-5.91-.58-11.87-.16-17.79.22-3.14.59-6.3,1.69-9.25.11-.29.22-.59.17-.89-.07-.35-.35-.61-.63-.84-2.11-1.76-4.51-3.15-7.08-4.12-.02-.31-.04-.62-.05-.93-2.49-.53-4.93-.65-7.39.14.34.77-.56,1.48-1.32,1.85-.77.37-2.73.59-3.51.96-.5.24-1.01.49-1.39.9-.38.4-.61.93-.82,1.44-1.36,3.24-3.02,11.41-4.38,14.65-.14.33-.28.68-.27,1.03Z"/>
            <path class="cls-26" d="m203.16,131.1v.04l.37.55h0s.1.16.1.16l-.11,1.5c.23.2.48.41.74.62.15.12.3.24.45.37.92.74,1.92,1.47,2.84,2.01,2.48,1.44,4.61,1.82,5.02,1.88-.46-.09-3.03-.66-4.88-2.32-.23-.2-.47-.43-.73-.69-.24-.23-.49-.48-.75-.75-.13-.13-.26-.27-.39-.41-.47-.5-.95-1.02-1.4-1.52-.47-.51-.9-1.01-1.27-1.43Z"/>
            <path class="cls-23" d="m206.43,102.57l.09.82c.13-.02.26-.05.39-.07,5.22-.91,6.99-.44,6.99-.44l-.06-.96s-.51-.09-1.36-.15c-.7-.05-1.63-.07-2.71,0-.65.04-1.2.12-1.65.22-.23.04-.43.1-.61.15-.75.22-1.07.44-1.07.44Z"/>
            <path class="cls-26" d="m203.03,117.28c-.06.56-.14,1.11-.25,1.63l.25-.82.35-1.13-.03,1.51c.34-1.08.61-2.5.55-4.26-.02-.57-.08-1.12-.16-1.65-.53-3.34-3.3-5.96-3.47-6.21.1.18,2.08,1.86,2.56,4.63.08.5.16,1.02.21,1.58.15,1.49.16,3.15-.01,4.72Z"/>
            <path class="cls-26" d="m200.08,105.83s1.34.72,1.78,1.52l-.95-1.73-.83.21Z"/>
            <path class="cls-26" d="m206.47,103.29c.23-.05,3.93-.82,8.58.8,1.53.53,2.77,1.05,3.76,1.49-1.17-.76-2.79-1.63-4.96-2.46v-.21s-.1-.02-.1-.02c0,0-4.61-.74-6.91.21-.14.06-.26.12-.38.19Z"/>
            <path class="cls-26" d="m204.28,115.59s.02,5.86,1.67,11.79c1.66,5.93,5.2,8.58,5.2,8.58,0,0-4.64-3.28-5.79-7.93-1.02-4.15-1.09-12.44-1.09-12.44Z"/>
            <path class="cls-23" d="m200.59,127.14c-.61-.35-2.27-.84-4.22-2.73-.16-.15-.29-.31-.4-.48-1.29-1.9.11-4.54-1.06-3.26-2.05,2.24-1.35,3.1-1.35,3.1,0,0-1.16,1.05-.86,1.66,1.91,3.9,4.91,4.01,6.56,3.73.67-.12,1.12-.3,1.17-.32.18-.08.77-1.34.16-1.69Z"/>
            <path class="cls-26" d="m200.59,127.14c-.61-.35-2.27-.84-4.22-2.73-.16-.15-.29-.31-.4-.48.01,1.28,3.86,3.72,3.86,3.72,0,0-.31.23-1.79-.28-1.48-.51-3.9-3.12-3.86-3.04,2.4,4.54,5.29,4.27,5.29,4.27,0,0-.06.23-.21.55.67-.12,1.12-.3,1.17-.32.18-.08.77-1.34.16-1.69Z"/>
          </g>
          <path class="cls-11" d="m185.13,124.8c.64-.15,1.78.3,1.78.3l.31-1.29-.21-.33c-.09-.14-.17-.32-.28-.44-.35-.38.52-2.7-1.73-3.55-2.25-.85-2.88-3.04-3.05-2.74-.02.04-.04.08-.06.12-.04.07-.08.14-.11.21-.46.94-.26,1.28-.26,1.29-.02-.03-.21,0-.24,0-.19.01-.39.06-.55.17-.03.02-.06.07-.08.13-.13.38-.08.82-.08,1.21v1.07c.02.28.09.64-.07.88-.03.06-.06.11-.1.16-.03.05.31.47.28.52-.16.25-.31.51-.43.78-.19.42,4.25,1.67,4.88,1.52Z"/>
          <path class="cls-18" d="m180.55,119.8c0,.15,0,.3,0,.45l.52.48c-.18-.24-.4-.64-.53-.93Z"/>
          <path class="cls-18" d="m180.56,121.38c.38.29.69.52.75.55-.05-.05-.37-.35-.74-.74,0,.04,0,.09,0,.13,0,.02,0,.04,0,.06Z"/>
          <path class="cls-18" d="m180.39,121.98s.31.47.28.52c.45.23.57.08.62.1l-.9-.62Z"/>
          <path class="cls-18" d="m181.22,118.36l1.16.98s2.21,1.14,2.22.95c.01-.19-1.55-.78-1.82-.87-.27-.09-1.43-.78-1.01-2.35-.46.94-.26,1.29-.26,1.29,0,0-.13-.01-.29,0Z"/>
          <path class="cls-56" d="m203.58,154.28c.02.39.18,14.46.54,15.14.36.68,0,4.72,0,4.72,0,0,.91,1.93.93,2.19.04-.06,3.5-4.65,4.08-4.16-.21-.62.11-2.26.11-2.56-.87.5-2.47.96-3.21.62-.27-.12-.52-.52-.75-1.1-.13-.32-1.62-14.13-1.7-14.86Z"/>
          <path class="cls-41" d="m206.12,197.16c.01.19.02.34.03.45h0s.16.02.16.02l.51.04,3.11.25h0c.06-.38.23-1.4.43-2.78-.93,1.37-2.11,1.86-3.04,2-.16.03-.32.04-.46.05-.29.01-.55,0-.74-.02Z"/>
        </g>
        <g>
          <polygon class="cls-5" points="104.06 87.88 86.71 69.63 88.7 68.51 104.62 87.56 104.06 87.88"/>
          <g>
            <path class="cls-20" d="m110.21,110.96c-.32-.51-.99-.66-1.5-.34s-.66.99-.34,1.5.99.66,1.5.34.66-.99.34-1.5Z"/>
            <path d="m109.28,112.7c-.38,0-.76-.19-.98-.54-.16-.26-.22-.57-.15-.87.07-.3.25-.56.51-.72.26-.17.57-.22.87-.15.3.07.56.25.72.51h0c.34.54.18,1.26-.36,1.6-.19.12-.41.18-.62.18Zm0-2.18c-.19,0-.38.05-.54.16-.23.15-.39.37-.45.64-.06.27-.01.54.13.77.3.48.93.62,1.41.32.48-.3.62-.93.32-1.41h0c-.15-.23-.37-.39-.64-.45-.08-.02-.15-.03-.23-.03Z"/>
          </g>
          <g>
            <path class="cls-20" d="m110.06,111.06c-.21-.33-.65-.43-.98-.22s-.43.65-.22.98.65.43.98.22.43-.65.22-.98Z"/>
            <path d="m109.46,112.22c-.06,0-.12,0-.17-.02-.2-.05-.38-.17-.49-.34-.23-.36-.12-.84.25-1.07.36-.23.85-.12,1.07.24h0c.11.18.15.38.1.59-.05.2-.17.38-.35.49-.13.08-.27.12-.41.12Zm0-1.42c-.12,0-.24.03-.34.1-.3.19-.39.59-.2.89.09.15.23.25.4.28.17.04.34,0,.49-.08.15-.09.25-.23.29-.4s0-.34-.08-.48h0c-.12-.19-.33-.3-.54-.3Z"/>
          </g>
          <polygon class="cls-49" points="92.28 68.8 59.44 64.14 57.51 68.09 92.43 69.9 92.28 68.8"/>
          <polygon class="cls-5" points="87.87 69.94 58.56 65.81 56.72 69.23 88.02 71.04 87.87 69.94"/>
          <ellipse class="cls-41" cx="88.22" cy="69.74" rx="2.47" ry="2.46" transform="translate(4.46 144.77) rotate(-80.18)"/>
          <ellipse class="cls-45" cx="88.3" cy="69.28" rx="1.61" ry="1.61" transform="translate(4.98 144.47) rotate(-80.18)"/>
          <g>
            <ellipse class="cls-45" cx="118.1" cy="104.34" rx="5.48" ry="6.22" transform="translate(-1.37 1.57) rotate(-.76)"/>
            <ellipse class="cls-43" cx="117.21" cy="104.35" rx="5.48" ry="6.22" transform="translate(-1.37 1.56) rotate(-.76)"/>
            <path class="cls-53" d="m119.73,99.31c.96.82,1.64,1.96,1.92,3.18s.16,2.55-.34,3.7c-2.15-.71-3.89-2.33-4.91-4.35-.25-.49-.46-1.01-.49-1.56-.03-.55.15-1.13.58-1.47.44-.36,1.08-.39,1.62-.24.55.16,1.19.35,1.62.72Z"/>
            <polygon class="cls-5" points="113.26 110.87 109.87 111.16 109.88 111.89 113.27 111.85 113.26 110.87"/>
            <g>
              <path class="cls-45" d="m112.78,103.68l1.09,9.62,3.97-.05.16-4.06.21-5.21c.07-1.23-.38-2.25-1.18-2.68-1.79-.96-4.56.23-4.25,2.39Z"/>
              <polygon class="cls-43" points="117.23 113.25 117.09 113.94 114.51 113.97 114.35 113.29 117.23 113.25"/>
              <g>
                <path class="cls-43" d="m116,111.21c.02.13.05.27.13.38.08.11.2.2.33.21.56.04.6-.94.4-1.29-.12-.2-.36-.22-.56-.12-.29.15-.34.52-.3.81Z"/>
                <path class="cls-45" d="m116.15,111.17c.01.1.04.21.1.29.06.09.15.15.25.16.43.03.46-.72.3-.98-.09-.15-.27-.17-.43-.09-.22.12-.26.4-.23.62Z"/>
                <path class="cls-53" d="m116.83,110.9c0,.05,0,.11-.05.14-.03.02-.06.02-.1.02-.03,0-.06-.02-.09-.04-.07-.05-.12-.12-.15-.21-.02-.05-.03-.11,0-.15.02-.04.07-.07.12-.07.15,0,.25.19.26.32Z"/>
              </g>
              <path class="cls-43" d="m116.7,101.5c.19.07,1.13.11,1.03,3.38-.04,1.24-.22,3.72-.22,3.72l-.58.02s-1.72-4.53-1.79-6.14c-.04-.97.89-1.24,1.56-.98Z"/>
            </g>
            <path class="cls-53" d="m112.78,110.31c.76-.06,2.48-.09,2.48-.09l.03,2.12s-1.43.03-2.15.05c-.09-.69-.27-1.39-.36-2.07Zm4.75.05l.02,1.89h.66s.15-1.88.15-1.88h-.84Z"/>
          </g>
          <polygon class="cls-5" points="109.36 111.19 105.39 88.35 103.98 88.79 108.92 111.87 109.36 111.19"/>
          <path class="cls-41" d="m108.22,111.37c.07-.59.62-1.02,1.21-.94s1.02.62.94,1.21-.62,1.02-1.21.94-1.02-.62-.94-1.21Z"/>
          <path class="cls-45" d="m108.39,111.39c.05-.39.4-.66.79-.61s.66.4.61.79-.4.66-.79.61-.66-.4-.61-.79Z"/>
          <g>
            <path class="cls-41" d="m102.51,87.73c-.16.91.45,1.78,1.37,1.94s1.78-.45,1.94-1.37-.45-1.78-1.37-1.94-1.78.45-1.94,1.37Z"/>
            <circle class="cls-45" cx="104.32" cy="88.04" r="1.51"/>
          </g>
        </g>
        <path class="cls-59" d="m142.28,201.86c-.36,0-.71,0-1.06-.01-3-.06-6.65-.4-7.03-1.65-.29-.97,1.4-2.14,5.17-3.6,1.59-.62,3.35-1.06,5.28-1.33-.71-.19-1.47-.36-2.28-.53-5.45-1.1-15.14-2.01-30.33-.13-15.87,1.96-30.27,2.44-41.63,1.39-5.12-.48-9.57-1.25-13.21-2.31-3.48-1.01-6.15-2.25-7.92-3.68-1.54-1.25-2.22-2.59-2.01-3.99.25-1.66,1.72-3.35,4.37-5.03,1.95-1.24,3.86-2,3.88-2.01l.12.29c-.07.03-7.49,3.04-8.06,6.8-.19,1.28.44,2.53,1.9,3.71,3.57,2.89,11.02,5,20.96,5.92,11.34,1.06,25.72.58,41.57-1.39,15.24-1.89,24.96-.97,30.43.14,1.1.22,2.11.47,3.03.73,2.59-.29,5.5-.28,8.76,0,5.38.48,11,1.66,16.43,2.8,6.31,1.32,12.3,2.58,17.18,2.58.63,0,1.23-.02,1.82-.06,2.9-.22,5.13-4.08,6.64-11.47,1.22-5.97,1.95-14.22,2.19-24.53.4-17.56-.8-35.07-.82-35.24l.31-.02c.01.18,1.22,17.7.82,35.27-.24,10.33-.98,18.6-2.2,24.58-.73,3.56-1.63,6.35-2.7,8.28-1.19,2.16-2.61,3.32-4.22,3.44-.59.04-1.21.07-1.84.07-4.91,0-10.92-1.26-17.24-2.59-7.99-1.68-16.79-3.53-24.33-2.88,4.03,1.27,6.05,2.85,6.26,4.06.14.79-.46,1.4-1.65,1.66-1.97.44-5.38.72-8.58.72Zm3.16-6.36c-2.11.24-4.12.68-5.97,1.4-4.64,1.79-5.11,2.79-4.98,3.22.25.81,2.76,1.34,6.74,1.42,3.47.07,7.4-.22,9.57-.7.59-.13,1.55-.47,1.41-1.31-.2-1.15-2.4-2.77-6.77-4.03Z"/>
        <g>
          <g>
            <polygon class="cls-37" points="82.48 146.2 85.2 187.55 171.55 187.55 175.39 146.2 82.48 146.2"/>
            <polygon class="cls-36" points="89.38 181.52 86.25 146.2 93.2 146.2 94.97 177.9 96.06 178.29 94.09 150.11 94.7 150.11 97.48 181.36 89.38 181.52"/>
            <path class="cls-22" d="m172.11,181.5l-.56,6.04h-86.35s-.24-6.04-.24-6.04c25.78-.86,83.89.09,87.15,0Z"/>
            <path class="cls-22" d="m83.44,160.81s9.3-9.6,46.52-10.93c37.22-1.33,44.16,9.98,44.16,9.98l1.27-13.66h-92.91l.96,14.61Z"/>
            <g>
              <g class="cls-69">
                <polygon class="cls-22" points="144.75 181.26 144.61 181.22 145.93 146.18 146.07 146.22 144.75 181.26"/>
              </g>
              <g class="cls-69">
                <polygon class="cls-22" points="113.27 181.18 112.03 146.22 112.17 146.19 113.41 181.15 113.27 181.18"/>
              </g>
            </g>
          </g>
          <g>
            <path class="cls-37" d="m189.06,146.96s-17.87,1.33-51.31,1.61c-.24,0-.49,0-.73,0h-1.19c-2.08.02-4.22.03-6.41.03-1.27,0-2.57,0-3.88,0-.94,0-1.87,0-2.79,0-1.26,0-2.51,0-3.73,0-36.92-.16-54.94-1.64-54.94-1.64v-4.42l124.99-2.19v6.62Z"/>
            <path class="cls-36" d="m189.06,140.34c0,1.23-27.97,1.19-62.49,2.34-34.52,1.15-62.5,1.09-62.51-.14,0-1.23,27.97-3.15,62.49-4.3,34.52-1.15,62.5.88,62.51,2.11Z"/>
            <path class="cls-7" d="m136.04,142.38l-.21,6.19c-2.08.02-4.22.03-6.41.03v-5.83l6.63-.39Z"/>
            <path class="cls-7" d="m138.31,142.25l-.56,6.32c-.24,0-.49,0-.73,0l.42-6.27.87-.05Z"/>
            <path class="cls-7" d="m122.75,148.6c-1.26,0-2.51,0-3.73,0l-.85-5.27,4.1-.19.48,5.47Z"/>
          </g>
        </g>
      </g>
    </g>
  </g>
</svg>