<?xml version="1.0" encoding="UTF-8"?>
<svg xmlns="http://www.w3.org/2000/svg" xmlns:xlink="http://www.w3.org/1999/xlink" viewBox="0 0 275.23 253.23">
  <defs>
    <style>
      .cls-1 {
        clip-path: url(#clippath);
      }

      .cls-2 {
        fill: #f57977;
      }

      .cls-3 {
        fill: #f4a61d;
      }

      .cls-4 {
        fill: #f7b897;
      }

      .cls-5 {
        fill: #f7a18a;
      }

      .cls-6 {
        fill: #f58023;
      }

      .cls-7 {
        fill: #f1dcff;
      }

      .cls-8 {
        fill: #f34f6f;
      }

      .cls-9 {
        fill: #ffdef4;
      }

      .cls-10 {
        fill: #f5eade;
      }

      .cls-11, .cls-12 {
        fill: #fff;
      }

      .cls-13 {
        fill: #ffdc48;
      }

      .cls-14 {
        fill: #ef4623;
      }

      .cls-15 {
        fill: #ffc800;
      }

      .cls-16 {
        fill: #ffbbf4;
      }

      .cls-17 {
        fill: #fd9997;
      }

      .cls-18 {
        fill: #fcd224;
      }

      .cls-19 {
        fill: #fbc5a9;
      }

      .cls-20 {
        fill: #ff7b31;
      }

      .cls-21 {
        fill: #ff625f;
      }

      .cls-22 {
        fill: #fdef62;
      }

      .cls-23 {
        fill: #feb8ae;
      }

      .cls-24 {
        fill: #7f7879;
      }

      .cls-25 {
        fill: #66169e;
      }

      .cls-26 {
        fill: #b4fcbd;
      }

      .cls-27 {
        fill: #8b98f6;
      }

      .cls-28 {
        fill: #b898f6;
      }

      .cls-29, .cls-30 {
        fill: #a707fc;
      }

      .cls-31 {
        fill: #a5efa9;
      }

      .cls-32 {
        fill: #bda2f4;
      }

      .cls-33 {
        fill: #d09fff;
      }

      .cls-34 {
        fill: #e098f4;
      }

      .cls-35 {
        fill: #253c55;
      }

      .cls-36 {
        fill: #1fcb64;
      }

      .cls-37 {
        fill: #0a4d60;
      }

      .cls-38 {
        fill: #441168;
      }

      .cls-39 {
        fill: #3744a3;
      }

      .cls-40 {
        fill: #3755ca;
      }

      .cls-41 {
        fill: #3e3b42;
      }

      .cls-42 {
        fill: #3e2312;
      }

      .cls-43 {
        fill: #1b1e5c;
      }

      .cls-44 {
        fill: #7314c6;
      }

      .cls-45 {
        fill: #6375f3;
      }

      .cls-46 {
        fill: #2c3579;
      }

      .cls-47 {
        fill: #38475c;
      }

      .cls-48 {
        fill: #322b29;
      }

      .cls-49, .cls-50 {
        fill: #3d3d3d;
      }

      .cls-51 {
        fill: #267280;
      }

      .cls-52 {
        fill: #5b1e13;
      }

      .cls-53 {
        fill: #473933;
      }

      .cls-54 {
        fill: #5c82f6;
      }

      .cls-55 {
        fill: #7623cc;
      }

      .cls-56 {
        fill: #518798;
      }

      .cls-57 {
        fill: #7c2c19;
      }

      .cls-58 {
        mix-blend-mode: screen;
      }

      .cls-59 {
        opacity: .2;
      }

      .cls-60 {
        opacity: .41;
      }

      .cls-61 {
        opacity: .5;
      }

      .cls-62 {
        opacity: .49;
      }

      .cls-50, .cls-63, .cls-64 {
        fill-rule: evenodd;
      }

      .cls-63 {
        fill: #878787;
      }

      .cls-65 {
        isolation: isolate;
      }

      .cls-12 {
        opacity: .6;
      }

      .cls-30 {
        opacity: .3;
      }

      .cls-66 {
        fill: #e8c170;
        opacity: .35;
      }
    </style>
    <clipPath id="clippath">
      <circle class="cls-29" cx="87.38" cy="73.5" r="17.06"/>
    </clipPath>
  </defs>
  <g class="cls-65">
    <g id="Camada_1" data-name="Camada 1">
      <g>
        <path class="cls-7" d="m242.42,202.1l-208.97-.29s-37.38-19.79-23.23-54.35c7.73-18.88,40.78,6.06,26.39-21.61-5.92-11.38-5.82-25.75-.88-38.17.51-1.28,1.06-2.53,1.67-3.76,7.86-15.9,24.03-27.48,45.73-23.16,62.19,12.37,63.96,13.05,68.63.86,8.82-23,63.66-16.51,80.65,11.53.66,1.09,3.64,7.3,4.33,9.4,13.6,41.62-11,41.26,10.43,47.65,30.6,9.12,28.16,58.33-4.76,71.89Z"/>
        <g>
          <ellipse class="cls-33" cx="57.99" cy="204.14" rx="43.8" ry="6.98"/>
          <ellipse class="cls-33" cx="167.06" cy="204.72" rx="103.55" ry="9.8"/>
        </g>
        <g>
          <g>
            <path class="cls-28" d="m204.37,75.88s-6.05,90.41-9.52,117.44c-3.35,1.44-6.82,2.77-10.37,4-3.05,1.06-6.16,2.04-9.33,2.94l26.5-130.78,2.73,6.39Z"/>
            <g>
              <path class="cls-46" d="m173.02,64.88s4.12-.33,7.89,5.45c-9.83-2.24-15.12-.38-15.12-.38,0,0,2.79-5.34,7.24-5.07Z"/>
              <path class="cls-39" d="m147.75,68.3c.93.63,2.12.69,3.24.72,6.87.2,13.75.14,20.62.08-2.4-2.84-4.12-6.29-5.4-9.78,2.61-1.16,3.56-4.69,2.46-7.32-1.1-2.63-3.75-4.36-6.51-5.07-2.27-.59-4.74-.59-6.93.27-2.19.86-4.05,2.65-4.75,4.89-.7,2.24-.52,5.33,1.24,6.88-1.17,2.36-2.63,4.57-4.33,6.57-.73.85-.57,2.14.36,2.76Zm5.9-16.31c1.08-3.86,5.82-2.6,6.75-1.86.68.54,1.23,1.28,1.49,2.14.25.82.26,1.73-.1,2.5-.38.83-1.15,1.41-1.98,1.74-1.42.56-3.1.43-4.36-.45-1.26-.88-2.23-2.56-1.8-4.08Z"/>
              <path class="cls-46" d="m165.89,69.14c-.92-3.36-2.1-6.65-3.62-9.77,2.66-.81,4.65-3.45,4.7-6.22.04-2.14-1.08-4.24-2.8-5.5,1.97.91,3.67,2.38,4.5,4.36,1.1,2.63.15,6.16-2.46,7.32,1.28,3.49,3,6.94,5.4,9.78-1.91.02-3.81.03-5.72.04Z"/>
              <g>
                <polygon class="cls-27" points="198.31 67.07 109.64 67.07 98.31 196.32 185.9 206.88 198.31 67.07"/>
                <polygon class="cls-45" points="198.31 67.07 201.64 69.49 189.15 205.59 185.9 206.88 198.31 67.07"/>
                <path class="cls-45" d="m98.31,196.32l7.81-89.1,6.24-34.7,78.41-1.55s.85,102.07-15.14,134.67l-77.33-9.32Z"/>
                <path class="cls-10" d="m92.53,190.66c16.23.5,34.42-.38,52.04,2.13,10.96,1.56,21.7,3.38,31.62,5.27,9.71-29.31,15.22-104.03,15.22-124.07-26.36-.47-52.72-.95-79.08-1.42-2.64,38.95-12.25,79.78-19.8,118.08Z"/>
              </g>
              <path class="cls-11" d="m90.35,187.39c16.23.5,34.42,2.36,52.04,4.87,0,0,.01,0,.02,0,.98.12,1.95.22,2.89.29,20.7,1.57,31.72-8.41,31.72-8.41,6.26-32.48,12.21-90.64,12.21-110.68-26.36-.47-52.72-.95-79.08-1.42-2.64,38.95-12.25,77.04-19.8,115.34Z"/>
              <path class="cls-66" d="m177.16,184.14s-11.79-7.02-11.19-12.25c0,0-15.96,20.42-20.52,20.66l22.99-8.03,8.72-.38Z"/>
              <path class="cls-11" d="m145.43,192.55c20.7,1.57,31.72-8.41,31.72-8.41,0,0-7.32-.56-10.5-7.37,0,0-9.2,14.84-21.22,15.77,0,0,0,0,0,0Z"/>
              <g class="cls-60">
                <path class="cls-56" d="m132.4,80.57s-7.19-2.96-4.6-13.5h11.09l-6.49,13.5Z"/>
              </g>
              <path class="cls-46" d="m164.51,65.86c-5.58-.25-11.17-.51-16.75-.76,1.09-1.33,2.08-2.76,2.95-4.25,1.91.15,3.79.55,5.61,1.16,2.87.95,5.58,2.34,8.19,3.86Z"/>
              <g>
                <path class="cls-39" d="m168.69,80.54l-36.29.02c-1.91-4.14-1.08-9.11.45-13.6.5-1.47,1.8-2.51,3.35-2.66,11.79-1.09,23.85-1.17,36.82.57-4.04,2.13-4.68,9.84-4.32,15.66Z"/>
                <path class="cls-40" d="m166.7,68.84s-2.28,6.18-.92,9.21h-31.87l28.16-4.3s2.06-4.15,4.64-4.91Z"/>
                <path class="cls-40" d="m151.11,65.56c2.22.05,4.49.2,6.53,1.09.36.16.78.45.7.84-.06.34-.45.49-.79.58-5.11,1.34-10.46,1.28-15.69.9-1.03-.08-6.3.07-6.08-1.33.3-1.87,4.88-1.65,6.17-1.76,3.04-.27,6.1-.38,9.15-.31Z"/>
                <ellipse class="cls-40" cx="162.43" cy="67.52" rx="2.54" ry=".98"/>
              </g>
            </g>
            <g>
              <g>
                <g>
                  <polygon class="cls-29" points="165.7 125.98 162.9 125.79 163.45 122.35 166.25 122.54 165.7 125.98"/>
                  <path class="cls-27" d="m177.81,125.49l-10.02-.68s-.03-.02-.02-.04l.12-.79s.02-.04.04-.04l10.02.68s.03.02.02.04l-.12.79s-.02.04-.04.04Z"/>
                </g>
                <g>
                  <polygon class="cls-20" points="166.67 119.85 163.87 119.66 164.42 116.22 167.22 116.41 166.67 119.85"/>
                  <path class="cls-33" d="m178.79,119.37l-10.02-.68s-.03-.02-.02-.04l.12-.79s.02-.04.04-.04l10.02.68s.03.02.02.04l-.12.79s-.02.04-.04.04Z"/>
                </g>
                <g>
                  <polygon class="cls-26" points="164.73 132.1 161.93 131.92 162.48 128.48 165.27 128.67 164.73 132.1"/>
                  <path class="cls-27" d="m176.84,131.62l-10.02-.68s-.03-.02-.02-.04l.12-.79s.02-.04.04-.04l10.02.68s.03.02.02.04l-.12.79s-.02.04-.04.04Z"/>
                </g>
                <g>
                  <path class="cls-27" d="m174.61,143.66l-14.04-.95c-.19-.01-.32-.22-.28-.45h0c.04-.24.22-.42.42-.41l14.04.95c.19.01.32.22.28.45h0c-.04.24-.23.42-.42.41Z"/>
                  <path class="cls-27" d="m174.05,147.2l-14.04-.95c-.19-.01-.32-.22-.28-.45h0c.04-.24.22-.42.42-.41l14.04.95c.19.01.32.22.28.45h0c-.04.24-.23.42-.42.41Z"/>
                  <path class="cls-27" d="m173.49,150.73l-14.04-.95c-.19-.01-.32-.22-.28-.45h0c.04-.24.22-.42.42-.41l14.04.95c.19.01.32.22.28.45h0c-.04.24-.23.42-.42.41Z"/>
                  <path class="cls-27" d="m172.93,154.27l-14.04-.95c-.19-.01-.32-.22-.28-.45h0c.04-.24.22-.42.42-.41l14.04.95c.19.01.32.22.28.45h0c-.04.24-.23.42-.42.41Z"/>
                  <path class="cls-27" d="m172.37,157.8l-14.04-.95c-.19-.01-.32-.22-.28-.45h0c.04-.24.22-.42.42-.41l14.04.95c.19.01.32.22.28.45h0c-.04.24-.23.42-.42.41Z"/>
                  <path class="cls-27" d="m171.81,161.34l-14.04-.95c-.19-.01-.32-.22-.28-.45h0c.04-.24.22-.42.42-.41l14.04.95c.19.01.32.22.28.45h0c-.04.24-.23.42-.42.41Z"/>
                  <path class="cls-27" d="m171.25,164.87l-14.04-.95c-.19-.01-.32-.22-.28-.45h0c.04-.24.22-.42.42-.41l14.04.95c.19.01.32.22.28.45h0c-.04.24-.23.42-.42.41Z"/>
                </g>
              </g>
              <g>
                <g>
                  <g>
                    <polygon class="cls-29" points="136.77 131.59 131.35 165.74 121.79 165.1 127.2 130.94 136.77 131.59"/>
                    <path class="cls-25" d="m123.22,156.09c3.53-.64,6.95-1.99,10.22-3.47l-2.08,13.13-9.56-.64,1.43-9.01Z"/>
                  </g>
                  <g>
                    <polygon class="cls-11" points="119.63 140.02 115.72 164.69 106.16 164.04 110.07 139.38 119.63 140.02"/>
                    <path class="cls-25" d="m115.29,156.14c.59.11,1.17.2,1.75.25l-1.31,8.3-9.56-.64,1.3-8.22c1.77-.35,4.27-.37,7.83.31Z"/>
                  </g>
                  <g>
                    <polygon class="cls-29" points="154.01 122.44 146.98 166.8 137.42 166.15 144.45 121.79 154.01 122.44"/>
                    <path class="cls-25" d="m150.16,146.75l-3.18,20.05-9.56-.64,2.64-16.65c3.7-1.7,7.11-2.97,10.1-2.76Z"/>
                  </g>
                </g>
                <path class="cls-20" d="m155.68,109.48l-8.87.96,2.02,2.05-14.99,10.34-4.04-4.1-18.61,12.83c-.71.49-.84,1.34-.28,1.91h0c.56.56,1.58.63,2.29.14l16.03-11.06,4.04,4.1,17.56-12.11,2.02,2.05,2.83-7.11Z"/>
              </g>
            </g>
          </g>
          <g>
            <path class="cls-27" d="m129.6,94.88l1.61-10.04h4.22c.87,0,1.6.15,2.19.45.58.29,1,.71,1.26,1.26.26.55.32,1.19.2,1.94-.12.76-.4,1.4-.83,1.94-.43.54-.98.96-1.66,1.25-.68.3-1.45.44-2.33.44h-2.98s1.2-1.05,1.2-1.05l-.61,3.82h-2.27Zm2.84-3.55l-.85-1.11h2.85c.69,0,1.23-.15,1.63-.45.4-.31.65-.74.74-1.29.09-.55-.02-.98-.32-1.28-.3-.3-.8-.45-1.49-.45h-2.85s1.21-1.11,1.21-1.11l-.91,5.69Z"/>
            <path class="cls-27" d="m139.66,94.9l1.61-10.04h2.27s-1.31,8.15-1.31,8.15h4.86s-.3,1.9-.3,1.9h-7.13Z"/>
            <path class="cls-27" d="m146.84,94.91l5.94-10.03h2.23s2.76,10.05,2.76,10.05h-2.37s-2.16-8.87-2.16-8.87h.91s-5,8.86-5,8.86h-2.31Zm2.53-2.15l.85-1.76h5.04s.3,1.77.3,1.77h-6.2Z"/>
            <path class="cls-27" d="m158.79,94.92l1.61-10.04h1.87s4.59,7.24,4.59,7.24h-.91s1.16-7.23,1.16-7.23h2.23s-1.61,10.04-1.61,10.04h-1.87s-4.59-7.24-4.59-7.24h.91s-1.16,7.23-1.16,7.23h-2.23Z"/>
          </g>
          <path class="cls-10" d="m167.38,97.19l-38.9-.13s18.51,3.96,38.9.13Z"/>
        </g>
        <g>
          <g>
            <path class="cls-36" d="m204.86,134.66c.3-.41.63-.79,1-1.11,3.09-2.77,6.9-1.1,9.88.94,6.67,4.58,13.81,11.88,16.35,21.77,2.8,10.88,3.05,23.25,3.32,35.03.04,1.63.45,5.01-.03,7.26-1.15-.3-2.31-.57-3.48-.71-.48-1.49-.84-3.18-1.11-4.08-3.19-10.47-7.72-20.12-13.81-27.69-5.4-6.71-12.27-10.51-14.07-21.34-.56-3.36.06-7.48,1.95-10.08Z"/>
            <path class="cls-36" d="m237.97,198.96l-1.3-.24s.01-.05.02-.08c.16-.56.39-1.1.57-1.71.32-1.1.65-2.18,1.05-3.25.87-2.34,1.87-4.6,2.82-6.89,1.53-3.66,3.17-7.27,5.21-10.49,2.08-3.29,4.65-6.16,7.58-7.66,7.04-3.58,17.63,1.23,18.82,11.43.39,3.36-.57,7.35-2.76,9.53-1.05,1.04-2.31,1.61-3.54,1.87-1.68.36-3.37.19-4.9-.49-3.74-1.65-7.94-4.12-12.25-3.4-.43.07-.87.19-1.3.35-2.31.87-4.37,2.91-6.19,5.09-1.49,1.78-2.96,3.58-3.82,5.93Z"/>
            <path class="cls-26" d="m243.69,176.99c-1.35,3.47-2.5,7.06-3.59,10.66-.54,1.78-3,8.04-3.5,11.22l-.14-.03c-.3-.08-.97-.26-1.08-.29-.61-3.1.28-6.31.42-9.65.58-12.98.08-27.41,4.7-39.83,2.67-7.18,6.89-13.78,12.27-17.11,5.38-3.34,11.95-2.82,15.64,2.4.7.99,1.3,2.16,1.55,3.53.6,3.4-1.08,7.15-3.02,9.93-1.66,2.38-3.58,4.43-5.65,6.05-2.17,1.7-4.5,2.93-6.62,4.75-2.5,2.16-4.58,5.03-6.36,8.22-1.79,3.19-3.28,6.7-4.62,10.15Z"/>
            <path class="cls-51" d="m233.51,197.6c-.16-1-.33-2.01-.49-3.03-1.25-7.72-2.54-15.71-4.55-23.11-2.27-8.36-5.17-14.8-8.86-19.67-2.43-3.21-5.14-6.06-7.77-8.8l.27-.26c2.63,2.76,5.35,5.6,7.79,8.83,3.72,4.92,6.64,11.39,8.92,19.8,2.02,7.43,3.31,15.42,4.56,23.15.16,1.01.33,2.02.49,3.03l-.37.06Z"/>
            <path class="cls-51" d="m237.49,198.65l-.33-.17c4.54-8.56,8.53-15.33,15.14-18.07,4.43-1.75,8.65-.37,12.04.74l-.12.35c-3.33-1.09-7.48-2.46-11.78-.75-6.49,2.69-10.45,9.4-14.95,17.9Z"/>
            <path class="cls-51" d="m236.17,198.05l-.36-.07c.63-3.17,1.18-6.4,1.77-9.81,1.36-7.98,2.77-16.24,5.26-23.62,2.83-8.37,6.69-14.4,11.81-18.45l.23.29c-5.07,4-8.89,9.98-11.69,18.28-2.48,7.35-3.89,15.6-5.25,23.57-.58,3.42-1.13,6.65-1.77,9.82Z"/>
          </g>
          <g>
            <path class="cls-36" d="m45.03,154.75c-.22-.26-.47-.49-.73-.69-2.21-1.69-4.63-.36-6.47,1.18-4.13,3.45-8.4,8.74-9.49,15.53-1.19,7.46-.61,15.79-.08,23.72.07,1.09,0,3.39.46,4.88.74-.26,1.49-.51,2.26-.67.22-1.03.36-2.19.49-2.8,1.47-7.21,3.89-13.94,7.45-19.36,3.16-4.81,7.47-7.74,8.01-15.11.17-2.29-.49-5.02-1.9-6.66Z"/>
            <path class="cls-36" d="m27.04,199.78l.84-.23s-.01-.03-.02-.05c-.14-.37-.32-.72-.48-1.12-.28-.72-.56-1.43-.89-2.13-.72-1.52-1.51-2.99-2.28-4.47-1.23-2.37-2.53-4.71-4.08-6.77-1.58-2.09-3.44-3.89-5.47-4.73-4.87-2.02-11.58,1.8-11.74,8.71-.06,2.28.82,4.91,2.4,6.25.76.64,1.62.95,2.45,1.06,1.13.15,2.24-.06,3.21-.6,2.37-1.31,5-3.2,7.89-2.96.29.03.58.08.88.17,1.58.46,3.06,1.72,4.4,3.08,1.09,1.11,2.17,2.24,2.89,3.78Z"/>
            <path class="cls-26" d="m21.93,185.33c1.1,2.26,2.08,4.61,3.02,6.96.47,1.17,2.47,5.24,2.99,7.35l.09-.02c.19-.07.62-.23.7-.25.22-2.11-.56-4.23-.86-6.46-1.17-8.69-1.71-18.42-5.51-26.51-2.2-4.68-5.38-8.88-9.14-10.83-3.76-1.95-8.07-1.24-10.19,2.47-.4.71-.73,1.52-.81,2.46-.19,2.32,1.15,4.75,2.6,6.51,1.24,1.51,2.63,2.78,4.1,3.76,1.53,1.02,3.15,1.72,4.66,2.83,1.78,1.31,3.33,3.13,4.7,5.17,1.37,2.05,2.57,4.32,3.66,6.57Z"/>
            <path class="cls-51" d="m29.9,198.62l-.25-.02c.05-.68.09-1.37.14-2.06.73-10.7,1.48-21.77,6.31-29.6,1.42-2.31,3.05-4.37,4.62-6.37l.2.15c-1.57,1.99-3.19,4.05-4.6,6.34-4.8,7.78-5.55,18.82-6.28,29.49-.05.69-.09,1.38-.14,2.06Z"/>
            <path class="cls-51" d="m27.33,199.55c-3.49-5.46-6.51-9.76-10.96-11.21-2.94-.91-5.6.24-7.74,1.15l-.1-.23c2.17-.93,4.88-2.1,7.91-1.16,4.53,1.48,7.58,5.81,11.1,11.31l-.21.13Z"/>
            <path class="cls-51" d="m28.17,199.07c-.61-2.1-1.17-4.24-1.76-6.51-1.38-5.28-2.81-10.74-4.89-15.55-2.35-5.42-5.24-9.23-8.83-11.64l.14-.21c3.63,2.44,6.55,6.28,8.92,11.75,2.09,4.82,3.52,10.29,4.91,15.59.59,2.26,1.15,4.4,1.76,6.5l-.24.07Z"/>
          </g>
        </g>
        <g>
          <g>
            <g>
              <g>
                <polygon class="cls-23" points="75.17 197.63 74.09 193.14 66.6 194.89 67.9 200.25 71.91 201.76 75.17 197.63"/>
                <g>
                  <path d="m72.13,205.72c4.98-.3,10.77.41,15.43-1.74.11.23.18.44.18.59.08.9-.56,1.17-1.43,1.47-2.87,1.1-5.9,1.24-8.94.85-2.97-.41-5.76,1.14-8.8,1.21-.12-.53-.2-1.05-.25-1.57,1.21-.49,2.74-.73,3.82-.8Z"/>
                  <path class="cls-49" d="m72.13,205.72c-1.08.07-2.61.31-3.82.8-.1-.94-.13-1.86-.19-2.78-.1-1.05-.52-2.58-.22-3.48l7.26-2.62c.65,2.03,4.13,3.57,6.02,3.93,1.51.35,3.75-.41,4.98.52.39.28,1.07,1.19,1.39,1.89-4.65,2.15-10.45,1.45-15.43,1.74Z"/>
                </g>
              </g>
              <g>
                <polygon class="cls-23" points="32.5 198.43 33.81 194.33 27 192.1 25.44 197.01 27.91 200.15 32.5 198.43"/>
                <g>
                  <path d="m26.17,203.41c4.11,2.17,8.39,5.54,13.14,6.07-.03.24-.07.44-.14.56-.37.76-1.01.66-1.85.48-2.82-.51-5.3-1.86-7.54-3.65-2.17-1.76-5.14-1.88-7.6-3.3.16-.48.35-.93.56-1.37,1.2.19,2.53.74,3.43,1.21Z"/>
                  <path class="cls-49" d="m26.17,203.41c-.89-.47-2.22-1.02-3.43-1.21.37-.79.8-1.55,1.19-2.31.43-.89.84-2.31,1.51-2.88l7.06,1.42c-.46,1.93,1.56,4.84,2.9,6.05,1.03,1.01,3.19,1.48,3.72,2.82.18.41.27,1.47.19,2.18-4.75-.53-9.03-3.9-13.14-6.07Z"/>
                </g>
              </g>
              <path class="cls-38" d="m44.8,128.85c-4.33-.45-8.21,2.68-8.66,7.01l-2.82,29.73c-.44,4.16,2.58,7.89,6.74,8.33,4.16.44,7.89-2.58,8.33-6.74l3.42-29.66c.45-4.33-2.68-8.21-7.01-8.66Z"/>
              <path class="cls-38" d="m47.95,169.03c1.5-3.91-.45-8.29-4.36-9.79-3.91-1.5-8.29.45-9.79,4.36-.06.16-.11.32-.16.48l-8.92,26.08,12.21,4.69,10.82-25.35c.07-.15.14-.31.2-.47Z"/>
              <rect class="cls-29" x="28.32" y="184.84" width="5.3" height="15.45" rx=".99" ry=".99" transform="translate(-159.9 152.47) rotate(-69)"/>
              <path class="cls-4" d="m63.28,172.62c-1.25,0-2.49-.34-3.59-1-1.6-.96-2.73-2.49-3.19-4.3s-.17-3.69.79-5.3c.96-1.6,2.49-2.73,4.3-3.19,1.81-.45,3.69-.17,5.3.79,1.6.96,2.73,2.49,3.19,4.3h0c.45,1.81.17,3.69-.79,5.3-.96,1.6-2.49,2.73-4.3,3.19-.57.14-1.14.21-1.71.21Zm.02-13.68c-.54,0-1.09.07-1.63.2-1.73.43-3.19,1.51-4.11,3.04-.92,1.53-1.19,3.33-.76,5.06.43,1.73,1.51,3.19,3.04,4.11,1.53.92,3.33,1.19,5.06.76,1.73-.43,3.19-1.51,4.11-3.04.92-1.53,1.19-3.33.76-5.06h0c-.43-1.73-1.51-3.19-3.04-4.11-1.05-.63-2.23-.96-3.43-.96Z"/>
              <path class="cls-4" d="m63.29,172.45c-1.25,0-2.48-.32-3.58-.95-1.62-.93-2.76-2.42-3.21-4.2-.44-1.78-.14-3.63.86-5.21,1-1.58,2.57-2.71,4.42-3.17,1.85-.46,3.76-.21,5.39.72,1.62.93,2.76,2.42,3.21,4.2.44,1.78.14,3.63-.86,5.21-1,1.58-2.57,2.71-4.42,3.17-.6.15-1.21.22-1.81.22Zm.31-13.43c-.58,0-1.16.07-1.74.21-1.77.44-3.27,1.52-4.23,3.03-.95,1.51-1.24,3.27-.82,4.96.42,1.69,1.51,3.11,3.06,4,1.55.89,3.38,1.13,5.15.69,1.77-.44,3.27-1.52,4.23-3.03.95-1.51,1.24-3.27.82-4.96h0c-.42-1.69-1.51-3.11-3.06-4-1.05-.6-2.22-.9-3.42-.9Z"/>
              <path class="cls-38" d="m54.17,129c-4.22,1.05-6.79,5.33-5.74,9.55l7.52,28.9c1.01,4.06,5.12,6.53,9.18,5.52,4.06-1.01,6.53-5.12,5.52-9.18l-6.93-29.05c-1.05-4.22-5.33-6.79-9.55-5.74Z"/>
              <path class="cls-38" d="m70.65,163.79c-1.01-4.06-5.12-6.53-9.18-5.52-4.06,1.01-6.53,5.12-5.52,9.18.04.17.09.33.14.49l7.65,26.48,12.69-3.16-5.68-26.97c-.03-.17-.06-.33-.1-.5Z"/>
              <rect class="cls-29" x="62.84" y="191.49" width="15.45" height="5.3" rx=".99" ry=".99" transform="translate(-44.87 22.84) rotate(-14)"/>
              <polygon class="cls-41" points="64.24 136.92 62.36 127.05 38.59 127.05 36.32 134.97 64.24 136.92"/>
              <polygon class="cls-24" points="50.76 147.59 50.54 147.53 51.75 142.75 54.32 140.62 55.88 131.97 56.11 132.01 54.53 140.74 51.96 142.88 50.76 147.59"/>
              <path class="cls-11" d="m35.25,95.22c.41,3.26,1.07,37.64,1.07,37.64,0,0,11.77-.39,17.76-.58,4.13-.14,9.57-.11,9.57-1.41,0-2.9,1.31-12.89,1.26-14.63-.07-2.54,1.23-21.74,1.23-21.74l-11.47-5.03-.36-.16-2.76-.08h-4.57l-.13.05-11.7,5.21.1.73Z"/>
              <path class="cls-23" d="m60.31,102.7l7.56,10.83,2.08,2.98.3.42c.23.33.48.63.75.88.02.02.04.04.06.06.08.08.16.15.24.22,1.59,1.33,3.64,1.5,5.18.35.05-.03.1-.07.14-.11.09-.07.18-.15.27-.24.09-.08.17-.17.25-.26.01-.01.02-.03.04-.04.05-.06.1-.12.14-.18,0-.01.01-.02.02-.02.24-.32.44-.67.6-1.04h0c.41-.94.56-2.03.45-3.12-.11-1.14-.5-2.29-1.19-3.27l-4.39-6.3-5.54-7.93c-1.26-1.81-3.18-2.58-4.87-2.17-.64.16-1.25.49-1.78,1.01-1.92,1.86-2.06,5.43-.31,7.93Z"/>
              <path class="cls-26" d="m54.42,136.73c.12-.03,2.14,1.23,4.36-.19,3.76-2.41,5.25-1.81,5.25-1.81,0,0,.92-16.77.88-18.5-.07-2.54,1.04-22.68,1.04-22.68l-11.05-4.03h0l-1.04,14.28s-2.01,23.25.56,32.93Z"/>
              <path class="cls-26" d="m31.14,134.61s0,0,0,0c.05.11,1.17,2.73,4.24,3.81.05.02.09.03.14.05,5,1.65,14.78-.17,16.07-.47,4.07-14.98,2.27-34.19,2.27-34.19l-7.01-14.53-.09-.18-11.5,5.01-.02,1.11c.18,1.45-.09,8.71-.46,16.57-.21,4.49-.44,9.18-.64,13.1-.23,4.58-3.02,9.72-3.02,9.72Z"/>
              <path class="cls-31" d="m31.14,134.61s0,0,0,0c.05.11,1.17,2.73,4.24,3.81.05.02.09.03.14.05-.55-6.85,4.44-17.67,6.42-19.36,2.58-2.22-1.91-11.52-1.91-11.52l-5.24,4.21c-.21,4.49-.44,9.18-.64,13.1-.23,4.58-3.02,9.72-3.02,9.72Z"/>
              <path class="cls-23" d="m71.08,114.64c-.42,2.9,1.58,5.59,4.47,6.01.71.1,1.41.06,2.06-.1,0,0,0,0,0,0,1.81-.33,11.51-2.22,16.25-3.12.08-2.19.21-4.63.31-6.56-4.74-.23-17.21-1-17.21-.99-2.76-.23-5.5,1.99-5.91,4.77Z"/>
              <path class="cls-31" d="m53.49,127.91c1.68-9.6.37-24.11.37-24.11l-.37,24.11Z"/>
              <path class="cls-11" d="m55.65,109c.87,0,.88-1.36,0-1.36s-.88,1.36,0,1.36h0Z"/>
              <path class="cls-11" d="m55.99,114.08c.87,0,.88-1.36,0-1.36s-.88,1.36,0,1.36h0Z"/>
              <path class="cls-24" d="m36.3,165.85c-.96,0-1.71-.11-2.25-.33-.67-.28-.76-.63-.77-.66l.22-.05s.36,1.18,4.67.71l.02.23c-.7.08-1.33.12-1.89.12Z"/>
              <path class="cls-24" d="m59.25,169.14c-1.8,0-3.1-.73-3.12-.74l.11-.2s2.1,1.17,4.61.5l.06.22c-.58.16-1.14.22-1.66.22Z"/>
              <path class="cls-31" d="m41.87,98.01c.17.11,6.1,3.39,7.68,7.96,1.58,4.57,2.71,8.19,2.71,8.19l-5.42,1.58-4.97-17.72Z"/>
            </g>
            <g>
              <path class="cls-54" d="m58.06,141.01s-6.74,5.22-9.93.33c-3.18-4.89,4.31-8.95,4.31-8.95l5.61,8.62Z"/>
              <g>
                <path class="cls-39" d="m113.59,104.05l5.28-3.52h.01s0,0,0,0l7.17-9.6-1.4-2.14h0s-11.39,3.12-11.39,3.12h0s0,0,0,0l-61.1,40.67,2.29,3.51,3.33,5.11,55.81-37.15Z"/>
                <polygon class="cls-54" points="124.14 89.65 124.67 90.45 116.87 95.11 114.63 92.26 124.14 89.65"/>
                <path class="cls-46" d="m113.59,104.05l5.28-3.52h.01s-5.62-8.63-5.62-8.63h0s-61.1,40.67-61.1,40.67l2.29,3.51c9.94-6.98,49.93-34.92,54.08-35.05,1.74-.05,3.52,1.29,5.06,3.01Z"/>
              </g>
              <g>
                <g>
                  <rect class="cls-15" x="49.7" y="135.22" width="12.01" height="2.38" transform="translate(-28.17 257.54) rotate(-123.09)"/>
                  <rect class="cls-43" x="54.51" y="130.4" width="2.38" height="12.01" transform="translate(-65.43 52.53) rotate(-33.09)"/>
                </g>
                <g>
                  <rect class="cls-15" x="51.9" y="133.78" width="12.01" height="2.38" transform="translate(-23.56 257.17) rotate(-123.09)"/>
                  <rect class="cls-43" x="56.72" y="128.96" width="2.38" height="12.01" transform="translate(-64.29 53.5) rotate(-33.09)"/>
                </g>
                <g>
                  <polygon class="cls-15" points="62.19 139.35 60.07 136.1 74.95 128.99 75.66 130.23 62.19 139.35"/>
                  <polygon class="cls-43" points="62.19 139.35 60.07 136.1 74.95 128.99 75.66 130.23 62.19 139.35"/>
                </g>
              </g>
              <path class="cls-37" d="m124.84,89.07l2.19-.89c.35-.03.6.34.43.65l-1.67,1.7-.94-1.45Z"/>
              <g class="cls-59">
                <path d="m113.53,92.34c.51.58.97,1.2,1.42,1.82.45.62.89,1.25,1.31,1.89.42.64.83,1.29,1.22,1.95.39.66.77,1.33,1.1,2.03-.51-.58-.97-1.2-1.42-1.81-.45-.62-.89-1.25-1.31-1.89-.42-.64-.83-1.29-1.22-1.95-.39-.66-.77-1.33-1.1-2.03Z"/>
              </g>
            </g>
            <g>
              <path class="cls-23" d="m67.63,121.25c-.38,1.69.03,3.32-.42,5.4-3.77-.05-16.07.65-17.97.44-4.12-.46-7.03-3.77-7.03-3.77l-2.15-3.91-3.94-7.18c3.73-1.81,10.81-2.52,10.81-2.52l3.09,6.13.96,1.9s12.28,1.8,16.65,3.51Z"/>
              <path class="cls-17" d="m50.03,115.84c-2.44.89-7.28,2.62-9.96,3.57l-3.94-7.18c3.73-1.81,10.81-2.52,10.81-2.52l3.09,6.13Z"/>
              <g>
                <path class="cls-23" d="m67.63,121.25l.75-.17,4.71-1.38,2.57-.73c.22-.06.44-.06.66,0l1.99.52s-.07.93-1.12,1.02l-1.25.07-1.42.68v.29s5.66,3.66,5.84,4.29c.17.63-.4.88-.6.89-.21,0-.48-.16-.48-.16,0,0-.03.85-1.17,1.04,0,0,.28,1.19-1.09,1.08,0,0-.64.52-1.41.43-.77-.09-4.58-1.29-4.96-1.46-.38-.17-5.71-1.65-5.71-1.65l2.7-4.75Z"/>
                <path class="cls-17" d="m79.41,126.62c-.02.05-.82-.18-1.72-.66-.9-.48-1.58-.94-1.55-.99.03-.06.76.33,1.65.8.89.47,1.64.79,1.62.85Z"/>
                <path class="cls-17" d="m78.1,127.59s-.18-.02-.45-.1c-.27-.08-.64-.19-1.05-.34-.41-.15-.75-.35-1-.47-.25-.13-.4-.2-.4-.22,0-.03.19-.01.46.09.27.09.62.27,1.01.41.4.15.77.28,1.02.4.26.12.41.21.4.24Z"/>
                <path class="cls-17" d="m77.15,128.7c-.02.05-.8-.17-1.74-.51-.47-.17-.88-.32-1.2-.33-.31-.02-.5.07-.51.04-.01-.02.16-.17.51-.19.35-.03.81.1,1.27.28.94.34,1.68.65,1.66.71Z"/>
              </g>
              <path class="cls-26" d="m35.27,94.11s-4.43,1.55-4.02,6.28c.41,4.73,3.68,16.72,3.68,16.72l14.5-4.21s-2.48-8.7-3.92-11.34c-4.13-7.61-10.24-7.45-10.24-7.45Z"/>
            </g>
            <g>
              <g>
                <path class="cls-23" d="m101.38,108.34c.23-.04.56.06.71.25.15.18.21.42.25.65.3,1.64-.06,3.39-.99,4.77-.4.59-1.01,1.16-1.72,1.08l-.36-.75c-.02-.36-.31-1.14-.18-1.48.53-1.45.94-1.09,1.61-3.76.07-.26.22-.67.69-.75Z"/>
                <path class="cls-23" d="m100.34,110.19c.03-.41.03-.82-.06-1.18-.1-.36-.32-.67-.63-.77-.5-.15-1.1.31-1.43.89-.33.58-.44,1.26-.55,1.92-.23,1.39-.46,2.79-.68,4.18l.43-.02c.07.34.43.43.73.29.3-.14.53-.46.73-.77.85-1.36,1.36-2.98,1.47-4.55Z"/>
                <path class="cls-23" d="m97.46,112.88c.17-.98.02-1.98-.14-2.97-.06-.34-.12-.7-.33-.98-.21-.28-.62-.45-.92-.29-.29.15-.38.53-.42.85-.3,2.04-.46,4.09-.47,6.16l1.48-.29c.88-.45.64-1.5.81-2.47Z"/>
                <path class="cls-23" d="m95.62,113.86c.17-.98.02-1.98-.14-2.97-.06-.34-.12-.7-.33-.98-.21-.28-.62-.45-.92-.29-.29.15-.38.53-.42.85-.3,2.04-.46,4.09-.47,6.16l1.48-.29c.88-.45.64-1.5.81-2.47Z"/>
              </g>
              <path class="cls-23" d="m93.33,116.62s-.32,1,1.15,1.09c1.47.09,6.18-2.15,6.78-3.59.6-1.44-1.98-.76-3.02-.43-1.03.33-4.91,2.93-4.91,2.93Z"/>
            </g>
            <path class="cls-26" d="m65.01,111.79s3.51,4.07,3.51,4.47c0,.17,1.44-1.53,3.08-3.51,2.17-2.63,4.68-5.76,4.68-5.76-7.36-12.48-10.32-13.43-10.32-13.43-.87,2.21-1.31,4.73-1.49,7.16-.43,5.75.55,11.08.55,11.08Z"/>
            <path class="cls-31" d="m65.01,111.79s3.51,4.07,3.51,4.47c0,.17,1.44-1.53,3.08-3.51-1.41-.76-4.38-2.52-5.05-4.28-.57-1.5-1.5-5.25-2.09-7.75-.43,5.75.55,11.08.55,11.08Z"/>
          </g>
          <g>
            <path class="cls-52" d="m56.92,78.27c5.08-.62,4.48-8.18,1.19-9.33-1.62-.56-2.46.06-2.89.72-.42.65-1.2.97-1.98.9-1.85-.17-4.9-.25-6.68.73-2.68,1.47-1.65,3.91-1.65,3.91,0,0-1.99.61-2.01,2.39-.05,3.66,4.83,6.69,4.83,6.69l9.19-6.02Z"/>
            <g>
              <path class="cls-23" d="m46.77,89.11c1.39,1.61,3.39,3.03,4.62,3.16,2.28.26,3.47-2.07,3.47-2.07l.05-3.13s2.27.98,2.95-.81c.68-1.79-.8-8.78-.99-9.85,0,0-3.28.75-7.04-1.48.02.03.65,1.01.76,2.13.09.93-.4,1.83-1.21,2.3h-.01c-.25-.77-.94-1.3-1.72-1.25-.94.06-1.65.95-1.58,1.99.06.99.81,1.76,1.69,1.78l-.98,7.22Z"/>
              <path class="cls-17" d="m56.95,76.81c-.03-.17-.06-.31-.08-.4,0,0-3.28.75-7.05-1.48,0,0,.59.91.74,1.98,1.83.32,4.4.56,6.38-.1Z"/>
              <path class="cls-17" d="m54.91,87.07s-2.7-1.16-3.55-2.19c0,0,.98,2.7,3.55,3.61v-1.42Z"/>
              <path class="cls-57" d="m48.62,73.87s-.08-.02-.11-.06c-.26-.42-.96-.87-.97-.88-.06-.04-.07-.11-.04-.17.04-.06.11-.07.17-.04.03.02.75.49,1.04.96.04.06.02.14-.04.17-.02.01-.04.02-.07.02Z"/>
              <path class="cls-57" d="m56.87,76.54c-.06,0-.11-.04-.12-.1-.01-.07.03-.13.1-.15.01,0,1.23-.27,1.88-1.17.04-.06.12-.07.17-.03.06.04.07.12.03.17-.71.98-1.98,1.25-2.03,1.26,0,0-.02,0-.03,0Z"/>
              <path class="cls-2" d="m47.06,80.5s-.09-.03-.1-.08c-.01-.05.02-.11.08-.12l.92-.19-.56-1.16s0-.11.05-.13c.05-.02.11,0,.13.05l.68,1.39-1.18.24s-.01,0-.02,0Z"/>
              <path class="cls-2" d="m55.23,82.01c-.05,0-.1-.04-.1-.09,0-.06.04-.1.09-.11,0,0,.42-.03,1.18-.31.12-.04.18-.11.21-.19.09-.32-.4-.92-.72-1.31-.13-.16-.25-.31-.31-.41-.28-.46-.2-1.14-.2-1.17,0-.06.06-.09.11-.09.06,0,.09.06.09.11,0,0-.07.64.17,1.04.05.09.17.23.29.39.39.48.87,1.08.75,1.49-.04.15-.15.26-.33.33-.8.3-1.22.32-1.24.33,0,0,0,0,0,0Z"/>
              <g class="cls-61">
                <path class="cls-8" d="m52.79,80.56c-.04.37-.71.6-1.51.52-.8-.08-1.41-.45-1.37-.82.04-.37.71-.6,1.51-.52.8.08,1.41.45,1.37.82Z"/>
              </g>
              <path class="cls-52" d="m53.76,78.8c.01.2-.1.37-.26.38-.15,0-.29-.14-.3-.35-.01-.2.1-.37.26-.38.15,0,.29.14.3.35Z"/>
              <path class="cls-52" d="m56.57,78.86c-.02.2-.16.35-.31.34-.15-.01-.27-.19-.25-.39.02-.2.16-.35.31-.34.15.01.27.19.25.39Z"/>
              <path class="cls-52" d="m52.83,77.68c-.08,0-.15-.04-.2-.1-.08-.11-.06-.27.06-.35.03-.02.8-.57,1.62-.1.12.07.16.22.09.34-.07.12-.22.16-.34.09-.54-.31-1.06.05-1.08.07-.04.03-.09.05-.14.05Z"/>
              <path class="cls-52" d="m57,77.94c-.06,0-.13-.02-.18-.07-.41-.41-.87-.14-.92-.1-.11.08-.27.04-.35-.07-.08-.11-.05-.27.07-.34.28-.19.97-.41,1.55.16.1.1.1.26,0,.35-.05.05-.11.07-.18.07Z"/>
            </g>
            <g>
              <path class="cls-42" d="m56.09,82.88s-.07.74-.47,1.24c-.15.18-.34.34-.59.41-.51.15-.77-.25-.9-.64-.11-.33-.12-.65-.12-.65,0,0,1.01.21,2.09-.35Z"/>
              <path class="cls-14" d="m55.62,84.12c-.15.18-.34.34-.59.41-.51.15-.77-.25-.9-.64.5-.24,1.17-.2,1.49.23Z"/>
            </g>
            <path class="cls-57" d="m57.1,71.14s1.15.16,1.21,1.23c.05,1.07-.94,1.91-2.66,1.42,0,0-1.8,1.99-4.08.11,0,0,1.93,1.23,3.65-1.07,0,0,1.45.89,2.17-.16.72-1.05-.3-1.53-.3-1.53Z"/>
          </g>
        </g>
        <g>
          <g>
            <g>
              <circle class="cls-25" cx="85.07" cy="73.5" r="17.06"/>
              <circle class="cls-25" cx="85.07" cy="73.5" r="17.06"/>
            </g>
            <circle class="cls-21" cx="87.38" cy="73.5" r="17.06"/>
            <g>
              <circle class="cls-29" cx="87.38" cy="73.5" r="17.06"/>
              <g class="cls-1">
                <g>
                  <circle class="cls-29" cx="85.07" cy="73.5" r="17.06"/>
                  <circle class="cls-30" cx="85.07" cy="73.5" r="17.06"/>
                </g>
                <circle class="cls-29" cx="87.38" cy="73.5" r="17.06"/>
              </g>
            </g>
            <circle class="cls-11" cx="87.38" cy="73.5" r="12.4"/>
            <circle class="cls-29" cx="87.38" cy="73.5" r="8.03"/>
            <circle class="cls-11" cx="87.38" cy="73.5" r="3.68" transform="translate(-4.23 141.65) rotate(-76.72)"/>
            <path class="cls-46" d="m87.38,73.85c-.12,0-.23-.06-.29-.16-.1-.16-.06-.38.11-.48l21.66-13.78c.16-.1.38-.06.48.11.1.16.06.38-.11.48l-21.66,13.78c-.06.04-.12.05-.19.05Z"/>
            <polygon class="cls-46" points="104.14 63.06 104.44 59.31 107.75 56.73 107.59 60.9 104.14 63.06"/>
            <polygon class="cls-46" points="111.35 61.76 107.75 60.67 104.14 62.81 108.08 64.19 111.35 61.76"/>
          </g>
          <g>
            <path class="cls-32" d="m255.5,76.84v33.29c0,.87-.71,1.58-1.58,1.58h-38.58c-.87,0-1.58-.71-1.58-1.58v-33.29c0-.87.71-1.58,1.58-1.58h38.58c.87,0,1.58.71,1.58,1.58Z"/>
            <g>
              <path class="cls-29" d="m238.61,95.7c0,2.7-1.02,5.17-2.7,7.02-1.92,2.13-4.7,3.46-7.79,3.46-5.79,0-10.49-4.69-10.49-10.49,0-1.44.29-2.81.81-4.05l9.67,4.05-.5-10.47c.16,0,.33-.01.5-.01,5.79,0,10.49,4.69,10.49,10.49Z"/>
              <path class="cls-20" d="m226.59,83.49c-3.13.14-5.91,1.66-7.73,3.97-.59.74-1.08,1.56-1.45,2.45l9.67,4.05-.5-10.47Z"/>
            </g>
            <g>
              <g>
                <rect class="cls-29" x="244.66" y="88.47" width="1.44" height="1.44"/>
                <rect class="cls-11" x="247.05" y="89.01" width="5.19" height=".36" rx=".02" ry=".02"/>
              </g>
              <g>
                <rect class="cls-20" x="244.66" y="85.91" width="1.44" height="1.44"/>
                <rect class="cls-11" x="247.05" y="86.45" width="5.19" height=".36" rx=".02" ry=".02"/>
              </g>
              <g>
                <rect class="cls-26" x="244.66" y="91.04" width="1.44" height="1.44"/>
                <rect class="cls-11" x="247.05" y="91.58" width="5.19" height=".36" rx=".02" ry=".02"/>
              </g>
              <g>
                <path class="cls-11" d="m252.06,96.99h-7.23c-.1,0-.18-.08-.18-.18h0c0-.1.08-.18.18-.18h7.23c.1,0,.18.08.18.18h0c0,.1-.08.18-.18.18Z"/>
                <path class="cls-11" d="m252.06,98.47h-7.23c-.1,0-.18-.08-.18-.18h0c0-.1.08-.18.18-.18h7.23c.1,0,.18.08.18.18h0c0,.1-.08.18-.18.18Z"/>
                <path class="cls-11" d="m252.06,99.95h-7.23c-.1,0-.18-.08-.18-.18h0c0-.1.08-.18.18-.18h7.23c.1,0,.18.08.18.18h0c0,.1-.08.18-.18.18Z"/>
                <path class="cls-11" d="m252.06,101.43h-7.23c-.1,0-.18-.08-.18-.18h0c0-.1.08-.18.18-.18h7.23c.1,0,.18.08.18.18h0c0,.1-.08.18-.18.18Z"/>
                <path class="cls-11" d="m252.06,102.91h-7.23c-.1,0-.18-.08-.18-.18h0c0-.1.08-.18.18-.18h7.23c.1,0,.18.08.18.18h0c0,.1-.08.18-.18.18Z"/>
                <path class="cls-11" d="m252.06,104.39h-7.23c-.1,0-.18-.08-.18-.18h0c0-.1.08-.18.18-.18h7.23c.1,0,.18.08.18.18h0c0,.1-.08.18-.18.18Z"/>
                <path class="cls-11" d="m252.06,105.88h-7.23c-.1,0-.18-.08-.18-.18h0c0-.1.08-.18.18-.18h7.23c.1,0,.18.08.18.18h0c0,.1-.08.18-.18.18Z"/>
              </g>
            </g>
            <path class="cls-39" d="m255.5,76.84v2.78h-41.75v-2.78c0-.87.71-1.58,1.58-1.58h38.58c.87,0,1.58.71,1.58,1.58Z"/>
            <g>
              <path class="cls-11" d="m249.23,77.43c0,.4-.33.73-.73.73s-.73-.33-.73-.73.33-.73.73-.73.73.33.73.73Z"/>
              <path class="cls-11" d="m251.61,77.43c0,.4-.33.73-.73.73s-.73-.33-.73-.73.33-.73.73-.73.73.33.73.73Z"/>
              <path class="cls-11" d="m253.88,77.43c0,.4-.33.73-.73.73s-.73-.33-.73-.73.33-.73.73-.73.73.33.73.73Z"/>
            </g>
            <path class="cls-26" d="m238.61,95.7c0,2.7-1.02,5.17-2.7,7.02l-7.79-7.02-.5-10.47c.16,0,.33-.01.5-.01,5.79,0,10.49,4.69,10.49,10.49Z"/>
          </g>
          <g>
            <g>
              <rect class="cls-25" x="102.3" y="149.5" width="4.63" height="33.42" rx="1.1" ry="1.1" transform="translate(-61.9 270.35) rotate(-89.83)"/>
              <path class="cls-55" d="m96.51,167.74v-3.1c.01-.42.35-.76.77-.76h-2.92c-.49,0-.9.39-.9.88v2.84c0,.49.39.9.88.9h2.92c-.42,0-.76-.34-.76-.76Z"/>
            </g>
            <g>
              <rect class="cls-25" x="102.19" y="188.44" width="4.63" height="33.42" rx="1.1" ry="1.1" transform="translate(-100.95 309.06) rotate(-89.83)"/>
              <path class="cls-55" d="m96.4,206.68v-3.1c.01-.42.35-.76.77-.76h-2.92c-.49,0-.9.39-.9.88v2.84c0,.49.39.9.88.9h2.92c-.42,0-.76-.34-.76-.76Z"/>
            </g>
            <g>
              <g>
                <path class="cls-34" d="m100.4,188.95h.03c.61,0,1.1-.57,1.11-1.27v-2.01s.01-2.01.01-2.01c0-.71-.49-1.28-1.1-1.28h-.03c-4.7-.01-8.5-4.44-8.49-9.89v-4s-2,0-2,0v4c-.03,5.45,4.38,9.88,9.83,9.9h.04c.71,0,1.28.58,1.27,1.28v2.01s-.01,2.01-.01,2.01c0,.71-.58,1.28-1.28,1.27h-.04c-5.45-.02-9.88,4.39-9.9,9.84v4s2,0,2,0v-4c.03-5.45,3.85-9.86,8.55-9.85Z"/>
                <path class="cls-9" d="m108.1,183.68c0-.71.58-1.28,1.28-1.27h0c5.45.02,9.88-4.39,9.9-9.84v-4s-2,0-2,0v4c-.03,5.45-3.85,9.86-8.55,9.85h0c-.61,0-1.1.57-1.11,1.27v2.01s-.01,2.01-.01,2.01c0,.71.49,1.28,1.1,1.28h0c4.7.01,8.5,4.44,8.49,9.89v4s2,0,2,0v-4c.03-5.45-4.38-9.88-9.83-9.9h0c-.71,0-1.28-.58-1.27-1.28v-2.01s.01-2.01.01-2.01Z"/>
                <path class="cls-16" d="m108.7,188.98h0c-.61,0-1.1-.58-1.1-1.28v-2.01s.01-2.01.01-2.01c0-.71.5-1.28,1.11-1.27h0c4.7.01,8.53-4.39,8.54-9.85v-4s-25.33-.07-25.33-.07v4c-.03,5.45,3.77,9.88,8.47,9.89h.03c.61,0,1.1.58,1.1,1.28v2.01s-.01,2.01-.01,2.01c0,.71-.5,1.28-1.11,1.27h-.03c-4.7-.01-8.53,4.39-8.54,9.84v4s25.33.07,25.33.07v-4c.03-5.45-3.77-9.88-8.47-9.89Z"/>
              </g>
              <path class="cls-29" d="m109.35,195.19c-2.42,0-4.38-1.98-4.37-4.39l.02-7.12c0-2.42,1.98-4.38,4.39-4.37,2.18,0,4.13-1.03,5.37-2.64l-20.36-.06c1.23,1.62,3.18,2.66,5.36,2.67h.04c2.42,0,4.38,1.98,4.37,4.39l-.02,7.12c0,2.42-1.98,4.38-4.39,4.37h-.04c-3.73-.01-6.77,3.02-6.79,6.75v.89s23.16.07,23.16.07v-.89c.01-3.73-3.01-6.77-6.74-6.79Z"/>
              <g>
                <path class="cls-12" d="m96.11,192.98h2.1c.23,0,.43-.13.51-.35.24-.63.51-1.2.82-1.69.22-.36-.04-.83-.47-.83h-1.3c-.12,0-.24.03-.33.11-.66.51-1.26,1.16-1.78,1.91-.24.36.02.85.46.85Z"/>
                <rect class="cls-12" x="94.3" y="169.12" width="2.98" height="3.97" rx="1.46" ry="1.46" transform="translate(-75.59 266.4) rotate(-89.83)"/>
                <path class="cls-12" d="m102.93,185.68v-2.01c0-.71-.26-1.28-.58-1.28h-.02c-2.06,0-3.8-2.94-4.37-6.98-.1-.73-.71-1.27-1.44-1.27h-.85c-.96,0-1.67.9-1.42,1.83,1.02,3.74,3.67,6.41,6.77,6.42h.03c.52,0,.94.57.94,1.28v2.01s0,1.29,0,1.29c0,.26.21.47.47.47h0c.26,0,.47-.21.47-.47v-1.29Z"/>
                <path class="cls-12" d="m97.69,198.82c0-.69.04-1.36.1-2.01.07-.75-.51-1.4-1.27-1.4h-1.33c-.61,0-1.15.43-1.26,1.03-.14.76-.22,1.55-.22,2.37v.93c0,.71.57,1.28,1.27,1.28h1.41c.71,0,1.28-.56,1.28-1.27v-.93Z"/>
              </g>
            </g>
          </g>
          <g>
            <g>
              <rect class="cls-29" x="232.92" y="122.39" width="21.74" height="13.11" rx="2.51" ry="2.51"/>
              <path class="cls-29" d="m242.24,134.59l-2.3,4.57c-.22.45-.87.44-1.08-.01l-2.14-4.53,5.52-.03Z"/>
            </g>
            <g>
              <circle class="cls-7" cx="249.5" cy="128.91" r="1.04"/>
              <circle class="cls-7" cx="243.93" cy="128.91" r="1.04"/>
              <circle class="cls-7" cx="238.36" cy="128.91" r="1.04"/>
            </g>
          </g>
          <g>
            <g>
              <path class="cls-18" d="m81.48,142.44c.89,5,4.87,8.63,9.49,9.11.92.1,1.88.07,2.83-.1.2-.04.41-.08.61-.13.85-.21,1.66-.52,2.41-.92,1.72-.93,3.13-2.33,4.11-4.01,1.28-2.2,1.81-4.9,1.31-7.65-.77-4.34-3.87-7.64-7.69-8.76-1.47-.43-3.04-.53-4.63-.25-.43.08-.85.18-1.25.31-.89.28-1.73.68-2.49,1.17-.93.61-1.76,1.36-2.45,2.22-1.93,2.4-2.85,5.66-2.25,9.02Zm1.89-.34c-.42-2.36.07-4.66,1.23-6.51.61-.98,1.41-1.84,2.35-2.5h0c.74-.52,1.57-.93,2.46-1.19.28-.08.57-.15.86-.2,1.85-.33,3.67-.02,5.25.78,2.43,1.23,4.3,3.61,4.83,6.59.3,1.68.14,3.33-.4,4.81-.71,1.97-2.08,3.63-3.88,4.65-.74.42-1.56.73-2.43.91-.06.01-.13.03-.19.04-1.14.2-2.27.16-3.34-.09-3.33-.78-6.07-3.57-6.73-7.28Z"/>
              <path class="cls-6" d="m90.27,131.7c-4.69.84-7.78,5.5-6.9,10.4.88,4.91,5.39,8.21,10.08,7.37,4.69-.84,7.78-5.49,6.9-10.4-.88-4.91-5.39-8.21-10.08-7.37Zm7.05,14.18c-.84,1.06-1.95,1.9-3.24,2.38-.42.16-.86.28-1.32.36-.22.04-.43.07-.65.09h0c-.64.06-1.28.03-1.89-.08-3.17-.54-5.84-3.12-6.46-6.6-.43-2.41.21-4.76,1.57-6.5.44-.57.97-1.08,1.55-1.5.48-.35,1.01-.64,1.57-.87.47-.19.96-.33,1.48-.42,1-.18,1.99-.15,2.93.06,3,.68,5.48,3.18,6.08,6.52.43,2.43-.22,4.8-1.61,6.55Z"/>
              <path class="cls-18" d="m92.85,132.8c-.94-.21-1.93-.24-2.93-.06-.52.09-1.01.24-1.48.42-.56.23-1.09.52-1.57.87-.59.42-1.11.93-1.55,1.5-1.36,1.75-2,4.09-1.57,6.5.62,3.48,3.29,6.06,6.46,6.6.62.1,1.25.13,1.89.08h0c.22-.02.43-.05.65-.09.46-.08.9-.2,1.32-.36,1.3-.49,2.4-1.32,3.24-2.38,1.39-1.75,2.04-4.12,1.61-6.55-.6-3.34-3.08-5.85-6.08-6.52Z"/>
              <path class="cls-3" d="m83.46,147.12c-.97-1.34-1.66-2.93-1.97-4.68h0c-.14-.82-.2-1.61-.17-2.39.02-.77.13-1.53.3-2.26.05-.22.11-.45.18-.67.26-.84.61-1.65,1.05-2.39,1.5-2.55,3.99-4.43,7.04-4.99-.76-.04-1.53.01-2.31.15-3.22.58-5.84,2.59-7.36,5.31-.42.75-.75,1.55-1,2.39-.06.22-.12.44-.17.67-.17.73-.26,1.49-.28,2.26-.02.78.04,1.58.18,2.38h0c.31,1.76.99,3.35,1.95,4.7,2.39,3.38,6.46,5.28,10.66,4.53.78-.14,1.52-.36,2.22-.66-4.04.7-7.96-1.1-10.3-4.33Z"/>
              <path class="cls-13" d="m81.48,142.42l-2.56.46h0c.31,1.76.99,3.35,1.95,4.7l2.58-.46c-.97-1.34-1.66-2.93-1.97-4.68h0Z"/>
              <path class="cls-6" d="m78.74,140.5l2.56-.46c.02-.77.13-1.53.3-2.26l-2.58.46c-.17.73-.26,1.49-.28,2.26Z"/>
              <path class="cls-13" d="m79.2,137.58l2.59-.46c.26-.84.61-1.65,1.05-2.39l-2.64.47c-.42.75-.75,1.55-1,2.39Z"/>
              <path class="cls-13" d="m93.45,149.47c-1.14.2-2.27.16-3.34-.09l.87,2.17c.92.1,1.88.07,2.83-.1.2-.04.41-.08.61-.13l-.77-1.88c-.06.01-.13.03-.19.04Z"/>
              <path class="cls-13" d="m83.73,133.42l.87,2.17c.61-.98,1.41-1.84,2.35-2.5l-.77-1.88c-.93.61-1.76,1.36-2.45,2.22Z"/>
              <path class="cls-13" d="m96.06,148.53l.75,1.87c1.72-.93,3.13-2.33,4.11-4.01l-.97-2.5c-.71,1.97-2.08,3.63-3.88,4.65Z"/>
              <path class="cls-13" d="m89.92,129.72c-.43.08-.85.18-1.25.31l.75,1.87c.28-.08.57-.15.86-.2,1.85-.33,3.67-.02,5.25.78l-.97-2.51c-1.47-.43-3.04-.53-4.63-.25Z"/>
              <path class="cls-13" d="m89.92,132.73c-.52.09-1.01.24-1.48.42l5.63,15.1c1.3-.49,2.4-1.32,3.24-2.38l-4.47-13.07c-.94-.21-1.93-.24-2.93-.06Z"/>
              <path class="cls-13" d="m85.32,135.53l4.89,13.1c.62.1,1.25.13,1.89.08l-5.23-14.68c-.59.42-1.11.93-1.55,1.5Z"/>
            </g>
            <path class="cls-6" d="m94.47,140.23c-.27-.25-.57-.45-.9-.6-.33-.15-.67-.25-1.03-.3-.36-.06-.69-.1-1.01-.13l-.77-2.33c.31-.03.61-.01.9.04.29.06.54.12.75.18.15.04.26-.03.32-.22l.26-.9c.02-.08,0-.16-.03-.24-.04-.08-.1-.13-.18-.15-.07-.02-.19-.05-.34-.09-.16-.04-.34-.07-.57-.1-.22-.03-.47-.03-.74-.03-.27,0-.55.05-.83.11l-.14-.42c-.02-.07-.06-.12-.13-.15-.06-.03-.13-.04-.19-.01l-.16.05c-.07.02-.12.06-.15.13-.03.06-.03.13-.01.19l.13.41c-.41.17-.75.38-1.02.63-.27.25-.46.51-.6.8-.13.28-.2.58-.21.89,0,.31.04.61.14.92.14.42.33.76.58,1.01.25.25.53.45.84.59.31.14.63.24.98.29.34.06.68.1,1.01.12l.82,2.48c-.29.05-.58.05-.87,0-.29-.05-.56-.12-.81-.21-.16-.07-.28-.09-.36-.06-.08.03-.13.1-.15.2l-.24.92c-.03.11-.02.19.01.23.04.04.1.09.17.13.07.03.19.08.35.14.16.06.35.11.59.15.23.04.5.05.79.05.29,0,.62-.05.97-.13l.44,1.32c.04.11.1.16.2.15.1,0,.19-.03.26-.05.07-.02.12-.06.15-.12.04-.06.04-.12.02-.19l-.44-1.32c.83-.33,1.39-.8,1.68-1.41.29-.61.33-1.26.1-1.96-.14-.42-.34-.75-.61-1Zm-4.54-1.34c-.21-.11-.36-.3-.44-.55-.08-.25-.07-.48.03-.7.1-.22.31-.41.61-.55l.68,2.07c-.37-.07-.67-.16-.88-.27Zm3.52,3.81c-.13.21-.33.38-.6.51l-.74-2.24c.4.07.71.18.93.36.22.17.37.38.46.63.09.29.08.54-.05.75Z"/>
          </g>
        </g>
        <g>
          <g>
            <g>
              <path d="m208.26,131.37c-.76-4.38-3.04-8.53-2.88-12.97.04-1.24.3-2.52,1.07-3.5l.96-2.78c-1.48-.17-4.51,1.14-5.53,3.16-.8,1.58-1.24,3.33-1.08,5.09.07.82.24,1.65.07,2.45-.34,1.63-1.89,2.68-2.76,4.09-1.12,1.83-.95,4.36.4,6.03.75.92,1.86,1.71,1.95,2.89.1,1.32-1.18,2.63-.64,3.84.42.94,1.68,1.12,2.7.95,2.97-.49,5.47-3.07,5.88-6.05.15-1.06.05-2.14-.13-3.2Z"/>
              <path class="cls-48" d="m203.88,113.52c-.27.23-.51.5-.73.78-.11.14-.21.28-.3.43-.1.15-.18.32-.29.47-.19.29-.33.62-.45.95-.12.34-.21.69-.28,1.04-.13.7-.14,1.42-.04,2.13.12.85.44,1.67.44,2.54,0,1.49-.93,2.74-1.62,3.99-.38.69-.69,1.41-.85,2.19-.16.8-.19,1.65-.04,2.46.07.37.19.74.38,1.07.2.34.47.6.78.83.58.43,1.32.77,1.68,1.44.08.15.14.33.16.5,0,.04.06.02.06,0,.06-.73-.54-1.3-1.09-1.69-.31-.22-.64-.42-.92-.68-.28-.26-.49-.56-.62-.92-.28-.74-.3-1.57-.22-2.35.09-.8.34-1.57.7-2.3.64-1.27,1.59-2.47,1.8-3.91.12-.82-.07-1.62-.26-2.41-.18-.74-.28-1.47-.22-2.23.05-.71.23-1.41.5-2.07.14-.33.28-.66.47-.97.19-.31.41-.6.64-.87.11-.13.23-.25.35-.38.02-.03-.01-.06-.04-.04h0Z"/>
              <path class="cls-48" d="m199.24,126.15c-.32.34-.59.72-.81,1.13-.22.41-.38.85-.47,1.3-.17.86-.09,1.77.29,2.56.1.22.23.42.38.61.15.18.32.36.52.49.04.03.08-.03.05-.07-.14-.15-.28-.3-.4-.47-.12-.17-.23-.34-.33-.52-.19-.37-.31-.76-.38-1.17-.14-.87.05-1.74.41-2.53.1-.23.23-.45.35-.66.13-.22.27-.43.43-.63.02-.03-.02-.06-.05-.04h0Z"/>
              <path class="cls-48" d="m202.69,123.96c-.12.3-.26.59-.4.88-.14.29-.26.59-.38.89-.23.59-.45,1.18-.59,1.8-.13.57-.2,1.17-.17,1.76.03.59.16,1.18.43,1.71.12.23.27.46.45.64.09.1.2.18.31.25.11.07.24.13.36.15.03,0,.07,0,.1,0,.03,0,.06,0,.09,0,.06,0,.07-.08.01-.1-.03,0-.06-.02-.08-.04-.02-.02-.05-.04-.08-.05-.05-.02-.11-.05-.16-.08-.11-.06-.21-.12-.29-.19-.19-.17-.33-.35-.46-.57-.27-.48-.41-1.04-.46-1.58-.05-.57,0-1.14.11-1.7.12-.6.31-1.19.53-1.76.11-.29.23-.59.34-.88.11-.29.21-.59.31-.88.03-.07.05-.14.08-.22.01-.04-.05-.05-.06-.02h0Z"/>
              <path class="cls-48" d="m203.66,126.72c-.17.5-.23,1.03-.18,1.55.05.53.2,1.04.45,1.51.07.13.16.25.24.37.09.12.19.23.31.33.02.02.06,0,.04-.03-.07-.11-.14-.22-.21-.32-.07-.11-.13-.22-.19-.33-.12-.23-.23-.45-.31-.69-.16-.48-.24-.99-.22-1.5.01-.29.05-.58.13-.86.01-.04-.05-.06-.07-.02h0Z"/>
              <path class="cls-53" d="m202.13,116.71c-.58.67-1.02,1.46-1.28,2.31-.14.46-.19.92-.18,1.39,0,.47.06.94.04,1.42-.01.48-.11.93-.33,1.35-.2.39-.45.77-.71,1.12-.54.71-1.16,1.36-1.76,2.02-.29.33-.58.66-.81,1.03-.22.34-.39.71-.53,1.1-.26.76-.32,1.57-.19,2.36.13.79.46,1.6.95,2.24.45.6,1.1,1.02,1.65,1.52.26.24.51.48.69.79.21.38.32.8.34,1.23.03.91-.31,1.79-.72,2.58-.1.2-.22.4-.33.6-.08.14.13.26.22.13.85-1.39,1.66-3.43.54-4.91-.45-.6-1.1-1.02-1.65-1.51-.26-.23-.5-.48-.69-.78-.23-.36-.42-.74-.56-1.15-.26-.76-.34-1.58-.19-2.36.15-.83.53-1.6,1.06-2.25.55-.68,1.18-1.29,1.74-1.97.28-.34.56-.7.8-1.07.24-.37.47-.77.59-1.2.25-.91,0-1.86.05-2.78.05-.92.42-1.83.91-2.59.13-.2.26-.38.41-.56.02-.03-.02-.07-.04-.04h0Z"/>
            </g>
            <g>
              <path d="m224.71,127.81c-1.05-.83-2.37-1.32-3.33-2.26-.88-.88-1.62-1.82-1.98-3.04-.33-1.12-.47-2.33-.81-3.42-.52-1.66-1.24-3.3-2.45-4.57-1.69-1.78-4.04-2.88-6.51-2.82-1.66.04-3.45.32-4.64,1.48l6.91,2.83c-1.03,3.56-1.77,10.91-.78,14.48.76,3.78,3.37,5.41,5.78,8.33,1.24,1.5,3.06,2.77,4.96,2.38.56-.11,1.12-.37,1.45-.84.75-1.08-.01-2.7.64-3.84.51-.89,1.63-1.16,2.28-1.92,1.77-2.09.34-5.32-1.52-6.79Z"/>
              <path class="cls-53" d="m218.55,120.69c.38,1.87,1.57,3.44,3.01,4.64.37.3.75.59,1.15.85.47.31.97.58,1.45.87.89.52,1.72,1.11,2.41,1.88.63.71,1.12,1.55,1.31,2.48.18.84.11,1.77-.24,2.56-.18.4-.42.77-.74,1.08-.3.29-.65.5-1,.71-.68.4-1.46.82-1.81,1.57-.22.48-.2,1.01-.22,1.53-.01.26-.04.52-.14.77-.08.2-.21.38-.36.52-.31.29-.73.47-1.15.5-.5.04-.98-.12-1.42-.36-.21-.12-.41-.26-.6-.42-.11-.1-.27.06-.17.17.7.71,1.76,1.13,2.74.81.44-.15.84-.43,1.09-.82.29-.45.3-.99.32-1.5.01-.48.06-.94.35-1.35.23-.33.57-.57.91-.78.36-.23.73-.43,1.08-.66.38-.25.71-.55.98-.91.54-.72.78-1.65.76-2.54-.01-.96-.34-1.88-.85-2.68-.53-.83-1.26-1.53-2.06-2.09-.92-.65-1.94-1.12-2.87-1.76-1.59-1.1-2.92-2.58-3.62-4.39-.09-.22-.16-.45-.22-.68-.01-.05-.09-.03-.08.02h0Z"/>
              <g>
                <path class="cls-48" d="m214.52,127.28c.76.88,1.33,1.92,1.74,3,.42,1.1.73,2.23,1.02,3.36.15.57.28,1.15.43,1.72.14.55.28,1.11.46,1.66.36,1.08.92,2.16,1.94,2.74.53.3,1.16.44,1.76.3.26-.06.51-.18.72-.35.1-.08.19-.18.27-.28.08-.1.13-.23.18-.34.05-.12.08-.24.1-.36,0-.03-.04-.04-.05-.01-.04.12-.1.24-.17.35-.07.11-.17.19-.26.27-.17.17-.4.31-.62.4-.53.2-1.12.13-1.62-.11-1.02-.48-1.61-1.51-1.98-2.53-.19-.52-.34-1.06-.48-1.6-.15-.56-.29-1.13-.43-1.69-.28-1.12-.58-2.24-1.02-3.31-.43-1.05-.95-2.06-1.66-2.95-.09-.11-.18-.22-.27-.32-.04-.05-.12.02-.07.07h0Z"/>
                <path class="cls-48" d="m214.82,126.49c.21.14.43.28.63.44.2.16.39.32.57.5.36.36.68.76.96,1.18.58.88,1.02,1.85,1.4,2.83.43,1.1.8,2.23,1.25,3.33.22.53.45,1.06.73,1.56.25.45.55.87.96,1.19.36.28.79.43,1.25.39.41-.03.84-.2,1.05-.57.02-.04.04-.08.06-.13.02-.05.03-.1.05-.14.02-.06-.07-.08-.09-.03-.01.04-.05.07-.07.1-.03.04-.06.07-.1.11-.07.07-.13.12-.22.16-.17.1-.32.16-.52.2-.05.01-.07.01-.12.02-.05,0-.1,0-.16,0-.05,0-.09,0-.14,0-.02,0-.05,0-.07,0,.03,0-.02,0-.02,0-.01,0-.03,0-.04,0-.1-.02-.19-.05-.28-.08-.04-.02.02.01-.02,0-.01,0-.02,0-.03-.01-.03-.01-.05-.02-.08-.04-.06-.03-.11-.06-.16-.1-.4-.26-.7-.66-.95-1.07-.28-.48-.52-.99-.74-1.51-.46-1.07-.83-2.18-1.26-3.26-.39-.97-.84-1.93-1.43-2.8-.55-.82-1.23-1.58-2.05-2.14-.1-.07-.21-.14-.32-.19-.05-.02-.08.04-.04.07h0Z"/>
                <path class="cls-48" d="m215.65,115.26c.58.55,1.04,1.2,1.41,1.9.38.72.64,1.5.84,2.29.22.87.35,1.76.39,2.66.03.82.05,1.65.19,2.46.14.78.42,1.51.92,2.14.47.59,1.08,1.06,1.73,1.43.34.19.69.36,1.05.52.4.18.81.36,1.19.58.69.41,1.31,1.02,1.72,1.71.38.64.55,1.35.52,2.1-.03.65-.2,1.32-.53,1.88-.07.12-.16.26-.26.35-.04.03.02.09.06.06.12-.1.23-.18.32-.3.1-.12.19-.25.26-.39.15-.31.24-.65.3-.98.06-.32.09-.65.09-.98,0-.37-.08-.75-.2-1.1-.26-.77-.76-1.46-1.37-1.99-.32-.28-.67-.52-1.05-.72-.4-.21-.81-.38-1.22-.57-.68-.31-1.36-.71-1.92-1.22-.59-.53-1.02-1.19-1.24-1.96-.23-.8-.27-1.64-.31-2.47-.05-.89-.14-1.78-.33-2.65-.18-.82-.44-1.62-.8-2.39-.34-.72-.72-1.41-1.25-2.01-.13-.15-.27-.29-.41-.43-.06-.06-.15.03-.09.09h0Z"/>
                <path class="cls-48" d="m218.09,123.23c-.02.14-.03.28-.04.42,0,.13,0,.27,0,.4,0,.27.03.55.06.82.03.27.07.54.13.81.05.26.11.53.19.78.07.22.17.43.31.62.13.19.29.37.46.54.36.35.76.66,1.18.93.43.28.88.53,1.33.79.42.24.84.48,1.23.77.38.28.74.6,1.02.97.25.33.43.69.56,1.08.27.8.35,1.66.21,2.49-.02.09-.03.18-.06.26,0,.03.03.04.04.01.03-.09.07-.18.09-.27.03-.09.04-.18.06-.28.03-.2.05-.41.05-.62,0-.44-.04-.87-.14-1.3-.09-.4-.23-.78-.43-1.14-.23-.4-.55-.75-.89-1.05-.36-.32-.76-.59-1.18-.85-.44-.27-.89-.5-1.33-.75-.44-.25-.88-.53-1.28-.85-.36-.3-.7-.63-.95-1.03-.06-.1-.12-.21-.16-.32-.04-.12-.08-.24-.11-.36-.07-.27-.13-.54-.18-.82-.05-.27-.08-.55-.11-.83-.01-.14-.02-.27-.03-.41,0-.14,0-.28-.01-.42-.01-.13-.02-.27-.02-.4,0,0-.01,0-.01,0h0Z"/>
                <path class="cls-48" d="m219.2,130.36c.08.13.15.25.22.39.07.13.12.27.19.4.12.27.23.55.33.83.19.55.38,1.11.61,1.65.21.48.46.94.79,1.35.32.4.72.74,1.19.96.11.05.23.1.35.13.12.03.25.06.37.05.23,0,.47-.08.64-.25.04-.04.07-.08.1-.13.03-.04-.03-.09-.07-.05-.16.15-.36.2-.57.2-.05,0-.11,0-.16,0-.03,0-.06,0-.09,0-.01,0,0,0,0,0,0,0-.01,0-.02,0-.02,0-.03,0-.05,0-.11-.02-.23-.05-.33-.1,0,0-.01,0-.02,0,0,0,.02,0,0,0-.01,0-.02-.01-.04-.02-.03-.01-.06-.03-.09-.04-.06-.03-.11-.06-.16-.09-.1-.06-.21-.13-.3-.2-.18-.14-.37-.32-.52-.5-.32-.38-.58-.82-.8-1.26-.25-.5-.43-1.03-.64-1.55-.11-.27-.22-.54-.34-.8-.06-.13-.11-.26-.18-.38-.07-.13-.14-.25-.22-.38-.04-.06-.08-.12-.12-.18-.03-.04-.09,0-.06.04h0Z"/>
              </g>
            </g>
          </g>
          <g>
            <g>
              <path class="cls-63" d="m226.88,194.83l-1.42.11s-1.97.14-2.32.31c-.35.17-.29.69-.29.69,0,0,.75,1.93,1.05,3.58.31,1.64.12,2.37.12,2.37,0,0,.12.64.35.72.23.07,2.22-.59,2.22-.59l3.32-2.23-3.05-4.95Z"/>
              <path class="cls-50" d="m235.47,209.6h.04s.02-.01.02-.02h.03s.01,0,.01,0h.02s0,0,.01,0h0s0,0,0,0h0s.01,0,.01,0h0s.01,0,.02,0h.01s.01,0,.01,0h0s0,0,0,0h0s0,0,0,0h0s0,0,.01,0c0,0,0,0,.01,0h.02s0,0,0,0h.01s0,0,0,0h0c.07-.02.16-.07.25-.17h0s0,0,0,0c.05-.06.77-.93.49-3.51,0-.04,0-.08-.02-.13,0,0,0,0,0-.01,0,0,0-.01,0-.02v-.06s-.01-.03-.02-.05c0-.02,0-.04-.01-.07h0s0-.03,0-.04c-.01-.08-.03-.16-.04-.25v-.03s-.01-.04-.02-.06h0c-.02-.13-.05-.26-.08-.4h0s0-.05,0-.05v-.04s-.03-.11-.03-.11v-.04s-.03-.11-.03-.11c0-.03-.01-.05-.02-.08,0-.03-.01-.05-.02-.08h0s-.01-.05-.02-.08h0c-.8-3.5-2.76-9.78-3.11-10.9,0,0,0,0,0,0,0-.02,0-.03-.01-.04,0,0,0-.02,0-.03-.02-.07-.03-.1-.03-.1,0,0,0,0,0,0,0,0-.01,0-.02-.01-.14-.06-.58-.06-1.18,0-.16.02-.33.04-.5.07-.57.09-1.23.23-1.89.42-1.53.45-4.01,1.39-4.01,1.39,2.45,3.94,1.15,7.07,1.15,7.07,0,0,3.54,1.57,5.1,4.56.02.04.04.08.06.13.02.04.04.08.06.13.04.09.08.17.12.26.02.05.04.09.06.13.02.04.03.08.05.12,0,0,0,0,0,0,.02.04.04.08.06.12.04.09.09.17.13.25.02.03.03.06.05.08.06.11.12.21.18.3.01.02.03.05.04.07,0,.01.02.03.03.04.02.03.04.06.06.08.02.03.04.05.05.07.02.02.03.04.05.07.09.12.17.22.26.32.02.02.03.04.05.05.04.04.08.08.11.11.02.02.03.03.05.05.03.03.07.06.1.09.02.01.03.03.05.04.02.02.04.03.06.04.01.01.03.02.04.03.02.01.03.02.05.04.11.08.23.15.34.21.02,0,.03.02.05.02.03.02.06.03.1.04,0,0,0,0,0,0,.03.01.06.02.09.04.18.07.35.11.52.13.02,0,.05,0,.07,0,.01,0,.03,0,.04,0,.08,0,.17.01.24.01h.02s.02,0,.02,0h0s.01,0,.01,0h.02s.02,0,.02,0h.02s.02,0,.02,0h.02s.02,0,.02,0h.02s0,0,0,0h.04s.02,0,.02,0c.01,0,.02,0,.03,0h0s.02,0,.02,0h.01s0,0,0,0h0s.02,0,.02,0h.02s.02,0,.02,0h.02s.04,0,.04,0h0s.02,0,.02,0h.03s.01,0,.01,0h.03s.01,0,.01,0h.01Z"/>
              <g>
                <path class="cls-11" d="m228.88,203.71c-.1,0-.19-.06-.23-.17-.02-.07-.5-1.66,1.1-2.93.1-.08.25-.06.33.04.08.1.06.25-.04.33-1.34,1.07-.96,2.37-.95,2.42.04.12-.03.26-.16.3-.02,0-.05.01-.07.01Z"/>
                <path class="cls-11" d="m230.15,204.96c-.1,0-.19-.06-.22-.16-.18-.51-.27-1.65.67-2.33.11-.08.25-.05.33.05.08.11.05.25-.05.33-.89.64-.52,1.74-.5,1.79.04.12-.02.26-.15.3-.03,0-.05.01-.08.01Z"/>
              </g>
              <path class="cls-64" d="m235.47,209.6h.06s0-.02,0-.02h.03s.01,0,.01,0h.02s0,0,0,0h.01s0,0,0,0h0s.01,0,.01,0h.02s0,0,0,0h.01s.01,0,.01,0h0s0,0,0,0h0s0,0,0,0h0s0,0,0,0h0s0,0,0,0h0s.02,0,.02,0h0s.01,0,.01,0h0s0,0,0,0c.07-.02.16-.07.25-.17h0s0,0,0,0c.05-.06.77-.93.49-3.51,0-.04,0-.08-.02-.13h0s0-.01,0-.01c0,0,0-.01,0-.02v-.06s-.03-.12-.03-.12c0-.01,0-.02,0-.04,0-.01,0-.02,0-.03h0s0,0,0,0v-.02s-.01-.06-.01-.06v-.03s-.01-.03-.01-.03v-.03s-.01-.03-.01-.03v-.03s-.01-.03-.01-.03v-.03s0,0,0,0h0s0-.03,0-.03h0s-.01-.07-.01-.07v-.03s-.01-.03-.01-.03v-.02s0-.02,0-.02v-.03s-.01-.03-.01-.03v-.03s-.01-.03-.01-.03v-.04s-.01-.04-.01-.04v-.04s-.01-.04-.01-.04l-.02-.11v-.04s-.03-.11-.03-.11h0s-.02-.08-.02-.08v-.04s-.02-.05-.02-.05v-.03s-.02-.05-.02-.05l-.02-.07v-.04s-.03-.08-.03-.08v-.04s-.02-.04-.02-.04v-.04s-.02-.04-.02-.04h0s0-.04,0-.04v-.04s-.02-.04-.02-.04c-.81-3.29-2.66-9.32-2.99-10.42,0,0,0,0,0,0,0-.02,0-.03-.01-.04,0,0,0-.02,0-.03-.02-.07-.03-.1-.03-.1,0,0,0,0,0,0,0,0-.01,0-.02-.01-.14-.06-.58-.06-1.18,0-.16.02-.33.04-.5.07,1.42,2.44,2.89,8.12,3.55,10.77-.49.14-.99.34-1.45.63-.99.62-1.49,1.46-1.75,2.04.02.04.04.08.06.13.02.04.04.08.06.13.04.09.08.17.12.26.02.05.04.09.06.13.02.04.03.08.05.12,0,0,0,0,0,0,.02.04.04.08.06.12.04.09.09.17.13.25.02.03.03.06.05.08.06.11.12.21.18.3.01.02.03.05.04.07,0,.01.02.03.03.04.02.03.04.06.06.08.02.03.04.05.05.07.02.02.03.04.05.07.09.12.17.22.26.32.02.02.03.04.05.05.04.04.08.08.11.11.02.02.03.03.05.05.03.03.07.06.1.09.02.01.03.03.05.04.02.02.04.03.06.04.01.01.03.02.04.03.02.01.03.02.05.04.11.08.23.15.34.21.02,0,.03.02.05.02.03.02.06.03.1.04,0,0,0,0,0,0,.03.01.06.02.09.04.18.07.35.11.52.13.02,0,.05,0,.07,0,.01,0,.03,0,.04,0,.08,0,.17.01.24.01h.02s.02,0,.02,0h0s.01,0,.01,0h.02s.02,0,.02,0h.02s.02,0,.02,0h.02s.02,0,.02,0h.02s0,0,0,0h.04s.02,0,.02,0h.02s.02,0,.02,0h0s.02,0,.02,0h.01s0,0,0,0h0s0,0,0,0h.02s.02,0,.02,0h.02s.02,0,.02,0h.04s0,0,0,0h.02s.03,0,.03,0h.01s.03,0,.03,0h.01s.01,0,.01,0Z"/>
            </g>
            <g>
              <g>
                <path class="cls-19" d="m173.36,145.85l1.53,5.76,6.32,4.93s3.28,2.42,5.95,1.93c.67-.12,1.48-.49,2.33-.97,2.55-1.45,5.39-3.95,5.39-3.95,0,0,0-6.11-5.46-7.3l-4.92,3.08-11.14-3.47Z"/>
                <path class="cls-5" d="m184.49,149.32l4.99,8.18c2.55-1.45,5.39-3.95,5.39-3.95,0,0,0-6.11-5.46-7.3l-4.92,3.08Z"/>
                <g>
                  <path class="cls-38" d="m180.96,178.44c.22,1.17.77,2.25,1.54,3.15l9.17,10.69s-6.65,7.22-2.54,14.36c4.1,7.14,24.04.57,28.8-.67,4.72-1.23,7.31-2.12,7.31-2.12,0,0-.13-5.39-2.21-8.93l-5.83.48s9.11-7.96,9.03-16.33l-.74-7.1s0,0,0,0c-8.87,7.86-25.03.13-25.03.13l-12.48-1.56c-1.61-.2-3.26.13-4.61,1.03-1.63,1.08-3.12,3.11-2.4,6.88Z"/>
                  <path class="cls-44" d="m202.86,204.01c-.06,0-.11-.03-.14-.08-.05-.08-.02-.18.06-.22l14.33-8.45c.08-.05.18-.02.22.06.05.08.02.18-.06.22l-14.33,8.45s-.05.02-.08.02Z"/>
                  <path class="cls-44" d="m191.67,192.44s-.09-.02-.12-.06c-.06-.07-.05-.17.01-.23l8.94-7.96c.07-.06.17-.05.23.01.06.07.05.17-.01.23l-8.94,7.96s-.07.04-.11.04Z"/>
                  <path class="cls-44" d="m206.64,186.51s-.04,0-.06-.01l-8-3.06c-.08-.03-.13-.13-.09-.21.03-.08.13-.13.21-.09l8,3.06c.08.03.13.13.09.21-.03.07-.09.11-.15.11Z"/>
                </g>
                <g>
                  <path class="cls-26" d="m193.13,156.29c-1.16,3.35-2.3,17.95-2.3,17.95l8.87,3.47s-.16-23.24.25-26.8c.41-3.56,4-11.4,4-11.4h8.62s-2.29,5.99-3.46,9.34c-.71,2.04.52,12.33,1.6,20.09,0,.07.02.15.03.22.68,4.9,1.29,8.73,1.29,8.73l14.83-3.72-3.19-15.36-.53-2.57s.57-1.71,1.32-4.08c1.37-4.3,3.34-10.76,3.6-13.1.41-3.63-3.08-4.59-3.08-4.59l-6.46-2.93c-.45-1.36-2.09-4.14-7.87-3.3-2.29.33-3.83,1.78-4.8,3.15-1.66.48-4.43,1.26-6.12,1.59-2.53.49-3.84,3.55-3.84,3.55l-11.25,11.39,8.48,8.36Z"/>
                  <path class="cls-19" d="m207.23,130.99l-.99-4.59,5.92-2.74,2.69,5.68c.21.44.25.95.12,1.42l-2.4,8.75h-8.62l3.29-8.52Z"/>
                  <path class="cls-5" d="m211.29,126.42l-5.05-.02.99,4.59s4.26-.31,4.06-4.57Z"/>
                  <path class="cls-29" d="m199.33,174.17s2.44,1.69,5.89,1.85c4.31.2,6.39-.82,6.39-.82,0,0-3.66-23.01-2.5-26.36,1.16-3.35,3.46-9.34,3.46-9.34h-8.62s-3.59,7.84-4,11.39c-.3,2.58-.49,13.67-.57,19.56-.03,2.23-.05,3.71-.05,3.71Z"/>
                  <path class="cls-29" d="m199.33,174.17s2.44,1.69,5.89,1.85c4.31.2,6.39-.82,6.39-.82,0,0-3.66-23.01-2.5-26.36,1.16-3.35,3.46-9.34,3.46-9.34h-8.62s4.73,1.68,4.33,3.73c-.39,2.05-3.55,4.73-2.68,8.99.87,4.26,1.26,17.35-.39,18.92-.79.76-3.37.15-5.83-.68-.03,2.23-.05,3.71-.05,3.71Z"/>
                  <path class="cls-31" d="m209.07,154.06l1.65,14.88.02.22s0,0,0,0c.22-.03,6.83-1.09,9.61-4.14,1.39-1.53,2.53-4.05,3.33-6.21l-.53-2.57s.57-1.71,1.32-4.08l-2.5-13.51-7.19,4.83-5.71,10.58Z"/>
                  <polygon class="cls-22" points="213.58 169.76 223.3 168.03 224.19 170.26 220.79 172.26 214.03 172.29 213.58 169.76"/>
                  <path class="cls-5" d="m203.95,139.51h8.62l1.59-5.5s-1.92,3.9-4.53,4.16c-2.6.26-4.21.26-4.11-2.76l-1.57,4.1Z"/>
                </g>
                <path class="cls-31" d="m198.3,140.76s-3.14,4.3-4.18,6.44c-1.05,2.15-.99,9.08-.99,9.08l-4.99-4.96,10.16-10.57Z"/>
                <g>
                  <g>
                    <g>
                      <g>
                        <path class="cls-19" d="m205.24,113.96s-5.94,11.91-1,14.93c3.31,2.02,9.01-3.03,9.01-3.03l-.87-2.72c.3-.48,5.48-9.7-7.15-9.18Z"/>
                        <path d="m205.24,113.79c-.11.29-.2.57-.27.84-.04.08-.06.17-.08.26-.05.18-.09.37-.12.55-.06.36-.09.73-.09,1.1,0,.38.03.76.1,1.13.07.35.15.73.31,1.05.02.04.08.03.07-.02-.03-.18-.09-.35-.12-.52-.04-.18-.07-.35-.1-.53-.03-.21-.05-.42-.06-.63.9,4.43,7.71,6.67,7.71,6.67,0,0,.14-1.46.93-2,.83-.57,2.3-8.96-8.29-7.9Z"/>
                      </g>
                      <path d="m204.68,116.87s-1.46,2.4-1.8,3.46c-.33,1.03-.47-2.06.23-3.61.7-1.55,1.57-2.49,2.03-2.49s-.45,2.64-.45,2.64Z"/>
                      <g>
                        <g>
                          <path class="cls-5" d="m204.65,125.8s-.01,0-.02,0c-.02,0-.4-.07-1.08-.42-.16-.08-.25-.19-.27-.34-.06-.39.44-.87.84-1.26.13-.13.24-.24.3-.31.25-.33.26-.88.26-.89,0-.06.05-.11.11-.11h0c.06,0,.11.05.11.11,0,.03,0,.64-.31,1.02-.07.09-.19.2-.32.33-.32.31-.81.79-.77,1.07,0,.03.02.1.15.17.65.33,1.01.4,1.02.4.06.01.1.07.09.13,0,.05-.06.09-.11.09Z"/>
                          <path class="cls-52" d="m206.29,123.1c-.03.18.05.34.19.36.14.02.27-.1.31-.27.03-.18-.05-.34-.19-.36s-.27.1-.31.27Z"/>
                          <path class="cls-52" d="m203.77,122.86c0,.18.1.33.24.33.14,0,.26-.14.26-.31,0-.18-.1-.33-.24-.33-.14,0-.26.14-.26.31Z"/>
                          <path class="cls-52" d="m207.26,122.21c-.05,0-.11-.02-.15-.06-.02-.02-.45-.39-.96-.17-.11.05-.24,0-.29-.12-.05-.11,0-.24.12-.29.78-.33,1.41.23,1.43.26.09.08.1.22.01.31-.04.05-.1.07-.16.07Z"/>
                          <path class="cls-52" d="m204.62,122.01c-.05,0-.1-.02-.14-.05-.04-.04-.42-.33-.83,0-.1.08-.24.06-.31-.04-.08-.1-.06-.24.04-.31.57-.44,1.16-.18,1.39.02.09.08.1.22.02.31-.04.05-.11.08-.17.08Z"/>
                        </g>
                        <path class="cls-5" d="m206.67,124.51c0,.33.58.6,1.3.6.72,0,1.3-.26,1.3-.59,0-.33-.58-.6-1.3-.6-.72,0-1.3.26-1.3.59Z"/>
                      </g>
                    </g>
                    <g>
                      <path class="cls-42" d="m204.53,126.46s.15.6.54.96c.15.13.32.24.54.26.44.06.61-.3.66-.64.05-.28.02-.55.02-.55,0,0-.81.3-1.77-.03Z"/>
                      <path class="cls-14" d="m205.07,127.42c.15.13.32.24.54.26.44.06.61-.3.66-.64-.45-.14-.99-.02-1.2.38Z"/>
                    </g>
                  </g>
                  <g>
                    <path class="cls-19" d="m214.76,125.22c-.72.86-1.87,1.07-2.57.49-.7-.59-.68-1.76.04-2.62.72-.86,1.87-1.07,2.57-.49.7.59.68,1.76-.04,2.62Z"/>
                    <path class="cls-5" d="m212.7,124.75s-.06-.01-.08-.03c-.04-.04-.05-.11,0-.16l1.51-1.57s.11-.05.16,0c.04.04.05.11,0,.16l-1.51,1.57s-.05.03-.08.03Z"/>
                    <path class="cls-5" d="m214.21,124.46s-.04,0-.06-.02l-.75-.5c-.05-.03-.07-.1-.03-.15.03-.05.1-.07.15-.03l.75.5c.05.03.07.1.03.15-.02.03-.06.05-.09.05Z"/>
                  </g>
                  <path class="cls-35" d="m205.69,115.04s1.27,4.38,5.06,5.28c0,0-1.22-.78-1.89-3.29,0,0,2.86,1.94,5.98,1.19,0,0-6.11-1-7.61-4.6,0,0,.02,1.79.43,3.21,0,0-1.26-.87-1.97-1.8Z"/>
                </g>
              </g>
              <g>
                <g>
                  <g>
                    <path class="cls-29" d="m159.08,144.54l35.31,31.05c1.74,1.53,4.38,1.36,5.91-.37,1.39-1.58,1.38-3.91.06-5.47-.13-.16-.28-.3-.43-.44l-35.31-31.05-3.14,3.57-2.37,2.69-.02.02Z"/>
                    <path class="cls-25" d="m159.1,144.52l35.28,31.07c1.74,1.53,4.38,1.36,5.91-.37,1.39-1.58,1.38-3.91.06-5.47-2.39,3.45-5.63,1.36-5.63,1.36l-33.25-29.28-2.37,2.69Z"/>
                  </g>
                  <g>
                    <path class="cls-31" d="m127.13,146.92c10.68,9.16,26.77,7.92,35.92-2.77,9.16-10.68,7.92-26.77-2.77-35.92-10.68-9.16-26.77-7.92-35.92,2.77-9.16,10.68-7.92,26.77,2.77,35.92Zm-.36-33.86c8-9.34,22.11-10.42,31.45-2.42,9.34,8,10.42,22.11,2.42,31.45-8,9.34-22.11,10.42-31.45,2.42-9.34-8-10.42-22.11-2.42-31.45Z"/>
                    <path class="cls-26" d="m128.3,145.76c10.68,9.16,26.77,7.92,35.92-2.77,9.16-10.68,7.92-26.77-2.77-35.92-10.68-9.16-26.77-7.92-35.92,2.77-9.16,10.68-7.92,26.77,2.77,35.92Zm-.36-33.86c8-9.34,22.11-10.42,31.45-2.42,9.34,8,10.42,22.11,2.42,31.45-8,9.34-22.11,10.42-31.45,2.42-9.34-8-10.42-22.11-2.42-31.45Z"/>
                    <g class="cls-62">
                      <circle class="cls-11" cx="144.88" cy="126.41" r="22.3" transform="translate(-35.27 193.61) rotate(-61.56)"/>
                    </g>
                    <g class="cls-58">
                      <path class="cls-47" d="m132.63,121.83c.09-.1.16-.22.22-.35.5-1.14,1.16-2.21,1.98-3.16.5-.58.43-1.46-.15-1.96-.58-.5-1.46-.43-1.96.15-1,1.16-1.81,2.46-2.42,3.86-.3.7.02,1.52.72,1.82.57.25,1.22.08,1.6-.37Z"/>
                    </g>
                    <g class="cls-58">
                      <path class="cls-47" d="m136.34,137.96c.5-.58.43-1.46-.15-1.96-3.32-2.85-4.93-7.3-4.2-11.63.13-.76-.38-1.47-1.14-1.6-.5-.08-.98.11-1.28.47-.16.18-.27.41-.31.67-.89,5.28,1.07,10.72,5.13,14.2.58.5,1.46.43,1.96-.15Z"/>
                    </g>
                  </g>
                  <path class="cls-31" d="m128.63,111.27c8.19-7.6,20.99-8.02,29.67-.58,9.34,8,10.42,22.11,2.42,31.45-.2.23-.4.45-.6.67.62-.57,1.21-1.19,1.77-1.84,8-9.34,6.92-23.44-2.42-31.45-9.11-7.8-22.75-6.96-30.84,1.74Z"/>
                </g>
                <g>
                  <g>
                    <path class="cls-19" d="m167.64,143.46c-.17-.16-.5-.26-.72-.2-.22.07-.41.23-.57.39-1.17,1.18-1.85,2.82-1.86,4.48,0,.71.18,1.53.81,1.85l.72-.41c.22-.29.89-.77.98-1.12.38-1.49-.16-1.43.79-4,.09-.25.2-.68-.15-1Z"/>
                    <path class="cls-19" d="m167.47,145.57c.2-.35.43-.69.72-.94.29-.24.64-.38.95-.28.5.16.74.87.68,1.54-.06.66-.35,1.29-.62,1.89-.59,1.28-1.19,2.55-1.78,3.83l-.34-.25c-.25.24-.6.11-.76-.17-.16-.29-.18-.67-.16-1.04.06-1.6.55-3.21,1.34-4.57Z"/>
                    <path class="cls-19" d="m168.32,149.4c.41-.9,1.09-1.65,1.78-2.37.24-.25.49-.51.82-.62.33-.11.76-.03.92.27.16.29.01.64-.13.94-.89,1.85-1.92,3.63-3.07,5.34l-1.05-1.07c-.48-.87.31-1.6.72-2.49Z"/>
                    <path class="cls-19" d="m169.29,151.23c.41-.9,1.09-1.65,1.78-2.37.24-.25.49-.51.82-.62.33-.11.76-.03.92.27.16.29.01.64-.13.94-.89,1.85-1.92,3.63-3.07,5.34l-1.05-1.07c-.48-.87.31-1.6.72-2.49Z"/>
                  </g>
                  <path class="cls-19" d="m169.62,154.8s-.3,1-1.56.25c-1.26-.75-3.88-5.24-3.57-6.76.31-1.52,2.06.49,2.73,1.34.67.85,2.41,5.17,2.41,5.17Z"/>
                </g>
                <g>
                  <path class="cls-19" d="m193.36,161.78c.38,1.68-.03,3.31.42,5.39,3.76-.05,16.02.65,17.91.44,4.1-.45,7-3.76,7-3.76l2.14-3.9,3.93-7.15c-3.72-1.81-10.78-2.52-10.78-2.52l-3.08,6.11-.95,1.89s-12.24,1.79-16.59,3.5Z"/>
                  <path class="cls-5" d="m210.91,156.39c2.43.89,7.26,2.61,9.93,3.56l3.93-7.15c-3.72-1.81-10.78-2.52-10.78-2.52l-3.08,6.11Z"/>
                  <g>
                    <path class="cls-19" d="m193.36,161.78l-.75-.17-4.7-1.38-2.56-.73c-.21-.06-.44-.06-.66,0l-1.98.52s.07.93,1.12,1.02l1.24.07,1.41.68v.29s-5.65,3.64-5.82,4.27c-.17.63.39.88.6.89.21,0,.48-.16.48-.16,0,0,.02.85,1.17,1.04,0,0-.28,1.18,1.09,1.08,0,0,.64.52,1.4.43.77-.09,4.56-1.28,4.94-1.45.38-.17,5.69-1.64,5.69-1.64l-2.69-4.74Z"/>
                    <path class="cls-5" d="m181.62,167.14c.02.05.81-.18,1.71-.66.89-.48,1.57-.94,1.55-.99-.03-.06-.76.33-1.64.8-.89.47-1.64.79-1.62.84Z"/>
                    <path class="cls-5" d="m182.92,168.1s.18-.02.45-.1c.27-.08.64-.19,1.04-.34.41-.15.75-.35.99-.47.25-.13.4-.19.4-.22,0-.03-.19-.01-.46.09-.27.09-.62.26-1.01.41-.4.15-.76.28-1.02.4-.26.12-.41.21-.39.24Z"/>
                    <path class="cls-5" d="m183.88,169.21c.02.05.79-.17,1.73-.51.47-.17.88-.32,1.19-.33.31-.02.5.07.51.04.01-.02-.16-.16-.51-.19-.35-.03-.8.1-1.27.28-.94.34-1.68.65-1.66.71Z"/>
                  </g>
                  <path class="cls-26" d="m225.62,134.73s4.41,1.54,4.01,6.26c-.41,4.72-3.67,16.66-3.67,16.66l-14.45-4.19,3.9-11.3,10.21-7.43Z"/>
                </g>
              </g>
            </g>
          </g>
        </g>
      </g>
    </g>
  </g>
</svg>